<svg id="Layer_4" data-name="Layer 4" xmlns="http://www.w3.org/2000/svg" viewBox="0 0 1190.16 998.8">
  <defs>
    <style>
      .cls-1 {
        fill: #c69c6d;
      }

      .cls-17, .cls-2, .cls-6, .cls-7, .cls-8 {
        opacity: 0.6;
      }

      .cls-10, .cls-12, .cls-13, .cls-15, .cls-17, .cls-3, .cls-4, .cls-5, .cls-8 {
        fill: none;
        stroke: #000;
      }

      .cls-10, .cls-12, .cls-13, .cls-17, .cls-3, .cls-5, .cls-8 {
        stroke-miterlimit: 10;
      }

      .cls-3, .cls-4, .cls-5, .cls-8 {
        stroke-width: 3px;
      }

      .cls-13, .cls-4, .cls-5 {
        stroke-linecap: round;
      }

      .cls-4 {
        stroke-linejoin: round;
      }

      .cls-6 {
        font-size: 55px;
      }

      .cls-18, .cls-6, .cls-7 {
        font-family: ReggaeOne-Regular, Reggae One;
      }

      .cls-7 {
        font-size: 60px;
      }

      .cls-9 {
        opacity: 0.8;
      }

      .cls-10, .cls-12, .cls-13, .cls-15 {
        stroke-width: 4.35px;
      }

      .cls-10, .cls-11 {
        opacity: 0.7;
      }

      .cls-14 {
        fill: #999;
      }

      .cls-15 {
        stroke-linejoin: bevel;
      }

      .cls-16 {
        fill: #666;
      }

      .cls-17 {
        stroke-width: 2.79px;
      }

      .cls-18 {
        font-size: 40px;
        opacity: 0.6;
      }
    </style>
  </defs>
  <path class="cls-1" d="M1320.66,407.55l-18.41-2.14,18.41-2.15v-4.14l-13.5-1.49,13.5-1.48V383.84H949v8.9l17,2.43-17,2.43v3.59l13,1.75-13,1.76v462h371.65V849.67l-13.29-1.8,13.29-1.8Zm-.16,445.64v4.91l-17.11-2.45Z" transform="translate(-130.99 -383.84)"/>
  <path class="cls-1" d="M485.79,739.72l16.85-2.42v-3.61l-12.87-1.75,12.87-1.74V386.68H131V409l12,1.62-12,1.62v3.86l15.94,2.29L131,420.72V787.17l12.08,1.63L131,790.43v3.84l16.07,2.3L131,798.88v70.69H502.64V742.14Zm16.58-340.88v3.6l-13.31-1.8Zm-.18,7.12v4.91l-17.11-2.45Z" transform="translate(-130.99 -383.84)"/>
  <path class="cls-1" d="M1267.3,1247.72l53.85-2.42v-3.61l-41.12-1.75,41.12-1.74V894.68H133.66V917l38.2,1.62-38.2,1.62v3.86l50.93,2.29-50.93,2.29v366.45l38.6,1.63-38.6,1.63v3.84l51.33,2.3-51.33,2.31v70.69H1321.15V1250.14Zm53-340.88v3.6l-42.53-1.8Zm-.58,7.12v4.91L1265,916.42Z" transform="translate(-130.99 -383.84)"/>
  <polygon class="cls-1" points="774.09 1.42 402.44 1.42 402.44 441.51 422.97 443.23 402.44 444.96 402.44 448.61 429.39 451.01 402.44 453.41 402.44 484.31 774.09 484.31 774.09 303.22 745.14 300.77 774.09 298.33 774.09 294.77 751.9 293 774.09 291.23 774.09 23.48 757.14 21.05 774.09 18.62 774.09 15.03 761.12 13.28 774.09 11.52 774.09 1.42"/>
  <g class="cls-2">
    <g>
      <circle class="cls-3" cx="254.51" cy="281.55" r="6.14"/>
      <path class="cls-3" d="M381.82,669.82s-12,10.6-11,15.17c1.2,5.41,19.37,10.76,19.37,10.76s-12.6-7.18-13.24-11.52c-.53-3.64,6.33-10,9.91-10.92,3.95-1,14,1.6,15.37,5.46,1.37,4-6.58,15.69-6.58,15.69s12.64-11.93,11.59-17c-1-4.55-15.77-9.86-15.77-9.86l-9.68,2.17" transform="translate(-130.99 -383.84)"/>
    </g>
    <g>
      <circle class="cls-3" cx="120.94" cy="279.98" r="6.14"/>
      <path class="cls-3" d="M255.62,668.25s12,10.6,11,15.17c-1.2,5.41-19.37,10.76-19.37,10.76s12.6-7.18,13.23-11.52c.54-3.65-6.33-10-9.9-10.92-4-1-14.05,1.6-15.37,5.46-1.37,4,6.57,15.69,6.57,15.69S229.12,681,230.17,675.94c1-4.55,15.77-9.86,15.77-9.86l9.68,2.17" transform="translate(-130.99 -383.84)"/>
    </g>
    <g>
      <path class="cls-3" d="M379.85,630.54l-15.11-50.86c-2,.75-4,1.5-6,2.15l15.09,50.82A62.05,62.05,0,0,1,379.85,630.54Z" transform="translate(-130.99 -383.84)"/>
      <line class="cls-4" x1="228.09" y1="199.29" x2="234.23" y2="197.47"/>
      <line class="cls-4" x1="228.49" y1="200.62" x2="234.62" y2="198.8"/>
      <line class="cls-4" x1="228.88" y1="201.96" x2="235.02" y2="200.13"/>
      <line class="cls-4" x1="229.28" y1="203.29" x2="235.41" y2="201.46"/>
      <line class="cls-4" x1="229.67" y1="204.62" x2="235.81" y2="202.79"/>
      <line class="cls-4" x1="230.07" y1="205.95" x2="236.2" y2="204.13"/>
      <line class="cls-4" x1="230.46" y1="207.28" x2="236.6" y2="205.46"/>
      <line class="cls-4" x1="230.86" y1="208.61" x2="236.99" y2="206.79"/>
      <line class="cls-4" x1="231.25" y1="209.94" x2="237.39" y2="208.12"/>
      <line class="cls-4" x1="231.65" y1="211.27" x2="237.78" y2="209.45"/>
      <line class="cls-4" x1="232.04" y1="212.6" x2="238.18" y2="210.78"/>
      <line class="cls-4" x1="232.44" y1="213.93" x2="238.57" y2="212.11"/>
      <line class="cls-4" x1="232.83" y1="215.26" x2="238.97" y2="213.44"/>
      <line class="cls-4" x1="233.23" y1="216.59" x2="239.36" y2="214.77"/>
      <line class="cls-4" x1="233.62" y1="217.92" x2="239.76" y2="216.1"/>
      <line class="cls-4" x1="234.02" y1="219.25" x2="240.15" y2="217.43"/>
      <line class="cls-4" x1="234.41" y1="220.58" x2="240.55" y2="218.76"/>
      <line class="cls-4" x1="234.81" y1="221.91" x2="240.94" y2="220.09"/>
      <line class="cls-4" x1="235.2" y1="223.24" x2="241.34" y2="221.42"/>
      <line class="cls-4" x1="235.6" y1="224.57" x2="241.73" y2="222.75"/>
      <line class="cls-4" x1="235.99" y1="225.9" x2="242.13" y2="224.08"/>
      <line class="cls-4" x1="236.39" y1="227.24" x2="242.52" y2="225.41"/>
      <line class="cls-4" x1="236.78" y1="228.57" x2="242.92" y2="226.74"/>
      <line class="cls-4" x1="237.18" y1="229.9" x2="243.31" y2="228.07"/>
      <line class="cls-4" x1="237.58" y1="231.23" x2="243.71" y2="229.4"/>
      <line class="cls-4" x1="237.97" y1="232.56" x2="244.1" y2="230.74"/>
      <line class="cls-4" x1="238.37" y1="233.89" x2="244.5" y2="232.07"/>
      <line class="cls-4" x1="238.76" y1="235.22" x2="244.9" y2="233.4"/>
      <line class="cls-4" x1="239.16" y1="236.55" x2="245.29" y2="234.73"/>
      <line class="cls-4" x1="239.55" y1="237.88" x2="245.69" y2="236.06"/>
      <line class="cls-4" x1="239.95" y1="239.21" x2="246.08" y2="237.39"/>
      <line class="cls-4" x1="240.34" y1="240.54" x2="246.48" y2="238.72"/>
      <line class="cls-4" x1="240.74" y1="241.87" x2="246.87" y2="240.05"/>
      <line class="cls-4" x1="241.13" y1="243.2" x2="247.27" y2="241.38"/>
      <line class="cls-4" x1="241.53" y1="244.53" x2="247.66" y2="242.71"/>
      <line class="cls-4" x1="241.92" y1="245.86" x2="248.06" y2="244.04"/>
      <line class="cls-4" x1="242.32" y1="247.19" x2="248.45" y2="245.37"/>
    </g>
    <g>
      <g>
        <path class="cls-3" d="M322.18,643.2V590.13c-3.19.15-6.38.3-9.57.35v53C315.79,643.26,319,643.2,322.18,643.2Z" transform="translate(-130.99 -383.84)"/>
        <line class="cls-4" x1="181.62" y1="208" x2="191.18" y2="208"/>
        <line class="cls-4" x1="181.62" y1="209.38" x2="191.18" y2="209.38"/>
        <line class="cls-4" x1="181.62" y1="210.77" x2="191.18" y2="210.77"/>
        <line class="cls-4" x1="181.62" y1="212.16" x2="191.18" y2="212.16"/>
        <line class="cls-4" x1="181.62" y1="213.55" x2="191.18" y2="213.55"/>
        <line class="cls-4" x1="181.62" y1="214.94" x2="191.18" y2="214.94"/>
        <line class="cls-4" x1="181.62" y1="216.32" x2="191.18" y2="216.32"/>
        <line class="cls-4" x1="181.62" y1="217.71" x2="191.18" y2="217.71"/>
        <line class="cls-4" x1="181.62" y1="219.1" x2="191.18" y2="219.1"/>
        <line class="cls-4" x1="181.62" y1="220.49" x2="191.18" y2="220.49"/>
        <line class="cls-4" x1="181.62" y1="221.88" x2="191.18" y2="221.88"/>
        <line class="cls-4" x1="181.62" y1="223.26" x2="191.18" y2="223.26"/>
        <line class="cls-4" x1="181.62" y1="224.65" x2="191.18" y2="224.65"/>
        <line class="cls-4" x1="181.62" y1="226.04" x2="191.18" y2="226.04"/>
        <line class="cls-4" x1="181.62" y1="227.43" x2="191.18" y2="227.43"/>
        <line class="cls-4" x1="181.62" y1="228.82" x2="191.18" y2="228.82"/>
        <line class="cls-4" x1="181.62" y1="230.2" x2="191.18" y2="230.2"/>
        <line class="cls-4" x1="181.62" y1="231.59" x2="191.18" y2="231.59"/>
        <line class="cls-4" x1="181.62" y1="232.98" x2="191.18" y2="232.98"/>
        <line class="cls-4" x1="181.62" y1="234.37" x2="191.18" y2="234.37"/>
        <line class="cls-4" x1="181.62" y1="235.76" x2="191.18" y2="235.76"/>
        <line class="cls-4" x1="181.62" y1="237.14" x2="191.18" y2="237.14"/>
        <line class="cls-4" x1="181.62" y1="238.53" x2="191.18" y2="238.53"/>
        <line class="cls-4" x1="181.62" y1="239.92" x2="191.18" y2="239.92"/>
        <line class="cls-4" x1="181.62" y1="241.31" x2="191.18" y2="241.31"/>
        <line class="cls-4" x1="181.62" y1="242.69" x2="191.18" y2="242.69"/>
        <line class="cls-4" x1="181.62" y1="244.08" x2="191.18" y2="244.08"/>
        <line class="cls-4" x1="181.62" y1="245.47" x2="191.18" y2="245.47"/>
        <line class="cls-4" x1="181.62" y1="246.86" x2="191.18" y2="246.86"/>
        <line class="cls-4" x1="181.62" y1="248.25" x2="191.18" y2="248.25"/>
        <line class="cls-4" x1="181.62" y1="249.63" x2="191.18" y2="249.63"/>
        <line class="cls-4" x1="181.62" y1="251.02" x2="191.18" y2="251.02"/>
        <line class="cls-4" x1="181.62" y1="252.41" x2="191.18" y2="252.41"/>
        <line class="cls-4" x1="181.62" y1="253.8" x2="191.18" y2="253.8"/>
        <line class="cls-4" x1="181.62" y1="255.19" x2="191.18" y2="255.19"/>
        <line class="cls-4" x1="181.62" y1="256.57" x2="191.18" y2="256.57"/>
        <line class="cls-4" x1="181.62" y1="257.96" x2="191.18" y2="257.96"/>
      </g>
      <g>
        <path class="cls-3" d="M322.18,591.7V538.64c-3.19.15-6.38.3-9.57.34v53C315.79,591.77,319,591.71,322.18,591.7Z" transform="translate(-130.99 -383.84)"/>
        <line class="cls-4" x1="181.62" y1="156.5" x2="191.18" y2="156.5"/>
        <line class="cls-4" x1="181.62" y1="157.89" x2="191.18" y2="157.89"/>
        <line class="cls-4" x1="181.62" y1="159.28" x2="191.18" y2="159.28"/>
        <line class="cls-4" x1="181.62" y1="160.67" x2="191.18" y2="160.67"/>
        <line class="cls-4" x1="181.62" y1="162.06" x2="191.18" y2="162.06"/>
        <line class="cls-4" x1="181.62" y1="163.44" x2="191.18" y2="163.44"/>
        <line class="cls-4" x1="181.62" y1="164.83" x2="191.18" y2="164.83"/>
        <line class="cls-4" x1="181.62" y1="166.22" x2="191.18" y2="166.22"/>
        <line class="cls-4" x1="181.62" y1="167.61" x2="191.18" y2="167.61"/>
        <line class="cls-4" x1="181.62" y1="169" x2="191.18" y2="169"/>
        <line class="cls-4" x1="181.62" y1="170.38" x2="191.18" y2="170.38"/>
        <line class="cls-4" x1="181.62" y1="171.77" x2="191.18" y2="171.77"/>
        <line class="cls-4" x1="181.62" y1="173.16" x2="191.18" y2="173.16"/>
        <line class="cls-4" x1="181.62" y1="174.55" x2="191.18" y2="174.55"/>
        <line class="cls-4" x1="181.62" y1="175.94" x2="191.18" y2="175.94"/>
        <line class="cls-4" x1="181.62" y1="177.32" x2="191.18" y2="177.32"/>
        <line class="cls-4" x1="181.62" y1="178.71" x2="191.18" y2="178.71"/>
        <line class="cls-4" x1="181.62" y1="180.1" x2="191.18" y2="180.1"/>
        <line class="cls-4" x1="181.62" y1="181.49" x2="191.18" y2="181.49"/>
        <line class="cls-4" x1="181.62" y1="182.88" x2="191.18" y2="182.88"/>
        <line class="cls-4" x1="181.62" y1="184.26" x2="191.18" y2="184.26"/>
        <line class="cls-4" x1="181.62" y1="185.65" x2="191.18" y2="185.65"/>
        <line class="cls-4" x1="181.62" y1="187.04" x2="191.18" y2="187.04"/>
        <line class="cls-4" x1="181.62" y1="188.43" x2="191.18" y2="188.43"/>
        <line class="cls-4" x1="181.62" y1="189.82" x2="191.18" y2="189.82"/>
        <line class="cls-4" x1="181.62" y1="191.2" x2="191.18" y2="191.2"/>
        <line class="cls-4" x1="181.62" y1="192.59" x2="191.18" y2="192.59"/>
        <line class="cls-4" x1="181.62" y1="193.98" x2="191.18" y2="193.98"/>
        <line class="cls-4" x1="181.62" y1="195.37" x2="191.18" y2="195.37"/>
        <line class="cls-4" x1="181.62" y1="196.75" x2="191.18" y2="196.75"/>
        <line class="cls-4" x1="181.62" y1="198.14" x2="191.18" y2="198.14"/>
        <line class="cls-4" x1="181.62" y1="199.53" x2="191.18" y2="199.53"/>
        <line class="cls-4" x1="181.62" y1="200.92" x2="191.18" y2="200.92"/>
        <line class="cls-4" x1="181.62" y1="202.31" x2="191.18" y2="202.31"/>
        <line class="cls-4" x1="181.62" y1="203.69" x2="191.18" y2="203.69"/>
        <line class="cls-4" x1="181.62" y1="205.08" x2="191.18" y2="205.08"/>
        <line class="cls-4" x1="181.62" y1="206.47" x2="191.18" y2="206.47"/>
      </g>
    </g>
    <circle class="cls-3" cx="223.57" cy="192.13" r="12.75"/>
    <path class="cls-3" d="M370,634.66a8.24,8.24,0,0,0,8.24,8.24,8.34,8.34,0,0,0,8.25-8.24c.15-5.07-3.15-8.24-8.25-8.24A8.24,8.24,0,0,0,370,634.66Z" transform="translate(-130.99 -383.84)"/>
    <g>
      <path class="cls-3" d="M256.69,628.71l15.11-50.87c2,.76,4,1.5,6,2.16l-15.09,50.81C260.77,630,258.74,629.33,256.69,628.71Z" transform="translate(-130.99 -383.84)"/>
      <line class="cls-4" x1="146.46" y1="197.46" x2="140.33" y2="195.64"/>
      <line class="cls-4" x1="146.06" y1="198.79" x2="139.93" y2="196.97"/>
      <line class="cls-4" x1="145.67" y1="200.12" x2="139.54" y2="198.3"/>
      <line class="cls-4" x1="145.27" y1="201.45" x2="139.14" y2="199.63"/>
      <line class="cls-4" x1="144.88" y1="202.78" x2="138.74" y2="200.96"/>
      <line class="cls-4" x1="144.48" y1="204.11" x2="138.35" y2="202.29"/>
      <line class="cls-4" x1="144.09" y1="205.44" x2="137.95" y2="203.62"/>
      <line class="cls-4" x1="143.69" y1="206.77" x2="137.56" y2="204.95"/>
      <line class="cls-4" x1="143.3" y1="208.11" x2="137.16" y2="206.28"/>
      <line class="cls-4" x1="142.9" y1="209.44" x2="136.77" y2="207.61"/>
      <line class="cls-4" x1="142.51" y1="210.77" x2="136.37" y2="208.94"/>
      <line class="cls-4" x1="142.11" y1="212.1" x2="135.98" y2="210.27"/>
      <line class="cls-4" x1="141.72" y1="213.43" x2="135.58" y2="211.61"/>
      <line class="cls-4" x1="141.32" y1="214.76" x2="135.19" y2="212.94"/>
      <line class="cls-4" x1="140.93" y1="216.09" x2="134.79" y2="214.27"/>
      <line class="cls-4" x1="140.53" y1="217.42" x2="134.4" y2="215.6"/>
      <line class="cls-4" x1="140.14" y1="218.75" x2="134" y2="216.93"/>
      <line class="cls-4" x1="139.74" y1="220.08" x2="133.61" y2="218.26"/>
      <line class="cls-4" x1="139.35" y1="221.41" x2="133.21" y2="219.59"/>
      <line class="cls-4" x1="138.95" y1="222.74" x2="132.82" y2="220.92"/>
      <line class="cls-4" x1="138.56" y1="224.07" x2="132.42" y2="222.25"/>
      <line class="cls-4" x1="138.16" y1="225.4" x2="132.03" y2="223.58"/>
      <line class="cls-4" x1="137.77" y1="226.73" x2="131.63" y2="224.91"/>
      <line class="cls-4" x1="137.37" y1="228.06" x2="131.24" y2="226.24"/>
      <line class="cls-4" x1="136.98" y1="229.39" x2="130.84" y2="227.57"/>
      <line class="cls-4" x1="136.58" y1="230.72" x2="130.45" y2="228.9"/>
      <line class="cls-4" x1="136.19" y1="232.05" x2="130.05" y2="230.23"/>
      <line class="cls-4" x1="135.79" y1="233.39" x2="129.66" y2="231.56"/>
      <line class="cls-4" x1="135.4" y1="234.72" x2="129.26" y2="232.89"/>
      <line class="cls-4" x1="135" y1="236.05" x2="128.87" y2="234.22"/>
      <line class="cls-4" x1="134.61" y1="237.38" x2="128.47" y2="235.55"/>
      <line class="cls-4" x1="134.21" y1="238.71" x2="128.08" y2="236.89"/>
      <line class="cls-4" x1="133.81" y1="240.04" x2="127.68" y2="238.22"/>
      <line class="cls-4" x1="133.42" y1="241.37" x2="127.29" y2="239.55"/>
      <line class="cls-4" x1="133.02" y1="242.7" x2="126.89" y2="240.88"/>
      <line class="cls-4" x1="132.63" y1="244.03" x2="126.49" y2="242.21"/>
      <line class="cls-4" x1="132.23" y1="245.36" x2="126.1" y2="243.54"/>
    </g>
    <path class="cls-3" d="M266.56,631.62a8.25,8.25,0,1,1-16.11,2.92c-.38-5.25,2.84-8.6,7.93-8.72A8.71,8.71,0,0,1,266.56,631.62Z" transform="translate(-130.99 -383.84)"/>
    <circle class="cls-3" cx="152.28" cy="192.01" r="12.62"/>
    <g>
      <path class="cls-3" d="M338.35,615.27H297.88a6.87,6.87,0,0,1-6.55-4.83l-4.13-13.39h61.93l-4.57,13.75A6.54,6.54,0,0,1,338.35,615.27Z" transform="translate(-130.99 -383.84)"/>
      <line class="cls-4" x1="157.22" y1="216.49" x2="217.05" y2="216.49"/>
      <line class="cls-4" x1="158.24" y1="219.81" x2="215.94" y2="219.81"/>
      <line class="cls-4" x1="159.27" y1="223.13" x2="214.84" y2="223.13"/>
      <line class="cls-4" x1="160.29" y1="226.45" x2="213.73" y2="226.45"/>
      <line class="cls-4" x1="162.47" y1="229.77" x2="211.64" y2="229.77"/>
      <line class="cls-4" x1="156.71" y1="214.85" x2="217.6" y2="214.85"/>
      <line class="cls-4" x1="157.74" y1="218.17" x2="216.49" y2="218.17"/>
      <line class="cls-4" x1="158.76" y1="221.49" x2="215.38" y2="221.49"/>
      <line class="cls-4" x1="159.79" y1="224.81" x2="214.28" y2="224.81"/>
      <line class="cls-4" x1="161.03" y1="228.13" x2="212.97" y2="228.13"/>
    </g>
    <path class="cls-3" d="M338.12,509.92c.18,16.93-10.05,30.46-20.71,30.66-10,.18-21.6-13.75-20.7-30.66.72-13.75,9-23.08,20.4-23.08S338,497,338.12,509.92Z" transform="translate(-130.99 -383.84)"/>
    <path class="cls-3" d="M322.31,631.1H311.9c-2.66,0-7.86,22.48-7.86,22.48l-2,19.53c0,2,1.68,2.95,3.69,2.95h22.86a3.28,3.28,0,0,0,3.37-3.53L330,653.39S325.22,631.1,322.31,631.1Z" transform="translate(-130.99 -383.84)"/>
    <path class="cls-3" d="M349.13,597.05H337.45V558.14H349c3.53,0,9.26,2.86,11.24,5.83C360.24,564,352.8,597.05,349.13,597.05Z" transform="translate(-130.99 -383.84)"/>
    <path class="cls-3" d="M298.92,597.05H286.86c-3.65,0-10.52-32-10.52-32,1.78-4.11,8.9-6.94,12.39-6.94h10.19Z" transform="translate(-130.99 -383.84)"/>
    <path class="cls-3" d="M320.8,620.55H315c-7.62,0-11.58-6.31-13.79-13.79l-12.49-48.62c0-1.55,12.11-3.85,13.66-3.85l30.84-.06c1.44,0,15.77,2.47,15.77,3.91l-14.41,48.62C332.38,614.24,328.41,620.55,320.8,620.55Z" transform="translate(-130.99 -383.84)"/>
    <path class="cls-3" d="M319,586.91h-3a8.83,8.83,0,0,1-8.66-6.8l-6.65-25.62c0-.81,9.34-3,12.5-3h9.56c2.9,0,11.59,2.13,11.59,2.88l-5.77,25.36C327.67,583.89,323,586.91,319,586.91Z" transform="translate(-130.99 -383.84)"/>
    <circle class="cls-3" cx="186.33" cy="123.5" r="7.29"/>
    <circle class="cls-3" cx="186.39" cy="123.55" r="4.79"/>
    <path class="cls-3" d="M391.3,665.13l-10.8,2.42a2.42,2.42,0,0,1-2.79-1.49l-9.56-24.72a7,7,0,0,1,5.3-8.37l10.12-2.27A7,7,0,0,1,392,636l1.15,26.78A2.31,2.31,0,0,1,391.3,665.13Z" transform="translate(-130.99 -383.84)"/>
    <path class="cls-3" d="M246.75,663.74l10,2.24a3.5,3.5,0,0,0,4-2.15L270,640a7,7,0,0,0-5.31-8.38l-10.12-2.27a7,7,0,0,0-8.37,5.31L245,661.47A2.22,2.22,0,0,0,246.75,663.74Z" transform="translate(-130.99 -383.84)"/>
    <path d="M292.74,654.33l8.2.83-1.6,15.73-8.2-.83,1.6-15.73m-1.28-3.14a1.57,1.57,0,0,0-1.56,1.41L288,671.17a1.57,1.57,0,0,0,1.4,1.73l11,1.12h.16a1.57,1.57,0,0,0,1.56-1.41L304.07,654a1.57,1.57,0,0,0-1.4-1.72l-11-1.12Z" transform="translate(-130.99 -383.84)"/>
    <path d="M341.37,654l1.6,15.73-8.2.83-1.6-15.73,8.2-.83m1.53-3.17h-.13L331.16,652a1.29,1.29,0,0,0-1.15,1.41L332,672.53a1.29,1.29,0,0,0,1.28,1.16h.13L345,672.5a1.3,1.3,0,0,0,1.15-1.41L344.18,652a1.3,1.3,0,0,0-1.28-1.16Z" transform="translate(-130.99 -383.84)"/>
    <rect class="cls-3" x="345.03" y="655.05" width="3.16" height="10.95" transform="translate(-219.89 -328.93) rotate(-8.03)"/>
    <rect class="cls-3" x="285.71" y="655.72" width="3.16" height="10.95" transform="translate(-62.51 -409.55) rotate(5.82)"/>
    <g>
      <rect class="cls-3" x="352.94" y="749.49" width="5.16" height="9.72" rx="1.05" transform="translate(580.05 1124.86) rotate(-180)"/>
      <rect class="cls-3" x="276.29" y="749.49" width="5.16" height="9.72" rx="1.4" transform="translate(426.75 1124.86) rotate(-180)"/>
      <g>
        <path class="cls-3" d="M285.84,731l6.08-59.72c2.39.41,4.77.82,7.17,1.12L293,732A72.22,72.22,0,0,0,285.84,731Z" transform="translate(-130.99 -383.84)"/>
        <line class="cls-5" x1="167.94" y1="290.07" x2="160.74" y2="289.34"/>
        <line class="cls-5" x1="167.79" y1="291.63" x2="160.58" y2="290.9"/>
        <line class="cls-5" x1="167.63" y1="293.2" x2="160.42" y2="292.46"/>
        <line class="cls-5" x1="167.47" y1="294.76" x2="160.26" y2="294.02"/>
        <line class="cls-5" x1="167.31" y1="296.32" x2="160.11" y2="295.59"/>
        <line class="cls-5" x1="167.15" y1="297.88" x2="159.95" y2="297.15"/>
        <line class="cls-5" x1="166.99" y1="299.44" x2="159.79" y2="298.71"/>
        <line class="cls-5" x1="166.83" y1="301.01" x2="159.63" y2="300.27"/>
        <line class="cls-5" x1="166.67" y1="302.57" x2="159.47" y2="301.84"/>
        <line class="cls-5" x1="166.51" y1="304.13" x2="159.31" y2="303.4"/>
        <line class="cls-5" x1="166.35" y1="305.69" x2="159.15" y2="304.96"/>
        <line class="cls-5" x1="166.19" y1="307.26" x2="158.99" y2="306.52"/>
        <line class="cls-5" x1="166.03" y1="308.82" x2="158.83" y2="308.08"/>
        <line class="cls-5" x1="165.88" y1="310.38" x2="158.67" y2="309.65"/>
        <line class="cls-5" x1="165.72" y1="311.94" x2="158.51" y2="311.21"/>
        <line class="cls-5" x1="165.56" y1="313.5" x2="158.36" y2="312.77"/>
        <line class="cls-5" x1="165.4" y1="315.07" x2="158.2" y2="314.33"/>
        <line class="cls-5" x1="165.24" y1="316.63" x2="158.04" y2="315.9"/>
        <line class="cls-5" x1="165.08" y1="318.19" x2="157.88" y2="317.46"/>
        <line class="cls-5" x1="164.92" y1="319.75" x2="157.72" y2="319.02"/>
        <line class="cls-5" x1="164.76" y1="321.32" x2="157.56" y2="320.58"/>
        <line class="cls-5" x1="164.6" y1="322.88" x2="157.4" y2="322.14"/>
        <line class="cls-5" x1="164.44" y1="324.44" x2="157.24" y2="323.71"/>
        <line class="cls-5" x1="164.28" y1="326" x2="157.08" y2="325.27"/>
        <line class="cls-5" x1="164.13" y1="327.56" x2="156.92" y2="326.83"/>
        <line class="cls-5" x1="163.97" y1="329.13" x2="156.76" y2="328.39"/>
        <line class="cls-5" x1="163.81" y1="330.69" x2="156.6" y2="329.95"/>
        <line class="cls-5" x1="163.65" y1="332.25" x2="156.45" y2="331.52"/>
        <line class="cls-5" x1="163.49" y1="333.81" x2="156.29" y2="333.08"/>
        <line class="cls-5" x1="163.33" y1="335.37" x2="156.13" y2="334.64"/>
        <line class="cls-5" x1="163.17" y1="336.94" x2="155.97" y2="336.2"/>
        <line class="cls-5" x1="163.01" y1="338.5" x2="155.81" y2="337.77"/>
        <line class="cls-5" x1="162.85" y1="340.06" x2="155.65" y2="339.33"/>
        <line class="cls-5" x1="162.69" y1="341.62" x2="155.49" y2="340.89"/>
        <line class="cls-5" x1="162.53" y1="343.19" x2="155.33" y2="342.45"/>
        <line class="cls-5" x1="162.38" y1="344.75" x2="155.17" y2="344.01"/>
        <line class="cls-5" x1="162.22" y1="346.31" x2="155.01" y2="345.58"/>
      </g>
      <g>
        <path class="cls-3" d="M348.92,731.49l-6.09-59.73c-2.38.42-4.77.83-7.17,1.12l6.08,59.67A69.41,69.41,0,0,1,348.92,731.49Z" transform="translate(-130.99 -383.84)"/>
        <line class="cls-4" x1="204.83" y1="290.58" x2="212.03" y2="289.84"/>
        <line class="cls-4" x1="204.99" y1="292.14" x2="212.19" y2="291.4"/>
        <line class="cls-4" x1="205.14" y1="293.7" x2="212.35" y2="292.97"/>
        <line class="cls-4" x1="205.3" y1="295.26" x2="212.51" y2="294.53"/>
        <line class="cls-4" x1="205.46" y1="296.82" x2="212.67" y2="296.09"/>
        <line class="cls-4" x1="205.62" y1="298.39" x2="212.82" y2="297.65"/>
        <line class="cls-4" x1="205.78" y1="299.95" x2="212.98" y2="299.22"/>
        <line class="cls-4" x1="205.94" y1="301.51" x2="213.14" y2="300.78"/>
        <line class="cls-4" x1="206.1" y1="303.07" x2="213.3" y2="302.34"/>
        <line class="cls-4" x1="206.26" y1="304.64" x2="213.46" y2="303.9"/>
        <line class="cls-4" x1="206.42" y1="306.2" x2="213.62" y2="305.46"/>
        <line class="cls-4" x1="206.58" y1="307.76" x2="213.78" y2="307.03"/>
        <line class="cls-4" x1="206.74" y1="309.32" x2="213.94" y2="308.59"/>
        <line class="cls-4" x1="206.9" y1="310.88" x2="214.1" y2="310.15"/>
        <line class="cls-4" x1="207.05" y1="312.45" x2="214.26" y2="311.71"/>
        <line class="cls-4" x1="207.21" y1="314.01" x2="214.42" y2="313.28"/>
        <line class="cls-4" x1="207.37" y1="315.57" x2="214.58" y2="314.84"/>
        <line class="cls-4" x1="207.53" y1="317.13" x2="214.73" y2="316.4"/>
        <line class="cls-4" x1="207.69" y1="318.7" x2="214.89" y2="317.96"/>
        <line class="cls-4" x1="207.85" y1="320.26" x2="215.05" y2="319.52"/>
        <line class="cls-4" x1="208.01" y1="321.82" x2="215.21" y2="321.09"/>
        <line class="cls-4" x1="208.17" y1="323.38" x2="215.37" y2="322.65"/>
        <line class="cls-4" x1="208.33" y1="324.94" x2="215.53" y2="324.21"/>
        <line class="cls-4" x1="208.49" y1="326.51" x2="215.69" y2="325.77"/>
        <line class="cls-4" x1="208.65" y1="328.07" x2="215.85" y2="327.33"/>
        <line class="cls-4" x1="208.8" y1="329.63" x2="216.01" y2="328.9"/>
        <line class="cls-4" x1="208.96" y1="331.19" x2="216.17" y2="330.46"/>
        <line class="cls-4" x1="209.12" y1="332.75" x2="216.33" y2="332.02"/>
        <line class="cls-4" x1="209.28" y1="334.32" x2="216.48" y2="333.58"/>
        <line class="cls-4" x1="209.44" y1="335.88" x2="216.64" y2="335.15"/>
        <line class="cls-4" x1="209.6" y1="337.44" x2="216.8" y2="336.71"/>
        <line class="cls-4" x1="209.76" y1="339" x2="216.96" y2="338.27"/>
        <line class="cls-4" x1="209.92" y1="340.57" x2="217.12" y2="339.83"/>
        <line class="cls-4" x1="210.08" y1="342.13" x2="217.28" y2="341.39"/>
        <line class="cls-4" x1="210.24" y1="343.69" x2="217.44" y2="342.96"/>
        <line class="cls-4" x1="210.4" y1="345.25" x2="217.6" y2="344.52"/>
        <line class="cls-4" x1="210.56" y1="346.81" x2="217.76" y2="346.08"/>
      </g>
      <rect class="cls-3" x="284.38" y="729.72" width="9.72" height="7.46" transform="translate(-84.27 -400.59) rotate(3.61)"/>
      <path class="cls-3" d="M295.91,773.64h0a17.19,17.19,0,0,1-17-19.41l2-15a4.51,4.51,0,0,1,4.75-3.91l7,.44a4.52,4.52,0,0,1,4.24,4.53l-.15,32.59A.76.76,0,0,1,295.91,773.64Z" transform="translate(-130.99 -383.84)"/>
      <rect class="cls-3" x="165.7" y="367.15" width="5.4" height="7.36"/>
      <rect class="cls-3" x="340.3" y="729.72" width="9.72" height="7.46" transform="translate(604.79 1059.88) rotate(176.39)"/>
      <path class="cls-3" d="M338.48,773.64h0a17.18,17.18,0,0,0,17-19.41l-2-15a4.5,4.5,0,0,0-4.75-3.91l-7,.44a4.52,4.52,0,0,0-4.23,4.53l.14,32.59A.76.76,0,0,0,338.48,773.64Z" transform="translate(-130.99 -383.84)"/>
      <rect class="cls-3" x="332.11" y="750.99" width="5.58" height="7.36" transform="translate(538.82 1125.49) rotate(-180)"/>
      <path class="cls-3" d="M317.09,715.39a15,15,0,0,0-15,15V779a15,15,0,1,0,30,0V730.37A15,15,0,0,0,317.09,715.39Z" transform="translate(-130.99 -383.84)"/>
    </g>
  </g>
  <g class="cls-2">
    <path class="cls-3" d="M636.92,672.42a16.14,16.14,0,0,0-16.14,16.14v52.33a16.14,16.14,0,0,0,32.28,0V688.56A16.13,16.13,0,0,0,636.92,672.42Z" transform="translate(-130.99 -383.84)"/>
    <path class="cls-3" d="M815,672a16.14,16.14,0,0,0-16.14,16.14V740.5a16.14,16.14,0,0,0,32.28,0V688.16A16.14,16.14,0,0,0,815,672Z" transform="translate(-130.99 -383.84)"/>
    <g>
      <g>
        <circle class="cls-3" cx="718.05" cy="264.73" r="6.04"/>
        <path class="cls-3" d="M852.68,652.93s11.79,10.43,10.79,14.93c-1.18,5.32-19.06,10.58-19.06,10.58s12.39-7.06,13-11.33c.53-3.59-6.23-9.86-9.74-10.74-3.89-1-13.82,1.57-15.12,5.37-1.35,4,6.47,15.43,6.47,15.43s-12.43-11.73-11.4-16.67c.94-4.48,15.52-9.71,15.52-9.71l9.52,2.14" transform="translate(-130.99 -383.84)"/>
      </g>
      <g>
        <path class="cls-3" d="M770.15,576.57s15.53-7.05,19.6-4.13c1.3.92.77,6.3.77,6.3l2.78,22.9-12.17,1.84Z" transform="translate(-130.99 -383.84)"/>
        <path class="cls-3" d="M808.36,573.23c4.73,5.26-2.5,28.2-2.5,28.2l-12.59,0-3.46-28.49S805.25,569.78,808.36,573.23Z" transform="translate(-130.99 -383.84)"/>
        <path class="cls-3" d="M808.31,573.74s11.84,1.33,13.62,4.44c3.34,5.84-5.8,26.3-5.8,26.3l-10.24-3.41Z" transform="translate(-130.99 -383.84)"/>
        <path class="cls-3" d="M835.81,586.41c-1.31-3.77-14-7.75-14-7.75l-5.5,25.21,10.39,4.1S837.72,591.94,835.81,586.41Z" transform="translate(-130.99 -383.84)"/>
        <path class="cls-3" d="M847.88,596.82c-.33-3.93-12.28-9.9-12.28-9.9l-8.7,20.61,6.18,6S848.34,602.38,847.88,596.82Z" transform="translate(-130.99 -383.84)"/>
        <path class="cls-3" d="M856.1,612.77c1.34-4.24-8.56-15.57-8.56-15.57l-14.21,16,5.1,8.24S854.62,617.47,856.1,612.77Z" transform="translate(-130.99 -383.84)"/>
        <path class="cls-3" d="M858.86,627.48c2.06-3.16-3.29-14.71-3.29-14.71L839,621.18,841,631S856.37,631.28,858.86,627.48Z" transform="translate(-130.99 -383.84)"/>
        <path class="cls-3" d="M857.19,641.09c2.61-2.33,1.35-14,1.35-14l-17,3.71,1.33,10S854.53,643.47,857.19,641.09Z" transform="translate(-130.99 -383.84)"/>
        <path class="cls-3" d="M855.45,649.8c1.77-1.42,1.48-8.95,1.48-8.95h-14l.24,8.22S853,651.72,855.45,649.8Z" transform="translate(-130.99 -383.84)"/>
      </g>
    </g>
    <g>
      <g>
        <circle class="cls-3" cx="472.63" cy="264.87" r="6.17"/>
        <path class="cls-3" d="M599.92,653.16s-12,10.65-11,15.24c1.21,5.43,19.46,10.8,19.46,10.8s-12.65-7.2-13.29-11.56c-.54-3.66,6.35-10.06,9.94-11,4-1,14.11,1.61,15.44,5.48,1.38,4-6.6,15.75-6.6,15.75s12.68-12,11.63-17c-1-4.57-15.84-9.91-15.84-9.91l-9.72,2.18" transform="translate(-130.99 -383.84)"/>
      </g>
      <g>
        <path class="cls-3" d="M682.3,577.53s-15.53-7-19.6-4.14c-1.3.93-.77,6.31-.77,6.31l-2.78,22.89,12.17,1.84Z" transform="translate(-130.99 -383.84)"/>
        <path class="cls-3" d="M644.09,574.18c-4.73,5.26,2.5,28.2,2.5,28.2l12.59,0,3.46-28.49S647.19,570.74,644.09,574.18Z" transform="translate(-130.99 -383.84)"/>
        <path class="cls-3" d="M644.14,574.7s-11.84,1.32-13.62,4.43c-3.34,5.85,5.8,26.3,5.8,26.3L646.56,602Z" transform="translate(-130.99 -383.84)"/>
        <path class="cls-3" d="M616.64,587.37c1.31-3.78,14-7.75,14-7.75l5.49,25.2-10.38,4.1S614.73,592.9,616.64,587.37Z" transform="translate(-130.99 -383.84)"/>
        <path class="cls-3" d="M604.57,597.78c.33-3.93,12.28-9.91,12.28-9.91l8.7,20.61-6.18,6S604.11,603.33,604.57,597.78Z" transform="translate(-130.99 -383.84)"/>
        <path class="cls-3" d="M596.35,613.72c-1.34-4.23,8.55-15.57,8.55-15.57l14.22,16-5.1,8.24S597.83,618.42,596.35,613.72Z" transform="translate(-130.99 -383.84)"/>
        <path class="cls-3" d="M593.59,628.43c-2.06-3.15,3.29-14.71,3.29-14.71l16.61,8.42-2.06,9.78S596.08,632.23,593.59,628.43Z" transform="translate(-130.99 -383.84)"/>
        <path class="cls-3" d="M595.26,642c-2.7-2.24-1.35-13.95-1.35-13.95l17,3.71-2,9.05S597.89,644.23,595.26,642Z" transform="translate(-130.99 -383.84)"/>
        <path class="cls-3" d="M597,650.75c-1.85-1.31-1.48-9-1.48-9l13.37-.95.35,7.82S599.53,652.55,597,650.75Z" transform="translate(-130.99 -383.84)"/>
      </g>
    </g>
    <path class="cls-3" d="M798.85,669.49c0,21.83-23.45,36.09-25.37,37a.79.79,0,0,1-.22.06l-47.62,5.83h-.16l-48.21-5.24a.67.67,0,0,1-.24-.07c-2-1.05-24-15.65-24-38.22,0-35,17.66-57.92,28.56-91.62a.71.71,0,0,1,.48-.46l9.51-2.54c2.84,7.11,18.77,7,33.65,7,18.79,0,33-.42,36.3-6.94l9.36,1a.65.65,0,0,1,.58.49C779.7,610.28,798.83,638,798.85,669.49Z" transform="translate(-130.99 -383.84)"/>
    <path class="cls-3" d="M761.56,574.32c-3.82,14.24-4.09,21.16-36,21.16-31.64,0-31.52-6.76-33.49-21.16.9,7.06,20.79,7.24,33.19,7.31S759.61,581.38,761.56,574.32Z" transform="translate(-130.99 -383.84)"/>
    <path class="cls-3" d="M692.07,574.32c1.24,7.9,19.21,11.86,33.19,11.85,15.92,0,34.08-4,36.3-11.85C760.6,552,745.41,537,726.81,537S693,552.05,692.07,574.34Z" transform="translate(-130.99 -383.84)"/>
    <path class="cls-3" d="M742.3,551.69c-10.45.74-27.34,21.22-37.51,18.68-7.58-1.89-6.19-18.59,4.36-17.87s29.3,21.42,39.14,17.23C757.13,566,750.92,551.09,742.3,551.69Z" transform="translate(-130.99 -383.84)"/>
    <rect class="cls-3" x="646.56" y="718.98" width="157.4" height="8.02" transform="translate(1319.52 1062.14) rotate(-180)"/>
    <path class="cls-3" d="M636.53,692.54a12.37,12.37,0,0,0-12.37,12.37V745a12.37,12.37,0,0,0,24.74,0V704.91A12.37,12.37,0,0,0,636.53,692.54Z" transform="translate(-130.99 -383.84)"/>
    <path class="cls-3" d="M815.19,692.54a12.37,12.37,0,0,0-12.37,12.37V745a12.37,12.37,0,1,0,24.73,0V704.91A12.36,12.36,0,0,0,815.19,692.54Z" transform="translate(-130.99 -383.84)"/>
    <g>
      <polygon class="cls-4" points="539.11 323.14 539.11 351.91 560.5 359.11 546.82 323.14 539.11 323.14"/>
      <polygon class="cls-4" points="530.44 326.96 530.44 349.07 539.11 352.23 539.11 323.14 530.44 326.96"/>
      <polygon class="cls-4" points="522.02 328.34 522.07 347.37 530.44 349.3 530.44 326.77 522.02 328.34"/>
    </g>
    <g>
      <polygon class="cls-4" points="650.1 323.14 650.1 351.51 628.71 358.7 642.38 322.74 650.1 323.14"/>
      <polygon class="cls-4" points="658.76 326.55 658.76 348.66 650.1 351.82 650.1 323.14 658.76 326.55"/>
      <polygon class="cls-4" points="667.86 328.06 667.86 346.08 658.76 348.89 658.76 326.36 667.86 328.06"/>
    </g>
    <path class="cls-3" d="M773.37,706.58,759.7,745.53s-25.51,4.75-34.12,4.82S692,746.13,692,746.13l-14.88-39c0-26.54,21.51-47.15,48.05-47.15S773.37,680,773.37,706.58Z" transform="translate(-130.99 -383.84)"/>
    <g>
      <path class="cls-4" d="M677.14,707.17s36.25,5.34,48.42,5.26,47.81-5.85,47.81-5.85" transform="translate(-130.99 -383.84)"/>
      <path class="cls-4" d="M678.18,709.88s35.46,5.23,47.38,5.15,46.86-5.74,46.86-5.74" transform="translate(-130.99 -383.84)"/>
      <path class="cls-4" d="M679.21,712.59s34.69,5.12,46.35,5S771.47,712,771.47,712" transform="translate(-130.99 -383.84)"/>
      <path class="cls-4" d="M680.25,715.3s33.91,5,45.31,4.93,45-5.51,45-5.51" transform="translate(-130.99 -383.84)"/>
      <path class="cls-4" d="M681.28,718s33.14,4.88,44.27,4.81,44-5.39,44-5.39" transform="translate(-130.99 -383.84)"/>
      <path class="cls-4" d="M682.32,720.73s32.36,4.77,43.23,4.7,43.06-5.27,43.06-5.27" transform="translate(-130.99 -383.84)"/>
      <path class="cls-4" d="M683.35,723.44s31.59,4.66,42.2,4.59,42.11-5.16,42.11-5.16" transform="translate(-130.99 -383.84)"/>
      <path class="cls-4" d="M684.39,726.15s30.81,4.54,41.16,4.47,41.15-5,41.15-5" transform="translate(-130.99 -383.84)"/>
      <path class="cls-4" d="M685.42,728.86s30,4.43,40.13,4.36,40.2-4.92,40.2-4.92" transform="translate(-130.99 -383.84)"/>
      <path class="cls-4" d="M686.46,731.58s29.26,4.31,39.08,4.24S764.8,731,764.8,731" transform="translate(-130.99 -383.84)"/>
      <path class="cls-4" d="M687.5,734.29s28.48,4.2,38,4.13,38.3-4.68,38.3-4.68" transform="translate(-130.99 -383.84)"/>
      <path class="cls-4" d="M688.53,737s27.7,4.08,37,4,37.35-4.57,37.35-4.57" transform="translate(-130.99 -383.84)"/>
      <path class="cls-4" d="M689.42,739.7s27,4,36.12,3.92,36.4-4.45,36.4-4.45" transform="translate(-130.99 -383.84)"/>
      <path class="cls-4" d="M690.6,742.42s26.15,3.86,34.94,3.8S761,741.88,761,741.88" transform="translate(-130.99 -383.84)"/>
    </g>
    <path class="cls-3" d="M725.26,699.14c10.67.16,34.43-25.28,34.43-25.28-8.76-15.89-21-25.49-34.47-25.49-13.06,0-24.89,9.27-33.55,24.53C691.67,672.9,714.6,699,725.26,699.14Z" transform="translate(-130.99 -383.84)"/>
  </g>
  <g class="cls-2">
    <g>
      <g>
        <circle class="cls-3" cx="1137.58" cy="247.63" r="7.39"/>
        <path class="cls-3" d="M1272.46,637.22s13.1,14.12,11.34,19.47c-2.08,6.33-24.48,10.58-24.48,10.58s15.94-7.1,17.22-12.22c1.07-4.3-6.39-12.75-10.56-14.25-4.62-1.66-17,.25-19,4.71-2.13,4.66,6,19.57,6,19.57s-13.71-15.78-11.86-21.67c1.68-5.33,20.05-9.94,20.05-9.94l11.33,3.75" transform="translate(-130.99 -383.84)"/>
      </g>
      <g>
        <path class="cls-3" d="M1183.19,534.13s18.15-6.19,22.39-2.48c1.46,1.28.17,7.77.17,7.77l.62,28.2-13.28.56Z" transform="translate(-130.99 -383.84)"/>
        <path class="cls-3" d="M1228.13,534.86c5.13,7-6.44,34-6.44,34l-15.32-1.54-.78-35.1S1224.77,530.29,1228.13,534.86Z" transform="translate(-130.99 -383.84)"/>
        <path class="cls-3" d="M1228,535.48s14.25,3,16,7c3.37,7.52-10.23,31.31-10.23,31.31l-12-5.38Z" transform="translate(-130.99 -383.84)"/>
        <path class="cls-3" d="M1260,554.22c-1.13-4.76-16.09-11.13-16.09-11.13l-9.73,30,12.15,6.24S1261.61,561.18,1260,554.22Z" transform="translate(-130.99 -383.84)"/>
        <path class="cls-3" d="M1273.39,568.34c.07-4.82-13.75-13.54-13.75-13.54l-13.08,24,6.8,8S1273.28,575.16,1273.39,568.34Z" transform="translate(-130.99 -383.84)"/>
        <path class="cls-3" d="M1281.48,588.75c2.14-5-8.54-20-8.54-20l-19.24,17.78,5.21,10.65S1279.11,594.29,1281.48,588.75Z" transform="translate(-130.99 -383.84)"/>
        <path class="cls-3" d="M1283.06,607c2.89-3.59-2.23-18.3-2.23-18.3l-21.23,8.24,1.33,12.16S1279.58,611.31,1283.06,607Z" transform="translate(-130.99 -383.84)"/>
        <path class="cls-3" d="M1279.39,623.35c3.46-2.52,3.32-16.82,3.32-16.82l-21.1,2.47.42,12.33S1275.86,625.92,1279.39,623.35Z" transform="translate(-130.99 -383.84)"/>
        <path class="cls-3" d="M1276.22,633.74c2.33-1.51,2.88-10.72,2.88-10.72L1262,621.33l-.71,10S1273.06,635.79,1276.22,633.74Z" transform="translate(-130.99 -383.84)"/>
      </g>
    </g>
    <g>
      <g>
        <circle class="cls-3" cx="865.82" cy="247.63" r="7.39"/>
        <path class="cls-3" d="M992.92,637.22s-13.1,14.12-11.34,19.47c2.08,6.33,24.48,10.58,24.48,10.58s-15.94-7.1-17.22-12.22c-1.07-4.3,6.39-12.75,10.56-14.25,4.62-1.66,17,.25,19.05,4.71,2.13,4.66-6,19.57-6,19.57s13.72-15.78,11.86-21.67c-1.68-5.33-20-9.94-20-9.94l-11.33,3.75" transform="translate(-130.99 -383.84)"/>
      </g>
      <g>
        <path class="cls-3" d="M1083.58,534.29s-18.89-6.09-23.78-2.64c-7.35,5.19-.79,36-.79,36l13.8.88Z" transform="translate(-130.99 -383.84)"/>
        <path class="cls-3" d="M1037.25,534.86c-5.13,7,6.44,34,6.44,34l15.32-1.54.78-35.1S1040.61,530.29,1037.25,534.86Z" transform="translate(-130.99 -383.84)"/>
        <path class="cls-3" d="M1037.37,535.48s-14.25,3-16,7c-3.37,7.52,10.23,31.31,10.23,31.31l12-5.38Z" transform="translate(-130.99 -383.84)"/>
        <path class="cls-3" d="M1005.43,554.22c1.13-4.76,16.09-11.13,16.09-11.13l9.73,30-12.15,6.24S1003.77,561.18,1005.43,554.22Z" transform="translate(-130.99 -383.84)"/>
        <path class="cls-3" d="M992,568.34c-.07-4.82,13.76-13.54,13.76-13.54l13.07,24-6.8,8S992.1,575.16,992,568.34Z" transform="translate(-130.99 -383.84)"/>
        <path class="cls-3" d="M983.9,588.75c-2.14-5,8.54-20,8.54-20l19.24,17.78-5.21,10.65S986.27,594.29,983.9,588.75Z" transform="translate(-130.99 -383.84)"/>
        <path class="cls-3" d="M982.32,607c-2.89-3.59,2.23-18.3,2.23-18.3l21.23,8.24-1.33,12.16S985.8,611.31,982.32,607Z" transform="translate(-130.99 -383.84)"/>
        <path class="cls-3" d="M986,623.35c-3.46-2.52-3.32-16.82-3.32-16.82l21.1,2.47-.42,12.33S989.53,625.92,986,623.35Z" transform="translate(-130.99 -383.84)"/>
        <path class="cls-3" d="M989.16,633.74c-2.33-1.51-2.88-10.72-2.88-10.72l17.07-1.69.71,10S992.32,635.79,989.16,633.74Z" transform="translate(-130.99 -383.84)"/>
      </g>
    </g>
    <path class="cls-3" d="M1193,568.56l-119.89.2,18.74,51.51a7.2,7.2,0,0,0,6.79,4.83l70,0a6.52,6.52,0,0,0,6.17-4.38Z" transform="translate(-130.99 -383.84)"/>
    <g>
      <rect class="cls-3" x="890.99" y="321.17" width="35.98" height="87.56" rx="7.19"/>
      <rect class="cls-3" x="1076.4" y="321.56" width="34.84" height="87.56" rx="7.07"/>
      <rect class="cls-3" x="926.96" y="359.24" width="149.44" height="12.47"/>
    </g>
    <path class="cls-3" d="M1236.76,723.27a3.37,3.37,0,0,1-3.63,3.37c-5.49-.41-15.68-1-19.64.31-21.88,7-63.46,36-79.68,36.48-17.81.47-58.31-29.24-80.24-36.48-4-1.31-14.42-.69-19.64-.27a2.84,2.84,0,0,1-3.06-2.83V703a11,11,0,0,1,11-11h183a11.89,11.89,0,0,1,11.9,11.89Z" transform="translate(-130.99 -383.84)"/>
    <path class="cls-3" d="M1184.69,692.05s-36.06,21.73-51.32,21.45-50.49-21.45-50.49-21.45l9.27-25.66a7.2,7.2,0,0,1,6.79-4.83l70,0a6.53,6.53,0,0,1,6.17,4.39Z" transform="translate(-130.99 -383.84)"/>
    <g>
      <path class="cls-3" d="M1168.19,625.14s-25.75-10.59-34.85-10.57-34.24,10.59-34.24,10.59l-.21,6.64,4.23,2,60.72.31,4.35-2.33Z" transform="translate(-130.99 -383.84)"/>
      <polygon class="cls-3" points="1037.19 258.92 1002.35 269.49 968.11 258.89 967.9 252.26 972.12 250.22 1032.85 249.91 1037.19 252.25 1037.19 258.92"/>
      <polygon class="cls-3" points="1036.85 268.71 1002 279.27 967.76 268.68 967.55 262.05 971.78 260.01 1032.5 259.7 1036.85 262.03 1036.85 268.71"/>
      <path class="cls-3" d="M1167.84,662.33S1142.1,672.92,1133,672.9s-34.25-10.59-34.25-10.59l-.2-6.64,4.22-2,60.73-.31,4.34,2.33Z" transform="translate(-130.99 -383.84)"/>
    </g>
    <path class="cls-3" d="M1193,568.56s-43.8,9.89-58.84,9.92c-15.41,0-61-9.72-61-9.72l11-35a1.36,1.36,0,0,1,1.51-.92l31.16,5.45h33.79l30.56-5.84a1.44,1.44,0,0,1,1.64,1Z" transform="translate(-130.99 -383.84)"/>
    <g>
      <path class="cls-3" d="M1133.62,485c-22.39,0-22.39,19.76-22.39,22.74v8.43l-3,27.05,51,0L1156,516.09l0-8.37C1156,504.74,1156,485,1133.62,485Z" transform="translate(-130.99 -383.84)"/>
      <path class="cls-3" d="M1161.21,543.22c-4,6.07-21,11-27.61,11-5.29,0-23.1-5.08-27.06-11-.93-1.4,0-6.71,0-6.71l54.67-.26S1162.17,541.77,1161.21,543.22Z" transform="translate(-130.99 -383.84)"/>
      <path class="cls-3" d="M1133.62,544.77c-6.47,0-24.73-8.27-24.73-8.27V529a2.8,2.8,0,0,1,1.77-2.61c4.75-1.89,17.74-6.85,23-6.71s18.16,5.82,23,8a3.21,3.21,0,0,1,1.87,2.92v5.66S1140.14,544.75,1133.62,544.77Z" transform="translate(-130.99 -383.84)"/>
    </g>
    <g>
      <line class="cls-3" x1="1002.61" y1="139.43" x2="1002.61" y2="158.17"/>
      <line class="cls-3" x1="999.41" y1="140.42" x2="999.41" y2="157.31"/>
      <line class="cls-3" x1="996.21" y1="141.28" x2="996.21" y2="156.45"/>
      <line class="cls-3" x1="993.02" y1="142.14" x2="993.02" y2="155.6"/>
      <line class="cls-3" x1="989.82" y1="142.99" x2="989.82" y2="154.7"/>
      <line class="cls-3" x1="986.62" y1="143.85" x2="986.62" y2="153.79"/>
      <line class="cls-3" x1="1006.28" y1="140.42" x2="1006.28" y2="157.31"/>
      <line class="cls-3" x1="1009.48" y1="141.28" x2="1009.48" y2="156.45"/>
      <line class="cls-3" x1="1012.68" y1="142.14" x2="1012.68" y2="155.6"/>
      <line class="cls-3" x1="1015.88" y1="142.99" x2="1015.88" y2="154.7"/>
      <line class="cls-3" x1="1019.07" y1="143.85" x2="1019.07" y2="153.79"/>
    </g>
    <path class="cls-3" d="M1155.24,512.41l-21.43,1.74a4.45,4.45,0,0,1-.73,0l-20.89-1.74a4.42,4.42,0,0,1-4.06-4.41h0a4.43,4.43,0,0,1,4.43-4.43h42.32a4.42,4.42,0,0,1,4.42,4.43h0A4.43,4.43,0,0,1,1155.24,512.41Z" transform="translate(-130.99 -383.84)"/>
  </g>
  <text class="cls-6" transform="translate(58.33 85.47) scale(0.99 1)">WANTED</text>
  <text class="cls-7" transform="translate(452.67 583.13) scale(0.99 1)">Narrative</text>
  <text class="cls-6" transform="translate(470 88.13) scale(0.99 1)">WANTED</text>
  <text class="cls-6" transform="translate(878.33 88.13) scale(0.99 1)">WANTED</text>
  <rect class="cls-8" x="15" y="17.13" width="337.33" height="449.33" rx="12"/>
  <rect class="cls-8" x="413.67" y="15.8" width="344" height="450.67" rx="12"/>
  <rect class="cls-8" x="832.33" y="15.8" width="342.67" height="450.67" rx="12"/>
  <g class="cls-9">
    <path class="cls-10" d="M382,1240.5c-12.23,0-22.15,8-22.15,18v58.21c0,9.91,9.92,17.95,22.15,17.95s22.15-8,22.15-17.95v-58.21C404.19,1248.54,394.28,1240.5,382,1240.5Z" transform="translate(-130.99 -383.84)"/>
    <g class="cls-11">
      <rect class="cls-12" x="100.22" y="918.96" width="3.7" height="6.96" rx="1"/>
      <rect class="cls-12" x="122.38" y="806.36" width="14.46" height="56.82"/>
      <rect class="cls-12" x="155.13" y="918.16" width="3.7" height="6.96" rx="1"/>
      <g>
        <path class="cls-12" d="M235.07,1302.92l.25-47.91a14.35,14.35,0,0,1,9.57,0l-.25,48.16C241.46,1303,238.27,1302.93,235.07,1302.92Z" transform="translate(-130.99 -383.84)"/>
        <path class="cls-13" d="M235.32,1256.26" transform="translate(-130.99 -383.84)"/>
        <path class="cls-13" d="M244.88,1256.28" transform="translate(-130.99 -383.84)"/>
        <path class="cls-13" d="M235.31,1257.52" transform="translate(-130.99 -383.84)"/>
        <path class="cls-13" d="M244.87,1257.54" transform="translate(-130.99 -383.84)"/>
        <line class="cls-13" x1="113.87" y1="874.96" x2="104.31" y2="874.94"/>
        <line class="cls-13" x1="113.87" y1="876.22" x2="104.31" y2="876.2"/>
        <line class="cls-13" x1="113.86" y1="877.48" x2="104.3" y2="877.46"/>
        <line class="cls-13" x1="113.85" y1="878.74" x2="104.29" y2="878.72"/>
        <line class="cls-13" x1="113.85" y1="880" x2="104.29" y2="879.99"/>
        <line class="cls-13" x1="113.84" y1="881.26" x2="104.28" y2="881.25"/>
        <line class="cls-13" x1="113.83" y1="882.53" x2="104.27" y2="882.51"/>
        <line class="cls-13" x1="113.83" y1="883.79" x2="104.27" y2="883.77"/>
        <line class="cls-13" x1="113.82" y1="885.05" x2="104.26" y2="885.03"/>
        <line class="cls-13" x1="113.81" y1="886.31" x2="104.26" y2="886.29"/>
        <line class="cls-13" x1="113.81" y1="887.57" x2="104.25" y2="887.55"/>
        <line class="cls-13" x1="113.8" y1="888.83" x2="104.24" y2="888.81"/>
        <line class="cls-13" x1="113.79" y1="890.09" x2="104.24" y2="890.07"/>
        <line class="cls-13" x1="113.79" y1="891.35" x2="104.23" y2="891.33"/>
        <line class="cls-13" x1="113.78" y1="892.61" x2="104.22" y2="892.59"/>
        <line class="cls-13" x1="113.78" y1="893.87" x2="104.22" y2="893.86"/>
        <line class="cls-13" x1="113.77" y1="895.14" x2="104.21" y2="895.12"/>
        <line class="cls-13" x1="113.76" y1="896.4" x2="104.2" y2="896.38"/>
        <line class="cls-13" x1="113.76" y1="897.66" x2="104.2" y2="897.64"/>
        <line class="cls-13" x1="113.75" y1="898.92" x2="104.19" y2="898.9"/>
        <line class="cls-13" x1="113.74" y1="900.18" x2="104.18" y2="900.16"/>
        <line class="cls-13" x1="113.74" y1="901.44" x2="104.18" y2="901.42"/>
        <line class="cls-13" x1="113.73" y1="902.7" x2="104.17" y2="902.68"/>
        <line class="cls-13" x1="113.72" y1="903.96" x2="104.16" y2="903.94"/>
        <line class="cls-13" x1="113.72" y1="905.22" x2="104.16" y2="905.2"/>
        <line class="cls-13" x1="113.71" y1="906.48" x2="104.15" y2="906.47"/>
        <line class="cls-13" x1="113.7" y1="907.74" x2="104.14" y2="907.73"/>
        <line class="cls-13" x1="113.7" y1="909.01" x2="104.14" y2="908.99"/>
        <line class="cls-13" x1="113.69" y1="910.27" x2="104.13" y2="910.25"/>
        <line class="cls-13" x1="113.68" y1="911.53" x2="104.12" y2="911.51"/>
        <line class="cls-13" x1="113.68" y1="912.79" x2="104.12" y2="912.77"/>
        <line class="cls-13" x1="113.67" y1="914.05" x2="104.11" y2="914.03"/>
        <line class="cls-13" x1="113.66" y1="915.31" x2="104.11" y2="915.29"/>
        <line class="cls-13" x1="113.66" y1="916.57" x2="104.1" y2="916.55"/>
        <line class="cls-13" x1="113.65" y1="917.83" x2="104.09" y2="917.81"/>
      </g>
      <g>
        <path class="cls-12" d="M286.21,1302.57,286,1255a13.15,13.15,0,0,0-9.57.07l.25,47.81C279.82,1302.64,283,1302.58,286.21,1302.57Z" transform="translate(-130.99 -383.84)"/>
        <path class="cls-13" d="M286,1256.25" transform="translate(-130.99 -383.84)"/>
        <path class="cls-13" d="M276.4,1256.27" transform="translate(-130.99 -383.84)"/>
        <path class="cls-13" d="M286,1257.5" transform="translate(-130.99 -383.84)"/>
        <path class="cls-13" d="M276.41,1257.52" transform="translate(-130.99 -383.84)"/>
        <line class="cls-13" x1="145.42" y1="874.93" x2="154.98" y2="874.91"/>
        <line class="cls-13" x1="145.43" y1="876.18" x2="154.99" y2="876.16"/>
        <line class="cls-13" x1="145.43" y1="877.43" x2="154.99" y2="877.42"/>
        <line class="cls-13" x1="145.44" y1="878.69" x2="155" y2="878.67"/>
        <line class="cls-13" x1="145.45" y1="879.94" x2="155.01" y2="879.92"/>
        <line class="cls-13" x1="145.45" y1="881.19" x2="155.01" y2="881.17"/>
        <line class="cls-13" x1="145.46" y1="882.44" x2="155.02" y2="882.42"/>
        <line class="cls-13" x1="145.47" y1="883.69" x2="155.02" y2="883.68"/>
        <line class="cls-13" x1="145.47" y1="884.95" x2="155.03" y2="884.93"/>
        <line class="cls-13" x1="145.48" y1="886.2" x2="155.04" y2="886.18"/>
        <line class="cls-13" x1="145.49" y1="887.45" x2="155.04" y2="887.43"/>
        <line class="cls-13" x1="145.49" y1="888.7" x2="155.05" y2="888.68"/>
        <line class="cls-13" x1="145.5" y1="889.95" x2="155.06" y2="889.93"/>
        <line class="cls-13" x1="145.5" y1="891.2" x2="155.06" y2="891.19"/>
        <line class="cls-13" x1="145.51" y1="892.46" x2="155.07" y2="892.44"/>
        <line class="cls-13" x1="145.52" y1="893.71" x2="155.08" y2="893.69"/>
        <line class="cls-13" x1="145.52" y1="894.96" x2="155.08" y2="894.94"/>
        <line class="cls-13" x1="145.53" y1="896.21" x2="155.09" y2="896.19"/>
        <line class="cls-13" x1="145.54" y1="897.46" x2="155.1" y2="897.45"/>
        <line class="cls-13" x1="145.54" y1="898.72" x2="155.1" y2="898.7"/>
        <line class="cls-13" x1="145.55" y1="899.97" x2="155.11" y2="899.95"/>
        <line class="cls-13" x1="145.56" y1="901.22" x2="155.12" y2="901.2"/>
        <line class="cls-13" x1="145.56" y1="902.47" x2="155.12" y2="902.45"/>
        <line class="cls-13" x1="145.57" y1="903.72" x2="155.13" y2="903.7"/>
        <line class="cls-13" x1="145.58" y1="904.97" x2="155.14" y2="904.96"/>
        <line class="cls-13" x1="145.58" y1="906.23" x2="155.14" y2="906.21"/>
        <line class="cls-13" x1="145.59" y1="907.48" x2="155.15" y2="907.46"/>
        <line class="cls-13" x1="145.6" y1="908.73" x2="155.15" y2="908.71"/>
        <line class="cls-13" x1="145.6" y1="909.98" x2="155.16" y2="909.96"/>
        <line class="cls-13" x1="145.61" y1="911.23" x2="155.17" y2="911.22"/>
        <line class="cls-13" x1="145.62" y1="912.49" x2="155.17" y2="912.47"/>
        <line class="cls-13" x1="145.62" y1="913.74" x2="155.18" y2="913.72"/>
        <line class="cls-13" x1="145.63" y1="914.99" x2="155.19" y2="914.97"/>
        <line class="cls-13" x1="145.63" y1="916.24" x2="155.19" y2="916.22"/>
        <line class="cls-13" x1="145.64" y1="917.49" x2="155.2" y2="917.48"/>
      </g>
      <rect class="cls-12" x="271.28" y="1303.87" width="3.97" height="5.27" transform="translate(415.53 2229.17) rotate(-180)"/>
      <rect class="cls-12" x="114.84" y="920.03" width="3.98" height="5.27"/>
      <path class="cls-12" d="M260.54,1278.37a10.73,10.73,0,0,1,10.74,10.73v34.81a10.74,10.74,0,0,1-21.47,0V1289.1A10.73,10.73,0,0,1,260.54,1278.37Z" transform="translate(-130.99 -383.84)"/>
      <path class="cls-12" d="M245.33,1320.09h0c-7.43,0-11.83-6.13-11.79-13.81V1296l12.31,0v23.59A.53.53,0,0,1,245.33,1320.09Z" transform="translate(-130.99 -383.84)"/>
      <path class="cls-12" d="M275.78,1320.09h0c7.43,0,11.82-6.13,11.78-13.81V1296l-12.31,0v23.59A.54.54,0,0,0,275.78,1320.09Z" transform="translate(-130.99 -383.84)"/>
      <rect class="cls-12" x="231.34" y="1259.06" width="58.44" height="7.92" transform="translate(390.13 2142.19) rotate(-180)"/>
      <path class="cls-12" d="M247.88,1259.15h25.38l-1.65-8.84a3.91,3.91,0,0,0-3.78-3.29H253.34a3.84,3.84,0,0,0-3.7,3.18Z" transform="translate(-130.99 -383.84)"/>
      <g>
        <path class="cls-12" d="M247.91,1225h25.38l-1.64,7.74a3.8,3.8,0,0,1-3.79,2.88H253.37a3.7,3.7,0,0,1-3.69-2.78Z" transform="translate(-130.99 -383.84)"/>
        <path class="cls-12" d="M245.21,1215.63h30.67l-2,7.79c-.43,1.68-2.35,2.9-4.57,2.9H251.81c-2.16,0-4-1.17-4.46-2.8Z" transform="translate(-130.99 -383.84)"/>
        <path class="cls-12" d="M242.32,1204.61h36.45l-2.37,9.54c-.51,2.06-2.78,3.55-5.43,3.55h-20.8c-2.57,0-4.79-1.43-5.31-3.43Z" transform="translate(-130.99 -383.84)"/>
        <path class="cls-12" d="M239.2,1193.39h42.4l-2.75,11c-.59,2.38-3.24,4.09-6.32,4.09h-24.2c-3,0-5.57-1.64-6.18-4Z" transform="translate(-130.99 -383.84)"/>
      </g>
      <path class="cls-12" d="M286.09,1191.44a4.67,4.67,0,0,1-4.68,4.55h-42c-2.94,0-8.34-.91-8.34-50.79,0-43.14,18.76-63.49,41.84-63.47h6.83a6.49,6.49,0,0,1,6.49,6.49v61.49C286.22,1150,286.15,1179.83,286.09,1191.44Z" transform="translate(-130.99 -383.84)"/>
      <rect class="cls-12" x="154.97" y="704.19" width="6.55" height="103.97"/>
    </g>
    <g class="cls-11">
      <rect class="cls-12" x="529.68" y="1301.87" width="3.7" height="6.96" rx="1" transform="translate(932.07 2226.86) rotate(-180)"/>
      <rect class="cls-12" x="496.77" y="1189.27" width="14.46" height="56.82" transform="translate(877 2051.53) rotate(-180)"/>
      <rect class="cls-12" x="474.78" y="1301.08" width="3.7" height="6.96" rx="1" transform="translate(822.26 2225.28) rotate(-180)"/>
      <g>
        <path class="cls-12" d="M529.53,1302l-.25-47.9a14.35,14.35,0,0,0-9.57,0l.25,48.16C523.14,1302.06,526.33,1302,529.53,1302Z" transform="translate(-130.99 -383.84)"/>
        <path class="cls-13" d="M529.28,1255.33" transform="translate(-130.99 -383.84)"/>
        <path class="cls-13" d="M519.72,1255.35" transform="translate(-130.99 -383.84)"/>
        <path class="cls-13" d="M529.28,1256.59" transform="translate(-130.99 -383.84)"/>
        <path class="cls-13" d="M519.73,1256.61" transform="translate(-130.99 -383.84)"/>
        <line class="cls-13" x1="388.74" y1="874.03" x2="398.3" y2="874.01"/>
        <line class="cls-13" x1="388.74" y1="875.29" x2="398.3" y2="875.28"/>
        <line class="cls-13" x1="388.75" y1="876.55" x2="398.31" y2="876.54"/>
        <line class="cls-13" x1="388.76" y1="877.82" x2="398.32" y2="877.8"/>
        <line class="cls-13" x1="388.76" y1="879.08" x2="398.32" y2="879.06"/>
        <line class="cls-13" x1="388.77" y1="880.34" x2="398.33" y2="880.32"/>
        <line class="cls-13" x1="388.78" y1="881.6" x2="398.34" y2="881.58"/>
        <line class="cls-13" x1="388.78" y1="882.86" x2="398.34" y2="882.84"/>
        <line class="cls-13" x1="388.79" y1="884.12" x2="398.35" y2="884.1"/>
        <line class="cls-13" x1="388.8" y1="885.38" x2="398.36" y2="885.36"/>
        <line class="cls-13" x1="388.8" y1="886.64" x2="398.36" y2="886.62"/>
        <line class="cls-13" x1="388.81" y1="887.9" x2="398.37" y2="887.88"/>
        <line class="cls-13" x1="388.82" y1="889.16" x2="398.38" y2="889.15"/>
        <line class="cls-13" x1="388.82" y1="890.42" x2="398.38" y2="890.41"/>
        <line class="cls-13" x1="388.83" y1="891.69" x2="398.39" y2="891.67"/>
        <line class="cls-13" x1="388.84" y1="892.95" x2="398.39" y2="892.93"/>
        <line class="cls-13" x1="388.84" y1="894.21" x2="398.4" y2="894.19"/>
        <line class="cls-13" x1="388.85" y1="895.47" x2="398.41" y2="895.45"/>
        <line class="cls-13" x1="388.86" y1="896.73" x2="398.41" y2="896.71"/>
        <line class="cls-13" x1="388.86" y1="897.99" x2="398.42" y2="897.97"/>
        <line class="cls-13" x1="388.87" y1="899.25" x2="398.43" y2="899.23"/>
        <line class="cls-13" x1="388.87" y1="900.51" x2="398.43" y2="900.49"/>
        <line class="cls-13" x1="388.88" y1="901.77" x2="398.44" y2="901.76"/>
        <line class="cls-13" x1="388.89" y1="903.03" x2="398.45" y2="903.02"/>
        <line class="cls-13" x1="388.89" y1="904.3" x2="398.45" y2="904.28"/>
        <line class="cls-13" x1="388.9" y1="905.56" x2="398.46" y2="905.54"/>
        <line class="cls-13" x1="388.91" y1="906.82" x2="398.47" y2="906.8"/>
        <line class="cls-13" x1="388.91" y1="908.08" x2="398.47" y2="908.06"/>
        <line class="cls-13" x1="388.92" y1="909.34" x2="398.48" y2="909.32"/>
        <line class="cls-13" x1="388.93" y1="910.6" x2="398.49" y2="910.58"/>
        <line class="cls-13" x1="388.93" y1="911.86" x2="398.49" y2="911.84"/>
        <line class="cls-13" x1="388.94" y1="913.12" x2="398.5" y2="913.1"/>
        <line class="cls-13" x1="388.95" y1="914.38" x2="398.51" y2="914.36"/>
        <line class="cls-13" x1="388.95" y1="915.64" x2="398.51" y2="915.63"/>
        <line class="cls-13" x1="388.96" y1="916.9" x2="398.52" y2="916.89"/>
      </g>
      <g>
        <path class="cls-12" d="M478.39,1301.64l.25-47.6a13.13,13.13,0,0,1,9.56.07l-.24,47.81C484.78,1301.71,481.59,1301.66,478.39,1301.64Z" transform="translate(-130.99 -383.84)"/>
        <path class="cls-13" d="M478.64,1255.32" transform="translate(-130.99 -383.84)"/>
        <path class="cls-13" d="M488.2,1255.34" transform="translate(-130.99 -383.84)"/>
        <path class="cls-13" d="M478.63,1256.57" transform="translate(-130.99 -383.84)"/>
        <path class="cls-13" d="M488.19,1256.59" transform="translate(-130.99 -383.84)"/>
        <line class="cls-13" x1="357.19" y1="874" x2="347.63" y2="873.98"/>
        <line class="cls-13" x1="357.18" y1="875.25" x2="347.63" y2="875.24"/>
        <line class="cls-13" x1="357.18" y1="876.51" x2="347.62" y2="876.49"/>
        <line class="cls-13" x1="357.17" y1="877.76" x2="347.61" y2="877.74"/>
        <line class="cls-13" x1="357.16" y1="879.01" x2="347.61" y2="878.99"/>
        <line class="cls-13" x1="357.16" y1="880.26" x2="347.6" y2="880.24"/>
        <line class="cls-13" x1="357.15" y1="881.51" x2="347.59" y2="881.5"/>
        <line class="cls-13" x1="357.15" y1="882.77" x2="347.59" y2="882.75"/>
        <line class="cls-13" x1="357.14" y1="884.02" x2="347.58" y2="884"/>
        <line class="cls-13" x1="357.13" y1="885.27" x2="347.57" y2="885.25"/>
        <line class="cls-13" x1="357.13" y1="886.52" x2="347.57" y2="886.5"/>
        <line class="cls-13" x1="357.12" y1="887.77" x2="347.56" y2="887.76"/>
        <line class="cls-13" x1="357.11" y1="889.03" x2="347.55" y2="889.01"/>
        <line class="cls-13" x1="357.11" y1="890.28" x2="347.55" y2="890.26"/>
        <line class="cls-13" x1="357.1" y1="891.53" x2="347.54" y2="891.51"/>
        <line class="cls-13" x1="357.09" y1="892.78" x2="347.53" y2="892.76"/>
        <line class="cls-13" x1="357.09" y1="894.03" x2="347.53" y2="894.01"/>
        <line class="cls-13" x1="357.08" y1="895.28" x2="347.52" y2="895.27"/>
        <line class="cls-13" x1="357.07" y1="896.54" x2="347.51" y2="896.52"/>
        <line class="cls-13" x1="357.07" y1="897.79" x2="347.51" y2="897.77"/>
        <line class="cls-13" x1="357.06" y1="899.04" x2="347.5" y2="899.02"/>
        <line class="cls-13" x1="357.05" y1="900.29" x2="347.5" y2="900.27"/>
        <line class="cls-13" x1="357.05" y1="901.54" x2="347.49" y2="901.53"/>
        <line class="cls-13" x1="357.04" y1="902.8" x2="347.48" y2="902.78"/>
        <line class="cls-13" x1="357.03" y1="904.05" x2="347.48" y2="904.03"/>
        <line class="cls-13" x1="357.03" y1="905.3" x2="347.47" y2="905.28"/>
        <line class="cls-13" x1="357.02" y1="906.55" x2="347.46" y2="906.53"/>
        <line class="cls-13" x1="357.01" y1="907.8" x2="347.46" y2="907.78"/>
        <line class="cls-13" x1="357.01" y1="909.05" x2="347.45" y2="909.04"/>
        <line class="cls-13" x1="357" y1="910.31" x2="347.44" y2="910.29"/>
        <line class="cls-13" x1="357" y1="911.56" x2="347.44" y2="911.54"/>
        <line class="cls-13" x1="356.99" y1="912.81" x2="347.43" y2="912.79"/>
        <line class="cls-13" x1="356.98" y1="914.06" x2="347.42" y2="914.04"/>
        <line class="cls-13" x1="356.98" y1="915.31" x2="347.42" y2="915.3"/>
        <line class="cls-13" x1="356.97" y1="916.57" x2="347.41" y2="916.55"/>
      </g>
      <rect class="cls-12" x="358.36" y="919.1" width="3.97" height="5.27"/>
      <rect class="cls-12" x="383.79" y="919.1" width="3.98" height="5.27"/>
      <path class="cls-12" d="M504.05,1277.44a10.73,10.73,0,0,0-10.73,10.73V1323a10.74,10.74,0,1,0,21.47,0v-34.81A10.73,10.73,0,0,0,504.05,1277.44Z" transform="translate(-130.99 -383.84)"/>
      <path class="cls-12" d="M519.27,1319.17h0c7.43,0,11.83-6.14,11.79-13.82V1295l-12.31,0,0,23.59A.55.55,0,0,0,519.27,1319.17Z" transform="translate(-130.99 -383.84)"/>
      <path class="cls-12" d="M488.82,1319.17h0c-7.43,0-11.82-6.14-11.78-13.82V1295l12.31,0v23.59A.54.54,0,0,1,488.82,1319.17Z" transform="translate(-130.99 -383.84)"/>
      <rect class="cls-12" x="343.82" y="874.29" width="58.44" height="7.92"/>
      <path class="cls-12" d="M516.72,1258.22H491.34l1.64-8.84a3.92,3.92,0,0,1,3.79-3.28h14.49a3.82,3.82,0,0,1,3.69,3.17Z" transform="translate(-130.99 -383.84)"/>
      <g>
        <path class="cls-12" d="M516.69,1224.07H491.31l1.64,7.74a3.79,3.79,0,0,0,3.79,2.88h14.49a3.71,3.71,0,0,0,3.69-2.78Z" transform="translate(-130.99 -383.84)"/>
        <path class="cls-12" d="M519.39,1214.71H488.72l2,7.78c.43,1.69,2.34,2.9,4.57,2.9h17.51c2.16,0,4-1.17,4.46-2.8Z" transform="translate(-130.99 -383.84)"/>
        <path class="cls-12" d="M522.28,1203.69H485.83l2.36,9.53c.51,2.06,2.79,3.55,5.44,3.55h20.8c2.57,0,4.78-1.43,5.31-3.43Z" transform="translate(-130.99 -383.84)"/>
        <path class="cls-12" d="M525.4,1192.46H483l2.75,11c.59,2.37,3.24,4.09,6.32,4.09h24.2c3,0,5.57-1.65,6.18-4Z" transform="translate(-130.99 -383.84)"/>
      </g>
      <path class="cls-12" d="M478.51,1190.51a4.67,4.67,0,0,0,4.68,4.55h42c2.94,0,8.34-.91,8.33-50.78,0-43.14-18.75-63.49-41.83-63.47h-6.83a6.49,6.49,0,0,0-6.49,6.5v61.48C478.38,1149,478.45,1178.9,478.51,1190.51Z" transform="translate(-130.99 -383.84)"/>
      <rect class="cls-12" x="472.08" y="1087.1" width="6.55" height="103.97" transform="translate(819.73 1894.34) rotate(-180)"/>
    </g>
    <path class="cls-10" d="M463.16,1006.51h11a0,0,0,0,1,0,0v19.09a0,0,0,0,1,0,0h-11a8.1,8.1,0,0,1-8.1-8.1v-2.93a8.06,8.06,0,0,1,8.06-8.06Z" transform="translate(1277.36 1230.25) rotate(146.94)"/>
    <path class="cls-10" d="M300.48,1004.92h11a0,0,0,0,1,0,0V1024a0,0,0,0,1,0,0h-11a8.06,8.06,0,0,1-8.06-8.06V1013a8.1,8.1,0,0,1,8.1-8.1Z" transform="translate(416.69 -398.89) rotate(30)"/>
    <path class="cls-10" d="M468.59,1047.26h0a2.17,2.17,0,0,0,2.12-2.56,89.8,89.8,0,0,0-176.85.13,2.07,2.07,0,0,0,2,2.43h0v17h0a3.38,3.38,0,0,0-3.38,3.38v207.89c0,2.55,2.19,4,4.62,4.72,43.41,13.58,121.18,16.09,170.43,0,2.38-.78,4.52-2,4.52-4.52v-208a3.45,3.45,0,0,0-3.45-3.45h0Z" transform="translate(-130.99 -383.84)"/>
    <rect class="cls-10" x="165" y="663.88" width="172.71" height="16.98"/>
    <g class="cls-11">
      <circle class="cls-12" cx="226.39" cy="630.83" r="16.84"/>
      <circle class="cls-12" cx="226.52" cy="630.96" r="11.06"/>
    </g>
    <g class="cls-11">
      <circle class="cls-12" cx="276.46" cy="630.83" r="16.84"/>
      <circle class="cls-12" cx="276.59" cy="630.96" r="11.06"/>
    </g>
    <path class="cls-10" d="M414.07,1290.1s-9.31,7.48-31.89,7.46c-21.21,0-31.88-8.08-31.88-8.08,0-32.31,16.76-51.4,31.76-51.4S414.09,1255.78,414.07,1290.1Z" transform="translate(-130.99 -383.84)"/>
    <g class="cls-11">
      <g>
        <path d="M410.29,1084.93a29.37,29.37,0,0,1,29.36,29.36v49.14a29.37,29.37,0,0,1-29.36,29.36H353.57a29.36,29.36,0,0,1-29.35-29.36v-49.14a29.36,29.36,0,0,1,29.35-29.36h56.72m0-4.35H353.57a33.75,33.75,0,0,0-33.71,33.71v49.14a33.75,33.75,0,0,0,33.71,33.71h56.72A33.75,33.75,0,0,0,444,1163.43v-49.14a33.75,33.75,0,0,0-33.71-33.71Z" transform="translate(-130.99 -383.84)"/>
        <path class="cls-14" d="M410.29,1090.44a23.88,23.88,0,0,1,23.85,23.85v49.14a23.88,23.88,0,0,1-23.85,23.85H353.57a23.87,23.87,0,0,1-23.84-23.85v-49.14a23.87,23.87,0,0,1,23.84-23.85h56.72m0-5.51H353.57a29.36,29.36,0,0,0-29.35,29.36v49.14a29.36,29.36,0,0,0,29.35,29.36h56.72a29.37,29.37,0,0,0,29.36-29.36v-49.14a29.37,29.37,0,0,0-29.36-29.36Z" transform="translate(-130.99 -383.84)"/>
      </g>
      <line class="cls-15" x1="222.58" y1="706.75" x2="222.58" y2="803.64"/>
      <line class="cls-15" x1="251.14" y1="706.75" x2="251.14" y2="803.64"/>
      <line class="cls-15" x1="279.69" y1="706.75" x2="279.69" y2="803.64"/>
      <line class="cls-15" x1="199" y1="782.99" x2="302.99" y2="782.99"/>
      <line class="cls-15" x1="198.52" y1="754.44" x2="303.12" y2="754.44"/>
      <line class="cls-15" x1="199" y1="725.89" x2="302.71" y2="725.89"/>
    </g>
    <g class="cls-11">
      <path d="M381.81,1203.08a12.56,12.56,0,1,1-12.55,12.55,12.55,12.55,0,0,1,12.55-12.55m0-4.35a16.91,16.91,0,1,0,16.91,16.9,16.92,16.92,0,0,0-16.91-16.9Z" transform="translate(-130.99 -383.84)"/>
      <path class="cls-14" d="M381.81,1206.08a9.56,9.56,0,1,1-9.55,9.55,9.56,9.56,0,0,1,9.55-9.55m0-3a12.56,12.56,0,1,0,12.56,12.55,12.55,12.55,0,0,0-12.56-12.55Z" transform="translate(-130.99 -383.84)"/>
    </g>
    <g class="cls-11">
      <g>
        <path d="M342.55,1222.1a8.21,8.21,0,1,1-8.21,8.21,8.21,8.21,0,0,1,8.21-8.21m0-4.35a12.56,12.56,0,1,0,12.55,12.56,12.56,12.56,0,0,0-12.55-12.56Z" transform="translate(-130.99 -383.84)"/>
        <path class="cls-16" d="M342.55,1217.75A12.56,12.56,0,1,1,330,1230.31a12.55,12.55,0,0,1,12.56-12.56m0-1a13.56,13.56,0,1,0,13.55,13.56,13.57,13.57,0,0,0-13.55-13.56Z" transform="translate(-130.99 -383.84)"/>
      </g>
      <line class="cls-12" x1="211.55" y1="846.27" x2="211.55" y2="839.11"/>
    </g>
    <line class="cls-10" x1="251.14" y1="830.3" x2="247.24" y2="824.3"/>
    <g class="cls-11">
      <g>
        <path d="M424.29,1222.1a8.21,8.21,0,1,1-8.2,8.21,8.22,8.22,0,0,1,8.2-8.21m0-4.35a12.56,12.56,0,1,0,12.56,12.56,12.55,12.55,0,0,0-12.56-12.56Z" transform="translate(-130.99 -383.84)"/>
        <path class="cls-16" d="M424.29,1217.75a12.56,12.56,0,1,1-12.55,12.56,12.56,12.56,0,0,1,12.55-12.56m0-1a13.56,13.56,0,1,0,13.56,13.56,13.57,13.57,0,0,0-13.56-13.56Z" transform="translate(-130.99 -383.84)"/>
      </g>
      <line class="cls-12" x1="293.3" y1="845.55" x2="293.3" y2="838.4"/>
    </g>
  </g>
  <path class="cls-17" d="M889.15,948.18H1275a11.21,11.21,0,0,1,11.18,11.18v382.88a11.21,11.21,0,0,1-11.18,11.18H178a11.21,11.21,0,0,1-11.17-11.18V959.36A11.21,11.21,0,0,1,178,948.18H570.49" transform="translate(-130.99 -383.84)"/>
  <text class="cls-18" transform="translate(476.01 688.67) scale(0.99 1)">Your castle in the sky is under <tspan x="23.9" y="63">siege by robot pirates! They </tspan><tspan x="4.3" y="126">wish to plunder your precious </tspan><tspan x="54.92" y="189">scrap to fuel themselves!</tspan></text>
</svg>
