<svg xmlns="http://www.w3.org/2000/svg" viewBox="0 0 915.79 934.1">
  <defs>
    <style>
      .cls-1 {
        fill: #ccc;
      }

      .cls-11, .cls-15, .cls-2 {
        fill: #666;
      }

      .cls-14, .cls-17, .cls-19, .cls-20, .cls-21, .cls-22, .cls-3, .cls-8 {
        fill: none;
      }

      .cls-19, .cls-20, .cls-3, .cls-8 {
        stroke: #000;
      }

      .cls-13, .cls-14, .cls-19, .cls-20, .cls-3, .cls-8 {
        stroke-linecap: round;
      }

      .cls-13, .cls-14, .cls-3 {
        stroke-linejoin: round;
      }

      .cls-13, .cls-16, .cls-4 {
        fill: #4d4d4d;
      }

      .cls-5 {
        fill: gray;
      }

      .cls-6 {
        fill: #999;
      }

      .cls-12, .cls-18, .cls-7 {
        fill: #1a1a1a;
      }

      .cls-11, .cls-12, .cls-15, .cls-16, .cls-17, .cls-18, .cls-19, .cls-20, .cls-22, .cls-8 {
        stroke-miterlimit: 10;
      }

      .cls-9 {
        fill: #b3b3b3;
      }

      .cls-10 {
        fill: #333;
      }

      .cls-11, .cls-13, .cls-14, .cls-15, .cls-16 {
        stroke: #333;
      }

      .cls-12 {
        stroke: #666;
      }

      .cls-12, .cls-18 {
        stroke-width: 4px;
      }

      .cls-13 {
        stroke-width: 0.57px;
      }

      .cls-15 {
        stroke-width: 1.14px;
      }

      .cls-16 {
        stroke-width: 1.05px;
      }

      .cls-17 {
        stroke: #1a1a1a;
        stroke-width: 2px;
      }

      .cls-18 {
        stroke: gray;
      }

      .cls-19 {
        stroke-width: 0.58px;
      }

      .cls-20 {
        stroke-width: 0.58px;
      }

      .cls-21 {
        stroke: #e6e6e6;
        stroke-linejoin: bevel;
        stroke-width: 0.34px;
      }

      .cls-22 {
        stroke: #999;
      }
    </style>
  </defs>
  <g id="robot_1" data-name="robot 1">
    <g>
      <circle class="cls-1" cx="346.25" cy="704.87" r="10.96"/>
      <path class="cls-2" d="M697.87,654.23s-21.37,18.9-19.56,27c2.14,9.64,34.55,19.18,34.55,19.18s-22.47-12.8-23.61-20.54c-1-6.5,11.29-17.86,17.66-19.46,7.05-1.78,25.05,2.84,27.4,9.72,2.46,7.17-11.71,28-11.71,28s22.52-21.25,20.65-30.21c-1.7-8.11-28.12-17.59-28.12-17.59l-17.26,3.88" transform="translate(-358.2 58.55)"/>
    </g>
    <g>
      <circle class="cls-1" cx="108.07" cy="702.07" r="10.96"/>
      <path class="cls-2" d="M472.86,651.43s21.37,18.9,19.56,27.05c-2.15,9.64-34.55,19.18-34.55,19.18s22.47-12.8,23.6-20.54c1-6.5-11.28-17.86-17.66-19.46-7.05-1.78-25,2.84-27.4,9.72-2.45,7.17,11.72,28,11.72,28s-22.52-21.25-20.65-30.21c1.7-8.11,28.12-17.59,28.12-17.59l17.26,3.88" transform="translate(-358.2 58.55)"/>
    </g>
    <g>
      <path class="cls-2" d="M694.36,584.2l-26.94-90.7c-3.57,1.34-7.14,2.67-10.77,3.84l26.91,90.6A110.19,110.19,0,0,1,694.36,584.2Z" transform="translate(-358.2 58.55)"/>
      <line class="cls-3" x1="299.14" y1="558.21" x2="310.07" y2="554.96"/>
      <line class="cls-3" x1="299.84" y1="560.58" x2="310.78" y2="557.34"/>
      <line class="cls-3" x1="300.55" y1="562.96" x2="311.48" y2="559.71"/>
      <line class="cls-3" x1="301.25" y1="565.33" x2="312.19" y2="562.08"/>
      <line class="cls-3" x1="301.95" y1="567.7" x2="312.89" y2="564.45"/>
      <line class="cls-3" x1="302.66" y1="570.07" x2="313.6" y2="566.83"/>
      <line class="cls-3" x1="303.36" y1="572.45" x2="314.3" y2="569.2"/>
      <line class="cls-3" x1="304.07" y1="574.82" x2="315.01" y2="571.57"/>
      <line class="cls-3" x1="304.77" y1="577.19" x2="315.71" y2="573.94"/>
      <line class="cls-3" x1="305.48" y1="579.56" x2="316.42" y2="576.32"/>
      <line class="cls-3" x1="306.18" y1="581.94" x2="317.12" y2="578.69"/>
      <line class="cls-3" x1="306.89" y1="584.31" x2="317.82" y2="581.06"/>
      <line class="cls-3" x1="307.59" y1="586.68" x2="318.53" y2="583.43"/>
      <line class="cls-3" x1="308.3" y1="589.05" x2="319.23" y2="585.8"/>
      <line class="cls-3" x1="309" y1="591.43" x2="319.94" y2="588.18"/>
      <line class="cls-3" x1="309.71" y1="593.8" x2="320.64" y2="590.55"/>
      <line class="cls-3" x1="310.41" y1="596.17" x2="321.35" y2="592.92"/>
      <line class="cls-3" x1="311.11" y1="598.54" x2="322.05" y2="595.29"/>
      <line class="cls-3" x1="311.82" y1="600.92" x2="322.76" y2="597.67"/>
      <line class="cls-3" x1="312.52" y1="603.29" x2="323.46" y2="600.04"/>
      <line class="cls-3" x1="313.23" y1="605.66" x2="324.17" y2="602.41"/>
      <line class="cls-3" x1="313.93" y1="608.03" x2="324.87" y2="604.78"/>
      <line class="cls-3" x1="314.64" y1="610.4" x2="325.58" y2="607.16"/>
      <line class="cls-3" x1="315.34" y1="612.78" x2="326.28" y2="609.53"/>
      <line class="cls-3" x1="316.05" y1="615.15" x2="326.98" y2="611.9"/>
      <line class="cls-3" x1="316.75" y1="617.52" x2="327.69" y2="614.27"/>
      <line class="cls-3" x1="317.46" y1="619.89" x2="328.39" y2="616.65"/>
      <line class="cls-3" x1="318.16" y1="622.27" x2="329.1" y2="619.02"/>
      <line class="cls-3" x1="318.86" y1="624.64" x2="329.8" y2="621.39"/>
      <line class="cls-3" x1="319.57" y1="627.01" x2="330.51" y2="623.76"/>
      <line class="cls-3" x1="320.27" y1="629.38" x2="331.21" y2="626.14"/>
      <line class="cls-3" x1="320.98" y1="631.76" x2="331.92" y2="628.51"/>
      <line class="cls-3" x1="321.68" y1="634.13" x2="332.62" y2="630.88"/>
      <line class="cls-3" x1="322.39" y1="636.5" x2="333.33" y2="633.25"/>
      <line class="cls-3" x1="323.09" y1="638.87" x2="334.03" y2="635.63"/>
      <line class="cls-3" x1="323.8" y1="641.25" x2="334.73" y2="638"/>
      <line class="cls-3" x1="324.5" y1="643.62" x2="335.44" y2="640.37"/>
    </g>
    <g>
      <g>
        <path class="cls-2" d="M591.53,606.75V512.14c-5.68.27-11.36.52-17.06.61v94.52C580.14,606.86,585.83,606.77,591.53,606.75Z" transform="translate(-358.2 58.55)"/>
        <line class="cls-3" x1="216.27" y1="573.73" x2="233.32" y2="573.73"/>
        <line class="cls-3" x1="216.27" y1="576.2" x2="233.32" y2="576.2"/>
        <line class="cls-3" x1="216.27" y1="578.68" x2="233.32" y2="578.68"/>
        <line class="cls-3" x1="216.27" y1="581.15" x2="233.32" y2="581.15"/>
        <line class="cls-3" x1="216.27" y1="583.63" x2="233.32" y2="583.63"/>
        <line class="cls-3" x1="216.27" y1="586.1" x2="233.32" y2="586.1"/>
        <line class="cls-3" x1="216.27" y1="588.58" x2="233.32" y2="588.58"/>
        <line class="cls-3" x1="216.27" y1="591.05" x2="233.32" y2="591.05"/>
        <line class="cls-3" x1="216.27" y1="593.53" x2="233.32" y2="593.53"/>
        <line class="cls-3" x1="216.27" y1="596" x2="233.32" y2="596"/>
        <line class="cls-3" x1="216.27" y1="598.48" x2="233.32" y2="598.48"/>
        <line class="cls-3" x1="216.27" y1="600.95" x2="233.32" y2="600.95"/>
        <line class="cls-3" x1="216.27" y1="603.43" x2="233.32" y2="603.43"/>
        <line class="cls-3" x1="216.27" y1="605.9" x2="233.32" y2="605.9"/>
        <line class="cls-3" x1="216.27" y1="608.37" x2="233.32" y2="608.37"/>
        <line class="cls-3" x1="216.27" y1="610.85" x2="233.32" y2="610.85"/>
        <line class="cls-3" x1="216.27" y1="613.32" x2="233.32" y2="613.32"/>
        <line class="cls-3" x1="216.27" y1="615.8" x2="233.32" y2="615.8"/>
        <line class="cls-3" x1="216.27" y1="618.27" x2="233.32" y2="618.27"/>
        <line class="cls-3" x1="216.27" y1="620.75" x2="233.32" y2="620.75"/>
        <line class="cls-3" x1="216.27" y1="623.22" x2="233.32" y2="623.22"/>
        <line class="cls-3" x1="216.27" y1="625.7" x2="233.32" y2="625.7"/>
        <line class="cls-3" x1="216.27" y1="628.17" x2="233.32" y2="628.17"/>
        <line class="cls-3" x1="216.27" y1="630.65" x2="233.32" y2="630.65"/>
        <line class="cls-3" x1="216.27" y1="633.12" x2="233.32" y2="633.12"/>
        <line class="cls-3" x1="216.27" y1="635.6" x2="233.32" y2="635.6"/>
        <line class="cls-3" x1="216.27" y1="638.07" x2="233.32" y2="638.07"/>
        <line class="cls-3" x1="216.27" y1="640.55" x2="233.32" y2="640.55"/>
        <line class="cls-3" x1="216.27" y1="643.02" x2="233.32" y2="643.02"/>
        <line class="cls-3" x1="216.27" y1="645.5" x2="233.32" y2="645.5"/>
        <line class="cls-3" x1="216.27" y1="647.97" x2="233.32" y2="647.97"/>
        <line class="cls-3" x1="216.27" y1="650.45" x2="233.32" y2="650.45"/>
        <line class="cls-3" x1="216.27" y1="652.92" x2="233.32" y2="652.92"/>
        <line class="cls-3" x1="216.27" y1="655.4" x2="233.32" y2="655.4"/>
        <line class="cls-3" x1="216.27" y1="657.87" x2="233.32" y2="657.87"/>
        <line class="cls-3" x1="216.27" y1="660.35" x2="233.32" y2="660.35"/>
        <line class="cls-3" x1="216.27" y1="662.82" x2="233.32" y2="662.82"/>
      </g>
      <g>
        <path class="cls-2" d="M591.53,514.94V420.33c-5.68.26-11.36.52-17.06.61v94.52C580.14,515.05,585.83,515,591.53,514.94Z" transform="translate(-358.2 58.55)"/>
        <line class="cls-3" x1="216.27" y1="481.91" x2="233.32" y2="481.91"/>
        <line class="cls-3" x1="216.27" y1="484.39" x2="233.32" y2="484.39"/>
        <line class="cls-3" x1="216.27" y1="486.86" x2="233.32" y2="486.86"/>
        <line class="cls-3" x1="216.27" y1="489.34" x2="233.32" y2="489.34"/>
        <line class="cls-3" x1="216.27" y1="491.81" x2="233.32" y2="491.81"/>
        <line class="cls-3" x1="216.27" y1="494.29" x2="233.32" y2="494.29"/>
        <line class="cls-3" x1="216.27" y1="496.76" x2="233.32" y2="496.76"/>
        <line class="cls-3" x1="216.27" y1="499.24" x2="233.32" y2="499.24"/>
        <line class="cls-3" x1="216.27" y1="501.71" x2="233.32" y2="501.71"/>
        <line class="cls-3" x1="216.27" y1="504.19" x2="233.32" y2="504.19"/>
        <line class="cls-3" x1="216.27" y1="506.66" x2="233.32" y2="506.66"/>
        <line class="cls-3" x1="216.27" y1="509.14" x2="233.32" y2="509.14"/>
        <line class="cls-3" x1="216.27" y1="511.61" x2="233.32" y2="511.61"/>
        <line class="cls-3" x1="216.27" y1="514.09" x2="233.32" y2="514.09"/>
        <line class="cls-3" x1="216.27" y1="516.56" x2="233.32" y2="516.56"/>
        <line class="cls-3" x1="216.27" y1="519.04" x2="233.32" y2="519.04"/>
        <line class="cls-3" x1="216.27" y1="521.51" x2="233.32" y2="521.51"/>
        <line class="cls-3" x1="216.27" y1="523.99" x2="233.32" y2="523.99"/>
        <line class="cls-3" x1="216.27" y1="526.46" x2="233.32" y2="526.46"/>
        <line class="cls-3" x1="216.27" y1="528.94" x2="233.32" y2="528.94"/>
        <line class="cls-3" x1="216.27" y1="531.41" x2="233.32" y2="531.41"/>
        <line class="cls-3" x1="216.27" y1="533.89" x2="233.32" y2="533.89"/>
        <line class="cls-3" x1="216.27" y1="536.36" x2="233.32" y2="536.36"/>
        <line class="cls-3" x1="216.27" y1="538.84" x2="233.32" y2="538.84"/>
        <line class="cls-3" x1="216.27" y1="541.31" x2="233.32" y2="541.31"/>
        <line class="cls-3" x1="216.27" y1="543.79" x2="233.32" y2="543.79"/>
        <line class="cls-3" x1="216.27" y1="546.26" x2="233.32" y2="546.26"/>
        <line class="cls-3" x1="216.27" y1="548.73" x2="233.32" y2="548.73"/>
        <line class="cls-3" x1="216.27" y1="551.21" x2="233.32" y2="551.21"/>
        <line class="cls-3" x1="216.27" y1="553.68" x2="233.32" y2="553.68"/>
        <line class="cls-3" x1="216.27" y1="556.16" x2="233.32" y2="556.16"/>
        <line class="cls-3" x1="216.27" y1="558.63" x2="233.32" y2="558.63"/>
        <line class="cls-3" x1="216.27" y1="561.11" x2="233.32" y2="561.11"/>
        <line class="cls-3" x1="216.27" y1="563.58" x2="233.32" y2="563.58"/>
        <line class="cls-3" x1="216.27" y1="566.06" x2="233.32" y2="566.06"/>
        <line class="cls-3" x1="216.27" y1="568.53" x2="233.32" y2="568.53"/>
        <line class="cls-3" x1="216.27" y1="571.01" x2="233.32" y2="571.01"/>
      </g>
    </g>
    <circle class="cls-1" cx="291.07" cy="545.45" r="22.74"/>
    <path class="cls-1" d="M676.71,591.54a14.7,14.7,0,0,0,14.7,14.69,14.85,14.85,0,0,0,14.69-14.69c.28-9-5.6-14.7-14.69-14.7A14.7,14.7,0,0,0,676.71,591.54Z" transform="translate(-358.2 58.55)"/>
    <g>
      <path class="cls-2" d="M474.76,580.93l26.94-90.7c3.57,1.34,7.15,2.67,10.78,3.84l-26.91,90.61A108.73,108.73,0,0,0,474.76,580.93Z" transform="translate(-358.2 58.55)"/>
      <line class="cls-3" x1="153.58" y1="554.94" x2="142.64" y2="551.69"/>
      <line class="cls-3" x1="152.88" y1="557.32" x2="141.94" y2="554.07"/>
      <line class="cls-3" x1="152.17" y1="559.69" x2="141.24" y2="556.44"/>
      <line class="cls-3" x1="151.47" y1="562.06" x2="140.53" y2="558.81"/>
      <line class="cls-3" x1="150.76" y1="564.43" x2="139.83" y2="561.18"/>
      <line class="cls-3" x1="150.06" y1="566.81" x2="139.12" y2="563.56"/>
      <line class="cls-3" x1="149.36" y1="569.18" x2="138.42" y2="565.93"/>
      <line class="cls-3" x1="148.65" y1="571.55" x2="137.71" y2="568.3"/>
      <line class="cls-3" x1="147.95" y1="573.92" x2="137.01" y2="570.67"/>
      <line class="cls-3" x1="147.24" y1="576.3" x2="136.3" y2="573.05"/>
      <line class="cls-3" x1="146.54" y1="578.67" x2="135.6" y2="575.42"/>
      <line class="cls-3" x1="145.83" y1="581.04" x2="134.89" y2="577.79"/>
      <line class="cls-3" x1="145.13" y1="583.41" x2="134.19" y2="580.16"/>
      <line class="cls-3" x1="144.42" y1="585.78" x2="133.48" y2="582.54"/>
      <line class="cls-3" x1="143.72" y1="588.16" x2="132.78" y2="584.91"/>
      <line class="cls-3" x1="143.01" y1="590.53" x2="132.08" y2="587.28"/>
      <line class="cls-3" x1="142.31" y1="592.9" x2="131.37" y2="589.65"/>
      <line class="cls-3" x1="141.6" y1="595.27" x2="130.67" y2="592.03"/>
      <line class="cls-3" x1="140.9" y1="597.65" x2="129.96" y2="594.4"/>
      <line class="cls-3" x1="140.2" y1="600.02" x2="129.26" y2="596.77"/>
      <line class="cls-3" x1="139.49" y1="602.39" x2="128.55" y2="599.14"/>
      <line class="cls-3" x1="138.79" y1="604.76" x2="127.85" y2="601.52"/>
      <line class="cls-3" x1="138.08" y1="607.14" x2="127.14" y2="603.89"/>
      <line class="cls-3" x1="137.38" y1="609.51" x2="126.44" y2="606.26"/>
      <line class="cls-3" x1="136.67" y1="611.88" x2="125.73" y2="608.63"/>
      <line class="cls-3" x1="135.97" y1="614.25" x2="125.03" y2="611"/>
      <line class="cls-3" x1="135.26" y1="616.63" x2="124.33" y2="613.38"/>
      <line class="cls-3" x1="134.56" y1="619" x2="123.62" y2="615.75"/>
      <line class="cls-3" x1="133.85" y1="621.37" x2="122.92" y2="618.12"/>
      <line class="cls-3" x1="133.15" y1="623.74" x2="122.21" y2="620.49"/>
      <line class="cls-3" x1="132.44" y1="626.12" x2="121.51" y2="622.87"/>
      <line class="cls-3" x1="131.74" y1="628.49" x2="120.8" y2="625.24"/>
      <line class="cls-3" x1="131.04" y1="630.86" x2="120.1" y2="627.61"/>
      <line class="cls-3" x1="130.33" y1="633.23" x2="119.39" y2="629.98"/>
      <line class="cls-3" x1="129.63" y1="635.6" x2="118.69" y2="632.36"/>
      <line class="cls-3" x1="128.92" y1="637.98" x2="117.98" y2="634.73"/>
      <line class="cls-3" x1="128.22" y1="640.35" x2="117.28" y2="637.1"/>
    </g>
    <path class="cls-1" d="M492.36,586.11a14.71,14.71,0,1,1-28.72,5.21C463,582,468.69,576,477.77,575.76,483.94,575.62,490.66,580.17,492.36,586.11Z" transform="translate(-358.2 58.55)"/>
    <circle class="cls-1" cx="163.96" cy="545.22" r="22.51"/>
    <g>
      <path class="cls-4" d="M620.37,557H548.21a12.21,12.21,0,0,1-11.67-8.61l-7.38-23.87H639.6L631.43,549A11.66,11.66,0,0,1,620.37,557Z" transform="translate(-358.2 58.55)"/>
      <line class="cls-3" x1="172.76" y1="588.87" x2="279.45" y2="588.87"/>
      <line class="cls-3" x1="174.59" y1="594.79" x2="277.48" y2="594.79"/>
      <line class="cls-3" x1="176.42" y1="600.71" x2="275.5" y2="600.71"/>
      <line class="cls-3" x1="178.25" y1="606.63" x2="273.53" y2="606.63"/>
      <line class="cls-3" x1="182.14" y1="612.55" x2="269.81" y2="612.55"/>
      <line class="cls-3" x1="171.86" y1="585.95" x2="280.42" y2="585.95"/>
      <line class="cls-3" x1="173.69" y1="591.87" x2="278.45" y2="591.87"/>
      <line class="cls-3" x1="175.52" y1="597.79" x2="276.48" y2="597.79"/>
      <line class="cls-3" x1="177.35" y1="603.71" x2="274.5" y2="603.71"/>
      <line class="cls-3" x1="179.56" y1="609.63" x2="272.18" y2="609.63"/>
    </g>
    <path class="cls-1" d="M620,369.11c.31,30.19-17.93,54.33-36.92,54.67-17.77.32-38.52-24.52-36.93-54.67,1.29-24.51,16-41.15,36.39-41.15S619.72,346,620,369.11Z" transform="translate(-358.2 58.55)"/>
    <path class="cls-5" d="M591.76,585.18H573.2c-4.74,0-14,40.09-14,40.09l-3.57,34.83c0,3.57,3,5.25,6.58,5.25H603c3.65,0,6-2.64,6-6.29l-3.48-34.12S597,585.18,591.76,585.18Z" transform="translate(-358.2 58.55)"/>
    <path class="cls-5" d="M639.6,524.48H618.76V455.09h20.59c6.3,0,16.51,5.1,20,10.4C659.4,465.49,646.12,524.48,639.6,524.48Z" transform="translate(-358.2 58.55)"/>
    <path class="cls-5" d="M550.06,524.48H528.55c-6.5,0-18.76-57-18.76-57,3.18-7.33,15.87-12.38,22.1-12.38h18.17Z" transform="translate(-358.2 58.55)"/>
    <path class="cls-6" d="M589.07,566.37H578.75c-13.58,0-20.65-11.25-24.59-24.58l-22.27-86.7c0-2.76,21.59-6.86,24.35-6.86l55-.12c2.57,0,28.12,4.42,28.12,7l-25.7,86.7C609.72,555.12,602.65,566.37,589.07,566.37Z" transform="translate(-358.2 58.55)"/>
    <path class="cls-1" d="M585.81,506.4H580.4A15.76,15.76,0,0,1,565,494.26L553.1,448.59c0-1.45,16.67-5.44,22.3-5.44h17c5.18,0,20.66,3.79,20.66,5.14L602.81,493.5C601.32,501,592.92,506.4,585.81,506.4Z" transform="translate(-358.2 58.55)"/>
    <circle class="cls-5" cx="224.67" cy="423.06" r="13"/>
    <circle class="cls-7" cx="224.77" cy="423.16" r="8.54"/>
    <path class="cls-5" d="M714.78,645.86l-19.26,4.32a4.33,4.33,0,0,1-5-2.66l-17-44.07A12.51,12.51,0,0,1,683,588.51l18-4a12.5,12.5,0,0,1,14.93,9.46L718,641.66A4.12,4.12,0,0,1,714.78,645.86Z" transform="translate(-358.2 58.55)"/>
    <path class="cls-5" d="M457,643.38l17.8,4a6.22,6.22,0,0,0,7.16-3.82L498.45,601A12.5,12.5,0,0,0,489,586.06l-18-4A12.49,12.49,0,0,0,456,591.48L454,639.34A4,4,0,0,0,457,643.38Z" transform="translate(-358.2 58.55)"/>
    <rect class="cls-1" x="525.48" y="628.67" width="38.89" height="25.4" rx="2.8" transform="translate(-506.56 1177.04) rotate(-84.18)"/>
    <rect class="cls-1" x="607.16" y="621.26" width="25.4" height="38.89" rx="2.3" transform="translate(-419.94 124.66) rotate(-5.82)"/>
    <rect class="cls-2" x="632.28" y="627.89" width="5.64" height="19.53" transform="translate(-441.07 153.55) rotate(-8.03)"/>
    <rect class="cls-2" x="526.5" y="629.08" width="5.64" height="19.53" transform="matrix(0.99, 0.1, -0.1, 0.99, -290.74, 8.2)"/>
    <g>
      <rect class="cls-2" x="646.38" y="796.29" width="9.21" height="17.32" rx="1.87" transform="translate(943.76 1668.44) rotate(-180)"/>
      <rect class="cls-2" x="509.71" y="796.29" width="9.21" height="17.32" rx="2.49" transform="translate(670.43 1668.44) rotate(-180)"/>
      <g>
        <path class="cls-2" d="M526.74,763.28l10.85-106.49c4.25.74,8.5,1.47,12.78,2L539.53,765.18A125.18,125.18,0,0,0,526.74,763.28Z" transform="translate(-358.2 58.55)"/>
        <line class="cls-8" x1="191.89" y1="720.07" x2="179.05" y2="718.77"/>
        <line class="cls-8" x1="191.61" y1="722.86" x2="178.76" y2="721.55"/>
        <line class="cls-8" x1="191.32" y1="725.64" x2="178.48" y2="724.34"/>
        <line class="cls-8" x1="191.04" y1="728.43" x2="178.2" y2="727.12"/>
        <line class="cls-8" x1="190.76" y1="731.22" x2="177.91" y2="729.91"/>
        <line class="cls-8" x1="190.47" y1="734" x2="177.63" y2="732.69"/>
        <line class="cls-8" x1="190.19" y1="736.79" x2="177.35" y2="735.48"/>
        <line class="cls-8" x1="189.9" y1="739.57" x2="177.06" y2="738.26"/>
        <line class="cls-8" x1="189.62" y1="742.36" x2="176.78" y2="741.05"/>
        <line class="cls-8" x1="189.34" y1="745.14" x2="176.49" y2="743.83"/>
        <line class="cls-8" x1="189.05" y1="747.93" x2="176.21" y2="746.62"/>
        <line class="cls-8" x1="188.77" y1="750.71" x2="175.93" y2="749.41"/>
        <line class="cls-8" x1="188.49" y1="753.5" x2="175.64" y2="752.19"/>
        <line class="cls-8" x1="188.2" y1="756.28" x2="175.36" y2="754.98"/>
        <line class="cls-8" x1="187.92" y1="759.07" x2="175.08" y2="757.76"/>
        <line class="cls-8" x1="187.63" y1="761.86" x2="174.79" y2="760.55"/>
        <line class="cls-8" x1="187.35" y1="764.64" x2="174.51" y2="763.33"/>
        <line class="cls-8" x1="187.07" y1="767.43" x2="174.22" y2="766.12"/>
        <line class="cls-8" x1="186.78" y1="770.21" x2="173.94" y2="768.9"/>
        <line class="cls-8" x1="186.5" y1="773" x2="173.66" y2="771.69"/>
        <line class="cls-8" x1="186.22" y1="775.78" x2="173.37" y2="774.47"/>
        <line class="cls-8" x1="185.93" y1="778.57" x2="173.09" y2="777.26"/>
        <line class="cls-8" x1="185.65" y1="781.35" x2="172.81" y2="780.05"/>
        <line class="cls-8" x1="185.36" y1="784.14" x2="172.52" y2="782.83"/>
        <line class="cls-8" x1="185.08" y1="786.92" x2="172.24" y2="785.62"/>
        <line class="cls-8" x1="184.8" y1="789.71" x2="171.95" y2="788.4"/>
        <line class="cls-8" x1="184.51" y1="792.5" x2="171.67" y2="791.19"/>
        <line class="cls-8" x1="184.23" y1="795.28" x2="171.39" y2="793.97"/>
        <line class="cls-8" x1="183.95" y1="798.07" x2="171.1" y2="796.76"/>
        <line class="cls-8" x1="183.66" y1="800.85" x2="170.82" y2="799.54"/>
        <line class="cls-8" x1="183.38" y1="803.64" x2="170.54" y2="802.33"/>
        <line class="cls-8" x1="183.1" y1="806.42" x2="170.25" y2="805.11"/>
        <line class="cls-8" x1="182.81" y1="809.21" x2="169.97" y2="807.9"/>
        <line class="cls-8" x1="182.53" y1="811.99" x2="169.69" y2="810.69"/>
        <line class="cls-8" x1="182.24" y1="814.78" x2="169.4" y2="813.47"/>
        <line class="cls-8" x1="181.96" y1="817.56" x2="169.12" y2="816.26"/>
        <line class="cls-8" x1="181.68" y1="820.35" x2="168.83" y2="819.04"/>
      </g>
      <g>
        <path class="cls-2" d="M639.21,764.18,628.36,657.69c-4.25.74-8.5,1.47-12.78,2l10.83,106.39A125.37,125.37,0,0,1,639.21,764.18Z" transform="translate(-358.2 58.55)"/>
        <line class="cls-3" x1="257.65" y1="720.97" x2="270.5" y2="719.66"/>
        <line class="cls-3" x1="257.94" y1="723.76" x2="270.78" y2="722.45"/>
        <line class="cls-3" x1="258.22" y1="726.54" x2="271.06" y2="725.24"/>
        <line class="cls-3" x1="258.5" y1="729.33" x2="271.35" y2="728.02"/>
        <line class="cls-3" x1="258.79" y1="732.11" x2="271.63" y2="730.81"/>
        <line class="cls-3" x1="259.07" y1="734.9" x2="271.91" y2="733.59"/>
        <line class="cls-3" x1="259.36" y1="737.69" x2="272.2" y2="736.38"/>
        <line class="cls-3" x1="259.64" y1="740.47" x2="272.48" y2="739.16"/>
        <line class="cls-3" x1="259.92" y1="743.26" x2="272.77" y2="741.95"/>
        <line class="cls-3" x1="260.21" y1="746.04" x2="273.05" y2="744.73"/>
        <line class="cls-3" x1="260.49" y1="748.83" x2="273.33" y2="747.52"/>
        <line class="cls-3" x1="260.77" y1="751.61" x2="273.62" y2="750.3"/>
        <line class="cls-3" x1="261.06" y1="754.4" x2="273.9" y2="753.09"/>
        <line class="cls-3" x1="261.34" y1="757.18" x2="274.18" y2="755.88"/>
        <line class="cls-3" x1="261.63" y1="759.97" x2="274.47" y2="758.66"/>
        <line class="cls-3" x1="261.91" y1="762.75" x2="274.75" y2="761.45"/>
        <line class="cls-3" x1="262.19" y1="765.54" x2="275.04" y2="764.23"/>
        <line class="cls-3" x1="262.48" y1="768.33" x2="275.32" y2="767.02"/>
        <line class="cls-3" x1="262.76" y1="771.11" x2="275.6" y2="769.8"/>
        <line class="cls-3" x1="263.04" y1="773.9" x2="275.89" y2="772.59"/>
        <line class="cls-3" x1="263.33" y1="776.68" x2="276.17" y2="775.37"/>
        <line class="cls-3" x1="263.61" y1="779.47" x2="276.45" y2="778.16"/>
        <line class="cls-3" x1="263.9" y1="782.25" x2="276.74" y2="780.94"/>
        <line class="cls-3" x1="264.18" y1="785.04" x2="277.02" y2="783.73"/>
        <line class="cls-3" x1="264.46" y1="787.82" x2="277.31" y2="786.52"/>
        <line class="cls-3" x1="264.75" y1="790.61" x2="277.59" y2="789.3"/>
        <line class="cls-3" x1="265.03" y1="793.39" x2="277.87" y2="792.09"/>
        <line class="cls-3" x1="265.31" y1="796.18" x2="278.16" y2="794.87"/>
        <line class="cls-3" x1="265.6" y1="798.97" x2="278.44" y2="797.66"/>
        <line class="cls-3" x1="265.88" y1="801.75" x2="278.72" y2="800.44"/>
        <line class="cls-3" x1="266.17" y1="804.54" x2="279.01" y2="803.23"/>
        <line class="cls-3" x1="266.45" y1="807.32" x2="279.29" y2="806.01"/>
        <line class="cls-3" x1="266.73" y1="810.11" x2="279.58" y2="808.8"/>
        <line class="cls-3" x1="267.02" y1="812.89" x2="279.86" y2="811.58"/>
        <line class="cls-3" x1="267.3" y1="815.68" x2="280.14" y2="814.37"/>
        <line class="cls-3" x1="267.58" y1="818.46" x2="280.43" y2="817.16"/>
        <line class="cls-3" x1="267.87" y1="821.25" x2="280.71" y2="819.94"/>
      </g>
      <rect class="cls-5" x="524.13" y="761.03" width="17.33" height="13.29" transform="translate(-308.84 26.55) rotate(3.61)"/>
      <path class="cls-9" d="M544.69,839.34h0a30.64,30.64,0,0,1-30.37-34.61L517.81,778a8,8,0,0,1,8.47-7l12.46.79a8,8,0,0,1,7.55,8.08L546,838A1.34,1.34,0,0,1,544.69,839.34Z" transform="translate(-358.2 58.55)"/>
      <rect class="cls-2" x="187.89" y="857.5" width="9.62" height="13.12"/>
      <rect class="cls-5" x="623.84" y="761.03" width="17.33" height="13.29" transform="translate(953.86 1552.58) rotate(176.39)"/>
      <path class="cls-9" d="M620.6,839.34h0A30.64,30.64,0,0,0,651,804.73L647.49,778a8,8,0,0,0-8.47-7l-12.46.79A8,8,0,0,0,619,779.9l.26,58.11A1.34,1.34,0,0,0,620.6,839.34Z" transform="translate(-358.2 58.55)"/>
      <rect class="cls-2" x="609.25" y="798.95" width="9.95" height="13.12" transform="translate(870.24 1669.58) rotate(-180)"/>
      <path class="cls-7" d="M582.45,735.47a26.73,26.73,0,0,0-26.72,26.72v86.65a26.72,26.72,0,0,0,53.44,0V762.19A26.72,26.72,0,0,0,582.45,735.47Z" transform="translate(-358.2 58.55)"/>
    </g>
  </g>
  <g id="robot_2" data-name="robot 2">
    <path class="cls-10" d="M437.5,168.56a26.61,26.61,0,0,0-26.62,26.61v86.32a26.62,26.62,0,0,0,53.23,0V195.17A26.61,26.61,0,0,0,437.5,168.56Z" transform="translate(-358.2 58.55)"/>
    <path class="cls-10" d="M731.15,167.9a26.61,26.61,0,0,0-26.61,26.62v86.31a26.62,26.62,0,1,0,53.23,0V194.52A26.62,26.62,0,0,0,731.15,167.9Z" transform="translate(-358.2 58.55)"/>
    <g>
      <g>
        <circle class="cls-1" cx="429.12" cy="187.78" r="9.97"/>
        <path class="cls-2" d="M793.31,136.43s19.45,17.2,17.8,24.61c-2,8.77-31.44,17.45-31.44,17.45s20.45-11.64,21.48-18.68c.87-5.92-10.27-16.26-16.07-17.72-6.41-1.61-22.79,2.6-24.93,8.85-2.23,6.53,10.66,25.45,10.66,25.45S750.32,157.05,752,148.9c1.55-7.38,25.58-16,25.58-16l15.71,3.53" transform="translate(-358.2 58.55)"/>
      </g>
      <g>
        <path class="cls-11" d="M657.2,10.5s25.62-11.63,32.34-6.82c2.13,1.52,1.26,10.4,1.26,10.4l4.58,37.75-20.07,3Z" transform="translate(-358.2 58.55)"/>
        <path class="cls-11" d="M720.22,5c7.8,8.67-4.12,46.5-4.12,46.5l-20.76,0-5.7-47S715.1-.7,720.22,5Z" transform="translate(-358.2 58.55)"/>
        <path class="cls-11" d="M720.14,5.83S739.67,8,742.6,13.14c5.51,9.64-9.57,43.38-9.57,43.38L716.15,50.9Z" transform="translate(-358.2 58.55)"/>
        <path class="cls-11" d="M765.49,26.73c-2.16-6.23-23.07-12.79-23.07-12.79l-9.06,41.57,17.12,6.76S768.64,35.84,765.49,26.73Z" transform="translate(-358.2 58.55)"/>
        <path class="cls-11" d="M785.39,43.89c-.54-6.48-20.25-16.34-20.25-16.34l-14.35,34L761,71.4S786.15,53.06,785.39,43.89Z" transform="translate(-358.2 58.55)"/>
        <path class="cls-11" d="M799,70.19c2.21-7-14.12-25.68-14.12-25.68L761.4,70.93l8.41,13.59S796.52,77.94,799,70.19Z" transform="translate(-358.2 58.55)"/>
        <path class="cls-11" d="M803.5,94.44c3.4-5.2-5.42-24.25-5.42-24.25L770.69,84.06l3.4,16.15S799.4,100.72,803.5,94.44Z" transform="translate(-358.2 58.55)"/>
        <path class="cls-11" d="M800.75,116.9c4.31-3.85,2.22-23,2.22-23L775,100l2.19,16.49S796.36,120.82,800.75,116.9Z" transform="translate(-358.2 58.55)"/>
        <path class="cls-11" d="M797.88,131.26c2.93-2.34,2.44-14.77,2.44-14.77H777.19l.39,13.57S793.91,134.43,797.88,131.26Z" transform="translate(-358.2 58.55)"/>
      </g>
    </g>
    <g>
      <g>
        <circle class="cls-1" cx="24.39" cy="188.02" r="10.18"/>
        <path class="cls-2" d="M376.47,136.81s-19.85,17.56-18.17,25.12c2,9,32.1,17.82,32.1,17.82s-20.88-11.89-21.93-19.07c-.89-6,10.48-16.6,16.4-18.09,6.55-1.64,23.27,2.65,25.45,9,2.28,6.66-10.88,26-10.88,26s20.92-19.75,19.18-28.06C417,142,392.5,133.21,392.5,133.21l-16,3.6" transform="translate(-358.2 58.55)"/>
      </g>
      <g>
        <path class="cls-11" d="M512.33,12.07S486.72.44,480,5.25c-2.13,1.52-1.26,10.4-1.26,10.4l-4.59,37.76,20.08,3Z" transform="translate(-358.2 58.55)"/>
        <path class="cls-11" d="M449.32,6.56c-7.81,8.67,4.12,46.5,4.12,46.5l20.76,0,5.7-47S454.44.87,449.32,6.56Z" transform="translate(-358.2 58.55)"/>
        <path class="cls-11" d="M449.4,7.41s-19.53,2.18-22.46,7.31c-5.51,9.64,9.57,43.37,9.57,43.37l16.87-5.62Z" transform="translate(-358.2 58.55)"/>
        <path class="cls-11" d="M404.05,28.3c2.15-6.23,23.07-12.78,23.07-12.78l9.06,41.57-17.13,6.75S400.9,37.42,404.05,28.3Z" transform="translate(-358.2 58.55)"/>
        <path class="cls-11" d="M384.15,45.47c.54-6.49,20.25-16.34,20.25-16.34l14.35,34L408.56,73S383.39,54.63,384.15,45.47Z" transform="translate(-358.2 58.55)"/>
        <path class="cls-11" d="M370.58,71.77c-2.21-7,14.11-25.69,14.11-25.69L408.14,72.5l-8.41,13.59S373,79.51,370.58,71.77Z" transform="translate(-358.2 58.55)"/>
        <path class="cls-11" d="M366,96c-3.4-5.2,5.41-24.25,5.41-24.25l27.4,13.87-3.4,16.14S370.13,102.29,366,96Z" transform="translate(-358.2 58.55)"/>
        <path class="cls-11" d="M368.79,118.47c-4.45-3.7-2.23-23-2.23-23l28,6.11-3.27,14.92S373.13,122.07,368.79,118.47Z" transform="translate(-358.2 58.55)"/>
        <path class="cls-11" d="M371.65,132.83c-3-2.17-2.44-14.76-2.44-14.76l22.06-1.58.58,12.9S375.82,135.8,371.65,132.83Z" transform="translate(-358.2 58.55)"/>
      </g>
    </g>
    <path class="cls-1" d="M704.54,163.73c0,36-38.67,59.51-41.84,61.08a1.21,1.21,0,0,1-.37.11l-78.52,9.61h-.27L504,225.89a1,1,0,0,1-.41-.12c-3.23-1.74-39.52-25.81-39.52-63,0-57.75,29.13-95.52,47.1-151.1a1.14,1.14,0,0,1,.8-.75l15.67-4.18c4.69,11.72,31,11.52,55.49,11.52,31,0,54.45-.7,59.87-11.44l15.44,1.62a1.1,1.1,0,0,1,.95.82C673,66.09,704.51,111.72,704.54,163.73Z" transform="translate(-358.2 58.55)"/>
    <path class="cls-2" d="M643,6.79c-6.3,23.47-6.74,34.89-59.36,34.89-52.19,0-52-11.16-55.23-34.9,1.47,11.65,34.29,12,54.72,12S639.82,18.43,643,6.79Z" transform="translate(-358.2 58.55)"/>
    <path class="cls-1" d="M528.45,6.78c2,13,31.67,19.56,54.72,19.55,26.27,0,56.22-6.59,59.87-19.54-1.58-36.75-26.63-61.6-57.3-61.6S530-29.95,528.44,6.81Z" transform="translate(-358.2 58.55)"/>
    <path class="cls-12" d="M611.27-30.53C594-29.32,566.18,4.46,549.43.27c-12.52-3.12-10.22-30.66,7.18-29.48C574.2-28,604.93,6.12,621.15-.78,635.74-7,625.49-31.53,611.27-30.53Z" transform="translate(-358.2 58.55)"/>
    <rect class="cls-5" x="453.38" y="245.35" width="259.58" height="13.23" transform="translate(808.14 562.48) rotate(-180)"/>
    <path class="cls-7" d="M436.85,201.75a20.4,20.4,0,0,0-20.4,20.4V288.3a20.4,20.4,0,1,0,40.8,0V222.15A20.4,20.4,0,0,0,436.85,201.75Z" transform="translate(-358.2 58.55)"/>
    <path class="cls-7" d="M731.48,201.75a20.4,20.4,0,0,0-20.4,20.4V288.3a20.4,20.4,0,0,0,40.8,0V222.15A20.4,20.4,0,0,0,731.48,201.75Z" transform="translate(-358.2 58.55)"/>
    <g>
      <polygon class="cls-13" points="134.01 284.12 134.01 331.56 169.28 343.43 146.74 284.12 134.01 284.12"/>
      <polygon class="cls-13" points="119.72 290.41 119.72 326.87 134.01 332.08 134.01 284.12 119.72 290.41"/>
      <polygon class="cls-13" points="105.84 292.69 105.91 324.07 119.72 327.25 119.72 290.1 105.84 292.69"/>
    </g>
    <g>
      <polygon class="cls-13" points="317.05 284.12 317.05 330.89 281.78 342.76 304.32 283.44 317.05 284.12"/>
      <polygon class="cls-13" points="331.34 289.74 331.34 326.2 317.05 331.41 317.05 284.12 331.34 289.74"/>
      <polygon class="cls-13" points="346.34 292.22 346.34 321.94 331.34 326.58 331.34 289.42 346.34 292.22"/>
    </g>
    <path class="cls-2" d="M662.53,224.89,640,289.13s-42.07,7.84-56.28,7.95c-13.94.1-55.34-6.95-55.34-6.95l-24.54-64.26c0-43.77,35.48-77.76,79.25-77.76S662.53,181.13,662.53,224.89Z" transform="translate(-358.2 58.55)"/>
    <g>
      <path class="cls-14" d="M503.82,225.87s59.78,8.81,79.86,8.67c19.86-.13,78.85-9.65,78.85-9.65" transform="translate(-358.2 58.55)"/>
      <path class="cls-14" d="M505.53,230.34S564,239,583.67,238.83c19.47-.13,77.28-9.46,77.28-9.46" transform="translate(-358.2 58.55)"/>
      <path class="cls-14" d="M507.24,234.81s57.21,8.44,76.43,8.31,75.71-9.27,75.71-9.27" transform="translate(-358.2 58.55)"/>
      <path class="cls-14" d="M509,239.29s55.93,8.24,74.72,8.11,74.14-9.07,74.14-9.07" transform="translate(-358.2 58.55)"/>
      <path class="cls-14" d="M510.65,243.76s54.65,8.06,73,7.93,72.58-8.88,72.58-8.88" transform="translate(-358.2 58.55)"/>
      <path class="cls-14" d="M512.36,248.23s53.37,7.87,71.3,7.75,71-8.69,71-8.69" transform="translate(-358.2 58.55)"/>
      <path class="cls-14" d="M514.07,252.7s52.09,7.68,69.59,7.56,69.44-8.49,69.44-8.49" transform="translate(-358.2 58.55)"/>
      <path class="cls-14" d="M515.78,257.18s50.81,7.49,67.87,7.37,67.87-8.3,67.87-8.3" transform="translate(-358.2 58.55)"/>
      <path class="cls-14" d="M517.48,261.65s49.53,7.3,66.17,7.19,66.3-8.12,66.3-8.12" transform="translate(-358.2 58.55)"/>
      <path class="cls-14" d="M519.19,266.12s48.25,7.11,64.46,7,64.73-7.93,64.73-7.93" transform="translate(-358.2 58.55)"/>
      <path class="cls-14" d="M520.9,270.59s47,6.93,62.74,6.82,63.17-7.73,63.17-7.73" transform="translate(-358.2 58.55)"/>
      <path class="cls-14" d="M522.61,275.07s45.68,6.73,61,6.63c15.51-.11,61.6-7.54,61.6-7.54" transform="translate(-358.2 58.55)"/>
      <path class="cls-14" d="M524.08,279.51s44.58,6.58,59.56,6.48,60-7.35,60-7.35" transform="translate(-358.2 58.55)"/>
      <path class="cls-14" d="M526,284s43.13,6.36,57.62,6.26c14.72-.1,58.45-7.15,58.45-7.15" transform="translate(-358.2 58.55)"/>
    </g>
    <path class="cls-6" d="M583.17,212.63c17.61.26,56.79-41.69,56.79-41.69-14.45-26.2-34.6-42-56.84-42-21.54,0-41.06,15.29-55.34,40.46C527.78,169.36,565.6,212.36,583.17,212.63Z" transform="translate(-358.2 58.55)"/>
  </g>
  <g id="robot_3" data-name="robot 3">
    <g>
      <g>
        <circle class="cls-1" cx="891.62" cy="673.33" r="11.35"/>
        <path class="cls-2" d="M1255.8,623.61s20.1,21.67,17.4,29.88c-3.19,9.73-37.58,16.25-37.58,16.25s24.47-10.9,26.44-18.76c1.64-6.6-9.82-19.57-16.22-21.87-7.09-2.55-26.12.38-29.25,7.22-3.26,7.15,9.22,30,9.22,30s-21-24.22-18.2-33.26c2.58-8.19,30.79-15.26,30.79-15.26l17.4,5.76" transform="translate(-358.2 58.55)"/>
      </g>
      <g>
        <path class="cls-15" d="M1118.73,465.34s27.88-9.51,34.38-3.81c2.25,2,.26,11.92.26,11.92l1,43.3-20.39.86Z" transform="translate(-358.2 58.55)"/>
        <path class="cls-15" d="M1187.73,466.45c7.87,10.71-9.89,52.24-9.89,52.24l-23.52-2.37-1.19-53.88S1182.57,459.44,1187.73,466.45Z" transform="translate(-358.2 58.55)"/>
        <path class="cls-15" d="M1187.55,467.41s21.88,4.66,24.63,10.8c5.16,11.54-15.72,48.08-15.72,48.08L1178,518Z" transform="translate(-358.2 58.55)"/>
        <path class="cls-15" d="M1236.59,496.18c-1.74-7.31-24.71-17.08-24.71-17.08L1197,525.19l18.65,9.58S1239.13,506.86,1236.59,496.18Z" transform="translate(-358.2 58.55)"/>
        <path class="cls-15" d="M1257.21,517.86c.12-7.4-21.11-20.79-21.11-20.79L1216,534l10.45,12.31S1257.05,528.33,1257.21,517.86Z" transform="translate(-358.2 58.55)"/>
        <path class="cls-15" d="M1269.64,549.19c3.28-7.67-13.11-30.69-13.11-30.69L1227,545.8l8,16.35S1266,557.69,1269.64,549.19Z" transform="translate(-358.2 58.55)"/>
        <path class="cls-15" d="M1272.06,577.18c4.44-5.51-3.42-28.09-3.42-28.09l-32.59,12.64,2,18.68S1266.71,583.83,1272.06,577.18Z" transform="translate(-358.2 58.55)"/>
        <path class="cls-15" d="M1266.42,602.31c5.32-3.88,5.11-25.83,5.11-25.83l-32.39,3.8.63,18.93S1261,606.26,1266.42,602.31Z" transform="translate(-358.2 58.55)"/>
        <path class="cls-15" d="M1261.56,618.26c3.58-2.32,4.42-16.45,4.42-16.45l-26.21-2.6-1.09,15.42S1256.7,621.41,1261.56,618.26Z" transform="translate(-358.2 58.55)"/>
      </g>
    </g>
    <g>
      <g>
        <circle class="cls-1" cx="474.4" cy="673.33" r="11.35"/>
        <path class="cls-2" d="M826.62,623.61s-20.11,21.67-17.41,29.88c3.2,9.73,37.59,16.25,37.59,16.25s-24.48-10.9-26.44-18.76c-1.65-6.6,9.81-19.57,16.22-21.87,7.08-2.55,26.11.38,29.24,7.22,3.27,7.15-9.22,30-9.22,30s21-24.22,18.2-33.26c-2.57-8.19-30.78-15.26-30.78-15.26l-17.4,5.76" transform="translate(-358.2 58.55)"/>
      </g>
      <g>
        <path class="cls-15" d="M965.81,465.58s-29-9.35-36.51-4.05c-11.28,8-1.21,55.22-1.21,55.22l21.19,1.36Z" transform="translate(-358.2 58.55)"/>
        <path class="cls-15" d="M894.69,466.45c-7.88,10.71,9.88,52.24,9.88,52.24l23.53-2.37,1.18-53.88S899.84,459.44,894.69,466.45Z" transform="translate(-358.2 58.55)"/>
        <path class="cls-15" d="M894.87,467.41s-21.89,4.66-24.63,10.8C865.07,489.75,886,526.29,886,526.29l18.5-8.27Z" transform="translate(-358.2 58.55)"/>
        <path class="cls-15" d="M845.83,496.18c1.74-7.31,24.7-17.08,24.7-17.08l14.94,46.09-18.65,9.58S843.28,506.86,845.83,496.18Z" transform="translate(-358.2 58.55)"/>
        <path class="cls-15" d="M825.2,517.86c-.12-7.4,21.12-20.79,21.12-20.79L866.39,534,856,546.29S825.37,528.33,825.2,517.86Z" transform="translate(-358.2 58.55)"/>
        <path class="cls-15" d="M812.78,549.19c-3.29-7.67,13.11-30.69,13.11-30.69l29.53,27.3-8,16.35S816.42,557.69,812.78,549.19Z" transform="translate(-358.2 58.55)"/>
        <path class="cls-15" d="M810.35,577.18c-4.43-5.51,3.42-28.09,3.42-28.09l32.6,12.64-2,18.68S815.7,583.83,810.35,577.18Z" transform="translate(-358.2 58.55)"/>
        <path class="cls-15" d="M816,602.31c-5.32-3.88-5.1-25.83-5.1-25.83l32.39,3.8-.64,18.93S821.41,606.26,816,602.31Z" transform="translate(-358.2 58.55)"/>
        <path class="cls-15" d="M820.85,618.26c-3.57-2.32-4.42-16.45-4.42-16.45l26.21-2.6,1.09,15.42S825.71,621.41,820.85,618.26Z" transform="translate(-358.2 58.55)"/>
      </g>
    </g>
    <path class="cls-6" d="M1133.73,518.2l-184.07.3,28.78,79.08A11,11,0,0,0,988.86,605l107.51.06a10,10,0,0,0,9.47-6.73Z" transform="translate(-358.2 58.55)"/>
    <g>
      <rect class="cls-7" x="513.04" y="786.22" width="55.23" height="134.42" rx="11.03"/>
      <rect class="cls-7" x="797.69" y="786.83" width="53.49" height="134.42" rx="10.86"/>
      <rect class="cls-5" x="568.27" y="844.68" width="229.42" height="19.14"/>
    </g>
    <path class="cls-1" d="M1201,755.71a5.19,5.19,0,0,1-5.58,5.18c-8.43-.64-24.07-1.47-30.15.48-33.58,10.77-97.42,55.35-122.32,56-27.35.72-89.52-44.89-123.19-56-6.1-2-22.13-1.06-30.15-.42a4.37,4.37,0,0,1-4.71-4.35v-32a16.83,16.83,0,0,1,16.84-16.83h281A18.26,18.26,0,0,1,1201,726Z" transform="translate(-358.2 58.55)"/>
    <path class="cls-6" d="M1121,707.78s-55.36,33.37-78.79,32.93-77.51-32.93-77.51-32.93L979,668.39A11.07,11.07,0,0,1,989.4,661l107.5-.06a10,10,0,0,1,9.47,6.74Z" transform="translate(-358.2 58.55)"/>
    <g>
      <path class="cls-16" d="M1095.71,605.05s-39.53-16.25-53.5-16.22c-13.76,0-52.57,16.26-52.57,16.26l-.32,10.19,6.48,3.13,93.23.47,6.68-3.58Z" transform="translate(-358.2 58.55)"/>
      <polygon class="cls-16" points="737.5 690.66 684.01 706.88 631.44 690.62 631.12 680.43 637.6 677.31 730.83 676.84 737.5 680.41 737.5 690.66"/>
      <polygon class="cls-16" points="736.97 705.69 683.48 721.9 630.91 705.64 630.59 695.46 637.07 692.33 730.3 691.86 736.97 695.43 736.97 705.69"/>
      <path class="cls-16" d="M1095.17,662.16s-39.52,16.26-53.49,16.22c-13.76,0-52.57-16.26-52.57-16.26l-.32-10.19,6.48-3.12,93.23-.48,6.67,3.58Z" transform="translate(-358.2 58.55)"/>
    </g>
    <path class="cls-1" d="M1133.73,518.2s-67.25,15.17-90.35,15.22c-23.65.06-93.72-14.92-93.72-14.92l16.91-53.73a2.05,2.05,0,0,1,2.32-1.41l47.83,8.37h51.88l46.91-9a2.18,2.18,0,0,1,2.51,1.53Z" transform="translate(-358.2 58.55)"/>
    <g>
      <path class="cls-1" d="M1042.64,389.87c-34.38,0-34.38,30.34-34.38,34.91v13l-4.63,41.52,78.32,0L1077,437.64l0-12.86C1077,420.21,1077,389.87,1042.64,389.87Z" transform="translate(-358.2 58.55)"/>
      <path class="cls-4" d="M1085,479.3c-6.13,9.31-32.2,16.92-42.39,16.89-8.12,0-35.47-7.8-41.55-16.91-1.43-2.14,0-10.29,0-10.29l83.94-.4S1086.47,477.06,1085,479.3Z" transform="translate(-358.2 58.55)"/>
      <path class="cls-5" d="M1042.63,481.67c-9.93,0-38-12.7-38-12.7V457.42a4.32,4.32,0,0,1,2.72-4c7.29-2.9,27.23-10.51,35.26-10.3s27.88,8.93,35.29,12.34a4.92,4.92,0,0,1,2.87,4.48v8.69S1052.64,481.64,1042.63,481.67Z" transform="translate(-358.2 58.55)"/>
    </g>
    <g>
      <line class="cls-17" x1="684.41" y1="507.21" x2="684.41" y2="535.98"/>
      <line class="cls-17" x1="679.5" y1="508.73" x2="679.5" y2="534.66"/>
      <line class="cls-17" x1="674.59" y1="510.05" x2="674.59" y2="533.35"/>
      <line class="cls-17" x1="669.68" y1="511.37" x2="669.68" y2="532.03"/>
      <line class="cls-17" x1="664.77" y1="512.68" x2="664.77" y2="530.65"/>
      <line class="cls-17" x1="659.86" y1="514" x2="659.86" y2="529.26"/>
      <line class="cls-17" x1="690.05" y1="508.73" x2="690.05" y2="534.66"/>
      <line class="cls-17" x1="694.96" y1="510.05" x2="694.96" y2="533.35"/>
      <line class="cls-17" x1="699.86" y1="511.37" x2="699.86" y2="532.03"/>
      <line class="cls-17" x1="704.77" y1="512.68" x2="704.77" y2="530.65"/>
      <line class="cls-17" x1="709.68" y1="514" x2="709.68" y2="529.26"/>
    </g>
    <path class="cls-18" d="M1075.82,432l-32.9,2.68a6.86,6.86,0,0,1-1.11,0L1009.74,432a6.78,6.78,0,0,1-6.23-6.77h0a6.79,6.79,0,0,1,6.79-6.79h65a6.79,6.79,0,0,1,6.79,6.79h0A6.78,6.78,0,0,1,1075.82,432Z" transform="translate(-358.2 58.55)"/>
  </g>
  <g id="Layer_4" data-name="Layer 4">
    <path class="cls-7" d="M1038.06,211.21c-12.23,0-22.14,8-22.14,17.94v58.19c0,9.91,9.91,17.94,22.14,17.94s22.14-8,22.14-17.94V229.15C1060.2,219.24,1050.29,211.21,1038.06,211.21Z" transform="translate(-358.2 58.55)"/>
    <g>
      <rect class="cls-2" x="529.09" y="332.03" width="3.7" height="6.96" rx="1"/>
      <rect class="cls-9" x="551.24" y="219.48" width="14.45" height="56.8"/>
      <rect class="cls-2" x="583.97" y="331.24" width="3.7" height="6.96" rx="1"/>
      <g>
        <path class="cls-2" d="M891.14,273.6l.25-47.89a14.41,14.41,0,0,1,9.57,0l-.25,48.15C897.53,273.67,894.34,273.62,891.14,273.6Z" transform="translate(-358.2 58.55)"/>
        <path class="cls-19" d="M891.39,227" transform="translate(-358.2 58.55)"/>
        <path class="cls-19" d="M901,227" transform="translate(-358.2 58.55)"/>
        <path class="cls-19" d="M891.39,228.22" transform="translate(-358.2 58.55)"/>
        <path class="cls-19" d="M900.94,228.24" transform="translate(-358.2 58.55)"/>
        <line class="cls-19" x1="542.74" y1="288.05" x2="533.18" y2="288.03"/>
        <line class="cls-19" x1="542.73" y1="289.31" x2="533.17" y2="289.29"/>
        <line class="cls-19" x1="542.72" y1="290.57" x2="533.17" y2="290.55"/>
        <line class="cls-19" x1="542.72" y1="291.83" x2="533.16" y2="291.81"/>
        <line class="cls-19" x1="542.71" y1="293.09" x2="533.15" y2="293.07"/>
        <line class="cls-19" x1="542.7" y1="294.35" x2="533.15" y2="294.34"/>
        <line class="cls-19" x1="542.7" y1="295.61" x2="533.14" y2="295.6"/>
        <line class="cls-19" x1="542.69" y1="296.87" x2="533.13" y2="296.86"/>
        <line class="cls-19" x1="542.68" y1="298.14" x2="533.13" y2="298.12"/>
        <line class="cls-19" x1="542.68" y1="299.4" x2="533.12" y2="299.38"/>
        <line class="cls-19" x1="542.67" y1="300.66" x2="533.11" y2="300.64"/>
        <line class="cls-19" x1="542.66" y1="301.92" x2="533.11" y2="301.9"/>
        <line class="cls-19" x1="542.66" y1="303.18" x2="533.1" y2="303.16"/>
        <line class="cls-19" x1="542.65" y1="304.44" x2="533.09" y2="304.42"/>
        <line class="cls-19" x1="542.64" y1="305.7" x2="533.09" y2="305.68"/>
        <line class="cls-19" x1="542.64" y1="306.96" x2="533.08" y2="306.94"/>
        <line class="cls-19" x1="542.63" y1="308.22" x2="533.08" y2="308.2"/>
        <line class="cls-19" x1="542.62" y1="309.48" x2="533.07" y2="309.46"/>
        <line class="cls-19" x1="542.62" y1="310.74" x2="533.06" y2="310.72"/>
        <line class="cls-19" x1="542.61" y1="312" x2="533.06" y2="311.98"/>
        <line class="cls-19" x1="542.6" y1="313.26" x2="533.05" y2="313.24"/>
        <line class="cls-19" x1="542.6" y1="314.52" x2="533.04" y2="314.5"/>
        <line class="cls-19" x1="542.59" y1="315.78" x2="533.04" y2="315.76"/>
        <line class="cls-19" x1="542.59" y1="317.04" x2="533.03" y2="317.02"/>
        <line class="cls-19" x1="542.58" y1="318.3" x2="533.02" y2="318.28"/>
        <line class="cls-19" x1="542.57" y1="319.56" x2="533.02" y2="319.55"/>
        <line class="cls-19" x1="542.57" y1="320.82" x2="533.01" y2="320.81"/>
        <line class="cls-19" x1="542.56" y1="322.08" x2="533" y2="322.07"/>
        <line class="cls-19" x1="542.55" y1="323.34" x2="533" y2="323.33"/>
        <line class="cls-19" x1="542.55" y1="324.61" x2="532.99" y2="324.59"/>
        <line class="cls-19" x1="542.54" y1="325.87" x2="532.98" y2="325.85"/>
        <line class="cls-19" x1="542.53" y1="327.13" x2="532.98" y2="327.11"/>
        <line class="cls-19" x1="542.53" y1="328.39" x2="532.97" y2="328.37"/>
        <line class="cls-19" x1="542.52" y1="329.65" x2="532.96" y2="329.63"/>
        <line class="cls-19" x1="542.51" y1="330.91" x2="532.96" y2="330.89"/>
      </g>
      <g>
        <path class="cls-2" d="M942.26,273.26,942,225.67a13.2,13.2,0,0,0-9.57.07l.25,47.8C935.88,273.32,939.07,273.27,942.26,273.26Z" transform="translate(-358.2 58.55)"/>
        <path class="cls-20" d="M942,227" transform="translate(-358.2 58.55)"/>
        <path class="cls-20" d="M932.46,227" transform="translate(-358.2 58.55)"/>
        <path class="cls-20" d="M942,228.2" transform="translate(-358.2 58.55)"/>
        <path class="cls-20" d="M932.47,228.22" transform="translate(-358.2 58.55)"/>
        <line class="cls-20" x1="574.27" y1="288.02" x2="583.83" y2="288"/>
        <line class="cls-20" x1="574.28" y1="289.27" x2="583.83" y2="289.25"/>
        <line class="cls-20" x1="574.28" y1="290.52" x2="583.84" y2="290.51"/>
        <line class="cls-20" x1="574.29" y1="291.78" x2="583.85" y2="291.76"/>
        <line class="cls-20" x1="574.3" y1="293.03" x2="583.85" y2="293.01"/>
        <line class="cls-20" x1="574.3" y1="294.28" x2="583.86" y2="294.26"/>
        <line class="cls-20" x1="574.31" y1="295.53" x2="583.86" y2="295.51"/>
        <line class="cls-20" x1="574.32" y1="296.78" x2="583.87" y2="296.76"/>
        <line class="cls-20" x1="574.32" y1="298.03" x2="583.88" y2="298.01"/>
        <line class="cls-20" x1="574.33" y1="299.28" x2="583.88" y2="299.27"/>
        <line class="cls-20" x1="574.34" y1="300.54" x2="583.89" y2="300.52"/>
        <line class="cls-20" x1="574.34" y1="301.79" x2="583.9" y2="301.77"/>
        <line class="cls-20" x1="574.35" y1="303.04" x2="583.9" y2="303.02"/>
        <line class="cls-20" x1="574.36" y1="304.29" x2="583.91" y2="304.27"/>
        <line class="cls-20" x1="574.36" y1="305.54" x2="583.92" y2="305.52"/>
        <line class="cls-20" x1="574.37" y1="306.79" x2="583.92" y2="306.77"/>
        <line class="cls-20" x1="574.37" y1="308.04" x2="583.93" y2="308.03"/>
        <line class="cls-20" x1="574.38" y1="309.3" x2="583.94" y2="309.28"/>
        <line class="cls-20" x1="574.39" y1="310.55" x2="583.94" y2="310.53"/>
        <line class="cls-20" x1="574.39" y1="311.8" x2="583.95" y2="311.78"/>
        <line class="cls-20" x1="574.4" y1="313.05" x2="583.96" y2="313.03"/>
        <line class="cls-20" x1="574.41" y1="314.3" x2="583.96" y2="314.28"/>
        <line class="cls-20" x1="574.41" y1="315.55" x2="583.97" y2="315.53"/>
        <line class="cls-20" x1="574.42" y1="316.8" x2="583.98" y2="316.79"/>
        <line class="cls-20" x1="574.43" y1="318.05" x2="583.98" y2="318.04"/>
        <line class="cls-20" x1="574.43" y1="319.31" x2="583.99" y2="319.29"/>
        <line class="cls-20" x1="574.44" y1="320.56" x2="584" y2="320.54"/>
        <line class="cls-20" x1="574.45" y1="321.81" x2="584" y2="321.79"/>
        <line class="cls-20" x1="574.45" y1="323.06" x2="584.01" y2="323.04"/>
        <line class="cls-20" x1="574.46" y1="324.31" x2="584.01" y2="324.29"/>
        <line class="cls-20" x1="574.47" y1="325.56" x2="584.02" y2="325.55"/>
        <line class="cls-20" x1="574.47" y1="326.81" x2="584.03" y2="326.8"/>
        <line class="cls-20" x1="574.48" y1="328.07" x2="584.03" y2="328.05"/>
        <line class="cls-20" x1="574.49" y1="329.32" x2="584.04" y2="329.3"/>
        <line class="cls-20" x1="574.49" y1="330.57" x2="584.05" y2="330.55"/>
      </g>
      <rect class="cls-2" x="927.34" y="274.55" width="3.97" height="5.27" transform="translate(1500.44 612.92) rotate(-180)"/>
      <rect class="cls-2" x="543.7" y="333.1" width="3.98" height="5.27"/>
      <path class="cls-7" d="M916.61,249.06a10.73,10.73,0,0,1,10.73,10.73v34.8a10.73,10.73,0,1,1-21.46,0v-34.8A10.72,10.72,0,0,1,916.61,249.06Z" transform="translate(-358.2 58.55)"/>
      <path class="cls-9" d="M901.4,290.77h0c-7.43,0-11.82-6.13-11.78-13.81V266.64h12.3v23.59A.53.53,0,0,1,901.4,290.77Z" transform="translate(-358.2 58.55)"/>
      <path class="cls-9" d="M931.83,290.77h0c7.43,0,11.83-6.13,11.79-13.81V266.64H931.31v23.59A.53.53,0,0,0,931.83,290.77Z" transform="translate(-358.2 58.55)"/>
      <rect class="cls-9" x="887.42" y="229.76" width="58.42" height="7.92" transform="translate(1475.05 525.98) rotate(-180)"/>
      <path class="cls-5" d="M903.94,229.85h25.38L927.67,221a3.91,3.91,0,0,0-3.78-3.29H909.41a3.83,3.83,0,0,0-3.7,3.17Z" transform="translate(-358.2 58.55)"/>
      <g>
        <path class="cls-11" d="M904,195.71h25.37l-1.64,7.74a3.8,3.8,0,0,1-3.79,2.88H909.44a3.72,3.72,0,0,1-3.7-2.78Z" transform="translate(-358.2 58.55)"/>
        <path class="cls-11" d="M901.28,186.35h30.66l-2,7.79c-.43,1.68-2.34,2.89-4.57,2.89h-17.5c-2.16,0-4-1.17-4.47-2.8Z" transform="translate(-358.2 58.55)"/>
        <path class="cls-11" d="M898.39,175.34h36.43l-2.36,9.53c-.51,2.06-2.78,3.54-5.43,3.54h-20.8c-2.56,0-4.78-1.43-5.3-3.42Z" transform="translate(-358.2 58.55)"/>
        <path class="cls-11" d="M895.27,164.11h42.39l-2.75,11c-.59,2.37-3.24,4.08-6.32,4.08H904.4c-3,0-5.57-1.64-6.18-3.94Z" transform="translate(-358.2 58.55)"/>
      </g>
      <path class="cls-6" d="M942.14,162.17a4.66,4.66,0,0,1-4.67,4.54h-42c-2.94,0-8.33-.9-8.33-50.76,0-43.13,18.75-63.47,41.82-63.45h6.83A6.48,6.48,0,0,1,942.27,59v61.46C942.27,120.71,942.21,150.56,942.14,162.17Z" transform="translate(-358.2 58.55)"/>
      <rect class="cls-10" x="583.81" y="117.35" width="6.55" height="103.93"/>
    </g>
    <g>
      <rect class="cls-2" x="1185.65" y="272.55" width="3.7" height="6.96" rx="1" transform="translate(2016.79 610.62) rotate(-180)"/>
      <rect class="cls-9" x="1152.74" y="160" width="14.45" height="56.8" transform="translate(1961.74 435.35) rotate(-180)"/>
      <rect class="cls-2" x="1130.76" y="271.76" width="3.7" height="6.96" rx="1" transform="translate(1907.02 609.03) rotate(-180)"/>
      <g>
        <path class="cls-2" d="M1185.49,272.68l-.25-47.89a14.26,14.26,0,0,0-9.56,0l.25,48.14C1179.11,272.75,1182.29,272.69,1185.49,272.68Z" transform="translate(-358.2 58.55)"/>
        <path class="cls-19" d="M1185.24,226" transform="translate(-358.2 58.55)"/>
        <path class="cls-19" d="M1175.69,226.05" transform="translate(-358.2 58.55)"/>
        <path class="cls-19" d="M1185.25,227.3" transform="translate(-358.2 58.55)"/>
        <path class="cls-19" d="M1175.69,227.31" transform="translate(-358.2 58.55)"/>
        <line class="cls-19" x1="817.5" y1="287.12" x2="827.05" y2="287.11"/>
        <line class="cls-19" x1="817.5" y1="288.38" x2="827.06" y2="288.37"/>
        <line class="cls-19" x1="817.51" y1="289.65" x2="827.07" y2="289.63"/>
        <line class="cls-19" x1="817.52" y1="290.91" x2="827.07" y2="290.89"/>
        <line class="cls-19" x1="817.52" y1="292.17" x2="827.08" y2="292.15"/>
        <line class="cls-19" x1="817.53" y1="293.43" x2="827.09" y2="293.41"/>
        <line class="cls-19" x1="817.54" y1="294.69" x2="827.09" y2="294.67"/>
        <line class="cls-19" x1="817.54" y1="295.95" x2="827.1" y2="295.93"/>
        <line class="cls-19" x1="817.55" y1="297.21" x2="827.11" y2="297.19"/>
        <line class="cls-19" x1="817.56" y1="298.47" x2="827.11" y2="298.45"/>
        <line class="cls-19" x1="817.56" y1="299.73" x2="827.12" y2="299.71"/>
        <line class="cls-19" x1="817.57" y1="300.99" x2="827.12" y2="300.97"/>
        <line class="cls-19" x1="817.58" y1="302.25" x2="827.13" y2="302.23"/>
        <line class="cls-19" x1="817.58" y1="303.51" x2="827.14" y2="303.49"/>
        <line class="cls-19" x1="817.59" y1="304.77" x2="827.14" y2="304.75"/>
        <line class="cls-19" x1="817.6" y1="306.03" x2="827.15" y2="306.01"/>
        <line class="cls-19" x1="817.6" y1="307.29" x2="827.16" y2="307.27"/>
        <line class="cls-19" x1="817.61" y1="308.55" x2="827.16" y2="308.53"/>
        <line class="cls-19" x1="817.61" y1="309.81" x2="827.17" y2="309.79"/>
        <line class="cls-19" x1="817.62" y1="311.07" x2="827.18" y2="311.05"/>
        <line class="cls-19" x1="817.63" y1="312.33" x2="827.18" y2="312.32"/>
        <line class="cls-19" x1="817.63" y1="313.59" x2="827.19" y2="313.58"/>
        <line class="cls-19" x1="817.64" y1="314.85" x2="827.2" y2="314.84"/>
        <line class="cls-19" x1="817.65" y1="316.12" x2="827.2" y2="316.1"/>
        <line class="cls-19" x1="817.65" y1="317.38" x2="827.21" y2="317.36"/>
        <line class="cls-19" x1="817.66" y1="318.64" x2="827.22" y2="318.62"/>
        <line class="cls-19" x1="817.67" y1="319.9" x2="827.22" y2="319.88"/>
        <line class="cls-19" x1="817.67" y1="321.16" x2="827.23" y2="321.14"/>
        <line class="cls-19" x1="817.68" y1="322.42" x2="827.24" y2="322.4"/>
        <line class="cls-19" x1="817.69" y1="323.68" x2="827.24" y2="323.66"/>
        <line class="cls-19" x1="817.69" y1="324.94" x2="827.25" y2="324.92"/>
        <line class="cls-19" x1="817.7" y1="326.2" x2="827.25" y2="326.18"/>
        <line class="cls-19" x1="817.71" y1="327.46" x2="827.26" y2="327.44"/>
        <line class="cls-19" x1="817.71" y1="328.72" x2="827.27" y2="328.7"/>
        <line class="cls-19" x1="817.72" y1="329.98" x2="827.27" y2="329.96"/>
      </g>
      <g>
        <path class="cls-2" d="M1134.37,272.33l.25-47.59a13.23,13.23,0,0,1,9.56.07l-.25,47.8C1140.76,272.4,1137.57,272.34,1134.37,272.33Z" transform="translate(-358.2 58.55)"/>
        <path class="cls-20" d="M1134.62,226" transform="translate(-358.2 58.55)"/>
        <path class="cls-20" d="M1144.18,226" transform="translate(-358.2 58.55)"/>
        <path class="cls-20" d="M1134.61,227.28" transform="translate(-358.2 58.55)"/>
        <path class="cls-20" d="M1144.17,227.29" transform="translate(-358.2 58.55)"/>
        <line class="cls-20" x1="785.96" y1="287.09" x2="776.41" y2="287.08"/>
        <line class="cls-20" x1="785.96" y1="288.35" x2="776.4" y2="288.33"/>
        <line class="cls-20" x1="785.95" y1="289.6" x2="776.39" y2="289.58"/>
        <line class="cls-20" x1="785.94" y1="290.85" x2="776.39" y2="290.83"/>
        <line class="cls-20" x1="785.94" y1="292.1" x2="776.38" y2="292.08"/>
        <line class="cls-20" x1="785.93" y1="293.35" x2="776.37" y2="293.33"/>
        <line class="cls-20" x1="785.92" y1="294.6" x2="776.37" y2="294.58"/>
        <line class="cls-20" x1="785.92" y1="295.85" x2="776.36" y2="295.84"/>
        <line class="cls-20" x1="785.91" y1="297.11" x2="776.35" y2="297.09"/>
        <line class="cls-20" x1="785.9" y1="298.36" x2="776.35" y2="298.34"/>
        <line class="cls-20" x1="785.9" y1="299.61" x2="776.34" y2="299.59"/>
        <line class="cls-20" x1="785.89" y1="300.86" x2="776.34" y2="300.84"/>
        <line class="cls-20" x1="785.88" y1="302.11" x2="776.33" y2="302.09"/>
        <line class="cls-20" x1="785.88" y1="303.36" x2="776.32" y2="303.34"/>
        <line class="cls-20" x1="785.87" y1="304.61" x2="776.32" y2="304.6"/>
        <line class="cls-20" x1="785.86" y1="305.87" x2="776.31" y2="305.85"/>
        <line class="cls-20" x1="785.86" y1="307.12" x2="776.3" y2="307.1"/>
        <line class="cls-20" x1="785.85" y1="308.37" x2="776.3" y2="308.35"/>
        <line class="cls-20" x1="785.85" y1="309.62" x2="776.29" y2="309.6"/>
        <line class="cls-20" x1="785.84" y1="310.87" x2="776.28" y2="310.85"/>
        <line class="cls-20" x1="785.83" y1="312.12" x2="776.28" y2="312.1"/>
        <line class="cls-20" x1="785.83" y1="313.37" x2="776.27" y2="313.36"/>
        <line class="cls-20" x1="785.82" y1="314.62" x2="776.26" y2="314.61"/>
        <line class="cls-20" x1="785.81" y1="315.88" x2="776.26" y2="315.86"/>
        <line class="cls-20" x1="785.81" y1="317.13" x2="776.25" y2="317.11"/>
        <line class="cls-20" x1="785.8" y1="318.38" x2="776.24" y2="318.36"/>
        <line class="cls-20" x1="785.79" y1="319.63" x2="776.24" y2="319.61"/>
        <line class="cls-20" x1="785.79" y1="320.88" x2="776.23" y2="320.86"/>
        <line class="cls-20" x1="785.78" y1="322.13" x2="776.22" y2="322.12"/>
        <line class="cls-20" x1="785.77" y1="323.38" x2="776.22" y2="323.37"/>
        <line class="cls-20" x1="785.77" y1="324.64" x2="776.21" y2="324.62"/>
        <line class="cls-20" x1="785.76" y1="325.89" x2="776.2" y2="325.87"/>
        <line class="cls-20" x1="785.75" y1="327.14" x2="776.2" y2="327.12"/>
        <line class="cls-20" x1="785.75" y1="328.39" x2="776.19" y2="328.37"/>
        <line class="cls-20" x1="785.74" y1="329.64" x2="776.19" y2="329.62"/>
      </g>
      <rect class="cls-2" x="787.13" y="332.17" width="3.97" height="5.27"/>
      <rect class="cls-2" x="812.55" y="332.17" width="3.98" height="5.27"/>
      <path class="cls-7" d="M1160,248.13a10.73,10.73,0,0,0-10.73,10.73v34.8a10.73,10.73,0,0,0,21.46,0v-34.8A10.74,10.74,0,0,0,1160,248.13Z" transform="translate(-358.2 58.55)"/>
      <path class="cls-9" d="M1175.24,289.84h0c7.43,0,11.82-6.13,11.78-13.81V265.71l-12.3,0,0,23.58A.53.53,0,0,0,1175.24,289.84Z" transform="translate(-358.2 58.55)"/>
      <path class="cls-9" d="M1144.8,289.84h0c-7.43,0-11.82-6.13-11.78-13.81V265.71l12.3,0,0,23.58A.53.53,0,0,1,1144.8,289.84Z" transform="translate(-358.2 58.55)"/>
      <rect class="cls-9" x="772.6" y="287.38" width="58.42" height="7.92"/>
      <path class="cls-5" d="M1172.69,228.92h-25.37l1.64-8.83a3.92,3.92,0,0,1,3.78-3.29h14.49a3.82,3.82,0,0,1,3.69,3.18Z" transform="translate(-358.2 58.55)"/>
      <g>
        <path class="cls-11" d="M1172.66,194.78h-25.38l1.65,7.74a3.78,3.78,0,0,0,3.78,2.88h14.49a3.71,3.71,0,0,0,3.69-2.78Z" transform="translate(-358.2 58.55)"/>
        <path class="cls-11" d="M1175.36,185.42H1144.7l2,7.79c.43,1.68,2.34,2.89,4.57,2.89h17.5c2.16,0,4-1.16,4.46-2.79Z" transform="translate(-358.2 58.55)"/>
        <path class="cls-11" d="M1178.25,174.41h-36.44l2.36,9.53c.51,2.06,2.79,3.54,5.43,3.54h20.8c2.57,0,4.78-1.42,5.31-3.42Z" transform="translate(-358.2 58.55)"/>
        <path class="cls-11" d="M1181.37,163.18H1139l2.75,11c.59,2.37,3.24,4.09,6.31,4.09h24.2c3,0,5.56-1.65,6.17-4Z" transform="translate(-358.2 58.55)"/>
      </g>
      <path class="cls-6" d="M1134.5,161.24a4.65,4.65,0,0,0,4.67,4.54h42c2.94,0,8.33-.9,8.33-50.76,0-43.12-18.75-63.47-41.82-63.45h-6.83a6.49,6.49,0,0,0-6.49,6.49v61.47C1134.36,119.79,1134.43,149.63,1134.5,161.24Z" transform="translate(-358.2 58.55)"/>
      <rect class="cls-10" x="1128.07" y="57.87" width="6.55" height="103.93" transform="translate(1904.49 278.22) rotate(-180)"/>
    </g>
    <path class="cls-2" d="M1119.14-22.69h11a0,0,0,0,1,0,0V-3.61a0,0,0,0,1,0,0h-11a8.1,8.1,0,0,1-8.1-8.1v-2.93A8.06,8.06,0,0,1,1119.14-22.69Z" transform="translate(1694.41 -577) rotate(146.94)"/>
    <path class="cls-2" d="M956.52-24.29h11a0,0,0,0,1,0,0V-5.2a0,0,0,0,1,0,0h-11a8.06,8.06,0,0,1-8.06-8.06v-2.93a8.1,8.1,0,0,1,8.1-8.1Z" transform="translate(-237.23 -422.41) rotate(30)"/>
    <path class="cls-1" d="M1124.57,18h0a2.18,2.18,0,0,0,2.13-2.56,89.77,89.77,0,0,0-176.78.13,2.05,2.05,0,0,0,2,2.43h0V35h0a3.38,3.38,0,0,0-3.37,3.38V246.21c0,2.55,2.18,3.95,4.61,4.71,43.4,13.58,121.13,16.09,170.37,0,2.37-.77,4.52-2,4.52-4.52V38.47a3.46,3.46,0,0,0-3.45-3.46h0Z" transform="translate(-358.2 58.55)"/>
    <rect class="cls-10" x="593.84" y="77.05" width="172.64" height="16.98"/>
    <g>
      <circle class="cls-5" cx="655.21" cy="44.02" r="16.83"/>
      <circle class="cls-7" cx="655.34" cy="44.14" r="11.06"/>
    </g>
    <g>
      <circle class="cls-5" cx="705.26" cy="44.02" r="16.83"/>
      <circle class="cls-7" cx="705.39" cy="44.14" r="11.06"/>
    </g>
    <path class="cls-5" d="M1070.07,260.79s-9.3,7.47-31.87,7.45c-21.2,0-31.87-8.07-31.87-8.07,0-32.3,16.75-51.38,31.74-51.38S1070.09,226.48,1070.07,260.79Z" transform="translate(-358.2 58.55)"/>
    <g>
      <g>
        <rect class="cls-10" x="620.68" y="112.87" width="118.14" height="110.57" rx="30.72"/>
        <path class="cls-2" d="M1066.3,55.7A29.35,29.35,0,0,1,1095.65,85v49.13a29.35,29.35,0,0,1-29.35,29.34h-56.7a29.35,29.35,0,0,1-29.34-29.34V85A29.35,29.35,0,0,1,1009.6,55.7h56.7m0-2.76h-56.7A32.14,32.14,0,0,0,977.5,85v49.13a32.14,32.14,0,0,0,32.1,32.1h56.7a32.14,32.14,0,0,0,32.1-32.1V85a32.14,32.14,0,0,0-32.1-32.1Z" transform="translate(-358.2 58.55)"/>
        <path class="cls-6" d="M1066.3,61.2A23.87,23.87,0,0,1,1090.14,85v49.13A23.87,23.87,0,0,1,1066.3,158h-56.7a23.87,23.87,0,0,1-23.84-23.84V85A23.87,23.87,0,0,1,1009.6,61.2h56.7m0-5.5h-56.7A29.35,29.35,0,0,0,980.26,85v49.13a29.35,29.35,0,0,0,29.34,29.34h56.7a29.35,29.35,0,0,0,29.35-29.34V85A29.35,29.35,0,0,0,1066.3,55.7Z" transform="translate(-358.2 58.55)"/>
      </g>
      <line class="cls-21" x1="651.4" y1="119.9" x2="651.4" y2="216.76"/>
      <line class="cls-21" x1="679.95" y1="119.9" x2="679.95" y2="216.76"/>
      <line class="cls-21" x1="708.49" y1="119.9" x2="708.49" y2="216.76"/>
      <line class="cls-21" x1="627.83" y1="196.12" x2="731.78" y2="196.12"/>
      <line class="cls-21" x1="627.35" y1="167.58" x2="731.92" y2="167.58"/>
      <line class="cls-21" x1="627.83" y1="139.03" x2="731.5" y2="139.03"/>
    </g>
    <g>
      <path class="cls-10" d="M1037.83,199.4a13,13,0,1,1,13.05-13.05A13.07,13.07,0,0,1,1037.83,199.4Z" transform="translate(-358.2 58.55)"/>
      <path class="cls-2" d="M1037.83,173.8a12.55,12.55,0,1,1-12.55,12.55,12.55,12.55,0,0,1,12.55-12.55m0-1a13.55,13.55,0,1,0,13.55,13.55,13.57,13.57,0,0,0-13.55-13.55Z" transform="translate(-358.2 58.55)"/>
      <path class="cls-6" d="M1037.83,176.8a9.55,9.55,0,1,1-9.55,9.55,9.56,9.56,0,0,1,9.55-9.55m0-3a12.55,12.55,0,1,0,12.55,12.55,12.55,12.55,0,0,0-12.55-12.55Z" transform="translate(-358.2 58.55)"/>
    </g>
    <g>
      <g>
        <path class="cls-10" d="M998.58,212.07a11.05,11.05,0,1,1,11-11A11.07,11.07,0,0,1,998.58,212.07Z" transform="translate(-358.2 58.55)"/>
        <path class="cls-6" d="M998.58,191.47A9.55,9.55,0,1,1,989,201a9.56,9.56,0,0,1,9.55-9.55m0-3A12.55,12.55,0,1,0,1011.13,201a12.55,12.55,0,0,0-12.55-12.55Z" transform="translate(-358.2 58.55)"/>
        <path class="cls-2" d="M998.58,188.47A12.55,12.55,0,1,1,986,201a12.55,12.55,0,0,1,12.55-12.55m0-1A13.55,13.55,0,1,0,1012.13,201a13.57,13.57,0,0,0-13.55-13.55Z" transform="translate(-358.2 58.55)"/>
      </g>
      <line class="cls-22" x1="640.38" y1="259.37" x2="640.38" y2="252.21"/>
    </g>
    <line class="cls-22" x1="679.95" y1="243.41" x2="676.05" y2="237.41"/>
    <g>
      <g>
        <path class="cls-10" d="M1080.3,212.07a11.05,11.05,0,1,1,11-11A11.07,11.07,0,0,1,1080.3,212.07Z" transform="translate(-358.2 58.55)"/>
        <path class="cls-6" d="M1080.3,191.47a9.55,9.55,0,1,1-9.56,9.55,9.56,9.56,0,0,1,9.56-9.55m0-3A12.55,12.55,0,1,0,1092.85,201a12.55,12.55,0,0,0-12.55-12.55Z" transform="translate(-358.2 58.55)"/>
        <path class="cls-2" d="M1080.3,188.47A12.55,12.55,0,1,1,1067.74,201a12.55,12.55,0,0,1,12.56-12.55m0-1A13.55,13.55,0,1,0,1093.85,201a13.57,13.57,0,0,0-13.55-13.55Z" transform="translate(-358.2 58.55)"/>
      </g>
      <line class="cls-22" x1="722.09" y1="258.66" x2="722.09" y2="251.5"/>
    </g>
  </g>
</svg>
