<svg id="Layer_1" data-name="Layer 1" xmlns="http://www.w3.org/2000/svg" viewBox="0 0 39 40.24">
  <defs>
    <style>
      

      .cls-2 {
        fill: #fe0;
      }
    </style>
  </defs>
 
  <path class="cls-2" d="M27.53,23.34v3.77a.79.79,0,0,1-.8.8H23a.8.8,0,0,1-.57-1.37l1.22-1.22L20,21.71l-3.61,3.61,1.22,1.22A.8.8,0,0,1,17,27.91H13.27a.79.79,0,0,1-.8-.8h0V23.34a.81.81,0,0,1,1.38-.57L15.06,24l3.61-3.61-3.61-3.61L13.85,18a.81.81,0,0,1-1.38-.57V13.65a.79.79,0,0,1,.8-.8H17a.81.81,0,0,1,.57,1.38l-1.22,1.21L20,19.05l3.61-3.61-1.22-1.21A.81.81,0,0,1,23,12.85h3.77a.8.8,0,0,1,.8.8h0v3.77a.81.81,0,0,1-1.38.57l-1.21-1.21-3.61,3.6L24.94,24l1.21-1.22A.81.81,0,0,1,27.53,23.34Z" transform="translate(-0.5 -0.5)"/>
</svg>
