<svg id="bricks" xmlns="http://www.w3.org/2000/svg" viewBox="0 0 2557.08 165.67">
  <defs>
    <style>
      .cls-1, .cls-2 {
        fill: #b3b3b3;
      }

      .cls-2 {
        stroke: #666;
        stroke-miterlimit: 10;
        stroke-width: 0.5px;
      }
    </style>
  </defs>
  <rect class="cls-1" y="82.93" width="18.13" height="20.59"/>
  <rect class="cls-1" x="2535.07" y="82.93" width="22" height="20.59"/>
  <rect class="cls-1" x="0.02" y="124.21" width="18.11" height="20.59"/>
  <rect class="cls-1" x="2535.07" y="124.21" width="22" height="20.59"/>
  <rect class="cls-1" y="0.06" width="18.13" height="20.78"/>
  <rect class="cls-1" x="2535.07" y="0.03" width="22" height="20.81"/>
  <rect class="cls-1" x="0.02" y="41.53" width="18.11" height="20.59"/>
  <rect class="cls-1" x="2535.07" y="41.53" width="22" height="20.59"/>
  <rect class="cls-2" x="0.3" y="62.12" width="39.63" height="20.59"/>
  <rect class="cls-2" x="39.86" y="62.12" width="43.47" height="20.59"/>
  <rect class="cls-2" x="83.25" y="62.12" width="43.47" height="20.59"/>
  <rect class="cls-2" x="126.65" y="62.12" width="43.47" height="20.59"/>
  <rect class="cls-2" x="170.04" y="62.12" width="43.47" height="20.59"/>
  <rect class="cls-2" x="213.44" y="62.12" width="43.47" height="20.59"/>
  <rect class="cls-2" x="256.83" y="62.12" width="43.47" height="20.59"/>
  <rect class="cls-2" x="300.23" y="62.12" width="43.47" height="20.59"/>
  <rect class="cls-2" x="343.62" y="62.12" width="43.47" height="20.59"/>
  <rect class="cls-2" x="387.02" y="62.12" width="43.47" height="20.59"/>
  <rect class="cls-2" x="430.41" y="62.12" width="43.47" height="20.59"/>
  <rect class="cls-2" x="473.81" y="62.12" width="43.47" height="20.59"/>
  <rect class="cls-2" x="517.2" y="62.12" width="43.47" height="20.59"/>
  <rect class="cls-2" x="560.6" y="62.12" width="43.47" height="20.59"/>
  <rect class="cls-2" x="603.99" y="62.12" width="43.47" height="20.59"/>
  <rect class="cls-2" x="647.39" y="62.12" width="43.47" height="20.59"/>
  <rect class="cls-2" x="690.78" y="62.12" width="43.47" height="20.59"/>
  <rect class="cls-2" x="734.18" y="62.12" width="43.47" height="20.59"/>
  <rect class="cls-2" x="777.57" y="62.12" width="43.47" height="20.59"/>
  <rect class="cls-2" x="820.97" y="62.12" width="43.47" height="20.59"/>
  <rect class="cls-2" x="864.36" y="62.12" width="43.47" height="20.59"/>
  <rect class="cls-2" x="907.76" y="62.12" width="43.47" height="20.59"/>
  <rect class="cls-2" x="951.15" y="62.12" width="43.47" height="20.59"/>
  <rect class="cls-2" x="994.55" y="62.12" width="43.47" height="20.59"/>
  <rect class="cls-2" x="1037.94" y="62.12" width="43.47" height="20.59"/>
  <rect class="cls-2" x="1081.33" y="62.12" width="43.47" height="20.59"/>
  <rect class="cls-2" x="1124.73" y="62.12" width="43.47" height="20.59"/>
  <rect class="cls-2" x="1168.12" y="62.12" width="43.47" height="20.59"/>
  <rect class="cls-2" x="1211.52" y="62.12" width="43.47" height="20.59"/>
  <rect class="cls-2" x="1254.91" y="62.12" width="43.47" height="20.59"/>
  <rect class="cls-2" x="1298.31" y="62.12" width="43.47" height="20.59"/>
  <rect class="cls-2" x="1341.7" y="62.12" width="43.47" height="20.59"/>
  <rect class="cls-2" x="1385.1" y="62.12" width="43.47" height="20.59"/>
  <rect class="cls-2" x="1428.49" y="62.12" width="43.47" height="20.59"/>
  <rect class="cls-2" x="1471.89" y="62.12" width="43.47" height="20.59"/>
  <rect class="cls-2" x="1515.28" y="62.12" width="43.47" height="20.59"/>
  <rect class="cls-2" x="1558.68" y="62.12" width="43.47" height="20.59"/>
  <rect class="cls-2" x="1602.07" y="62.12" width="43.47" height="20.59"/>
  <rect class="cls-2" x="1645.47" y="62.12" width="43.47" height="20.59"/>
  <rect class="cls-2" x="1688.86" y="62.12" width="43.47" height="20.59"/>
  <rect class="cls-2" x="1732.26" y="62.12" width="43.47" height="20.59"/>
  <rect class="cls-2" x="1775.65" y="62.12" width="43.47" height="20.59"/>
  <rect class="cls-2" x="1819.05" y="62.12" width="43.47" height="20.59"/>
  <rect class="cls-2" x="1862.44" y="62.12" width="43.47" height="20.59"/>
  <rect class="cls-2" x="1905.84" y="62.12" width="43.47" height="20.59"/>
  <rect class="cls-2" x="1949.23" y="62.12" width="43.47" height="20.59"/>
  <rect class="cls-2" x="1992.63" y="62.12" width="43.47" height="20.59"/>
  <rect class="cls-2" x="2036.02" y="62.12" width="43.47" height="20.59"/>
  <rect class="cls-2" x="2079.42" y="62.12" width="43.47" height="20.59"/>
  <rect class="cls-2" x="2122.81" y="62.12" width="43.47" height="20.59"/>
  <rect class="cls-2" x="2166.21" y="62.12" width="43.47" height="20.59"/>
  <rect class="cls-2" x="2209.6" y="62.12" width="43.47" height="20.59"/>
  <rect class="cls-2" x="2253" y="62.12" width="43.47" height="20.59"/>
  <rect class="cls-2" x="2296.39" y="62.12" width="43.47" height="20.59"/>
  <rect class="cls-2" x="2339.79" y="62.12" width="43.47" height="20.59"/>
  <rect class="cls-2" x="2383.18" y="62.12" width="43.47" height="20.59"/>
  <rect class="cls-2" x="2426.58" y="62.12" width="43.47" height="20.59"/>
  <rect class="cls-2" x="2469.97" y="62.12" width="43.47" height="20.59"/>
  <rect class="cls-2" x="2513.37" y="62.12" width="43.47" height="20.59"/>
  <rect class="cls-2" x="0.25" y="103.55" width="39.57" height="20.59"/>
  <rect class="cls-2" x="39.86" y="103.55" width="43.47" height="20.59"/>
  <rect class="cls-2" x="83.25" y="103.55" width="43.47" height="20.59"/>
  <rect class="cls-2" x="126.65" y="103.55" width="43.47" height="20.59"/>
  <rect class="cls-2" x="170.04" y="103.55" width="43.47" height="20.59"/>
  <rect class="cls-2" x="213.44" y="103.55" width="43.47" height="20.59"/>
  <rect class="cls-2" x="256.83" y="103.55" width="43.47" height="20.59"/>
  <rect class="cls-2" x="300.23" y="103.55" width="43.47" height="20.59"/>
  <rect class="cls-2" x="343.62" y="103.55" width="43.47" height="20.59"/>
  <rect class="cls-2" x="387.02" y="103.55" width="43.47" height="20.59"/>
  <rect class="cls-2" x="430.41" y="103.55" width="43.47" height="20.59"/>
  <rect class="cls-2" x="473.81" y="103.55" width="43.47" height="20.59"/>
  <rect class="cls-2" x="517.2" y="103.55" width="43.47" height="20.59"/>
  <rect class="cls-2" x="560.6" y="103.55" width="43.47" height="20.59"/>
  <rect class="cls-2" x="603.99" y="103.55" width="43.47" height="20.59"/>
  <rect class="cls-2" x="647.39" y="103.55" width="43.47" height="20.59"/>
  <rect class="cls-2" x="690.78" y="103.55" width="43.47" height="20.59"/>
  <rect class="cls-2" x="734.18" y="103.55" width="43.47" height="20.59"/>
  <rect class="cls-2" x="777.57" y="103.55" width="43.47" height="20.59"/>
  <rect class="cls-2" x="820.97" y="103.55" width="43.47" height="20.59"/>
  <rect class="cls-2" x="864.36" y="103.55" width="43.47" height="20.59"/>
  <rect class="cls-2" x="907.76" y="103.55" width="43.47" height="20.59"/>
  <rect class="cls-2" x="951.15" y="103.55" width="43.47" height="20.59"/>
  <rect class="cls-2" x="994.55" y="103.55" width="43.47" height="20.59"/>
  <rect class="cls-2" x="1037.94" y="103.55" width="43.47" height="20.59"/>
  <rect class="cls-2" x="1081.33" y="103.55" width="43.47" height="20.59"/>
  <rect class="cls-2" x="1124.73" y="103.55" width="43.47" height="20.59"/>
  <rect class="cls-2" x="1168.12" y="103.55" width="43.47" height="20.59"/>
  <rect class="cls-2" x="1211.52" y="103.55" width="43.47" height="20.59"/>
  <rect class="cls-2" x="1254.91" y="103.55" width="43.47" height="20.59"/>
  <rect class="cls-2" x="1298.31" y="103.55" width="43.47" height="20.59"/>
  <rect class="cls-2" x="1341.7" y="103.55" width="43.47" height="20.59"/>
  <rect class="cls-2" x="1385.1" y="103.55" width="43.47" height="20.59"/>
  <rect class="cls-2" x="1428.49" y="103.55" width="43.47" height="20.59"/>
  <rect class="cls-2" x="1471.89" y="103.55" width="43.47" height="20.59"/>
  <rect class="cls-2" x="1515.28" y="103.55" width="43.47" height="20.59"/>
  <rect class="cls-2" x="1558.68" y="103.55" width="43.47" height="20.59"/>
  <rect class="cls-2" x="1602.07" y="103.55" width="43.47" height="20.59"/>
  <rect class="cls-2" x="1645.47" y="103.55" width="43.47" height="20.59"/>
  <rect class="cls-2" x="1688.86" y="103.55" width="43.47" height="20.59"/>
  <rect class="cls-2" x="1732.26" y="103.55" width="43.47" height="20.59"/>
  <rect class="cls-2" x="1775.65" y="103.55" width="43.47" height="20.59"/>
  <rect class="cls-2" x="1819.05" y="103.55" width="43.47" height="20.59"/>
  <rect class="cls-2" x="1862.44" y="103.55" width="43.47" height="20.59"/>
  <rect class="cls-2" x="1905.84" y="103.55" width="43.47" height="20.59"/>
  <rect class="cls-2" x="1949.23" y="103.55" width="43.47" height="20.59"/>
  <rect class="cls-2" x="1992.63" y="103.55" width="43.47" height="20.59"/>
  <rect class="cls-2" x="2036.02" y="103.55" width="43.47" height="20.59"/>
  <rect class="cls-2" x="2079.42" y="103.55" width="43.47" height="20.59"/>
  <rect class="cls-2" x="2122.81" y="103.55" width="43.47" height="20.59"/>
  <rect class="cls-2" x="2166.21" y="103.55" width="43.47" height="20.59"/>
  <rect class="cls-2" x="2209.6" y="103.55" width="43.47" height="20.59"/>
  <rect class="cls-2" x="2253" y="103.55" width="43.47" height="20.59"/>
  <rect class="cls-2" x="2296.39" y="103.55" width="43.47" height="20.59"/>
  <rect class="cls-2" x="2339.79" y="103.55" width="43.47" height="20.59"/>
  <rect class="cls-2" x="2383.18" y="103.55" width="43.47" height="20.59"/>
  <rect class="cls-2" x="2426.58" y="103.55" width="43.47" height="20.59"/>
  <rect class="cls-2" x="2469.97" y="103.55" width="43.47" height="20.59"/>
  <rect class="cls-2" x="2513.37" y="103.55" width="43.47" height="20.59"/>
  <rect class="cls-2" x="18.16" y="82.93" width="43.47" height="20.59"/>
  <rect class="cls-2" x="61.55" y="82.93" width="43.47" height="20.59"/>
  <rect class="cls-2" x="104.95" y="82.93" width="43.47" height="20.59"/>
  <rect class="cls-2" x="148.34" y="82.93" width="43.47" height="20.59"/>
  <rect class="cls-2" x="191.74" y="82.93" width="43.47" height="20.59"/>
  <rect class="cls-2" x="235.13" y="82.93" width="43.47" height="20.59"/>
  <rect class="cls-2" x="278.53" y="82.93" width="43.47" height="20.59"/>
  <rect class="cls-2" x="321.92" y="82.93" width="43.47" height="20.59"/>
  <rect class="cls-2" x="365.32" y="82.93" width="43.47" height="20.59"/>
  <rect class="cls-2" x="408.71" y="82.93" width="43.47" height="20.59"/>
  <rect class="cls-2" x="452.11" y="82.93" width="43.47" height="20.59"/>
  <rect class="cls-2" x="495.5" y="82.93" width="43.47" height="20.59"/>
  <rect class="cls-2" x="538.9" y="82.93" width="43.47" height="20.59"/>
  <rect class="cls-2" x="582.29" y="82.93" width="43.47" height="20.59"/>
  <rect class="cls-2" x="625.69" y="82.93" width="43.47" height="20.59"/>
  <rect class="cls-2" x="669.08" y="82.93" width="43.47" height="20.59"/>
  <rect class="cls-2" x="712.48" y="82.93" width="43.47" height="20.59"/>
  <rect class="cls-2" x="755.87" y="82.93" width="43.47" height="20.59"/>
  <rect class="cls-2" x="799.27" y="82.93" width="43.47" height="20.59"/>
  <rect class="cls-2" x="842.66" y="82.93" width="43.47" height="20.59"/>
  <rect class="cls-2" x="886.06" y="82.93" width="43.47" height="20.59"/>
  <rect class="cls-2" x="929.45" y="82.93" width="43.47" height="20.59"/>
  <rect class="cls-2" x="972.85" y="82.93" width="43.47" height="20.59"/>
  <rect class="cls-2" x="1016.24" y="82.93" width="43.47" height="20.59"/>
  <rect class="cls-2" x="1059.64" y="82.93" width="43.47" height="20.59"/>
  <rect class="cls-2" x="1103.03" y="82.93" width="43.47" height="20.59"/>
  <rect class="cls-2" x="1146.43" y="82.93" width="43.47" height="20.59"/>
  <rect class="cls-2" x="1189.82" y="82.93" width="43.47" height="20.59"/>
  <rect class="cls-2" x="1233.22" y="82.93" width="43.47" height="20.59"/>
  <rect class="cls-2" x="1276.61" y="82.93" width="43.47" height="20.59"/>
  <rect class="cls-2" x="1320.01" y="82.93" width="43.47" height="20.59"/>
  <rect class="cls-2" x="1363.4" y="82.93" width="43.47" height="20.59"/>
  <rect class="cls-2" x="1406.8" y="82.93" width="43.47" height="20.59"/>
  <rect class="cls-2" x="1450.19" y="82.93" width="43.47" height="20.59"/>
  <rect class="cls-2" x="1493.59" y="82.93" width="43.47" height="20.59"/>
  <rect class="cls-2" x="1536.98" y="82.93" width="43.47" height="20.59"/>
  <rect class="cls-2" x="1580.38" y="82.93" width="43.47" height="20.59"/>
  <rect class="cls-2" x="1623.77" y="82.93" width="43.47" height="20.59"/>
  <rect class="cls-2" x="1667.17" y="82.93" width="43.47" height="20.59"/>
  <rect class="cls-2" x="1710.56" y="82.93" width="43.47" height="20.59"/>
  <rect class="cls-2" x="1753.96" y="82.93" width="43.47" height="20.59"/>
  <rect class="cls-2" x="1797.35" y="82.93" width="43.47" height="20.59"/>
  <rect class="cls-2" x="1840.75" y="82.93" width="43.47" height="20.59"/>
  <rect class="cls-2" x="1884.14" y="82.93" width="43.47" height="20.59"/>
  <rect class="cls-2" x="1927.54" y="82.93" width="43.47" height="20.59"/>
  <rect class="cls-2" x="1970.93" y="82.93" width="43.47" height="20.59"/>
  <rect class="cls-2" x="2014.33" y="82.93" width="43.47" height="20.59"/>
  <rect class="cls-2" x="2057.72" y="82.93" width="43.47" height="20.59"/>
  <rect class="cls-2" x="2101.12" y="82.93" width="43.47" height="20.59"/>
  <rect class="cls-2" x="2144.51" y="82.93" width="43.47" height="20.59"/>
  <rect class="cls-2" x="2187.91" y="82.93" width="43.47" height="20.59"/>
  <rect class="cls-2" x="2231.3" y="82.93" width="43.47" height="20.59"/>
  <rect class="cls-2" x="2274.7" y="82.93" width="43.47" height="20.59"/>
  <rect class="cls-2" x="2318.09" y="82.93" width="43.47" height="20.59"/>
  <rect class="cls-2" x="2361.49" y="82.93" width="43.47" height="20.59"/>
  <rect class="cls-2" x="2404.88" y="82.93" width="43.47" height="20.59"/>
  <rect class="cls-2" x="2448.28" y="82.93" width="43.47" height="20.59"/>
  <rect class="cls-2" x="2491.67" y="82.93" width="43.47" height="20.59"/>
  <rect class="cls-2" x="0.28" y="144.83" width="39.55" height="20.59"/>
  <rect class="cls-2" x="39.86" y="144.83" width="43.47" height="20.59"/>
  <rect class="cls-2" x="83.25" y="144.83" width="43.47" height="20.59"/>
  <rect class="cls-2" x="126.65" y="144.83" width="43.47" height="20.59"/>
  <rect class="cls-2" x="170.04" y="144.83" width="43.47" height="20.59"/>
  <rect class="cls-2" x="213.44" y="144.83" width="43.47" height="20.59"/>
  <rect class="cls-2" x="256.83" y="144.83" width="43.47" height="20.59"/>
  <rect class="cls-2" x="300.23" y="144.83" width="43.47" height="20.59"/>
  <rect class="cls-2" x="343.62" y="144.83" width="43.47" height="20.59"/>
  <rect class="cls-2" x="387.02" y="144.83" width="43.47" height="20.59"/>
  <rect class="cls-2" x="430.41" y="144.83" width="43.47" height="20.59"/>
  <rect class="cls-2" x="473.81" y="144.83" width="43.47" height="20.59"/>
  <rect class="cls-2" x="517.2" y="144.83" width="43.47" height="20.59"/>
  <rect class="cls-2" x="560.6" y="144.83" width="43.47" height="20.59"/>
  <rect class="cls-2" x="603.99" y="144.83" width="43.47" height="20.59"/>
  <rect class="cls-2" x="647.39" y="144.83" width="43.47" height="20.59"/>
  <rect class="cls-2" x="690.78" y="144.83" width="43.47" height="20.59"/>
  <rect class="cls-2" x="734.18" y="144.83" width="43.47" height="20.59"/>
  <rect class="cls-2" x="777.57" y="144.83" width="43.47" height="20.59"/>
  <rect class="cls-2" x="820.97" y="144.83" width="43.47" height="20.59"/>
  <rect class="cls-2" x="864.36" y="144.83" width="43.47" height="20.59"/>
  <rect class="cls-2" x="907.76" y="144.83" width="43.47" height="20.59"/>
  <rect class="cls-2" x="951.15" y="144.83" width="43.47" height="20.59"/>
  <rect class="cls-2" x="994.55" y="144.83" width="43.47" height="20.59"/>
  <rect class="cls-2" x="1037.94" y="144.83" width="43.47" height="20.59"/>
  <rect class="cls-2" x="1081.33" y="144.83" width="43.47" height="20.59"/>
  <rect class="cls-2" x="1124.73" y="144.83" width="43.47" height="20.59"/>
  <rect class="cls-2" x="1168.12" y="144.83" width="43.47" height="20.59"/>
  <rect class="cls-2" x="1211.52" y="144.83" width="43.47" height="20.59"/>
  <rect class="cls-2" x="1254.91" y="144.83" width="43.47" height="20.59"/>
  <rect class="cls-2" x="1298.31" y="144.83" width="43.47" height="20.59"/>
  <rect class="cls-2" x="1341.7" y="144.83" width="43.47" height="20.59"/>
  <rect class="cls-2" x="1385.1" y="144.83" width="43.47" height="20.59"/>
  <rect class="cls-2" x="1428.49" y="144.83" width="43.47" height="20.59"/>
  <rect class="cls-2" x="1471.89" y="144.83" width="43.47" height="20.59"/>
  <rect class="cls-2" x="1515.28" y="144.83" width="43.47" height="20.59"/>
  <rect class="cls-2" x="1558.68" y="144.83" width="43.47" height="20.59"/>
  <rect class="cls-2" x="1602.07" y="144.83" width="43.47" height="20.59"/>
  <rect class="cls-2" x="1645.47" y="144.83" width="43.47" height="20.59"/>
  <rect class="cls-2" x="1688.86" y="144.83" width="43.47" height="20.59"/>
  <rect class="cls-2" x="1732.26" y="144.83" width="43.47" height="20.59"/>
  <rect class="cls-2" x="1775.65" y="144.83" width="43.47" height="20.59"/>
  <rect class="cls-2" x="1819.05" y="144.83" width="43.47" height="20.59"/>
  <rect class="cls-2" x="1862.44" y="144.83" width="43.47" height="20.59"/>
  <rect class="cls-2" x="1905.84" y="144.83" width="43.47" height="20.59"/>
  <rect class="cls-2" x="1949.23" y="144.83" width="43.47" height="20.59"/>
  <rect class="cls-2" x="1992.63" y="144.83" width="43.47" height="20.59"/>
  <rect class="cls-2" x="2036.02" y="144.83" width="43.47" height="20.59"/>
  <rect class="cls-2" x="2079.42" y="144.83" width="43.47" height="20.59"/>
  <rect class="cls-2" x="2122.81" y="144.83" width="43.47" height="20.59"/>
  <rect class="cls-2" x="2166.21" y="144.83" width="43.47" height="20.59"/>
  <rect class="cls-2" x="2209.6" y="144.83" width="43.47" height="20.59"/>
  <rect class="cls-2" x="2253" y="144.83" width="43.47" height="20.59"/>
  <rect class="cls-2" x="2296.39" y="144.83" width="43.47" height="20.59"/>
  <rect class="cls-2" x="2339.79" y="144.83" width="43.47" height="20.59"/>
  <rect class="cls-2" x="2383.18" y="144.83" width="43.47" height="20.59"/>
  <rect class="cls-2" x="2426.58" y="144.83" width="43.47" height="20.59"/>
  <rect class="cls-2" x="2469.97" y="144.83" width="43.47" height="20.59"/>
  <rect class="cls-2" x="2513.37" y="144.83" width="43.47" height="20.59"/>
  <rect class="cls-2" x="18.16" y="124.21" width="43.47" height="20.59"/>
  <rect class="cls-2" x="61.55" y="124.21" width="43.47" height="20.59"/>
  <rect class="cls-2" x="104.95" y="124.21" width="43.47" height="20.59"/>
  <rect class="cls-2" x="148.34" y="124.21" width="43.47" height="20.59"/>
  <rect class="cls-2" x="191.74" y="124.21" width="43.47" height="20.59"/>
  <rect class="cls-2" x="235.13" y="124.21" width="43.47" height="20.59"/>
  <rect class="cls-2" x="278.53" y="124.21" width="43.47" height="20.59"/>
  <rect class="cls-2" x="321.92" y="124.21" width="43.47" height="20.59"/>
  <rect class="cls-2" x="365.32" y="124.21" width="43.47" height="20.59"/>
  <rect class="cls-2" x="408.71" y="124.21" width="43.47" height="20.59"/>
  <rect class="cls-2" x="452.11" y="124.21" width="43.47" height="20.59"/>
  <rect class="cls-2" x="495.5" y="124.21" width="43.47" height="20.59"/>
  <rect class="cls-2" x="538.9" y="124.21" width="43.47" height="20.59"/>
  <rect class="cls-2" x="582.29" y="124.21" width="43.47" height="20.59"/>
  <rect class="cls-2" x="625.69" y="124.21" width="43.47" height="20.59"/>
  <rect class="cls-2" x="669.08" y="124.21" width="43.47" height="20.59"/>
  <rect class="cls-2" x="712.48" y="124.21" width="43.47" height="20.59"/>
  <rect class="cls-2" x="755.87" y="124.21" width="43.47" height="20.59"/>
  <rect class="cls-2" x="799.27" y="124.21" width="43.47" height="20.59"/>
  <rect class="cls-2" x="842.66" y="124.21" width="43.47" height="20.59"/>
  <rect class="cls-2" x="886.06" y="124.21" width="43.47" height="20.59"/>
  <rect class="cls-2" x="929.45" y="124.21" width="43.47" height="20.59"/>
  <rect class="cls-2" x="972.85" y="124.21" width="43.47" height="20.59"/>
  <rect class="cls-2" x="1016.24" y="124.21" width="43.47" height="20.59"/>
  <rect class="cls-2" x="1059.64" y="124.21" width="43.47" height="20.59"/>
  <rect class="cls-2" x="1103.03" y="124.21" width="43.47" height="20.59"/>
  <rect class="cls-2" x="1146.43" y="124.21" width="43.47" height="20.59"/>
  <rect class="cls-2" x="1189.82" y="124.21" width="43.47" height="20.59"/>
  <rect class="cls-2" x="1233.22" y="124.21" width="43.47" height="20.59"/>
  <rect class="cls-2" x="1276.61" y="124.21" width="43.47" height="20.59"/>
  <rect class="cls-2" x="1320.01" y="124.21" width="43.47" height="20.59"/>
  <rect class="cls-2" x="1363.4" y="124.21" width="43.47" height="20.59"/>
  <rect class="cls-2" x="1406.8" y="124.21" width="43.47" height="20.59"/>
  <rect class="cls-2" x="1450.19" y="124.21" width="43.47" height="20.59"/>
  <rect class="cls-2" x="1493.59" y="124.21" width="43.47" height="20.59"/>
  <rect class="cls-2" x="1536.98" y="124.21" width="43.47" height="20.59"/>
  <rect class="cls-2" x="1580.38" y="124.21" width="43.47" height="20.59"/>
  <rect class="cls-2" x="1623.77" y="124.21" width="43.47" height="20.59"/>
  <rect class="cls-2" x="1667.17" y="124.21" width="43.47" height="20.59"/>
  <rect class="cls-2" x="1710.56" y="124.21" width="43.47" height="20.59"/>
  <rect class="cls-2" x="1753.96" y="124.21" width="43.47" height="20.59"/>
  <rect class="cls-2" x="1797.35" y="124.21" width="43.47" height="20.59"/>
  <rect class="cls-2" x="1840.75" y="124.21" width="43.47" height="20.59"/>
  <rect class="cls-2" x="1884.14" y="124.21" width="43.47" height="20.59"/>
  <rect class="cls-2" x="1927.54" y="124.21" width="43.47" height="20.59"/>
  <rect class="cls-2" x="1970.93" y="124.21" width="43.47" height="20.59"/>
  <rect class="cls-2" x="2014.33" y="124.21" width="43.47" height="20.59"/>
  <rect class="cls-2" x="2057.72" y="124.21" width="43.47" height="20.59"/>
  <rect class="cls-2" x="2101.12" y="124.21" width="43.47" height="20.59"/>
  <rect class="cls-2" x="2144.51" y="124.21" width="43.47" height="20.59"/>
  <rect class="cls-2" x="2187.91" y="124.21" width="43.47" height="20.59"/>
  <rect class="cls-2" x="2231.3" y="124.21" width="43.47" height="20.59"/>
  <rect class="cls-2" x="2274.7" y="124.21" width="43.47" height="20.59"/>
  <rect class="cls-2" x="2318.09" y="124.21" width="43.47" height="20.59"/>
  <rect class="cls-2" x="2361.49" y="124.21" width="43.47" height="20.59"/>
  <rect class="cls-2" x="2404.88" y="124.21" width="43.47" height="20.59"/>
  <rect class="cls-2" x="2448.28" y="124.21" width="43.47" height="20.59"/>
  <rect class="cls-2" x="2491.67" y="124.21" width="43.47" height="20.59"/>
  <rect class="cls-2" x="0.25" y="20.87" width="39.57" height="20.59"/>
  <rect class="cls-2" x="39.86" y="20.87" width="43.47" height="20.59"/>
  <rect class="cls-2" x="83.25" y="20.87" width="43.47" height="20.59"/>
  <rect class="cls-2" x="126.65" y="20.87" width="43.47" height="20.59"/>
  <rect class="cls-2" x="170.04" y="20.87" width="43.47" height="20.59"/>
  <rect class="cls-2" x="213.44" y="20.87" width="43.47" height="20.59"/>
  <rect class="cls-2" x="256.83" y="20.87" width="43.47" height="20.59"/>
  <rect class="cls-2" x="300.23" y="20.87" width="43.47" height="20.59"/>
  <rect class="cls-2" x="343.62" y="20.87" width="43.47" height="20.59"/>
  <rect class="cls-2" x="387.02" y="20.87" width="43.47" height="20.59"/>
  <rect class="cls-2" x="430.41" y="20.87" width="43.47" height="20.59"/>
  <rect class="cls-2" x="473.81" y="20.87" width="43.47" height="20.59"/>
  <rect class="cls-2" x="517.2" y="20.87" width="43.47" height="20.59"/>
  <rect class="cls-2" x="560.6" y="20.87" width="43.47" height="20.59"/>
  <rect class="cls-2" x="603.99" y="20.87" width="43.47" height="20.59"/>
  <rect class="cls-2" x="647.39" y="20.87" width="43.47" height="20.59"/>
  <rect class="cls-2" x="690.78" y="20.87" width="43.47" height="20.59"/>
  <rect class="cls-2" x="734.18" y="20.87" width="43.47" height="20.59"/>
  <rect class="cls-2" x="777.57" y="20.87" width="43.47" height="20.59"/>
  <rect class="cls-2" x="820.97" y="20.87" width="43.47" height="20.59"/>
  <rect class="cls-2" x="864.36" y="20.87" width="43.47" height="20.59"/>
  <rect class="cls-2" x="907.76" y="20.87" width="43.47" height="20.59"/>
  <rect class="cls-2" x="951.15" y="20.87" width="43.47" height="20.59"/>
  <rect class="cls-2" x="994.55" y="20.87" width="43.47" height="20.59"/>
  <rect class="cls-2" x="1037.94" y="20.87" width="43.47" height="20.59"/>
  <rect class="cls-2" x="1081.33" y="20.87" width="43.47" height="20.59"/>
  <rect class="cls-2" x="1124.73" y="20.87" width="43.47" height="20.59"/>
  <rect class="cls-2" x="1168.12" y="20.87" width="43.47" height="20.59"/>
  <rect class="cls-2" x="1211.52" y="20.87" width="43.47" height="20.59"/>
  <rect class="cls-2" x="1254.91" y="20.87" width="43.47" height="20.59"/>
  <rect class="cls-2" x="1298.31" y="20.87" width="43.47" height="20.59"/>
  <rect class="cls-2" x="1341.7" y="20.87" width="43.47" height="20.59"/>
  <rect class="cls-2" x="1385.1" y="20.87" width="43.47" height="20.59"/>
  <rect class="cls-2" x="1428.49" y="20.87" width="43.47" height="20.59"/>
  <rect class="cls-2" x="1471.89" y="20.87" width="43.47" height="20.59"/>
  <rect class="cls-2" x="1515.28" y="20.87" width="43.47" height="20.59"/>
  <rect class="cls-2" x="1558.68" y="20.87" width="43.47" height="20.59"/>
  <rect class="cls-2" x="1602.07" y="20.87" width="43.47" height="20.59"/>
  <rect class="cls-2" x="1645.47" y="20.87" width="43.47" height="20.59"/>
  <rect class="cls-2" x="1688.86" y="20.87" width="43.47" height="20.59"/>
  <rect class="cls-2" x="1732.26" y="20.87" width="43.47" height="20.59"/>
  <rect class="cls-2" x="1775.65" y="20.87" width="43.47" height="20.59"/>
  <rect class="cls-2" x="1819.05" y="20.87" width="43.47" height="20.59"/>
  <rect class="cls-2" x="1862.44" y="20.87" width="43.47" height="20.59"/>
  <rect class="cls-2" x="1905.84" y="20.87" width="43.47" height="20.59"/>
  <rect class="cls-2" x="1949.23" y="20.87" width="43.47" height="20.59"/>
  <rect class="cls-2" x="1992.63" y="20.87" width="43.47" height="20.59"/>
  <rect class="cls-2" x="2036.02" y="20.87" width="43.47" height="20.59"/>
  <rect class="cls-2" x="2079.42" y="20.87" width="43.47" height="20.59"/>
  <rect class="cls-2" x="2122.81" y="20.87" width="43.47" height="20.59"/>
  <rect class="cls-2" x="2166.21" y="20.87" width="43.47" height="20.59"/>
  <rect class="cls-2" x="2209.6" y="20.87" width="43.47" height="20.59"/>
  <rect class="cls-2" x="2253" y="20.87" width="43.47" height="20.59"/>
  <rect class="cls-2" x="2296.39" y="20.87" width="43.47" height="20.59"/>
  <rect class="cls-2" x="2339.79" y="20.87" width="43.47" height="20.59"/>
  <rect class="cls-2" x="2383.18" y="20.87" width="43.47" height="20.59"/>
  <rect class="cls-2" x="2426.58" y="20.87" width="43.47" height="20.59"/>
  <rect class="cls-2" x="2469.97" y="20.87" width="43.47" height="20.59"/>
  <rect class="cls-2" x="2513.37" y="20.87" width="43.47" height="20.59"/>
  <rect class="cls-2" x="18.16" y="0.25" width="43.47" height="20.59"/>
  <rect class="cls-2" x="61.55" y="0.25" width="43.47" height="20.59"/>
  <rect class="cls-2" x="104.95" y="0.25" width="43.47" height="20.59"/>
  <rect class="cls-2" x="148.34" y="0.25" width="43.47" height="20.59"/>
  <rect class="cls-2" x="191.74" y="0.25" width="43.47" height="20.59"/>
  <rect class="cls-2" x="235.13" y="0.25" width="43.47" height="20.59"/>
  <rect class="cls-2" x="278.53" y="0.25" width="43.47" height="20.59"/>
  <rect class="cls-2" x="321.92" y="0.25" width="43.47" height="20.59"/>
  <rect class="cls-2" x="365.32" y="0.25" width="43.47" height="20.59"/>
  <rect class="cls-2" x="408.71" y="0.25" width="43.47" height="20.59"/>
  <rect class="cls-2" x="452.11" y="0.25" width="43.47" height="20.59"/>
  <rect class="cls-2" x="495.5" y="0.25" width="43.47" height="20.59"/>
  <rect class="cls-2" x="538.9" y="0.25" width="43.47" height="20.59"/>
  <rect class="cls-2" x="582.29" y="0.25" width="43.47" height="20.59"/>
  <rect class="cls-2" x="625.69" y="0.25" width="43.47" height="20.59"/>
  <rect class="cls-2" x="669.08" y="0.25" width="43.47" height="20.59"/>
  <rect class="cls-2" x="712.48" y="0.25" width="43.47" height="20.59"/>
  <rect class="cls-2" x="755.87" y="0.25" width="43.47" height="20.59"/>
  <rect class="cls-2" x="799.27" y="0.25" width="43.47" height="20.59"/>
  <rect class="cls-2" x="842.66" y="0.25" width="43.47" height="20.59"/>
  <rect class="cls-2" x="886.06" y="0.25" width="43.47" height="20.59"/>
  <rect class="cls-2" x="929.45" y="0.25" width="43.47" height="20.59"/>
  <rect class="cls-2" x="972.85" y="0.25" width="43.47" height="20.59"/>
  <rect class="cls-2" x="1016.24" y="0.25" width="43.47" height="20.59"/>
  <rect class="cls-2" x="1059.64" y="0.25" width="43.47" height="20.59"/>
  <rect class="cls-2" x="1103.03" y="0.25" width="43.47" height="20.59"/>
  <rect class="cls-2" x="1146.43" y="0.25" width="43.47" height="20.59"/>
  <rect class="cls-2" x="1189.82" y="0.25" width="43.47" height="20.59"/>
  <rect class="cls-2" x="1233.22" y="0.25" width="43.47" height="20.59"/>
  <rect class="cls-2" x="1276.61" y="0.25" width="43.47" height="20.59"/>
  <rect class="cls-2" x="1320.01" y="0.25" width="43.47" height="20.59"/>
  <rect class="cls-2" x="1363.4" y="0.25" width="43.47" height="20.59"/>
  <rect class="cls-2" x="1406.8" y="0.25" width="43.47" height="20.59"/>
  <rect class="cls-2" x="1450.19" y="0.25" width="43.47" height="20.59"/>
  <rect class="cls-2" x="1493.59" y="0.25" width="43.47" height="20.59"/>
  <rect class="cls-2" x="1536.98" y="0.25" width="43.47" height="20.59"/>
  <rect class="cls-2" x="1580.38" y="0.25" width="43.47" height="20.59"/>
  <rect class="cls-2" x="1623.77" y="0.25" width="43.47" height="20.59"/>
  <rect class="cls-2" x="1667.17" y="0.25" width="43.47" height="20.59"/>
  <rect class="cls-2" x="1710.56" y="0.25" width="43.47" height="20.59"/>
  <rect class="cls-2" x="1753.96" y="0.25" width="43.47" height="20.59"/>
  <rect class="cls-2" x="1797.35" y="0.25" width="43.47" height="20.59"/>
  <rect class="cls-2" x="1840.75" y="0.25" width="43.47" height="20.59"/>
  <rect class="cls-2" x="1884.14" y="0.25" width="43.47" height="20.59"/>
  <rect class="cls-2" x="1927.54" y="0.25" width="43.47" height="20.59"/>
  <rect class="cls-2" x="1970.93" y="0.25" width="43.47" height="20.59"/>
  <rect class="cls-2" x="2014.33" y="0.25" width="43.47" height="20.59"/>
  <rect class="cls-2" x="2057.72" y="0.25" width="43.47" height="20.59"/>
  <rect class="cls-2" x="2101.12" y="0.25" width="43.47" height="20.59"/>
  <rect class="cls-2" x="2144.51" y="0.25" width="43.47" height="20.59"/>
  <rect class="cls-2" x="2187.91" y="0.25" width="43.47" height="20.59"/>
  <rect class="cls-2" x="2231.3" y="0.25" width="43.47" height="20.59"/>
  <rect class="cls-2" x="2274.7" y="0.25" width="43.47" height="20.59"/>
  <rect class="cls-2" x="2318.09" y="0.25" width="43.47" height="20.59"/>
  <rect class="cls-2" x="2361.49" y="0.25" width="43.47" height="20.59"/>
  <rect class="cls-2" x="2404.88" y="0.25" width="43.47" height="20.59"/>
  <rect class="cls-2" x="2448.28" y="0.25" width="43.47" height="20.59"/>
  <rect class="cls-2" x="2491.67" y="0.25" width="43.47" height="20.59"/>
  <rect class="cls-2" x="18.16" y="41.53" width="43.47" height="20.59"/>
  <rect class="cls-2" x="61.55" y="41.53" width="43.47" height="20.59"/>
  <rect class="cls-2" x="104.95" y="41.53" width="43.47" height="20.59"/>
  <rect class="cls-2" x="148.34" y="41.53" width="43.47" height="20.59"/>
  <rect class="cls-2" x="191.74" y="41.53" width="43.47" height="20.59"/>
  <rect class="cls-2" x="235.13" y="41.53" width="43.47" height="20.59"/>
  <rect class="cls-2" x="278.53" y="41.53" width="43.47" height="20.59"/>
  <rect class="cls-2" x="321.92" y="41.53" width="43.47" height="20.59"/>
  <rect class="cls-2" x="365.32" y="41.53" width="43.47" height="20.59"/>
  <rect class="cls-2" x="408.71" y="41.53" width="43.47" height="20.59"/>
  <rect class="cls-2" x="452.11" y="41.53" width="43.47" height="20.59"/>
  <rect class="cls-2" x="495.5" y="41.53" width="43.47" height="20.59"/>
  <rect class="cls-2" x="538.9" y="41.53" width="43.47" height="20.59"/>
  <rect class="cls-2" x="582.29" y="41.53" width="43.47" height="20.59"/>
  <rect class="cls-2" x="625.69" y="41.53" width="43.47" height="20.59"/>
  <rect class="cls-2" x="669.08" y="41.53" width="43.47" height="20.59"/>
  <rect class="cls-2" x="712.48" y="41.53" width="43.47" height="20.59"/>
  <rect class="cls-2" x="755.87" y="41.53" width="43.47" height="20.59"/>
  <rect class="cls-2" x="799.27" y="41.53" width="43.47" height="20.59"/>
  <rect class="cls-2" x="842.66" y="41.53" width="43.47" height="20.59"/>
  <rect class="cls-2" x="886.06" y="41.53" width="43.47" height="20.59"/>
  <rect class="cls-2" x="929.45" y="41.53" width="43.47" height="20.59"/>
  <rect class="cls-2" x="972.85" y="41.53" width="43.47" height="20.59"/>
  <rect class="cls-2" x="1016.24" y="41.53" width="43.47" height="20.59"/>
  <rect class="cls-2" x="1059.64" y="41.53" width="43.47" height="20.59"/>
  <rect class="cls-2" x="1103.03" y="41.53" width="43.47" height="20.59"/>
  <rect class="cls-2" x="1146.43" y="41.53" width="43.47" height="20.59"/>
  <rect class="cls-2" x="1189.82" y="41.53" width="43.47" height="20.59"/>
  <rect class="cls-2" x="1233.22" y="41.53" width="43.47" height="20.59"/>
  <rect class="cls-2" x="1276.61" y="41.53" width="43.47" height="20.59"/>
  <rect class="cls-2" x="1320.01" y="41.53" width="43.47" height="20.59"/>
  <rect class="cls-2" x="1363.4" y="41.53" width="43.47" height="20.59"/>
  <rect class="cls-2" x="1406.8" y="41.53" width="43.47" height="20.59"/>
  <rect class="cls-2" x="1450.19" y="41.53" width="43.47" height="20.59"/>
  <rect class="cls-2" x="1493.59" y="41.53" width="43.47" height="20.59"/>
  <rect class="cls-2" x="1536.98" y="41.53" width="43.47" height="20.59"/>
  <rect class="cls-2" x="1580.38" y="41.53" width="43.47" height="20.59"/>
  <rect class="cls-2" x="1623.77" y="41.53" width="43.47" height="20.59"/>
  <rect class="cls-2" x="1667.17" y="41.53" width="43.47" height="20.59"/>
  <rect class="cls-2" x="1710.56" y="41.53" width="43.47" height="20.59"/>
  <rect class="cls-2" x="1753.96" y="41.53" width="43.47" height="20.59"/>
  <rect class="cls-2" x="1797.35" y="41.53" width="43.47" height="20.59"/>
  <rect class="cls-2" x="1840.75" y="41.53" width="43.47" height="20.59"/>
  <rect class="cls-2" x="1884.14" y="41.53" width="43.47" height="20.59"/>
  <rect class="cls-2" x="1927.54" y="41.53" width="43.47" height="20.59"/>
  <rect class="cls-2" x="1970.93" y="41.53" width="43.47" height="20.59"/>
  <rect class="cls-2" x="2014.33" y="41.53" width="43.47" height="20.59"/>
  <rect class="cls-2" x="2057.72" y="41.53" width="43.47" height="20.59"/>
  <rect class="cls-2" x="2101.12" y="41.53" width="43.47" height="20.59"/>
  <rect class="cls-2" x="2144.51" y="41.53" width="43.47" height="20.59"/>
  <rect class="cls-2" x="2187.91" y="41.53" width="43.47" height="20.59"/>
  <rect class="cls-2" x="2231.3" y="41.53" width="43.47" height="20.59"/>
  <rect class="cls-2" x="2274.7" y="41.53" width="43.47" height="20.59"/>
  <rect class="cls-2" x="2318.09" y="41.53" width="43.47" height="20.59"/>
  <rect class="cls-2" x="2361.49" y="41.53" width="43.47" height="20.59"/>
  <rect class="cls-2" x="2404.88" y="41.53" width="43.47" height="20.59"/>
  <rect class="cls-2" x="2448.28" y="41.53" width="43.47" height="20.59"/>
  <rect class="cls-2" x="2491.67" y="41.53" width="43.47" height="20.59"/>
</svg>
