<svg id="arch" xmlns="http://www.w3.org/2000/svg" viewBox="0 0 2557.55 166.17">
  <defs>
    <style>
      .cls-1, .cls-2, .cls-3, .cls-4, .cls-5, .cls-6 {
        fill: gray;
        stroke: #4d4d4d;
        stroke-miterlimit: 10;
      }

      .cls-1 {
        stroke-width: 0.95px;
      }

      .cls-3 {
        stroke-width: 0.94px;
      }

      .cls-4 {
        stroke-width: 0.91px;
      }

      .cls-5 {
        stroke-width: 0.94px;
      }

      .cls-6 {
        stroke-width: 0.9px;
      }
    </style>
  </defs>
  <rect class="cls-1" x="0.52" y="62.37" width="39.63" height="20.59"/>
  <rect class="cls-2" x="40.07" y="62.37" width="43.47" height="20.59"/>
  <rect class="cls-2" x="83.47" y="62.37" width="43.47" height="20.59"/>
  <rect class="cls-2" x="126.86" y="62.37" width="43.47" height="20.59"/>
  <rect class="cls-2" x="170.26" y="62.37" width="43.47" height="20.59"/>
  <rect class="cls-2" x="213.65" y="62.37" width="43.47" height="20.59"/>
  <rect class="cls-2" x="257.05" y="62.37" width="43.47" height="20.59"/>
  <rect class="cls-2" x="300.44" y="62.37" width="43.47" height="20.59"/>
  <rect class="cls-2" x="343.84" y="62.37" width="43.47" height="20.59"/>
  <rect class="cls-2" x="387.23" y="62.37" width="43.47" height="20.59"/>
  <rect class="cls-2" x="430.63" y="62.37" width="43.47" height="20.59"/>
  <rect class="cls-2" x="474.02" y="62.37" width="43.47" height="20.59"/>
  <rect class="cls-2" x="517.42" y="62.37" width="43.47" height="20.59"/>
  <rect class="cls-2" x="560.81" y="62.37" width="43.47" height="20.59"/>
  <rect class="cls-2" x="604.21" y="62.37" width="43.47" height="20.59"/>
  <rect class="cls-2" x="647.6" y="62.37" width="43.47" height="20.59"/>
  <rect class="cls-2" x="691" y="62.37" width="43.47" height="20.59"/>
  <rect class="cls-2" x="734.39" y="62.37" width="43.47" height="20.59"/>
  <rect class="cls-2" x="777.79" y="62.37" width="43.47" height="20.59"/>
  <rect class="cls-2" x="821.18" y="62.37" width="43.47" height="20.59"/>
  <rect class="cls-2" x="864.58" y="62.37" width="43.47" height="20.59"/>
  <rect class="cls-2" x="907.97" y="62.37" width="43.47" height="20.59"/>
  <rect class="cls-2" x="951.37" y="62.37" width="43.47" height="20.59"/>
  <rect class="cls-2" x="994.76" y="62.37" width="43.47" height="20.59"/>
  <rect class="cls-2" x="1038.16" y="62.37" width="43.47" height="20.59"/>
  <rect class="cls-2" x="1081.55" y="62.37" width="43.47" height="20.59"/>
  <rect class="cls-2" x="1124.95" y="62.37" width="43.47" height="20.59"/>
  <rect class="cls-2" x="1168.34" y="62.37" width="43.47" height="20.59"/>
  <rect class="cls-2" x="1211.74" y="62.37" width="43.47" height="20.59"/>
  <rect class="cls-2" x="1255.13" y="62.37" width="43.47" height="20.59"/>
  <rect class="cls-2" x="1298.53" y="62.37" width="43.47" height="20.59"/>
  <rect class="cls-2" x="1341.92" y="62.37" width="43.47" height="20.59"/>
  <rect class="cls-2" x="1385.32" y="62.37" width="43.47" height="20.59"/>
  <rect class="cls-2" x="1428.71" y="62.37" width="43.47" height="20.59"/>
  <rect class="cls-2" x="1472.11" y="62.37" width="43.47" height="20.59"/>
  <rect class="cls-2" x="1515.5" y="62.37" width="43.47" height="20.59"/>
  <rect class="cls-2" x="1558.9" y="62.37" width="43.47" height="20.59"/>
  <rect class="cls-2" x="1602.29" y="62.37" width="43.47" height="20.59"/>
  <rect class="cls-2" x="1645.69" y="62.37" width="43.47" height="20.59"/>
  <rect class="cls-2" x="1689.08" y="62.37" width="43.47" height="20.59"/>
  <rect class="cls-2" x="1732.48" y="62.37" width="43.47" height="20.59"/>
  <rect class="cls-2" x="1775.87" y="62.37" width="43.47" height="20.59"/>
  <rect class="cls-2" x="1819.27" y="62.37" width="43.47" height="20.59"/>
  <rect class="cls-2" x="1862.66" y="62.37" width="43.47" height="20.59"/>
  <rect class="cls-2" x="1906.06" y="62.37" width="43.47" height="20.59"/>
  <rect class="cls-2" x="1949.45" y="62.37" width="43.47" height="20.59"/>
  <rect class="cls-2" x="1992.85" y="62.37" width="43.47" height="20.59"/>
  <rect class="cls-2" x="2036.24" y="62.37" width="43.47" height="20.59"/>
  <rect class="cls-2" x="2079.64" y="62.37" width="43.47" height="20.59"/>
  <rect class="cls-2" x="2123.03" y="62.37" width="43.47" height="20.59"/>
  <rect class="cls-2" x="2166.42" y="62.37" width="43.47" height="20.59"/>
  <rect class="cls-2" x="2209.82" y="62.37" width="43.47" height="20.59"/>
  <rect class="cls-2" x="2253.21" y="62.37" width="43.47" height="20.59"/>
  <rect class="cls-2" x="2296.61" y="62.37" width="43.47" height="20.59"/>
  <rect class="cls-2" x="2340" y="62.37" width="43.47" height="20.59"/>
  <rect class="cls-2" x="2383.4" y="62.37" width="43.47" height="20.59"/>
  <rect class="cls-2" x="2426.79" y="62.37" width="43.47" height="20.59"/>
  <rect class="cls-2" x="2470.19" y="62.37" width="43.47" height="20.59"/>
  <rect class="cls-2" x="2513.58" y="62.37" width="43.47" height="20.59"/>
  <rect class="cls-3" x="0.47" y="103.8" width="39.57" height="20.59"/>
  <rect class="cls-2" x="40.07" y="103.8" width="43.47" height="20.59"/>
  <rect class="cls-2" x="83.47" y="103.8" width="43.47" height="20.59"/>
  <rect class="cls-2" x="126.86" y="103.8" width="43.47" height="20.59"/>
  <rect class="cls-2" x="170.26" y="103.8" width="43.47" height="20.59"/>
  <rect class="cls-2" x="213.65" y="103.8" width="43.47" height="20.59"/>
  <rect class="cls-2" x="257.05" y="103.8" width="43.47" height="20.59"/>
  <rect class="cls-2" x="300.44" y="103.8" width="43.47" height="20.59"/>
  <rect class="cls-2" x="343.84" y="103.8" width="43.47" height="20.59"/>
  <rect class="cls-2" x="387.23" y="103.8" width="43.47" height="20.59"/>
  <rect class="cls-2" x="430.63" y="103.8" width="43.47" height="20.59"/>
  <rect class="cls-2" x="474.02" y="103.8" width="43.47" height="20.59"/>
  <rect class="cls-2" x="517.42" y="103.8" width="43.47" height="20.59"/>
  <rect class="cls-2" x="560.81" y="103.8" width="43.47" height="20.59"/>
  <rect class="cls-2" x="604.21" y="103.8" width="43.47" height="20.59"/>
  <rect class="cls-2" x="647.6" y="103.8" width="43.47" height="20.59"/>
  <rect class="cls-2" x="691" y="103.8" width="43.47" height="20.59"/>
  <rect class="cls-2" x="734.39" y="103.8" width="43.47" height="20.59"/>
  <rect class="cls-2" x="777.79" y="103.8" width="43.47" height="20.59"/>
  <rect class="cls-2" x="821.18" y="103.8" width="43.47" height="20.59"/>
  <rect class="cls-2" x="864.58" y="103.8" width="43.47" height="20.59"/>
  <rect class="cls-2" x="907.97" y="103.8" width="43.47" height="20.59"/>
  <rect class="cls-2" x="951.37" y="103.8" width="43.47" height="20.59"/>
  <rect class="cls-2" x="994.76" y="103.8" width="43.47" height="20.59"/>
  <rect class="cls-2" x="1038.16" y="103.8" width="43.47" height="20.59"/>
  <rect class="cls-2" x="1081.55" y="103.8" width="43.47" height="20.59"/>
  <rect class="cls-2" x="1124.95" y="103.8" width="43.47" height="20.59"/>
  <rect class="cls-2" x="1168.34" y="103.8" width="43.47" height="20.59"/>
  <rect class="cls-2" x="1211.74" y="103.8" width="43.47" height="20.59"/>
  <rect class="cls-2" x="1255.13" y="103.8" width="43.47" height="20.59"/>
  <rect class="cls-2" x="1298.53" y="103.8" width="43.47" height="20.59"/>
  <rect class="cls-2" x="1341.92" y="103.8" width="43.47" height="20.59"/>
  <rect class="cls-2" x="1385.32" y="103.8" width="43.47" height="20.59"/>
  <rect class="cls-2" x="1428.71" y="103.8" width="43.47" height="20.59"/>
  <rect class="cls-2" x="1472.11" y="103.8" width="43.47" height="20.59"/>
  <rect class="cls-2" x="1515.5" y="103.8" width="43.47" height="20.59"/>
  <rect class="cls-2" x="1558.9" y="103.8" width="43.47" height="20.59"/>
  <rect class="cls-2" x="1602.29" y="103.8" width="43.47" height="20.59"/>
  <rect class="cls-2" x="1645.69" y="103.8" width="43.47" height="20.59"/>
  <rect class="cls-2" x="1689.08" y="103.8" width="43.47" height="20.59"/>
  <rect class="cls-2" x="1732.48" y="103.8" width="43.47" height="20.59"/>
  <rect class="cls-2" x="1775.87" y="103.8" width="43.47" height="20.59"/>
  <rect class="cls-2" x="1819.27" y="103.8" width="43.47" height="20.59"/>
  <rect class="cls-2" x="1862.66" y="103.8" width="43.47" height="20.59"/>
  <rect class="cls-2" x="1906.06" y="103.8" width="43.47" height="20.59"/>
  <rect class="cls-2" x="1949.45" y="103.8" width="43.47" height="20.59"/>
  <rect class="cls-2" x="1992.85" y="103.8" width="43.47" height="20.59"/>
  <rect class="cls-2" x="2036.24" y="103.8" width="43.47" height="20.59"/>
  <rect class="cls-2" x="2079.64" y="103.8" width="43.47" height="20.59"/>
  <rect class="cls-2" x="2123.03" y="103.8" width="43.47" height="20.59"/>
  <rect class="cls-2" x="2166.42" y="103.8" width="43.47" height="20.59"/>
  <rect class="cls-2" x="2209.82" y="103.8" width="43.47" height="20.59"/>
  <rect class="cls-2" x="2253.21" y="103.8" width="43.47" height="20.59"/>
  <rect class="cls-2" x="2296.61" y="103.8" width="43.47" height="20.59"/>
  <rect class="cls-2" x="2340" y="103.8" width="43.47" height="20.59"/>
  <rect class="cls-2" x="2383.4" y="103.8" width="43.47" height="20.59"/>
  <rect class="cls-2" x="2426.79" y="103.8" width="43.47" height="20.59"/>
  <rect class="cls-2" x="2470.19" y="103.8" width="43.47" height="20.59"/>
  <rect class="cls-2" x="2513.58" y="103.8" width="43.47" height="20.59"/>
  <rect class="cls-4" x="0.48" y="83.18" width="17.97" height="20.59"/>
  <rect class="cls-2" x="18.38" y="83.18" width="43.47" height="20.59"/>
  <rect class="cls-2" x="61.77" y="83.18" width="43.47" height="20.59"/>
  <rect class="cls-2" x="105.17" y="83.18" width="43.47" height="20.59"/>
  <rect class="cls-2" x="148.56" y="83.18" width="43.47" height="20.59"/>
  <rect class="cls-2" x="191.96" y="83.18" width="43.47" height="20.59"/>
  <rect class="cls-2" x="235.35" y="83.18" width="43.47" height="20.59"/>
  <rect class="cls-2" x="278.75" y="83.18" width="43.47" height="20.59"/>
  <rect class="cls-2" x="322.14" y="83.18" width="43.47" height="20.59"/>
  <rect class="cls-2" x="365.54" y="83.18" width="43.47" height="20.59"/>
  <rect class="cls-2" x="408.93" y="83.18" width="43.47" height="20.59"/>
  <rect class="cls-2" x="452.33" y="83.18" width="43.47" height="20.59"/>
  <rect class="cls-2" x="495.72" y="83.18" width="43.47" height="20.59"/>
  <rect class="cls-2" x="539.12" y="83.18" width="43.47" height="20.59"/>
  <rect class="cls-2" x="582.51" y="83.18" width="43.47" height="20.59"/>
  <rect class="cls-2" x="625.91" y="83.18" width="43.47" height="20.59"/>
  <rect class="cls-2" x="669.3" y="83.18" width="43.47" height="20.59"/>
  <rect class="cls-2" x="712.7" y="83.18" width="43.47" height="20.59"/>
  <rect class="cls-2" x="756.09" y="83.18" width="43.47" height="20.59"/>
  <rect class="cls-2" x="799.49" y="83.18" width="43.47" height="20.59"/>
  <rect class="cls-2" x="842.88" y="83.18" width="43.47" height="20.59"/>
  <rect class="cls-2" x="886.27" y="83.18" width="43.47" height="20.59"/>
  <rect class="cls-2" x="929.67" y="83.18" width="43.47" height="20.59"/>
  <rect class="cls-2" x="973.06" y="83.18" width="43.47" height="20.59"/>
  <rect class="cls-2" x="1016.46" y="83.18" width="43.47" height="20.59"/>
  <rect class="cls-2" x="1059.85" y="83.18" width="43.47" height="20.59"/>
  <rect class="cls-2" x="1103.25" y="83.18" width="43.47" height="20.59"/>
  <rect class="cls-2" x="1146.64" y="83.18" width="43.47" height="20.59"/>
  <rect class="cls-2" x="1190.04" y="83.18" width="43.47" height="20.59"/>
  <rect class="cls-2" x="1233.43" y="83.18" width="43.47" height="20.59"/>
  <rect class="cls-2" x="1276.83" y="83.18" width="43.47" height="20.59"/>
  <rect class="cls-2" x="1320.22" y="83.18" width="43.47" height="20.59"/>
  <rect class="cls-2" x="1363.62" y="83.18" width="43.47" height="20.59"/>
  <rect class="cls-2" x="1407.01" y="83.18" width="43.47" height="20.59"/>
  <rect class="cls-2" x="1450.41" y="83.18" width="43.47" height="20.59"/>
  <rect class="cls-2" x="1493.8" y="83.18" width="43.47" height="20.59"/>
  <rect class="cls-2" x="1537.2" y="83.18" width="43.47" height="20.59"/>
  <rect class="cls-2" x="1580.59" y="83.18" width="43.47" height="20.59"/>
  <rect class="cls-2" x="1623.99" y="83.18" width="43.47" height="20.59"/>
  <rect class="cls-2" x="1667.38" y="83.18" width="43.47" height="20.59"/>
  <rect class="cls-2" x="1710.78" y="83.18" width="43.47" height="20.59"/>
  <rect class="cls-2" x="1754.17" y="83.18" width="43.47" height="20.59"/>
  <rect class="cls-2" x="1797.57" y="83.18" width="43.47" height="20.59"/>
  <rect class="cls-2" x="1840.96" y="83.18" width="43.47" height="20.59"/>
  <rect class="cls-2" x="1884.36" y="83.18" width="43.47" height="20.59"/>
  <rect class="cls-2" x="1927.75" y="83.18" width="43.47" height="20.59"/>
  <rect class="cls-2" x="1971.15" y="83.18" width="43.47" height="20.59"/>
  <rect class="cls-2" x="2014.54" y="83.18" width="43.47" height="20.59"/>
  <rect class="cls-2" x="2057.94" y="83.18" width="43.47" height="20.59"/>
  <rect class="cls-2" x="2101.33" y="83.18" width="43.47" height="20.59"/>
  <rect class="cls-2" x="2144.73" y="83.18" width="43.47" height="20.59"/>
  <rect class="cls-2" x="2188.12" y="83.18" width="43.47" height="20.59"/>
  <rect class="cls-2" x="2231.52" y="83.18" width="43.47" height="20.59"/>
  <rect class="cls-2" x="2274.91" y="83.18" width="43.47" height="20.59"/>
  <rect class="cls-2" x="2318.31" y="83.18" width="43.47" height="20.59"/>
  <rect class="cls-2" x="2361.7" y="83.18" width="43.47" height="20.59"/>
  <rect class="cls-2" x="2405.1" y="83.18" width="43.47" height="20.59"/>
  <rect class="cls-2" x="2448.49" y="83.18" width="43.47" height="20.59"/>
  <rect class="cls-2" x="2491.89" y="83.18" width="43.47" height="20.59"/>
  <rect class="cls-2" x="2535.28" y="83.18" width="21.64" height="20.59"/>
  <rect class="cls-5" x="0.49" y="145.08" width="39.55" height="20.59"/>
  <rect class="cls-2" x="40.07" y="145.08" width="43.47" height="20.59"/>
  <rect class="cls-2" x="83.47" y="145.08" width="43.47" height="20.59"/>
  <rect class="cls-2" x="126.86" y="145.08" width="43.47" height="20.59"/>
  <rect class="cls-2" x="170.26" y="145.08" width="43.47" height="20.59"/>
  <rect class="cls-2" x="213.65" y="145.08" width="43.47" height="20.59"/>
  <rect class="cls-2" x="257.05" y="145.08" width="43.47" height="20.59"/>
  <rect class="cls-2" x="300.44" y="145.08" width="43.47" height="20.59"/>
  <rect class="cls-2" x="343.84" y="145.08" width="43.47" height="20.59"/>
  <rect class="cls-2" x="387.23" y="145.08" width="43.47" height="20.59"/>
  <rect class="cls-2" x="430.63" y="145.08" width="43.47" height="20.59"/>
  <rect class="cls-2" x="474.02" y="145.08" width="43.47" height="20.59"/>
  <rect class="cls-2" x="517.42" y="145.08" width="43.47" height="20.59"/>
  <rect class="cls-2" x="560.81" y="145.08" width="43.47" height="20.59"/>
  <rect class="cls-2" x="604.21" y="145.08" width="43.47" height="20.59"/>
  <rect class="cls-2" x="647.6" y="145.08" width="43.47" height="20.59"/>
  <rect class="cls-2" x="691" y="145.08" width="43.47" height="20.59"/>
  <rect class="cls-2" x="734.39" y="145.08" width="43.47" height="20.59"/>
  <rect class="cls-2" x="777.79" y="145.08" width="43.47" height="20.59"/>
  <rect class="cls-2" x="821.18" y="145.08" width="43.47" height="20.59"/>
  <rect class="cls-2" x="864.58" y="145.08" width="43.47" height="20.59"/>
  <rect class="cls-2" x="907.97" y="145.08" width="43.47" height="20.59"/>
  <rect class="cls-2" x="951.37" y="145.08" width="43.47" height="20.59"/>
  <rect class="cls-2" x="994.76" y="145.08" width="43.47" height="20.59"/>
  <rect class="cls-2" x="1038.16" y="145.08" width="43.47" height="20.59"/>
  <rect class="cls-2" x="1081.55" y="145.08" width="43.47" height="20.59"/>
  <rect class="cls-2" x="1124.95" y="145.08" width="43.47" height="20.59"/>
  <rect class="cls-2" x="1168.34" y="145.08" width="43.47" height="20.59"/>
  <rect class="cls-2" x="1211.74" y="145.08" width="43.47" height="20.59"/>
  <rect class="cls-2" x="1255.13" y="145.08" width="43.47" height="20.59"/>
  <rect class="cls-2" x="1298.53" y="145.08" width="43.47" height="20.59"/>
  <rect class="cls-2" x="1341.92" y="145.08" width="43.47" height="20.59"/>
  <rect class="cls-2" x="1385.32" y="145.08" width="43.47" height="20.59"/>
  <rect class="cls-2" x="1428.71" y="145.08" width="43.47" height="20.59"/>
  <rect class="cls-2" x="1472.11" y="145.08" width="43.47" height="20.59"/>
  <rect class="cls-2" x="1515.5" y="145.08" width="43.47" height="20.59"/>
  <rect class="cls-2" x="1558.9" y="145.08" width="43.47" height="20.59"/>
  <rect class="cls-2" x="1602.29" y="145.08" width="43.47" height="20.59"/>
  <rect class="cls-2" x="1645.69" y="145.08" width="43.47" height="20.59"/>
  <rect class="cls-2" x="1689.08" y="145.08" width="43.47" height="20.59"/>
  <rect class="cls-2" x="1732.48" y="145.08" width="43.47" height="20.59"/>
  <rect class="cls-2" x="1775.87" y="145.08" width="43.47" height="20.59"/>
  <rect class="cls-2" x="1819.27" y="145.08" width="43.47" height="20.59"/>
  <rect class="cls-2" x="1862.66" y="145.08" width="43.47" height="20.59"/>
  <rect class="cls-2" x="1906.06" y="145.08" width="43.47" height="20.59"/>
  <rect class="cls-2" x="1949.45" y="145.08" width="43.47" height="20.59"/>
  <rect class="cls-2" x="1992.85" y="145.08" width="43.47" height="20.59"/>
  <rect class="cls-2" x="2036.24" y="145.08" width="43.47" height="20.59"/>
  <rect class="cls-2" x="2079.64" y="145.08" width="43.47" height="20.59"/>
  <rect class="cls-2" x="2123.03" y="145.08" width="43.47" height="20.59"/>
  <rect class="cls-2" x="2166.42" y="145.08" width="43.47" height="20.59"/>
  <rect class="cls-2" x="2209.82" y="145.08" width="43.47" height="20.59"/>
  <rect class="cls-2" x="2253.21" y="145.08" width="43.47" height="20.59"/>
  <rect class="cls-2" x="2296.61" y="145.08" width="43.47" height="20.59"/>
  <rect class="cls-2" x="2340" y="145.08" width="43.47" height="20.59"/>
  <rect class="cls-2" x="2383.4" y="145.08" width="43.47" height="20.59"/>
  <rect class="cls-2" x="2426.79" y="145.08" width="43.47" height="20.59"/>
  <rect class="cls-2" x="2470.19" y="145.08" width="43.47" height="20.59"/>
  <rect class="cls-2" x="2513.58" y="145.08" width="43.47" height="20.59"/>
  <rect class="cls-6" x="0.5" y="124.46" width="17.94" height="20.59"/>
  <rect class="cls-2" x="18.38" y="124.46" width="43.47" height="20.59"/>
  <rect class="cls-2" x="61.77" y="124.46" width="43.47" height="20.59"/>
  <rect class="cls-2" x="105.17" y="124.46" width="43.47" height="20.59"/>
  <rect class="cls-2" x="148.56" y="124.46" width="43.47" height="20.59"/>
  <rect class="cls-2" x="191.96" y="124.46" width="43.47" height="20.59"/>
  <rect class="cls-2" x="235.35" y="124.46" width="43.47" height="20.59"/>
  <rect class="cls-2" x="278.75" y="124.46" width="43.47" height="20.59"/>
  <rect class="cls-2" x="322.14" y="124.46" width="43.47" height="20.59"/>
  <rect class="cls-2" x="365.54" y="124.46" width="43.47" height="20.59"/>
  <rect class="cls-2" x="408.93" y="124.46" width="43.47" height="20.59"/>
  <rect class="cls-2" x="452.33" y="124.46" width="43.47" height="20.59"/>
  <rect class="cls-2" x="495.72" y="124.46" width="43.47" height="20.59"/>
  <rect class="cls-2" x="539.12" y="124.46" width="43.47" height="20.59"/>
  <rect class="cls-2" x="582.51" y="124.46" width="43.47" height="20.59"/>
  <rect class="cls-2" x="625.91" y="124.46" width="43.47" height="20.59"/>
  <rect class="cls-2" x="669.3" y="124.46" width="43.47" height="20.59"/>
  <rect class="cls-2" x="712.7" y="124.46" width="43.47" height="20.59"/>
  <rect class="cls-2" x="756.09" y="124.46" width="43.47" height="20.59"/>
  <rect class="cls-2" x="799.49" y="124.46" width="43.47" height="20.59"/>
  <rect class="cls-2" x="842.88" y="124.46" width="43.47" height="20.59"/>
  <rect class="cls-2" x="886.27" y="124.46" width="43.47" height="20.59"/>
  <rect class="cls-2" x="929.67" y="124.46" width="43.47" height="20.59"/>
  <rect class="cls-2" x="973.06" y="124.46" width="43.47" height="20.59"/>
  <rect class="cls-2" x="1016.46" y="124.46" width="43.47" height="20.59"/>
  <rect class="cls-2" x="1059.85" y="124.46" width="43.47" height="20.59"/>
  <rect class="cls-2" x="1103.25" y="124.46" width="43.47" height="20.59"/>
  <rect class="cls-2" x="1146.64" y="124.46" width="43.47" height="20.59"/>
  <rect class="cls-2" x="1190.04" y="124.46" width="43.47" height="20.59"/>
  <rect class="cls-2" x="1233.43" y="124.46" width="43.47" height="20.59"/>
  <rect class="cls-2" x="1276.83" y="124.46" width="43.47" height="20.59"/>
  <rect class="cls-2" x="1320.22" y="124.46" width="43.47" height="20.59"/>
  <rect class="cls-2" x="1363.62" y="124.46" width="43.47" height="20.59"/>
  <rect class="cls-2" x="1407.01" y="124.46" width="43.47" height="20.59"/>
  <rect class="cls-2" x="1450.41" y="124.46" width="43.47" height="20.59"/>
  <rect class="cls-2" x="1493.8" y="124.46" width="43.47" height="20.59"/>
  <rect class="cls-2" x="1537.2" y="124.46" width="43.47" height="20.59"/>
  <rect class="cls-2" x="1580.59" y="124.46" width="43.47" height="20.59"/>
  <rect class="cls-2" x="1623.99" y="124.46" width="43.47" height="20.59"/>
  <rect class="cls-2" x="1667.38" y="124.46" width="43.47" height="20.59"/>
  <rect class="cls-2" x="1710.78" y="124.46" width="43.47" height="20.59"/>
  <rect class="cls-2" x="1754.17" y="124.46" width="43.47" height="20.59"/>
  <rect class="cls-2" x="1797.57" y="124.46" width="43.47" height="20.59"/>
  <rect class="cls-2" x="1840.96" y="124.46" width="43.47" height="20.59"/>
  <rect class="cls-2" x="1884.36" y="124.46" width="43.47" height="20.59"/>
  <rect class="cls-2" x="1927.75" y="124.46" width="43.47" height="20.59"/>
  <rect class="cls-2" x="1971.15" y="124.46" width="43.47" height="20.59"/>
  <rect class="cls-2" x="2014.54" y="124.46" width="43.47" height="20.59"/>
  <rect class="cls-2" x="2057.94" y="124.46" width="43.47" height="20.59"/>
  <rect class="cls-2" x="2101.33" y="124.46" width="43.47" height="20.59"/>
  <rect class="cls-2" x="2144.73" y="124.46" width="43.47" height="20.59"/>
  <rect class="cls-2" x="2188.12" y="124.46" width="43.47" height="20.59"/>
  <rect class="cls-2" x="2231.52" y="124.46" width="43.47" height="20.59"/>
  <rect class="cls-2" x="2274.91" y="124.46" width="43.47" height="20.59"/>
  <rect class="cls-2" x="2318.31" y="124.46" width="43.47" height="20.59"/>
  <rect class="cls-2" x="2361.7" y="124.46" width="43.47" height="20.59"/>
  <rect class="cls-2" x="2405.1" y="124.46" width="43.47" height="20.59"/>
  <rect class="cls-2" x="2448.49" y="124.46" width="43.47" height="20.59"/>
  <rect class="cls-2" x="2491.89" y="124.46" width="43.47" height="20.59"/>
  <rect class="cls-2" x="2535.28" y="124.46" width="21.64" height="20.59"/>
  <rect class="cls-3" x="0.47" y="21.12" width="39.57" height="20.59"/>
  <rect class="cls-2" x="40.07" y="21.12" width="43.47" height="20.59"/>
  <rect class="cls-2" x="83.47" y="21.12" width="43.47" height="20.59"/>
  <rect class="cls-2" x="126.86" y="21.12" width="43.47" height="20.59"/>
  <rect class="cls-2" x="170.26" y="21.12" width="43.47" height="20.59"/>
  <rect class="cls-2" x="213.65" y="21.12" width="43.47" height="20.59"/>
  <rect class="cls-2" x="257.05" y="21.12" width="43.47" height="20.59"/>
  <rect class="cls-2" x="300.44" y="21.12" width="43.47" height="20.59"/>
  <rect class="cls-2" x="343.84" y="21.12" width="43.47" height="20.59"/>
  <rect class="cls-2" x="387.23" y="21.12" width="43.47" height="20.59"/>
  <rect class="cls-2" x="430.63" y="21.12" width="43.47" height="20.59"/>
  <rect class="cls-2" x="474.02" y="21.12" width="43.47" height="20.59"/>
  <rect class="cls-2" x="517.42" y="21.12" width="43.47" height="20.59"/>
  <rect class="cls-2" x="560.81" y="21.12" width="43.47" height="20.59"/>
  <rect class="cls-2" x="604.21" y="21.12" width="43.47" height="20.59"/>
  <rect class="cls-2" x="647.6" y="21.12" width="43.47" height="20.59"/>
  <rect class="cls-2" x="691" y="21.12" width="43.47" height="20.59"/>
  <rect class="cls-2" x="734.39" y="21.12" width="43.47" height="20.59"/>
  <rect class="cls-2" x="777.79" y="21.12" width="43.47" height="20.59"/>
  <rect class="cls-2" x="821.18" y="21.12" width="43.47" height="20.59"/>
  <rect class="cls-2" x="864.58" y="21.12" width="43.47" height="20.59"/>
  <rect class="cls-2" x="907.97" y="21.12" width="43.47" height="20.59"/>
  <rect class="cls-2" x="951.37" y="21.12" width="43.47" height="20.59"/>
  <rect class="cls-2" x="994.76" y="21.12" width="43.47" height="20.59"/>
  <rect class="cls-2" x="1038.16" y="21.12" width="43.47" height="20.59"/>
  <rect class="cls-2" x="1081.55" y="21.12" width="43.47" height="20.59"/>
  <rect class="cls-2" x="1124.95" y="21.12" width="43.47" height="20.59"/>
  <rect class="cls-2" x="1168.34" y="21.12" width="43.47" height="20.59"/>
  <rect class="cls-2" x="1211.74" y="21.12" width="43.47" height="20.59"/>
  <rect class="cls-2" x="1255.13" y="21.12" width="43.47" height="20.59"/>
  <rect class="cls-2" x="1298.53" y="21.12" width="43.47" height="20.59"/>
  <rect class="cls-2" x="1341.92" y="21.12" width="43.47" height="20.59"/>
  <rect class="cls-2" x="1385.32" y="21.12" width="43.47" height="20.59"/>
  <rect class="cls-2" x="1428.71" y="21.12" width="43.47" height="20.59"/>
  <rect class="cls-2" x="1472.11" y="21.12" width="43.47" height="20.59"/>
  <rect class="cls-2" x="1515.5" y="21.12" width="43.47" height="20.59"/>
  <rect class="cls-2" x="1558.9" y="21.12" width="43.47" height="20.59"/>
  <rect class="cls-2" x="1602.29" y="21.12" width="43.47" height="20.59"/>
  <rect class="cls-2" x="1645.69" y="21.12" width="43.47" height="20.59"/>
  <rect class="cls-2" x="1689.08" y="21.12" width="43.47" height="20.59"/>
  <rect class="cls-2" x="1732.48" y="21.12" width="43.47" height="20.59"/>
  <rect class="cls-2" x="1775.87" y="21.12" width="43.47" height="20.59"/>
  <rect class="cls-2" x="1819.27" y="21.12" width="43.47" height="20.59"/>
  <rect class="cls-2" x="1862.66" y="21.12" width="43.47" height="20.59"/>
  <rect class="cls-2" x="1906.06" y="21.12" width="43.47" height="20.59"/>
  <rect class="cls-2" x="1949.45" y="21.12" width="43.47" height="20.59"/>
  <rect class="cls-2" x="1992.85" y="21.12" width="43.47" height="20.59"/>
  <rect class="cls-2" x="2036.24" y="21.12" width="43.47" height="20.59"/>
  <rect class="cls-2" x="2079.64" y="21.12" width="43.47" height="20.59"/>
  <rect class="cls-2" x="2123.03" y="21.12" width="43.47" height="20.59"/>
  <rect class="cls-2" x="2166.42" y="21.12" width="43.47" height="20.59"/>
  <rect class="cls-2" x="2209.82" y="21.12" width="43.47" height="20.59"/>
  <rect class="cls-2" x="2253.21" y="21.12" width="43.47" height="20.59"/>
  <rect class="cls-2" x="2296.61" y="21.12" width="43.47" height="20.59"/>
  <rect class="cls-2" x="2340" y="21.12" width="43.47" height="20.59"/>
  <rect class="cls-2" x="2383.4" y="21.12" width="43.47" height="20.59"/>
  <rect class="cls-2" x="2426.79" y="21.12" width="43.47" height="20.59"/>
  <rect class="cls-2" x="2470.19" y="21.12" width="43.47" height="20.59"/>
  <rect class="cls-2" x="2513.58" y="21.12" width="43.47" height="20.59"/>
  <rect class="cls-4" x="0.48" y="0.5" width="17.97" height="20.59"/>
  <rect class="cls-2" x="18.38" y="0.5" width="43.47" height="20.59"/>
  <rect class="cls-2" x="61.77" y="0.5" width="43.47" height="20.59"/>
  <rect class="cls-2" x="105.17" y="0.5" width="43.47" height="20.59"/>
  <rect class="cls-2" x="148.56" y="0.5" width="43.47" height="20.59"/>
  <rect class="cls-2" x="191.96" y="0.5" width="43.47" height="20.59"/>
  <rect class="cls-2" x="235.35" y="0.5" width="43.47" height="20.59"/>
  <rect class="cls-2" x="278.75" y="0.5" width="43.47" height="20.59"/>
  <rect class="cls-2" x="322.14" y="0.5" width="43.47" height="20.59"/>
  <rect class="cls-2" x="365.54" y="0.5" width="43.47" height="20.59"/>
  <rect class="cls-2" x="408.93" y="0.5" width="43.47" height="20.59"/>
  <rect class="cls-2" x="452.33" y="0.5" width="43.47" height="20.59"/>
  <rect class="cls-2" x="495.72" y="0.5" width="43.47" height="20.59"/>
  <rect class="cls-2" x="539.12" y="0.5" width="43.47" height="20.59"/>
  <rect class="cls-2" x="582.51" y="0.5" width="43.47" height="20.59"/>
  <rect class="cls-2" x="625.91" y="0.5" width="43.47" height="20.59"/>
  <rect class="cls-2" x="669.3" y="0.5" width="43.47" height="20.59"/>
  <rect class="cls-2" x="712.7" y="0.5" width="43.47" height="20.59"/>
  <rect class="cls-2" x="756.09" y="0.5" width="43.47" height="20.59"/>
  <rect class="cls-2" x="799.49" y="0.5" width="43.47" height="20.59"/>
  <rect class="cls-2" x="842.88" y="0.5" width="43.47" height="20.59"/>
  <rect class="cls-2" x="886.27" y="0.5" width="43.47" height="20.59"/>
  <rect class="cls-2" x="929.67" y="0.5" width="43.47" height="20.59"/>
  <rect class="cls-2" x="973.06" y="0.5" width="43.47" height="20.59"/>
  <rect class="cls-2" x="1016.46" y="0.5" width="43.47" height="20.59"/>
  <rect class="cls-2" x="1059.85" y="0.5" width="43.47" height="20.59"/>
  <rect class="cls-2" x="1103.25" y="0.5" width="43.47" height="20.59"/>
  <rect class="cls-2" x="1146.64" y="0.5" width="43.47" height="20.59"/>
  <rect class="cls-2" x="1190.04" y="0.5" width="43.47" height="20.59"/>
  <rect class="cls-2" x="1233.43" y="0.5" width="43.47" height="20.59"/>
  <rect class="cls-2" x="1276.83" y="0.5" width="43.47" height="20.59"/>
  <rect class="cls-2" x="1320.22" y="0.5" width="43.47" height="20.59"/>
  <rect class="cls-2" x="1363.62" y="0.5" width="43.47" height="20.59"/>
  <rect class="cls-2" x="1407.01" y="0.5" width="43.47" height="20.59"/>
  <rect class="cls-2" x="1450.41" y="0.5" width="43.47" height="20.59"/>
  <rect class="cls-2" x="1493.8" y="0.5" width="43.47" height="20.59"/>
  <rect class="cls-2" x="1537.2" y="0.5" width="43.47" height="20.59"/>
  <rect class="cls-2" x="1580.59" y="0.5" width="43.47" height="20.59"/>
  <rect class="cls-2" x="1623.99" y="0.5" width="43.47" height="20.59"/>
  <rect class="cls-2" x="1667.38" y="0.5" width="43.47" height="20.59"/>
  <rect class="cls-2" x="1710.78" y="0.5" width="43.47" height="20.59"/>
  <rect class="cls-2" x="1754.17" y="0.5" width="43.47" height="20.59"/>
  <rect class="cls-2" x="1797.57" y="0.5" width="43.47" height="20.59"/>
  <rect class="cls-2" x="1840.96" y="0.5" width="43.47" height="20.59"/>
  <rect class="cls-2" x="1884.36" y="0.5" width="43.47" height="20.59"/>
  <rect class="cls-2" x="1927.75" y="0.5" width="43.47" height="20.59"/>
  <rect class="cls-2" x="1971.15" y="0.5" width="43.47" height="20.59"/>
  <rect class="cls-2" x="2014.54" y="0.5" width="43.47" height="20.59"/>
  <rect class="cls-2" x="2057.94" y="0.5" width="43.47" height="20.59"/>
  <rect class="cls-2" x="2101.33" y="0.5" width="43.47" height="20.59"/>
  <rect class="cls-2" x="2144.73" y="0.5" width="43.47" height="20.59"/>
  <rect class="cls-2" x="2188.12" y="0.5" width="43.47" height="20.59"/>
  <rect class="cls-2" x="2231.52" y="0.5" width="43.47" height="20.59"/>
  <rect class="cls-2" x="2274.91" y="0.5" width="43.47" height="20.59"/>
  <rect class="cls-2" x="2318.31" y="0.5" width="43.47" height="20.59"/>
  <rect class="cls-2" x="2361.7" y="0.5" width="43.47" height="20.59"/>
  <rect class="cls-2" x="2405.1" y="0.5" width="43.47" height="20.59"/>
  <rect class="cls-2" x="2448.49" y="0.5" width="43.47" height="20.59"/>
  <rect class="cls-2" x="2491.89" y="0.5" width="43.47" height="20.59"/>
  <rect class="cls-2" x="2535.28" y="0.5" width="21.64" height="20.59"/>
  <rect class="cls-6" x="0.5" y="41.78" width="17.94" height="20.59"/>
  <rect class="cls-2" x="18.38" y="41.78" width="43.47" height="20.59"/>
  <rect class="cls-2" x="61.77" y="41.78" width="43.47" height="20.59"/>
  <rect class="cls-2" x="105.17" y="41.78" width="43.47" height="20.59"/>
  <rect class="cls-2" x="148.56" y="41.78" width="43.47" height="20.59"/>
  <rect class="cls-2" x="191.96" y="41.78" width="43.47" height="20.59"/>
  <rect class="cls-2" x="235.35" y="41.78" width="43.47" height="20.59"/>
  <rect class="cls-2" x="278.75" y="41.78" width="43.47" height="20.59"/>
  <rect class="cls-2" x="322.14" y="41.78" width="43.47" height="20.59"/>
  <rect class="cls-2" x="365.54" y="41.78" width="43.47" height="20.59"/>
  <rect class="cls-2" x="408.93" y="41.78" width="43.47" height="20.59"/>
  <rect class="cls-2" x="452.33" y="41.78" width="43.47" height="20.59"/>
  <rect class="cls-2" x="495.72" y="41.78" width="43.47" height="20.59"/>
  <rect class="cls-2" x="539.12" y="41.78" width="43.47" height="20.59"/>
  <rect class="cls-2" x="582.51" y="41.78" width="43.47" height="20.59"/>
  <rect class="cls-2" x="625.91" y="41.78" width="43.47" height="20.59"/>
  <rect class="cls-2" x="669.3" y="41.78" width="43.47" height="20.59"/>
  <rect class="cls-2" x="712.7" y="41.78" width="43.47" height="20.59"/>
  <rect class="cls-2" x="756.09" y="41.78" width="43.47" height="20.59"/>
  <rect class="cls-2" x="799.49" y="41.78" width="43.47" height="20.59"/>
  <rect class="cls-2" x="842.88" y="41.78" width="43.47" height="20.59"/>
  <rect class="cls-2" x="886.27" y="41.78" width="43.47" height="20.59"/>
  <rect class="cls-2" x="929.67" y="41.78" width="43.47" height="20.59"/>
  <rect class="cls-2" x="973.06" y="41.78" width="43.47" height="20.59"/>
  <rect class="cls-2" x="1016.46" y="41.78" width="43.47" height="20.59"/>
  <rect class="cls-2" x="1059.85" y="41.78" width="43.47" height="20.59"/>
  <rect class="cls-2" x="1103.25" y="41.78" width="43.47" height="20.59"/>
  <rect class="cls-2" x="1146.64" y="41.78" width="43.47" height="20.59"/>
  <rect class="cls-2" x="1190.04" y="41.78" width="43.47" height="20.59"/>
  <rect class="cls-2" x="1233.43" y="41.78" width="43.47" height="20.59"/>
  <rect class="cls-2" x="1276.83" y="41.78" width="43.47" height="20.59"/>
  <rect class="cls-2" x="1320.22" y="41.78" width="43.47" height="20.59"/>
  <rect class="cls-2" x="1363.62" y="41.78" width="43.47" height="20.59"/>
  <rect class="cls-2" x="1407.01" y="41.78" width="43.47" height="20.59"/>
  <rect class="cls-2" x="1450.41" y="41.78" width="43.47" height="20.59"/>
  <rect class="cls-2" x="1493.8" y="41.78" width="43.47" height="20.59"/>
  <rect class="cls-2" x="1537.2" y="41.78" width="43.47" height="20.59"/>
  <rect class="cls-2" x="1580.59" y="41.78" width="43.47" height="20.59"/>
  <rect class="cls-2" x="1623.99" y="41.78" width="43.47" height="20.59"/>
  <rect class="cls-2" x="1667.38" y="41.78" width="43.47" height="20.59"/>
  <rect class="cls-2" x="1710.78" y="41.78" width="43.47" height="20.59"/>
  <rect class="cls-2" x="1754.17" y="41.78" width="43.47" height="20.59"/>
  <rect class="cls-2" x="1797.57" y="41.78" width="43.47" height="20.59"/>
  <rect class="cls-2" x="1840.96" y="41.78" width="43.47" height="20.59"/>
  <rect class="cls-2" x="1884.36" y="41.78" width="43.47" height="20.59"/>
  <rect class="cls-2" x="1927.75" y="41.78" width="43.47" height="20.59"/>
  <rect class="cls-2" x="1971.15" y="41.78" width="43.47" height="20.59"/>
  <rect class="cls-2" x="2014.54" y="41.78" width="43.47" height="20.59"/>
  <rect class="cls-2" x="2057.94" y="41.78" width="43.47" height="20.59"/>
  <rect class="cls-2" x="2101.33" y="41.78" width="43.47" height="20.59"/>
  <rect class="cls-2" x="2144.73" y="41.78" width="43.47" height="20.59"/>
  <rect class="cls-2" x="2188.12" y="41.78" width="43.47" height="20.59"/>
  <rect class="cls-2" x="2231.52" y="41.78" width="43.47" height="20.59"/>
  <rect class="cls-2" x="2274.91" y="41.78" width="43.47" height="20.59"/>
  <rect class="cls-2" x="2318.31" y="41.78" width="43.47" height="20.59"/>
  <rect class="cls-2" x="2361.7" y="41.78" width="43.47" height="20.59"/>
  <rect class="cls-2" x="2405.1" y="41.78" width="43.47" height="20.59"/>
  <rect class="cls-2" x="2448.49" y="41.78" width="43.47" height="20.59"/>
  <rect class="cls-2" x="2491.89" y="41.78" width="43.47" height="20.59"/>
  <rect class="cls-2" x="2535.28" y="41.78" width="21.64" height="20.59"/>
</svg>
