<svg id="bricks_dark" data-name="bricks dark" xmlns="http://www.w3.org/2000/svg" viewBox="0 0 2557.53 166.17">
  <defs>
    <style>
      .cls-1, .cls-2 {
        fill: gray;
      }

      .cls-2 {
        stroke: #4d4d4d;
        stroke-miterlimit: 10;
      }
    </style>
  </defs>
  <rect class="cls-1" x="0.04" y="83.05" width="18.28" height="20.63"/>
  <rect class="cls-1" x="2535.26" y="83.18" width="22.27" height="20.59"/>
  <rect class="cls-1" x="0.02" y="124.42" width="18.29" height="20.63"/>
  <rect class="cls-1" x="2535.26" y="124.46" width="22.27" height="20.59"/>
  <rect class="cls-1" y="0.01" width="18.31" height="20.82"/>
  <rect class="cls-1" x="2535.26" width="22.27" height="21.09"/>
  <rect class="cls-1" x="0.02" y="41.57" width="18.29" height="20.63"/>
  <rect class="cls-1" x="2535.26" y="41.78" width="22.27" height="20.59"/>
  <g>
    <rect class="cls-2" x="0.52" y="62.37" width="39.6" height="20.59"/>
    <rect class="cls-2" x="40.05" y="62.37" width="43.47" height="20.59"/>
    <rect class="cls-2" x="83.44" y="62.37" width="43.47" height="20.59"/>
    <rect class="cls-2" x="126.84" y="62.37" width="43.47" height="20.59"/>
    <rect class="cls-2" x="170.23" y="62.37" width="43.47" height="20.59"/>
    <rect class="cls-2" x="213.63" y="62.37" width="43.47" height="20.59"/>
    <rect class="cls-2" x="257.02" y="62.37" width="43.47" height="20.59"/>
    <rect class="cls-2" x="300.42" y="62.37" width="43.47" height="20.59"/>
    <rect class="cls-2" x="343.81" y="62.37" width="43.47" height="20.59"/>
    <rect class="cls-2" x="387.21" y="62.37" width="43.47" height="20.59"/>
    <rect class="cls-2" x="430.6" y="62.37" width="43.47" height="20.59"/>
    <rect class="cls-2" x="474" y="62.37" width="43.47" height="20.59"/>
    <rect class="cls-2" x="517.39" y="62.37" width="43.47" height="20.59"/>
    <rect class="cls-2" x="560.79" y="62.37" width="43.47" height="20.59"/>
    <rect class="cls-2" x="604.18" y="62.37" width="43.47" height="20.59"/>
    <rect class="cls-2" x="647.58" y="62.37" width="43.47" height="20.59"/>
    <rect class="cls-2" x="690.97" y="62.37" width="43.47" height="20.59"/>
    <rect class="cls-2" x="734.37" y="62.37" width="43.47" height="20.59"/>
    <rect class="cls-2" x="777.76" y="62.37" width="43.47" height="20.59"/>
    <rect class="cls-2" x="821.16" y="62.37" width="43.47" height="20.59"/>
    <rect class="cls-2" x="864.55" y="62.37" width="43.47" height="20.59"/>
    <rect class="cls-2" x="907.95" y="62.37" width="43.47" height="20.59"/>
    <rect class="cls-2" x="951.34" y="62.37" width="43.47" height="20.59"/>
    <rect class="cls-2" x="994.74" y="62.37" width="43.47" height="20.59"/>
    <rect class="cls-2" x="1038.13" y="62.37" width="43.47" height="20.59"/>
    <rect class="cls-2" x="1081.53" y="62.37" width="43.47" height="20.59"/>
    <rect class="cls-2" x="1124.92" y="62.37" width="43.47" height="20.59"/>
    <rect class="cls-2" x="1168.32" y="62.37" width="43.47" height="20.59"/>
    <rect class="cls-2" x="1211.71" y="62.37" width="43.47" height="20.59"/>
    <rect class="cls-2" x="1255.11" y="62.37" width="43.47" height="20.59"/>
    <rect class="cls-2" x="1298.5" y="62.37" width="43.47" height="20.59"/>
    <rect class="cls-2" x="1341.9" y="62.37" width="43.47" height="20.59"/>
    <rect class="cls-2" x="1385.29" y="62.37" width="43.47" height="20.59"/>
    <rect class="cls-2" x="1428.69" y="62.37" width="43.47" height="20.59"/>
    <rect class="cls-2" x="1472.08" y="62.37" width="43.47" height="20.59"/>
    <rect class="cls-2" x="1515.48" y="62.37" width="43.47" height="20.59"/>
    <rect class="cls-2" x="1558.87" y="62.37" width="43.47" height="20.59"/>
    <rect class="cls-2" x="1602.27" y="62.37" width="43.47" height="20.59"/>
    <rect class="cls-2" x="1645.66" y="62.37" width="43.47" height="20.59"/>
    <rect class="cls-2" x="1689.06" y="62.37" width="43.47" height="20.59"/>
    <rect class="cls-2" x="1732.45" y="62.37" width="43.47" height="20.59"/>
    <rect class="cls-2" x="1775.85" y="62.37" width="43.47" height="20.59"/>
    <rect class="cls-2" x="1819.24" y="62.37" width="43.47" height="20.59"/>
    <rect class="cls-2" x="1862.64" y="62.37" width="43.47" height="20.59"/>
    <rect class="cls-2" x="1906.03" y="62.37" width="43.47" height="20.59"/>
    <rect class="cls-2" x="1949.43" y="62.37" width="43.47" height="20.59"/>
    <rect class="cls-2" x="1992.82" y="62.37" width="43.47" height="20.59"/>
    <rect class="cls-2" x="2036.22" y="62.37" width="43.47" height="20.59"/>
    <rect class="cls-2" x="2079.61" y="62.37" width="43.47" height="20.59"/>
    <rect class="cls-2" x="2123.01" y="62.37" width="43.47" height="20.59"/>
    <rect class="cls-2" x="2166.4" y="62.37" width="43.47" height="20.59"/>
    <rect class="cls-2" x="2209.8" y="62.37" width="43.47" height="20.59"/>
    <rect class="cls-2" x="2253.19" y="62.37" width="43.47" height="20.59"/>
    <rect class="cls-2" x="2296.59" y="62.37" width="43.47" height="20.59"/>
    <rect class="cls-2" x="2339.98" y="62.37" width="43.47" height="20.59"/>
    <rect class="cls-2" x="2383.38" y="62.37" width="43.47" height="20.59"/>
    <rect class="cls-2" x="2426.77" y="62.37" width="43.47" height="20.59"/>
    <rect class="cls-2" x="2470.17" y="62.37" width="43.47" height="20.59"/>
    <rect class="cls-2" x="2513.56" y="62.37" width="43.47" height="20.59"/>
    <rect class="cls-2" x="0.52" y="103.8" width="39.4" height="20.59"/>
    <rect class="cls-2" x="40.05" y="103.8" width="43.47" height="20.59"/>
    <rect class="cls-2" x="83.44" y="103.8" width="43.47" height="20.59"/>
    <rect class="cls-2" x="126.84" y="103.8" width="43.47" height="20.59"/>
    <rect class="cls-2" x="170.23" y="103.8" width="43.47" height="20.59"/>
    <rect class="cls-2" x="213.63" y="103.8" width="43.47" height="20.59"/>
    <rect class="cls-2" x="257.02" y="103.8" width="43.47" height="20.59"/>
    <rect class="cls-2" x="300.42" y="103.8" width="43.47" height="20.59"/>
    <rect class="cls-2" x="343.81" y="103.8" width="43.47" height="20.59"/>
    <rect class="cls-2" x="387.21" y="103.8" width="43.47" height="20.59"/>
    <rect class="cls-2" x="430.6" y="103.8" width="43.47" height="20.59"/>
    <rect class="cls-2" x="474" y="103.8" width="43.47" height="20.59"/>
    <rect class="cls-2" x="517.39" y="103.8" width="43.47" height="20.59"/>
    <rect class="cls-2" x="560.79" y="103.8" width="43.47" height="20.59"/>
    <rect class="cls-2" x="604.18" y="103.8" width="43.47" height="20.59"/>
    <rect class="cls-2" x="647.58" y="103.8" width="43.47" height="20.59"/>
    <rect class="cls-2" x="690.97" y="103.8" width="43.47" height="20.59"/>
    <rect class="cls-2" x="734.37" y="103.8" width="43.47" height="20.59"/>
    <rect class="cls-2" x="777.76" y="103.8" width="43.47" height="20.59"/>
    <rect class="cls-2" x="821.16" y="103.8" width="43.47" height="20.59"/>
    <rect class="cls-2" x="864.55" y="103.8" width="43.47" height="20.59"/>
    <rect class="cls-2" x="907.95" y="103.8" width="43.47" height="20.59"/>
    <rect class="cls-2" x="951.34" y="103.8" width="43.47" height="20.59"/>
    <rect class="cls-2" x="994.74" y="103.8" width="43.47" height="20.59"/>
    <rect class="cls-2" x="1038.13" y="103.8" width="43.47" height="20.59"/>
    <rect class="cls-2" x="1081.53" y="103.8" width="43.47" height="20.59"/>
    <rect class="cls-2" x="1124.92" y="103.8" width="43.47" height="20.59"/>
    <rect class="cls-2" x="1168.32" y="103.8" width="43.47" height="20.59"/>
    <rect class="cls-2" x="1211.71" y="103.8" width="43.47" height="20.59"/>
    <rect class="cls-2" x="1255.11" y="103.8" width="43.47" height="20.59"/>
    <rect class="cls-2" x="1298.5" y="103.8" width="43.47" height="20.59"/>
    <rect class="cls-2" x="1341.9" y="103.8" width="43.47" height="20.59"/>
    <rect class="cls-2" x="1385.29" y="103.8" width="43.47" height="20.59"/>
    <rect class="cls-2" x="1428.69" y="103.8" width="43.47" height="20.59"/>
    <rect class="cls-2" x="1472.08" y="103.8" width="43.47" height="20.59"/>
    <rect class="cls-2" x="1515.48" y="103.8" width="43.47" height="20.59"/>
    <rect class="cls-2" x="1558.87" y="103.8" width="43.47" height="20.59"/>
    <rect class="cls-2" x="1602.27" y="103.8" width="43.47" height="20.59"/>
    <rect class="cls-2" x="1645.66" y="103.8" width="43.47" height="20.59"/>
    <rect class="cls-2" x="1689.06" y="103.8" width="43.47" height="20.59"/>
    <rect class="cls-2" x="1732.45" y="103.8" width="43.47" height="20.59"/>
    <rect class="cls-2" x="1775.85" y="103.8" width="43.47" height="20.59"/>
    <rect class="cls-2" x="1819.24" y="103.8" width="43.47" height="20.59"/>
    <rect class="cls-2" x="1862.64" y="103.8" width="43.47" height="20.59"/>
    <rect class="cls-2" x="1906.03" y="103.8" width="43.47" height="20.59"/>
    <rect class="cls-2" x="1949.43" y="103.8" width="43.47" height="20.59"/>
    <rect class="cls-2" x="1992.82" y="103.8" width="43.47" height="20.59"/>
    <rect class="cls-2" x="2036.22" y="103.8" width="43.47" height="20.59"/>
    <rect class="cls-2" x="2079.61" y="103.8" width="43.47" height="20.59"/>
    <rect class="cls-2" x="2123.01" y="103.8" width="43.47" height="20.59"/>
    <rect class="cls-2" x="2166.4" y="103.8" width="43.47" height="20.59"/>
    <rect class="cls-2" x="2209.8" y="103.8" width="43.47" height="20.59"/>
    <rect class="cls-2" x="2253.19" y="103.8" width="43.47" height="20.59"/>
    <rect class="cls-2" x="2296.59" y="103.8" width="43.47" height="20.59"/>
    <rect class="cls-2" x="2339.98" y="103.8" width="43.47" height="20.59"/>
    <rect class="cls-2" x="2383.38" y="103.8" width="43.47" height="20.59"/>
    <rect class="cls-2" x="2426.77" y="103.8" width="43.47" height="20.59"/>
    <rect class="cls-2" x="2470.17" y="103.8" width="43.47" height="20.59"/>
    <rect class="cls-2" x="2513.56" y="103.8" width="43.47" height="20.59"/>
    <rect class="cls-2" x="18.35" y="83.18" width="43.47" height="20.59"/>
    <rect class="cls-2" x="61.75" y="83.18" width="43.47" height="20.59"/>
    <rect class="cls-2" x="105.14" y="83.18" width="43.47" height="20.59"/>
    <rect class="cls-2" x="148.54" y="83.18" width="43.47" height="20.59"/>
    <rect class="cls-2" x="191.93" y="83.18" width="43.47" height="20.59"/>
    <rect class="cls-2" x="235.33" y="83.18" width="43.47" height="20.59"/>
    <rect class="cls-2" x="278.72" y="83.18" width="43.47" height="20.59"/>
    <rect class="cls-2" x="322.12" y="83.18" width="43.47" height="20.59"/>
    <rect class="cls-2" x="365.51" y="83.18" width="43.47" height="20.59"/>
    <rect class="cls-2" x="408.91" y="83.18" width="43.47" height="20.59"/>
    <rect class="cls-2" x="452.3" y="83.18" width="43.47" height="20.59"/>
    <rect class="cls-2" x="495.7" y="83.18" width="43.47" height="20.59"/>
    <rect class="cls-2" x="539.09" y="83.18" width="43.47" height="20.59"/>
    <rect class="cls-2" x="582.49" y="83.18" width="43.47" height="20.59"/>
    <rect class="cls-2" x="625.88" y="83.18" width="43.47" height="20.59"/>
    <rect class="cls-2" x="669.28" y="83.18" width="43.47" height="20.59"/>
    <rect class="cls-2" x="712.67" y="83.18" width="43.47" height="20.59"/>
    <rect class="cls-2" x="756.07" y="83.18" width="43.47" height="20.59"/>
    <rect class="cls-2" x="799.46" y="83.18" width="43.47" height="20.59"/>
    <rect class="cls-2" x="842.86" y="83.18" width="43.47" height="20.59"/>
    <rect class="cls-2" x="886.25" y="83.18" width="43.47" height="20.59"/>
    <rect class="cls-2" x="929.65" y="83.18" width="43.47" height="20.59"/>
    <rect class="cls-2" x="973.04" y="83.18" width="43.47" height="20.59"/>
    <rect class="cls-2" x="1016.44" y="83.18" width="43.47" height="20.59"/>
    <rect class="cls-2" x="1059.83" y="83.18" width="43.47" height="20.59"/>
    <rect class="cls-2" x="1103.23" y="83.18" width="43.47" height="20.59"/>
    <rect class="cls-2" x="1146.62" y="83.18" width="43.47" height="20.59"/>
    <rect class="cls-2" x="1190.02" y="83.18" width="43.47" height="20.59"/>
    <rect class="cls-2" x="1233.41" y="83.18" width="43.47" height="20.59"/>
    <rect class="cls-2" x="1276.81" y="83.18" width="43.47" height="20.59"/>
    <rect class="cls-2" x="1320.2" y="83.18" width="43.47" height="20.59"/>
    <rect class="cls-2" x="1363.6" y="83.18" width="43.47" height="20.59"/>
    <rect class="cls-2" x="1406.99" y="83.18" width="43.47" height="20.59"/>
    <rect class="cls-2" x="1450.38" y="83.18" width="43.47" height="20.59"/>
    <rect class="cls-2" x="1493.78" y="83.18" width="43.47" height="20.59"/>
    <rect class="cls-2" x="1537.17" y="83.18" width="43.47" height="20.59"/>
    <rect class="cls-2" x="1580.57" y="83.18" width="43.47" height="20.59"/>
    <rect class="cls-2" x="1623.96" y="83.18" width="43.47" height="20.59"/>
    <rect class="cls-2" x="1667.36" y="83.18" width="43.47" height="20.59"/>
    <rect class="cls-2" x="1710.75" y="83.18" width="43.47" height="20.59"/>
    <rect class="cls-2" x="1754.15" y="83.18" width="43.47" height="20.59"/>
    <rect class="cls-2" x="1797.54" y="83.18" width="43.47" height="20.59"/>
    <rect class="cls-2" x="1840.94" y="83.18" width="43.47" height="20.59"/>
    <rect class="cls-2" x="1884.33" y="83.18" width="43.47" height="20.59"/>
    <rect class="cls-2" x="1927.73" y="83.18" width="43.47" height="20.59"/>
    <rect class="cls-2" x="1971.12" y="83.18" width="43.47" height="20.59"/>
    <rect class="cls-2" x="2014.52" y="83.18" width="43.47" height="20.59"/>
    <rect class="cls-2" x="2057.91" y="83.18" width="43.47" height="20.59"/>
    <rect class="cls-2" x="2101.31" y="83.18" width="43.47" height="20.59"/>
    <rect class="cls-2" x="2144.7" y="83.18" width="43.47" height="20.59"/>
    <rect class="cls-2" x="2188.1" y="83.18" width="43.47" height="20.59"/>
    <rect class="cls-2" x="2231.49" y="83.18" width="43.47" height="20.59"/>
    <rect class="cls-2" x="2274.89" y="83.18" width="43.47" height="20.59"/>
    <rect class="cls-2" x="2318.28" y="83.18" width="43.47" height="20.59"/>
    <rect class="cls-2" x="2361.68" y="83.18" width="43.47" height="20.59"/>
    <rect class="cls-2" x="2405.07" y="83.18" width="43.47" height="20.59"/>
    <rect class="cls-2" x="2448.47" y="83.18" width="43.47" height="20.59"/>
    <rect class="cls-2" x="2491.86" y="83.18" width="43.47" height="20.59"/>
    <rect class="cls-2" x="0.52" y="145.08" width="39.5" height="20.59"/>
    <rect class="cls-2" x="40.05" y="145.08" width="43.47" height="20.59"/>
    <rect class="cls-2" x="83.44" y="145.08" width="43.47" height="20.59"/>
    <rect class="cls-2" x="126.84" y="145.08" width="43.47" height="20.59"/>
    <rect class="cls-2" x="170.23" y="145.08" width="43.47" height="20.59"/>
    <rect class="cls-2" x="213.63" y="145.08" width="43.47" height="20.59"/>
    <rect class="cls-2" x="257.02" y="145.08" width="43.47" height="20.59"/>
    <rect class="cls-2" x="300.42" y="145.08" width="43.47" height="20.59"/>
    <rect class="cls-2" x="343.81" y="145.08" width="43.47" height="20.59"/>
    <rect class="cls-2" x="387.21" y="145.08" width="43.47" height="20.59"/>
    <rect class="cls-2" x="430.6" y="145.08" width="43.47" height="20.59"/>
    <rect class="cls-2" x="474" y="145.08" width="43.47" height="20.59"/>
    <rect class="cls-2" x="517.39" y="145.08" width="43.47" height="20.59"/>
    <rect class="cls-2" x="560.79" y="145.08" width="43.47" height="20.59"/>
    <rect class="cls-2" x="604.18" y="145.08" width="43.47" height="20.59"/>
    <rect class="cls-2" x="647.58" y="145.08" width="43.47" height="20.59"/>
    <rect class="cls-2" x="690.97" y="145.08" width="43.47" height="20.59"/>
    <rect class="cls-2" x="734.37" y="145.08" width="43.47" height="20.59"/>
    <rect class="cls-2" x="777.76" y="145.08" width="43.47" height="20.59"/>
    <rect class="cls-2" x="821.16" y="145.08" width="43.47" height="20.59"/>
    <rect class="cls-2" x="864.55" y="145.08" width="43.47" height="20.59"/>
    <rect class="cls-2" x="907.95" y="145.08" width="43.47" height="20.59"/>
    <rect class="cls-2" x="951.34" y="145.08" width="43.47" height="20.59"/>
    <rect class="cls-2" x="994.74" y="145.08" width="43.47" height="20.59"/>
    <rect class="cls-2" x="1038.13" y="145.08" width="43.47" height="20.59"/>
    <rect class="cls-2" x="1081.53" y="145.08" width="43.47" height="20.59"/>
    <rect class="cls-2" x="1124.92" y="145.08" width="43.47" height="20.59"/>
    <rect class="cls-2" x="1168.32" y="145.08" width="43.47" height="20.59"/>
    <rect class="cls-2" x="1211.71" y="145.08" width="43.47" height="20.59"/>
    <rect class="cls-2" x="1255.11" y="145.08" width="43.47" height="20.59"/>
    <rect class="cls-2" x="1298.5" y="145.08" width="43.47" height="20.59"/>
    <rect class="cls-2" x="1341.9" y="145.08" width="43.47" height="20.59"/>
    <rect class="cls-2" x="1385.29" y="145.08" width="43.47" height="20.59"/>
    <rect class="cls-2" x="1428.69" y="145.08" width="43.47" height="20.59"/>
    <rect class="cls-2" x="1472.08" y="145.08" width="43.47" height="20.59"/>
    <rect class="cls-2" x="1515.48" y="145.08" width="43.47" height="20.59"/>
    <rect class="cls-2" x="1558.87" y="145.08" width="43.47" height="20.59"/>
    <rect class="cls-2" x="1602.27" y="145.08" width="43.47" height="20.59"/>
    <rect class="cls-2" x="1645.66" y="145.08" width="43.47" height="20.59"/>
    <rect class="cls-2" x="1689.06" y="145.08" width="43.47" height="20.59"/>
    <rect class="cls-2" x="1732.45" y="145.08" width="43.47" height="20.59"/>
    <rect class="cls-2" x="1775.85" y="145.08" width="43.47" height="20.59"/>
    <rect class="cls-2" x="1819.24" y="145.08" width="43.47" height="20.59"/>
    <rect class="cls-2" x="1862.64" y="145.08" width="43.47" height="20.59"/>
    <rect class="cls-2" x="1906.03" y="145.08" width="43.47" height="20.59"/>
    <rect class="cls-2" x="1949.43" y="145.08" width="43.47" height="20.59"/>
    <rect class="cls-2" x="1992.82" y="145.08" width="43.47" height="20.59"/>
    <rect class="cls-2" x="2036.22" y="145.08" width="43.47" height="20.59"/>
    <rect class="cls-2" x="2079.61" y="145.08" width="43.47" height="20.59"/>
    <rect class="cls-2" x="2123.01" y="145.08" width="43.47" height="20.59"/>
    <rect class="cls-2" x="2166.4" y="145.08" width="43.47" height="20.59"/>
    <rect class="cls-2" x="2209.8" y="145.08" width="43.47" height="20.59"/>
    <rect class="cls-2" x="2253.19" y="145.08" width="43.47" height="20.59"/>
    <rect class="cls-2" x="2296.59" y="145.08" width="43.47" height="20.59"/>
    <rect class="cls-2" x="2339.98" y="145.08" width="43.47" height="20.59"/>
    <rect class="cls-2" x="2383.38" y="145.08" width="43.47" height="20.59"/>
    <rect class="cls-2" x="2426.77" y="145.08" width="43.47" height="20.59"/>
    <rect class="cls-2" x="2470.17" y="145.08" width="43.47" height="20.59"/>
    <rect class="cls-2" x="2513.56" y="145.08" width="43.47" height="20.59"/>
    <rect class="cls-2" x="18.35" y="124.46" width="43.47" height="20.59"/>
    <rect class="cls-2" x="61.75" y="124.46" width="43.47" height="20.59"/>
    <rect class="cls-2" x="105.14" y="124.46" width="43.47" height="20.59"/>
    <rect class="cls-2" x="148.54" y="124.46" width="43.47" height="20.59"/>
    <rect class="cls-2" x="191.93" y="124.46" width="43.47" height="20.59"/>
    <rect class="cls-2" x="235.33" y="124.46" width="43.47" height="20.59"/>
    <rect class="cls-2" x="278.72" y="124.46" width="43.47" height="20.59"/>
    <rect class="cls-2" x="322.12" y="124.46" width="43.47" height="20.59"/>
    <rect class="cls-2" x="365.51" y="124.46" width="43.47" height="20.59"/>
    <rect class="cls-2" x="408.91" y="124.46" width="43.47" height="20.59"/>
    <rect class="cls-2" x="452.3" y="124.46" width="43.47" height="20.59"/>
    <rect class="cls-2" x="495.7" y="124.46" width="43.47" height="20.59"/>
    <rect class="cls-2" x="539.09" y="124.46" width="43.47" height="20.59"/>
    <rect class="cls-2" x="582.49" y="124.46" width="43.47" height="20.59"/>
    <rect class="cls-2" x="625.88" y="124.46" width="43.47" height="20.59"/>
    <rect class="cls-2" x="669.28" y="124.46" width="43.47" height="20.59"/>
    <rect class="cls-2" x="712.67" y="124.46" width="43.47" height="20.59"/>
    <rect class="cls-2" x="756.07" y="124.46" width="43.47" height="20.59"/>
    <rect class="cls-2" x="799.46" y="124.46" width="43.47" height="20.59"/>
    <rect class="cls-2" x="842.86" y="124.46" width="43.47" height="20.59"/>
    <rect class="cls-2" x="886.25" y="124.46" width="43.47" height="20.59"/>
    <rect class="cls-2" x="929.65" y="124.46" width="43.47" height="20.59"/>
    <rect class="cls-2" x="973.04" y="124.46" width="43.47" height="20.59"/>
    <rect class="cls-2" x="1016.44" y="124.46" width="43.47" height="20.59"/>
    <rect class="cls-2" x="1059.83" y="124.46" width="43.47" height="20.59"/>
    <rect class="cls-2" x="1103.23" y="124.46" width="43.47" height="20.59"/>
    <rect class="cls-2" x="1146.62" y="124.46" width="43.47" height="20.59"/>
    <rect class="cls-2" x="1190.02" y="124.46" width="43.47" height="20.59"/>
    <rect class="cls-2" x="1233.41" y="124.46" width="43.47" height="20.59"/>
    <rect class="cls-2" x="1276.81" y="124.46" width="43.47" height="20.59"/>
    <rect class="cls-2" x="1320.2" y="124.46" width="43.47" height="20.59"/>
    <rect class="cls-2" x="1363.6" y="124.46" width="43.47" height="20.59"/>
    <rect class="cls-2" x="1406.99" y="124.46" width="43.47" height="20.59"/>
    <rect class="cls-2" x="1450.38" y="124.46" width="43.47" height="20.59"/>
    <rect class="cls-2" x="1493.78" y="124.46" width="43.47" height="20.59"/>
    <rect class="cls-2" x="1537.17" y="124.46" width="43.47" height="20.59"/>
    <rect class="cls-2" x="1580.57" y="124.46" width="43.47" height="20.59"/>
    <rect class="cls-2" x="1623.96" y="124.46" width="43.47" height="20.59"/>
    <rect class="cls-2" x="1667.36" y="124.46" width="43.47" height="20.59"/>
    <rect class="cls-2" x="1710.75" y="124.46" width="43.47" height="20.59"/>
    <rect class="cls-2" x="1754.15" y="124.46" width="43.47" height="20.59"/>
    <rect class="cls-2" x="1797.54" y="124.46" width="43.47" height="20.59"/>
    <rect class="cls-2" x="1840.94" y="124.46" width="43.47" height="20.59"/>
    <rect class="cls-2" x="1884.33" y="124.46" width="43.47" height="20.59"/>
    <rect class="cls-2" x="1927.73" y="124.46" width="43.47" height="20.59"/>
    <rect class="cls-2" x="1971.12" y="124.46" width="43.47" height="20.59"/>
    <rect class="cls-2" x="2014.52" y="124.46" width="43.47" height="20.59"/>
    <rect class="cls-2" x="2057.91" y="124.46" width="43.47" height="20.59"/>
    <rect class="cls-2" x="2101.31" y="124.46" width="43.47" height="20.59"/>
    <rect class="cls-2" x="2144.7" y="124.46" width="43.47" height="20.59"/>
    <rect class="cls-2" x="2188.1" y="124.46" width="43.47" height="20.59"/>
    <rect class="cls-2" x="2231.49" y="124.46" width="43.47" height="20.59"/>
    <rect class="cls-2" x="2274.89" y="124.46" width="43.47" height="20.59"/>
    <rect class="cls-2" x="2318.28" y="124.46" width="43.47" height="20.59"/>
    <rect class="cls-2" x="2361.68" y="124.46" width="43.47" height="20.59"/>
    <rect class="cls-2" x="2405.07" y="124.46" width="43.47" height="20.59"/>
    <rect class="cls-2" x="2448.47" y="124.46" width="43.47" height="20.59"/>
    <rect class="cls-2" x="2491.86" y="124.46" width="43.47" height="20.59"/>
    <rect class="cls-2" x="0.51" y="21.12" width="39.51" height="20.59"/>
    <rect class="cls-2" x="40.05" y="21.12" width="43.47" height="20.59"/>
    <rect class="cls-2" x="83.44" y="21.12" width="43.47" height="20.59"/>
    <rect class="cls-2" x="126.84" y="21.12" width="43.47" height="20.59"/>
    <rect class="cls-2" x="170.23" y="21.12" width="43.47" height="20.59"/>
    <rect class="cls-2" x="213.63" y="21.12" width="43.47" height="20.59"/>
    <rect class="cls-2" x="257.02" y="21.12" width="43.47" height="20.59"/>
    <rect class="cls-2" x="300.42" y="21.12" width="43.47" height="20.59"/>
    <rect class="cls-2" x="343.81" y="21.12" width="43.47" height="20.59"/>
    <rect class="cls-2" x="387.21" y="21.12" width="43.47" height="20.59"/>
    <rect class="cls-2" x="430.6" y="21.12" width="43.47" height="20.59"/>
    <rect class="cls-2" x="474" y="21.12" width="43.47" height="20.59"/>
    <rect class="cls-2" x="517.39" y="21.12" width="43.47" height="20.59"/>
    <rect class="cls-2" x="560.79" y="21.12" width="43.47" height="20.59"/>
    <rect class="cls-2" x="604.18" y="21.12" width="43.47" height="20.59"/>
    <rect class="cls-2" x="647.58" y="21.12" width="43.47" height="20.59"/>
    <rect class="cls-2" x="690.97" y="21.12" width="43.47" height="20.59"/>
    <rect class="cls-2" x="734.37" y="21.12" width="43.47" height="20.59"/>
    <rect class="cls-2" x="777.76" y="21.12" width="43.47" height="20.59"/>
    <rect class="cls-2" x="821.16" y="21.12" width="43.47" height="20.59"/>
    <rect class="cls-2" x="864.55" y="21.12" width="43.47" height="20.59"/>
    <rect class="cls-2" x="907.95" y="21.12" width="43.47" height="20.59"/>
    <rect class="cls-2" x="951.34" y="21.12" width="43.47" height="20.59"/>
    <rect class="cls-2" x="994.74" y="21.12" width="43.47" height="20.59"/>
    <rect class="cls-2" x="1038.13" y="21.12" width="43.47" height="20.59"/>
    <rect class="cls-2" x="1081.53" y="21.12" width="43.47" height="20.59"/>
    <rect class="cls-2" x="1124.92" y="21.12" width="43.47" height="20.59"/>
    <rect class="cls-2" x="1168.32" y="21.12" width="43.47" height="20.59"/>
    <rect class="cls-2" x="1211.71" y="21.12" width="43.47" height="20.59"/>
    <rect class="cls-2" x="1255.11" y="21.12" width="43.47" height="20.59"/>
    <rect class="cls-2" x="1298.5" y="21.12" width="43.47" height="20.59"/>
    <rect class="cls-2" x="1341.9" y="21.12" width="43.47" height="20.59"/>
    <rect class="cls-2" x="1385.29" y="21.12" width="43.47" height="20.59"/>
    <rect class="cls-2" x="1428.69" y="21.12" width="43.47" height="20.59"/>
    <rect class="cls-2" x="1472.08" y="21.12" width="43.47" height="20.59"/>
    <rect class="cls-2" x="1515.48" y="21.12" width="43.47" height="20.59"/>
    <rect class="cls-2" x="1558.87" y="21.12" width="43.47" height="20.59"/>
    <rect class="cls-2" x="1602.27" y="21.12" width="43.47" height="20.59"/>
    <rect class="cls-2" x="1645.66" y="21.12" width="43.47" height="20.59"/>
    <rect class="cls-2" x="1689.06" y="21.12" width="43.47" height="20.59"/>
    <rect class="cls-2" x="1732.45" y="21.12" width="43.47" height="20.59"/>
    <rect class="cls-2" x="1775.85" y="21.12" width="43.47" height="20.59"/>
    <rect class="cls-2" x="1819.24" y="21.12" width="43.47" height="20.59"/>
    <rect class="cls-2" x="1862.64" y="21.12" width="43.47" height="20.59"/>
    <rect class="cls-2" x="1906.03" y="21.12" width="43.47" height="20.59"/>
    <rect class="cls-2" x="1949.43" y="21.12" width="43.47" height="20.59"/>
    <rect class="cls-2" x="1992.82" y="21.12" width="43.47" height="20.59"/>
    <rect class="cls-2" x="2036.22" y="21.12" width="43.47" height="20.59"/>
    <rect class="cls-2" x="2079.61" y="21.12" width="43.47" height="20.59"/>
    <rect class="cls-2" x="2123.01" y="21.12" width="43.47" height="20.59"/>
    <rect class="cls-2" x="2166.4" y="21.12" width="43.47" height="20.59"/>
    <rect class="cls-2" x="2209.8" y="21.12" width="43.47" height="20.59"/>
    <rect class="cls-2" x="2253.19" y="21.12" width="43.47" height="20.59"/>
    <rect class="cls-2" x="2296.59" y="21.12" width="43.47" height="20.59"/>
    <rect class="cls-2" x="2339.98" y="21.12" width="43.47" height="20.59"/>
    <rect class="cls-2" x="2383.38" y="21.12" width="43.47" height="20.59"/>
    <rect class="cls-2" x="2426.77" y="21.12" width="43.47" height="20.59"/>
    <rect class="cls-2" x="2470.17" y="21.12" width="43.47" height="20.59"/>
    <rect class="cls-2" x="2513.56" y="21.12" width="43.47" height="20.59"/>
    <rect class="cls-2" x="18.35" y="0.5" width="43.47" height="20.59"/>
    <rect class="cls-2" x="61.75" y="0.5" width="43.47" height="20.59"/>
    <rect class="cls-2" x="105.14" y="0.5" width="43.47" height="20.59"/>
    <rect class="cls-2" x="148.54" y="0.5" width="43.47" height="20.59"/>
    <rect class="cls-2" x="191.93" y="0.5" width="43.47" height="20.59"/>
    <rect class="cls-2" x="235.33" y="0.5" width="43.47" height="20.59"/>
    <rect class="cls-2" x="278.72" y="0.5" width="43.47" height="20.59"/>
    <rect class="cls-2" x="322.12" y="0.5" width="43.47" height="20.59"/>
    <rect class="cls-2" x="365.51" y="0.5" width="43.47" height="20.59"/>
    <rect class="cls-2" x="408.91" y="0.5" width="43.47" height="20.59"/>
    <rect class="cls-2" x="452.3" y="0.5" width="43.47" height="20.59"/>
    <rect class="cls-2" x="495.7" y="0.5" width="43.47" height="20.59"/>
    <rect class="cls-2" x="539.09" y="0.5" width="43.47" height="20.59"/>
    <rect class="cls-2" x="582.49" y="0.5" width="43.47" height="20.59"/>
    <rect class="cls-2" x="625.88" y="0.5" width="43.47" height="20.59"/>
    <rect class="cls-2" x="669.28" y="0.5" width="43.47" height="20.59"/>
    <rect class="cls-2" x="712.67" y="0.5" width="43.47" height="20.59"/>
    <rect class="cls-2" x="756.07" y="0.5" width="43.47" height="20.59"/>
    <rect class="cls-2" x="799.46" y="0.5" width="43.47" height="20.59"/>
    <rect class="cls-2" x="842.86" y="0.5" width="43.47" height="20.59"/>
    <rect class="cls-2" x="886.25" y="0.5" width="43.47" height="20.59"/>
    <rect class="cls-2" x="929.65" y="0.5" width="43.47" height="20.59"/>
    <rect class="cls-2" x="973.04" y="0.5" width="43.47" height="20.59"/>
    <rect class="cls-2" x="1016.44" y="0.5" width="43.47" height="20.59"/>
    <rect class="cls-2" x="1059.83" y="0.5" width="43.47" height="20.59"/>
    <rect class="cls-2" x="1103.23" y="0.5" width="43.47" height="20.59"/>
    <rect class="cls-2" x="1146.62" y="0.5" width="43.47" height="20.59"/>
    <rect class="cls-2" x="1190.02" y="0.5" width="43.47" height="20.59"/>
    <rect class="cls-2" x="1233.41" y="0.5" width="43.47" height="20.59"/>
    <rect class="cls-2" x="1276.81" y="0.5" width="43.47" height="20.59"/>
    <rect class="cls-2" x="1320.2" y="0.5" width="43.47" height="20.59"/>
    <rect class="cls-2" x="1363.6" y="0.5" width="43.47" height="20.59"/>
    <rect class="cls-2" x="1406.99" y="0.5" width="43.47" height="20.59"/>
    <rect class="cls-2" x="1450.38" y="0.5" width="43.47" height="20.59"/>
    <rect class="cls-2" x="1493.78" y="0.5" width="43.47" height="20.59"/>
    <rect class="cls-2" x="1537.17" y="0.5" width="43.47" height="20.59"/>
    <rect class="cls-2" x="1580.57" y="0.5" width="43.47" height="20.59"/>
    <rect class="cls-2" x="1623.96" y="0.5" width="43.47" height="20.59"/>
    <rect class="cls-2" x="1667.36" y="0.5" width="43.47" height="20.59"/>
    <rect class="cls-2" x="1710.75" y="0.5" width="43.47" height="20.59"/>
    <rect class="cls-2" x="1754.15" y="0.5" width="43.47" height="20.59"/>
    <rect class="cls-2" x="1797.54" y="0.5" width="43.47" height="20.59"/>
    <rect class="cls-2" x="1840.94" y="0.5" width="43.47" height="20.59"/>
    <rect class="cls-2" x="1884.33" y="0.5" width="43.47" height="20.59"/>
    <rect class="cls-2" x="1927.73" y="0.5" width="43.47" height="20.59"/>
    <rect class="cls-2" x="1971.12" y="0.5" width="43.47" height="20.59"/>
    <rect class="cls-2" x="2014.52" y="0.5" width="43.47" height="20.59"/>
    <rect class="cls-2" x="2057.91" y="0.5" width="43.47" height="20.59"/>
    <rect class="cls-2" x="2101.31" y="0.5" width="43.47" height="20.59"/>
    <rect class="cls-2" x="2144.7" y="0.5" width="43.47" height="20.59"/>
    <rect class="cls-2" x="2188.1" y="0.5" width="43.47" height="20.59"/>
    <rect class="cls-2" x="2231.49" y="0.5" width="43.47" height="20.59"/>
    <rect class="cls-2" x="2274.89" y="0.5" width="43.47" height="20.59"/>
    <rect class="cls-2" x="2318.28" y="0.5" width="43.47" height="20.59"/>
    <rect class="cls-2" x="2361.68" y="0.5" width="43.47" height="20.59"/>
    <rect class="cls-2" x="2405.07" y="0.5" width="43.47" height="20.59"/>
    <rect class="cls-2" x="2448.47" y="0.5" width="43.47" height="20.59"/>
    <rect class="cls-2" x="2491.86" y="0.5" width="43.47" height="20.59"/>
    <rect class="cls-2" x="18.35" y="41.78" width="43.47" height="20.59"/>
    <rect class="cls-2" x="61.75" y="41.78" width="43.47" height="20.59"/>
    <rect class="cls-2" x="105.14" y="41.78" width="43.47" height="20.59"/>
    <rect class="cls-2" x="148.54" y="41.78" width="43.47" height="20.59"/>
    <rect class="cls-2" x="191.93" y="41.78" width="43.47" height="20.59"/>
    <rect class="cls-2" x="235.33" y="41.78" width="43.47" height="20.59"/>
    <rect class="cls-2" x="278.72" y="41.78" width="43.47" height="20.59"/>
    <rect class="cls-2" x="322.12" y="41.78" width="43.47" height="20.59"/>
    <rect class="cls-2" x="365.51" y="41.78" width="43.47" height="20.59"/>
    <rect class="cls-2" x="408.91" y="41.78" width="43.47" height="20.59"/>
    <rect class="cls-2" x="452.3" y="41.78" width="43.47" height="20.59"/>
    <rect class="cls-2" x="495.7" y="41.78" width="43.47" height="20.59"/>
    <rect class="cls-2" x="539.09" y="41.78" width="43.47" height="20.59"/>
    <rect class="cls-2" x="582.49" y="41.78" width="43.47" height="20.59"/>
    <rect class="cls-2" x="625.88" y="41.78" width="43.47" height="20.59"/>
    <rect class="cls-2" x="669.28" y="41.78" width="43.47" height="20.59"/>
    <rect class="cls-2" x="712.67" y="41.78" width="43.47" height="20.59"/>
    <rect class="cls-2" x="756.07" y="41.78" width="43.47" height="20.59"/>
    <rect class="cls-2" x="799.46" y="41.78" width="43.47" height="20.59"/>
    <rect class="cls-2" x="842.86" y="41.78" width="43.47" height="20.59"/>
    <rect class="cls-2" x="886.25" y="41.78" width="43.47" height="20.59"/>
    <rect class="cls-2" x="929.65" y="41.78" width="43.47" height="20.59"/>
    <rect class="cls-2" x="973.04" y="41.78" width="43.47" height="20.59"/>
    <rect class="cls-2" x="1016.44" y="41.78" width="43.47" height="20.59"/>
    <rect class="cls-2" x="1059.83" y="41.78" width="43.47" height="20.59"/>
    <rect class="cls-2" x="1103.23" y="41.78" width="43.47" height="20.59"/>
    <rect class="cls-2" x="1146.62" y="41.78" width="43.47" height="20.59"/>
    <rect class="cls-2" x="1190.02" y="41.78" width="43.47" height="20.59"/>
    <rect class="cls-2" x="1233.41" y="41.78" width="43.47" height="20.59"/>
    <rect class="cls-2" x="1276.81" y="41.78" width="43.47" height="20.59"/>
    <rect class="cls-2" x="1320.2" y="41.78" width="43.47" height="20.59"/>
    <rect class="cls-2" x="1363.6" y="41.78" width="43.47" height="20.59"/>
    <rect class="cls-2" x="1406.99" y="41.78" width="43.47" height="20.59"/>
    <rect class="cls-2" x="1450.38" y="41.78" width="43.47" height="20.59"/>
    <rect class="cls-2" x="1493.78" y="41.78" width="43.47" height="20.59"/>
    <rect class="cls-2" x="1537.17" y="41.78" width="43.47" height="20.59"/>
    <rect class="cls-2" x="1580.57" y="41.78" width="43.47" height="20.59"/>
    <rect class="cls-2" x="1623.96" y="41.78" width="43.47" height="20.59"/>
    <rect class="cls-2" x="1667.36" y="41.78" width="43.47" height="20.59"/>
    <rect class="cls-2" x="1710.75" y="41.78" width="43.47" height="20.59"/>
    <rect class="cls-2" x="1754.15" y="41.78" width="43.47" height="20.59"/>
    <rect class="cls-2" x="1797.54" y="41.78" width="43.47" height="20.59"/>
    <rect class="cls-2" x="1840.94" y="41.78" width="43.47" height="20.59"/>
    <rect class="cls-2" x="1884.33" y="41.78" width="43.47" height="20.59"/>
    <rect class="cls-2" x="1927.73" y="41.78" width="43.47" height="20.59"/>
    <rect class="cls-2" x="1971.12" y="41.78" width="43.47" height="20.59"/>
    <rect class="cls-2" x="2014.52" y="41.78" width="43.47" height="20.59"/>
    <rect class="cls-2" x="2057.91" y="41.78" width="43.47" height="20.59"/>
    <rect class="cls-2" x="2101.31" y="41.78" width="43.47" height="20.59"/>
    <rect class="cls-2" x="2144.7" y="41.78" width="43.47" height="20.59"/>
    <rect class="cls-2" x="2188.1" y="41.78" width="43.47" height="20.59"/>
    <rect class="cls-2" x="2231.49" y="41.78" width="43.47" height="20.59"/>
    <rect class="cls-2" x="2274.89" y="41.78" width="43.47" height="20.59"/>
    <rect class="cls-2" x="2318.28" y="41.78" width="43.47" height="20.59"/>
    <rect class="cls-2" x="2361.68" y="41.78" width="43.47" height="20.59"/>
    <rect class="cls-2" x="2405.07" y="41.78" width="43.47" height="20.59"/>
    <rect class="cls-2" x="2448.47" y="41.78" width="43.47" height="20.59"/>
    <rect class="cls-2" x="2491.86" y="41.78" width="43.47" height="20.59"/>
  </g>
</svg>
