<svg id="arch" xmlns="http://www.w3.org/2000/svg" viewBox="0 0 2557.58 166.17">
  <defs>
    <style>
      .cls-1 {
        fill: gray;
        stroke: #4d4d4d;
        stroke-miterlimit: 10;
      }
    </style>
  </defs>
  <rect class="cls-1" x="0.55" y="62.37" width="39.63" height="20.59"/>
  <rect class="cls-1" x="40.1" y="62.37" width="43.47" height="20.59"/>
  <rect class="cls-1" x="83.5" y="62.37" width="43.47" height="20.59"/>
  <rect class="cls-1" x="126.89" y="62.37" width="43.47" height="20.59"/>
  <rect class="cls-1" x="170.29" y="62.37" width="43.47" height="20.59"/>
  <rect class="cls-1" x="213.68" y="62.37" width="43.47" height="20.59"/>
  <rect class="cls-1" x="257.08" y="62.37" width="43.47" height="20.59"/>
  <rect class="cls-1" x="300.47" y="62.37" width="43.47" height="20.59"/>
  <rect class="cls-1" x="343.87" y="62.37" width="43.47" height="20.59"/>
  <rect class="cls-1" x="387.26" y="62.37" width="43.47" height="20.59"/>
  <rect class="cls-1" x="430.66" y="62.37" width="43.47" height="20.59"/>
  <rect class="cls-1" x="474.05" y="62.37" width="43.47" height="20.59"/>
  <rect class="cls-1" x="517.45" y="62.37" width="43.47" height="20.59"/>
  <rect class="cls-1" x="560.84" y="62.37" width="43.47" height="20.59"/>
  <rect class="cls-1" x="604.24" y="62.37" width="43.47" height="20.59"/>
  <rect class="cls-1" x="647.63" y="62.37" width="43.47" height="20.59"/>
  <rect class="cls-1" x="691.03" y="62.37" width="43.47" height="20.59"/>
  <rect class="cls-1" x="734.42" y="62.37" width="43.47" height="20.59"/>
  <rect class="cls-1" x="777.82" y="62.37" width="43.47" height="20.59"/>
  <rect class="cls-1" x="821.21" y="62.37" width="43.47" height="20.59"/>
  <rect class="cls-1" x="864.61" y="62.37" width="43.47" height="20.59"/>
  <rect class="cls-1" x="908" y="62.37" width="43.47" height="20.59"/>
  <rect class="cls-1" x="951.4" y="62.37" width="43.47" height="20.59"/>
  <rect class="cls-1" x="994.79" y="62.37" width="43.47" height="20.59"/>
  <rect class="cls-1" x="1038.19" y="62.37" width="43.47" height="20.59"/>
  <rect class="cls-1" x="1081.58" y="62.37" width="43.47" height="20.59"/>
  <rect class="cls-1" x="1124.97" y="62.37" width="43.47" height="20.59"/>
  <rect class="cls-1" x="1168.37" y="62.37" width="43.47" height="20.59"/>
  <rect class="cls-1" x="1211.76" y="62.37" width="43.47" height="20.59"/>
  <rect class="cls-1" x="1255.16" y="62.37" width="43.47" height="20.59"/>
  <rect class="cls-1" x="1298.55" y="62.37" width="43.47" height="20.59"/>
  <rect class="cls-1" x="1341.95" y="62.37" width="43.47" height="20.59"/>
  <rect class="cls-1" x="1385.34" y="62.37" width="43.47" height="20.59"/>
  <rect class="cls-1" x="1428.74" y="62.37" width="43.47" height="20.59"/>
  <rect class="cls-1" x="1472.13" y="62.37" width="43.47" height="20.59"/>
  <rect class="cls-1" x="1515.53" y="62.37" width="43.47" height="20.59"/>
  <rect class="cls-1" x="1558.92" y="62.37" width="43.47" height="20.59"/>
  <rect class="cls-1" x="1602.32" y="62.37" width="43.47" height="20.59"/>
  <rect class="cls-1" x="1645.71" y="62.37" width="43.47" height="20.59"/>
  <rect class="cls-1" x="1689.11" y="62.37" width="43.47" height="20.59"/>
  <rect class="cls-1" x="1732.5" y="62.37" width="43.47" height="20.59"/>
  <rect class="cls-1" x="1775.9" y="62.37" width="43.47" height="20.59"/>
  <rect class="cls-1" x="1819.29" y="62.37" width="43.47" height="20.59"/>
  <rect class="cls-1" x="1862.69" y="62.37" width="43.47" height="20.59"/>
  <rect class="cls-1" x="1906.08" y="62.37" width="43.47" height="20.59"/>
  <rect class="cls-1" x="1949.48" y="62.37" width="43.47" height="20.59"/>
  <rect class="cls-1" x="1992.87" y="62.37" width="43.47" height="20.59"/>
  <rect class="cls-1" x="2036.27" y="62.37" width="43.47" height="20.59"/>
  <rect class="cls-1" x="2079.66" y="62.37" width="43.47" height="20.59"/>
  <rect class="cls-1" x="2123.06" y="62.37" width="43.47" height="20.59"/>
  <rect class="cls-1" x="2166.45" y="62.37" width="43.47" height="20.59"/>
  <rect class="cls-1" x="2209.85" y="62.37" width="43.47" height="20.59"/>
  <rect class="cls-1" x="2253.24" y="62.37" width="43.47" height="20.59"/>
  <rect class="cls-1" x="2296.64" y="62.37" width="43.47" height="20.59"/>
  <rect class="cls-1" x="2340.03" y="62.37" width="43.47" height="20.59"/>
  <rect class="cls-1" x="2383.43" y="62.37" width="43.47" height="20.59"/>
  <rect class="cls-1" x="2426.82" y="62.37" width="43.47" height="20.59"/>
  <rect class="cls-1" x="2470.22" y="62.37" width="43.47" height="20.59"/>
  <rect class="cls-1" x="2513.61" y="62.37" width="43.47" height="20.59"/>
  <rect class="cls-1" x="0.5" y="103.8" width="39.57" height="20.59"/>
  <rect class="cls-1" x="40.1" y="103.8" width="43.47" height="20.59"/>
  <rect class="cls-1" x="83.5" y="103.8" width="43.47" height="20.59"/>
  <rect class="cls-1" x="126.89" y="103.8" width="43.47" height="20.59"/>
  <rect class="cls-1" x="170.29" y="103.8" width="43.47" height="20.59"/>
  <rect class="cls-1" x="213.68" y="103.8" width="43.47" height="20.59"/>
  <rect class="cls-1" x="257.08" y="103.8" width="43.47" height="20.59"/>
  <rect class="cls-1" x="300.47" y="103.8" width="43.47" height="20.59"/>
  <rect class="cls-1" x="343.87" y="103.8" width="43.47" height="20.59"/>
  <rect class="cls-1" x="387.26" y="103.8" width="43.47" height="20.59"/>
  <rect class="cls-1" x="430.66" y="103.8" width="43.47" height="20.59"/>
  <rect class="cls-1" x="474.05" y="103.8" width="43.47" height="20.59"/>
  <rect class="cls-1" x="517.45" y="103.8" width="43.47" height="20.59"/>
  <rect class="cls-1" x="560.84" y="103.8" width="43.47" height="20.59"/>
  <rect class="cls-1" x="604.24" y="103.8" width="43.47" height="20.59"/>
  <rect class="cls-1" x="647.63" y="103.8" width="43.47" height="20.59"/>
  <rect class="cls-1" x="691.03" y="103.8" width="43.47" height="20.59"/>
  <rect class="cls-1" x="734.42" y="103.8" width="43.47" height="20.59"/>
  <rect class="cls-1" x="777.82" y="103.8" width="43.47" height="20.59"/>
  <rect class="cls-1" x="821.21" y="103.8" width="43.47" height="20.59"/>
  <rect class="cls-1" x="864.61" y="103.8" width="43.47" height="20.59"/>
  <rect class="cls-1" x="908" y="103.8" width="43.47" height="20.59"/>
  <rect class="cls-1" x="951.4" y="103.8" width="43.47" height="20.59"/>
  <rect class="cls-1" x="994.79" y="103.8" width="43.47" height="20.59"/>
  <rect class="cls-1" x="1038.19" y="103.8" width="43.47" height="20.59"/>
  <rect class="cls-1" x="1081.58" y="103.8" width="43.47" height="20.59"/>
  <rect class="cls-1" x="1124.97" y="103.8" width="43.47" height="20.59"/>
  <rect class="cls-1" x="1168.37" y="103.8" width="43.47" height="20.59"/>
  <rect class="cls-1" x="1211.76" y="103.8" width="43.47" height="20.59"/>
  <rect class="cls-1" x="1255.16" y="103.8" width="43.47" height="20.59"/>
  <rect class="cls-1" x="1298.55" y="103.8" width="43.47" height="20.59"/>
  <rect class="cls-1" x="1341.95" y="103.8" width="43.47" height="20.59"/>
  <rect class="cls-1" x="1385.34" y="103.8" width="43.47" height="20.59"/>
  <rect class="cls-1" x="1428.74" y="103.8" width="43.47" height="20.59"/>
  <rect class="cls-1" x="1472.13" y="103.8" width="43.47" height="20.59"/>
  <rect class="cls-1" x="1515.53" y="103.8" width="43.47" height="20.59"/>
  <rect class="cls-1" x="1558.92" y="103.8" width="43.47" height="20.59"/>
  <rect class="cls-1" x="1602.32" y="103.8" width="43.47" height="20.59"/>
  <rect class="cls-1" x="1645.71" y="103.8" width="43.47" height="20.59"/>
  <rect class="cls-1" x="1689.11" y="103.8" width="43.47" height="20.59"/>
  <rect class="cls-1" x="1732.5" y="103.8" width="43.47" height="20.59"/>
  <rect class="cls-1" x="1775.9" y="103.8" width="43.47" height="20.59"/>
  <rect class="cls-1" x="1819.29" y="103.8" width="43.47" height="20.59"/>
  <rect class="cls-1" x="1862.69" y="103.8" width="43.47" height="20.59"/>
  <rect class="cls-1" x="1906.08" y="103.8" width="43.47" height="20.59"/>
  <rect class="cls-1" x="1949.48" y="103.8" width="43.47" height="20.59"/>
  <rect class="cls-1" x="1992.87" y="103.8" width="43.47" height="20.59"/>
  <rect class="cls-1" x="2036.27" y="103.8" width="43.47" height="20.59"/>
  <rect class="cls-1" x="2079.66" y="103.8" width="43.47" height="20.59"/>
  <rect class="cls-1" x="2123.06" y="103.8" width="43.47" height="20.59"/>
  <rect class="cls-1" x="2166.45" y="103.8" width="43.47" height="20.59"/>
  <rect class="cls-1" x="2209.85" y="103.8" width="43.47" height="20.59"/>
  <rect class="cls-1" x="2253.24" y="103.8" width="43.47" height="20.59"/>
  <rect class="cls-1" x="2296.64" y="103.8" width="43.47" height="20.59"/>
  <rect class="cls-1" x="2340.03" y="103.8" width="43.47" height="20.59"/>
  <rect class="cls-1" x="2383.43" y="103.8" width="43.47" height="20.59"/>
  <rect class="cls-1" x="2426.82" y="103.8" width="43.47" height="20.59"/>
  <rect class="cls-1" x="2470.22" y="103.8" width="43.47" height="20.59"/>
  <rect class="cls-1" x="2513.61" y="103.8" width="43.47" height="20.59"/>
  <rect class="cls-1" x="0.51" y="83.18" width="17.97" height="20.59"/>
  <rect class="cls-1" x="18.4" y="83.18" width="43.47" height="20.59"/>
  <rect class="cls-1" x="61.8" y="83.18" width="43.47" height="20.59"/>
  <rect class="cls-1" x="105.19" y="83.18" width="43.47" height="20.59"/>
  <rect class="cls-1" x="148.59" y="83.18" width="43.47" height="20.59"/>
  <rect class="cls-1" x="191.98" y="83.18" width="43.47" height="20.59"/>
  <rect class="cls-1" x="235.38" y="83.18" width="43.47" height="20.59"/>
  <rect class="cls-1" x="278.77" y="83.18" width="43.47" height="20.59"/>
  <rect class="cls-1" x="322.17" y="83.18" width="43.47" height="20.59"/>
  <rect class="cls-1" x="365.56" y="83.18" width="43.47" height="20.59"/>
  <rect class="cls-1" x="408.96" y="83.18" width="43.47" height="20.59"/>
  <rect class="cls-1" x="452.35" y="83.18" width="43.47" height="20.59"/>
  <rect class="cls-1" x="495.75" y="83.18" width="43.47" height="20.59"/>
  <rect class="cls-1" x="539.14" y="83.18" width="43.47" height="20.59"/>
  <rect class="cls-1" x="582.54" y="83.18" width="43.47" height="20.59"/>
  <rect class="cls-1" x="625.93" y="83.18" width="43.47" height="20.59"/>
  <rect class="cls-1" x="669.33" y="83.18" width="43.47" height="20.59"/>
  <rect class="cls-1" x="712.72" y="83.18" width="43.47" height="20.59"/>
  <rect class="cls-1" x="756.12" y="83.18" width="43.47" height="20.59"/>
  <rect class="cls-1" x="799.51" y="83.18" width="43.47" height="20.59"/>
  <rect class="cls-1" x="842.91" y="83.18" width="43.47" height="20.59"/>
  <rect class="cls-1" x="886.3" y="83.18" width="43.47" height="20.59"/>
  <rect class="cls-1" x="929.7" y="83.18" width="43.47" height="20.59"/>
  <rect class="cls-1" x="973.09" y="83.18" width="43.47" height="20.59"/>
  <rect class="cls-1" x="1016.49" y="83.18" width="43.47" height="20.59"/>
  <rect class="cls-1" x="1059.88" y="83.18" width="43.47" height="20.59"/>
  <rect class="cls-1" x="1103.28" y="83.18" width="43.47" height="20.59"/>
  <rect class="cls-1" x="1146.67" y="83.18" width="43.47" height="20.59"/>
  <rect class="cls-1" x="1190.07" y="83.18" width="43.47" height="20.59"/>
  <rect class="cls-1" x="1233.46" y="83.18" width="43.47" height="20.59"/>
  <rect class="cls-1" x="1276.86" y="83.18" width="43.47" height="20.59"/>
  <rect class="cls-1" x="1320.25" y="83.18" width="43.47" height="20.59"/>
  <rect class="cls-1" x="1363.65" y="83.18" width="43.47" height="20.59"/>
  <rect class="cls-1" x="1407.04" y="83.18" width="43.47" height="20.59"/>
  <rect class="cls-1" x="1450.44" y="83.18" width="43.47" height="20.59"/>
  <rect class="cls-1" x="1493.83" y="83.18" width="43.47" height="20.59"/>
  <rect class="cls-1" x="1537.23" y="83.18" width="43.47" height="20.59"/>
  <rect class="cls-1" x="1580.62" y="83.18" width="43.47" height="20.59"/>
  <rect class="cls-1" x="1624.02" y="83.18" width="43.47" height="20.59"/>
  <rect class="cls-1" x="1667.41" y="83.18" width="43.47" height="20.59"/>
  <rect class="cls-1" x="1710.81" y="83.18" width="43.47" height="20.59"/>
  <rect class="cls-1" x="1754.2" y="83.18" width="43.47" height="20.59"/>
  <rect class="cls-1" x="1797.6" y="83.18" width="43.47" height="20.59"/>
  <rect class="cls-1" x="1840.99" y="83.18" width="43.47" height="20.59"/>
  <rect class="cls-1" x="1884.39" y="83.18" width="43.47" height="20.59"/>
  <rect class="cls-1" x="1927.78" y="83.18" width="43.47" height="20.59"/>
  <rect class="cls-1" x="1971.18" y="83.18" width="43.47" height="20.59"/>
  <rect class="cls-1" x="2014.57" y="83.18" width="43.47" height="20.59"/>
  <rect class="cls-1" x="2057.97" y="83.18" width="43.47" height="20.59"/>
  <rect class="cls-1" x="2101.36" y="83.18" width="43.47" height="20.59"/>
  <rect class="cls-1" x="2144.76" y="83.18" width="43.47" height="20.59"/>
  <rect class="cls-1" x="2188.15" y="83.18" width="43.47" height="20.59"/>
  <rect class="cls-1" x="2231.55" y="83.18" width="43.47" height="20.59"/>
  <rect class="cls-1" x="2274.94" y="83.18" width="43.47" height="20.59"/>
  <rect class="cls-1" x="2318.34" y="83.18" width="43.47" height="20.59"/>
  <rect class="cls-1" x="2361.73" y="83.18" width="43.47" height="20.59"/>
  <rect class="cls-1" x="2405.13" y="83.18" width="43.47" height="20.59"/>
  <rect class="cls-1" x="2448.52" y="83.18" width="43.47" height="20.59"/>
  <rect class="cls-1" x="2491.92" y="83.18" width="43.47" height="20.59"/>
  <rect class="cls-1" x="2535.31" y="83.18" width="21.64" height="20.59"/>
  <rect class="cls-1" x="0.52" y="145.08" width="39.55" height="20.59"/>
  <rect class="cls-1" x="40.1" y="145.08" width="43.47" height="20.59"/>
  <rect class="cls-1" x="83.5" y="145.08" width="43.47" height="20.59"/>
  <rect class="cls-1" x="126.89" y="145.08" width="43.47" height="20.59"/>
  <rect class="cls-1" x="170.29" y="145.08" width="43.47" height="20.59"/>
  <rect class="cls-1" x="213.68" y="145.08" width="43.47" height="20.59"/>
  <rect class="cls-1" x="257.08" y="145.08" width="43.47" height="20.59"/>
  <rect class="cls-1" x="300.47" y="145.08" width="43.47" height="20.59"/>
  <rect class="cls-1" x="343.87" y="145.08" width="43.47" height="20.59"/>
  <rect class="cls-1" x="387.26" y="145.08" width="43.47" height="20.59"/>
  <rect class="cls-1" x="430.66" y="145.08" width="43.47" height="20.59"/>
  <rect class="cls-1" x="474.05" y="145.08" width="43.47" height="20.59"/>
  <rect class="cls-1" x="517.45" y="145.08" width="43.47" height="20.59"/>
  <rect class="cls-1" x="560.84" y="145.08" width="43.47" height="20.59"/>
  <rect class="cls-1" x="604.24" y="145.08" width="43.47" height="20.59"/>
  <rect class="cls-1" x="647.63" y="145.08" width="43.47" height="20.59"/>
  <rect class="cls-1" x="691.03" y="145.08" width="43.47" height="20.59"/>
  <rect class="cls-1" x="734.42" y="145.08" width="43.47" height="20.59"/>
  <rect class="cls-1" x="777.82" y="145.08" width="43.47" height="20.59"/>
  <rect class="cls-1" x="821.21" y="145.08" width="43.47" height="20.59"/>
  <rect class="cls-1" x="864.61" y="145.08" width="43.47" height="20.59"/>
  <rect class="cls-1" x="908" y="145.08" width="43.47" height="20.59"/>
  <rect class="cls-1" x="951.4" y="145.08" width="43.47" height="20.59"/>
  <rect class="cls-1" x="994.79" y="145.08" width="43.47" height="20.59"/>
  <rect class="cls-1" x="1038.19" y="145.08" width="43.47" height="20.59"/>
  <rect class="cls-1" x="1081.58" y="145.08" width="43.47" height="20.59"/>
  <rect class="cls-1" x="1124.97" y="145.08" width="43.47" height="20.59"/>
  <rect class="cls-1" x="1168.37" y="145.08" width="43.47" height="20.59"/>
  <rect class="cls-1" x="1211.76" y="145.08" width="43.47" height="20.59"/>
  <rect class="cls-1" x="1255.16" y="145.08" width="43.47" height="20.59"/>
  <rect class="cls-1" x="1298.55" y="145.08" width="43.47" height="20.59"/>
  <rect class="cls-1" x="1341.95" y="145.08" width="43.47" height="20.59"/>
  <rect class="cls-1" x="1385.34" y="145.08" width="43.47" height="20.59"/>
  <rect class="cls-1" x="1428.74" y="145.08" width="43.47" height="20.59"/>
  <rect class="cls-1" x="1472.13" y="145.08" width="43.47" height="20.59"/>
  <rect class="cls-1" x="1515.53" y="145.08" width="43.47" height="20.59"/>
  <rect class="cls-1" x="1558.92" y="145.08" width="43.47" height="20.59"/>
  <rect class="cls-1" x="1602.32" y="145.08" width="43.47" height="20.59"/>
  <rect class="cls-1" x="1645.71" y="145.08" width="43.47" height="20.59"/>
  <rect class="cls-1" x="1689.11" y="145.08" width="43.47" height="20.59"/>
  <rect class="cls-1" x="1732.5" y="145.08" width="43.47" height="20.59"/>
  <rect class="cls-1" x="1775.9" y="145.08" width="43.47" height="20.59"/>
  <rect class="cls-1" x="1819.29" y="145.08" width="43.47" height="20.59"/>
  <rect class="cls-1" x="1862.69" y="145.08" width="43.47" height="20.59"/>
  <rect class="cls-1" x="1906.08" y="145.08" width="43.47" height="20.59"/>
  <rect class="cls-1" x="1949.48" y="145.08" width="43.47" height="20.59"/>
  <rect class="cls-1" x="1992.87" y="145.08" width="43.47" height="20.59"/>
  <rect class="cls-1" x="2036.27" y="145.08" width="43.47" height="20.59"/>
  <rect class="cls-1" x="2079.66" y="145.08" width="43.47" height="20.59"/>
  <rect class="cls-1" x="2123.06" y="145.08" width="43.47" height="20.59"/>
  <rect class="cls-1" x="2166.45" y="145.08" width="43.47" height="20.59"/>
  <rect class="cls-1" x="2209.85" y="145.08" width="43.47" height="20.59"/>
  <rect class="cls-1" x="2253.24" y="145.08" width="43.47" height="20.59"/>
  <rect class="cls-1" x="2296.64" y="145.08" width="43.47" height="20.59"/>
  <rect class="cls-1" x="2340.03" y="145.08" width="43.47" height="20.59"/>
  <rect class="cls-1" x="2383.43" y="145.08" width="43.47" height="20.59"/>
  <rect class="cls-1" x="2426.82" y="145.08" width="43.47" height="20.59"/>
  <rect class="cls-1" x="2470.22" y="145.08" width="43.47" height="20.59"/>
  <rect class="cls-1" x="2513.61" y="145.08" width="43.47" height="20.59"/>
  <rect class="cls-1" x="0.53" y="124.46" width="17.94" height="20.59"/>
  <rect class="cls-1" x="18.4" y="124.46" width="43.47" height="20.59"/>
  <rect class="cls-1" x="61.8" y="124.46" width="43.47" height="20.59"/>
  <rect class="cls-1" x="105.19" y="124.46" width="43.47" height="20.59"/>
  <rect class="cls-1" x="148.59" y="124.46" width="43.47" height="20.59"/>
  <rect class="cls-1" x="191.98" y="124.46" width="43.47" height="20.59"/>
  <rect class="cls-1" x="235.38" y="124.46" width="43.47" height="20.59"/>
  <rect class="cls-1" x="278.77" y="124.46" width="43.47" height="20.59"/>
  <rect class="cls-1" x="322.17" y="124.46" width="43.47" height="20.59"/>
  <rect class="cls-1" x="365.56" y="124.46" width="43.47" height="20.59"/>
  <rect class="cls-1" x="408.96" y="124.46" width="43.47" height="20.59"/>
  <rect class="cls-1" x="452.35" y="124.46" width="43.47" height="20.59"/>
  <rect class="cls-1" x="495.75" y="124.46" width="43.47" height="20.59"/>
  <rect class="cls-1" x="539.14" y="124.46" width="43.47" height="20.59"/>
  <rect class="cls-1" x="582.54" y="124.46" width="43.47" height="20.59"/>
  <rect class="cls-1" x="625.93" y="124.46" width="43.47" height="20.59"/>
  <rect class="cls-1" x="669.33" y="124.46" width="43.47" height="20.59"/>
  <rect class="cls-1" x="712.72" y="124.46" width="43.47" height="20.59"/>
  <rect class="cls-1" x="756.12" y="124.46" width="43.47" height="20.59"/>
  <rect class="cls-1" x="799.51" y="124.46" width="43.47" height="20.59"/>
  <rect class="cls-1" x="842.91" y="124.46" width="43.47" height="20.59"/>
  <rect class="cls-1" x="886.3" y="124.46" width="43.47" height="20.59"/>
  <rect class="cls-1" x="929.7" y="124.46" width="43.47" height="20.59"/>
  <rect class="cls-1" x="973.09" y="124.46" width="43.47" height="20.59"/>
  <rect class="cls-1" x="1016.49" y="124.46" width="43.47" height="20.59"/>
  <rect class="cls-1" x="1059.88" y="124.46" width="43.47" height="20.59"/>
  <rect class="cls-1" x="1103.28" y="124.46" width="43.47" height="20.59"/>
  <rect class="cls-1" x="1146.67" y="124.46" width="43.47" height="20.59"/>
  <rect class="cls-1" x="1190.07" y="124.46" width="43.47" height="20.59"/>
  <rect class="cls-1" x="1233.46" y="124.46" width="43.47" height="20.59"/>
  <rect class="cls-1" x="1276.86" y="124.46" width="43.47" height="20.59"/>
  <rect class="cls-1" x="1320.25" y="124.46" width="43.47" height="20.59"/>
  <rect class="cls-1" x="1363.65" y="124.46" width="43.47" height="20.59"/>
  <rect class="cls-1" x="1407.04" y="124.46" width="43.47" height="20.59"/>
  <rect class="cls-1" x="1450.44" y="124.46" width="43.47" height="20.59"/>
  <rect class="cls-1" x="1493.83" y="124.46" width="43.47" height="20.59"/>
  <rect class="cls-1" x="1537.23" y="124.46" width="43.47" height="20.59"/>
  <rect class="cls-1" x="1580.62" y="124.46" width="43.47" height="20.59"/>
  <rect class="cls-1" x="1624.02" y="124.46" width="43.47" height="20.59"/>
  <rect class="cls-1" x="1667.41" y="124.46" width="43.47" height="20.59"/>
  <rect class="cls-1" x="1710.81" y="124.46" width="43.47" height="20.59"/>
  <rect class="cls-1" x="1754.2" y="124.46" width="43.47" height="20.59"/>
  <rect class="cls-1" x="1797.6" y="124.46" width="43.47" height="20.59"/>
  <rect class="cls-1" x="1840.99" y="124.46" width="43.47" height="20.59"/>
  <rect class="cls-1" x="1884.39" y="124.46" width="43.47" height="20.59"/>
  <rect class="cls-1" x="1927.78" y="124.46" width="43.47" height="20.59"/>
  <rect class="cls-1" x="1971.18" y="124.46" width="43.47" height="20.59"/>
  <rect class="cls-1" x="2014.57" y="124.46" width="43.47" height="20.59"/>
  <rect class="cls-1" x="2057.97" y="124.46" width="43.47" height="20.59"/>
  <rect class="cls-1" x="2101.36" y="124.46" width="43.47" height="20.59"/>
  <rect class="cls-1" x="2144.76" y="124.46" width="43.47" height="20.59"/>
  <rect class="cls-1" x="2188.15" y="124.46" width="43.47" height="20.59"/>
  <rect class="cls-1" x="2231.55" y="124.46" width="43.47" height="20.59"/>
  <rect class="cls-1" x="2274.94" y="124.46" width="43.47" height="20.59"/>
  <rect class="cls-1" x="2318.34" y="124.46" width="43.47" height="20.59"/>
  <rect class="cls-1" x="2361.73" y="124.46" width="43.47" height="20.59"/>
  <rect class="cls-1" x="2405.13" y="124.46" width="43.47" height="20.59"/>
  <rect class="cls-1" x="2448.52" y="124.46" width="43.47" height="20.59"/>
  <rect class="cls-1" x="2491.92" y="124.46" width="43.47" height="20.59"/>
  <rect class="cls-1" x="2535.31" y="124.46" width="21.64" height="20.59"/>
  <rect class="cls-1" x="0.5" y="21.12" width="39.57" height="20.59"/>
  <rect class="cls-1" x="40.1" y="21.12" width="43.47" height="20.59"/>
  <rect class="cls-1" x="83.5" y="21.12" width="43.47" height="20.59"/>
  <rect class="cls-1" x="126.89" y="21.12" width="43.47" height="20.59"/>
  <rect class="cls-1" x="170.29" y="21.12" width="43.47" height="20.59"/>
  <rect class="cls-1" x="213.68" y="21.12" width="43.47" height="20.59"/>
  <rect class="cls-1" x="257.08" y="21.12" width="43.47" height="20.59"/>
  <rect class="cls-1" x="300.47" y="21.12" width="43.47" height="20.59"/>
  <rect class="cls-1" x="343.87" y="21.12" width="43.47" height="20.59"/>
  <rect class="cls-1" x="387.26" y="21.12" width="43.47" height="20.59"/>
  <rect class="cls-1" x="430.66" y="21.12" width="43.47" height="20.59"/>
  <rect class="cls-1" x="474.05" y="21.12" width="43.47" height="20.59"/>
  <rect class="cls-1" x="517.45" y="21.12" width="43.47" height="20.59"/>
  <rect class="cls-1" x="560.84" y="21.12" width="43.47" height="20.59"/>
  <rect class="cls-1" x="604.24" y="21.12" width="43.47" height="20.59"/>
  <rect class="cls-1" x="647.63" y="21.12" width="43.47" height="20.59"/>
  <rect class="cls-1" x="691.03" y="21.12" width="43.47" height="20.59"/>
  <rect class="cls-1" x="734.42" y="21.12" width="43.47" height="20.59"/>
  <rect class="cls-1" x="777.82" y="21.12" width="43.47" height="20.59"/>
  <rect class="cls-1" x="821.21" y="21.12" width="43.47" height="20.59"/>
  <rect class="cls-1" x="864.61" y="21.12" width="43.47" height="20.59"/>
  <rect class="cls-1" x="908" y="21.12" width="43.47" height="20.59"/>
  <rect class="cls-1" x="951.4" y="21.12" width="43.47" height="20.59"/>
  <rect class="cls-1" x="994.79" y="21.12" width="43.47" height="20.59"/>
  <rect class="cls-1" x="1038.19" y="21.12" width="43.47" height="20.59"/>
  <rect class="cls-1" x="1081.58" y="21.12" width="43.47" height="20.59"/>
  <rect class="cls-1" x="1124.97" y="21.12" width="43.47" height="20.59"/>
  <rect class="cls-1" x="1168.37" y="21.12" width="43.47" height="20.59"/>
  <rect class="cls-1" x="1211.76" y="21.12" width="43.47" height="20.59"/>
  <rect class="cls-1" x="1255.16" y="21.12" width="43.47" height="20.59"/>
  <rect class="cls-1" x="1298.55" y="21.12" width="43.47" height="20.59"/>
  <rect class="cls-1" x="1341.95" y="21.12" width="43.47" height="20.59"/>
  <rect class="cls-1" x="1385.34" y="21.12" width="43.47" height="20.59"/>
  <rect class="cls-1" x="1428.74" y="21.12" width="43.47" height="20.59"/>
  <rect class="cls-1" x="1472.13" y="21.12" width="43.47" height="20.59"/>
  <rect class="cls-1" x="1515.53" y="21.12" width="43.47" height="20.59"/>
  <rect class="cls-1" x="1558.92" y="21.12" width="43.47" height="20.59"/>
  <rect class="cls-1" x="1602.32" y="21.12" width="43.47" height="20.59"/>
  <rect class="cls-1" x="1645.71" y="21.12" width="43.47" height="20.59"/>
  <rect class="cls-1" x="1689.11" y="21.12" width="43.47" height="20.59"/>
  <rect class="cls-1" x="1732.5" y="21.12" width="43.47" height="20.59"/>
  <rect class="cls-1" x="1775.9" y="21.12" width="43.47" height="20.59"/>
  <rect class="cls-1" x="1819.29" y="21.12" width="43.47" height="20.59"/>
  <rect class="cls-1" x="1862.69" y="21.12" width="43.47" height="20.59"/>
  <rect class="cls-1" x="1906.08" y="21.12" width="43.47" height="20.59"/>
  <rect class="cls-1" x="1949.48" y="21.12" width="43.47" height="20.59"/>
  <rect class="cls-1" x="1992.87" y="21.12" width="43.47" height="20.59"/>
  <rect class="cls-1" x="2036.27" y="21.12" width="43.47" height="20.59"/>
  <rect class="cls-1" x="2079.66" y="21.12" width="43.47" height="20.59"/>
  <rect class="cls-1" x="2123.06" y="21.12" width="43.47" height="20.59"/>
  <rect class="cls-1" x="2166.45" y="21.12" width="43.47" height="20.59"/>
  <rect class="cls-1" x="2209.85" y="21.12" width="43.47" height="20.59"/>
  <rect class="cls-1" x="2253.24" y="21.12" width="43.47" height="20.59"/>
  <rect class="cls-1" x="2296.64" y="21.12" width="43.47" height="20.59"/>
  <rect class="cls-1" x="2340.03" y="21.12" width="43.47" height="20.59"/>
  <rect class="cls-1" x="2383.43" y="21.12" width="43.47" height="20.59"/>
  <rect class="cls-1" x="2426.82" y="21.12" width="43.47" height="20.59"/>
  <rect class="cls-1" x="2470.22" y="21.12" width="43.47" height="20.59"/>
  <rect class="cls-1" x="2513.61" y="21.12" width="43.47" height="20.59"/>
  <rect class="cls-1" x="0.51" y="0.5" width="17.97" height="20.59"/>
  <rect class="cls-1" x="18.4" y="0.5" width="43.47" height="20.59"/>
  <rect class="cls-1" x="61.8" y="0.5" width="43.47" height="20.59"/>
  <rect class="cls-1" x="105.19" y="0.5" width="43.47" height="20.59"/>
  <rect class="cls-1" x="148.59" y="0.5" width="43.47" height="20.59"/>
  <rect class="cls-1" x="191.98" y="0.5" width="43.47" height="20.59"/>
  <rect class="cls-1" x="235.38" y="0.5" width="43.47" height="20.59"/>
  <rect class="cls-1" x="278.77" y="0.5" width="43.47" height="20.59"/>
  <rect class="cls-1" x="322.17" y="0.5" width="43.47" height="20.59"/>
  <rect class="cls-1" x="365.56" y="0.5" width="43.47" height="20.59"/>
  <rect class="cls-1" x="408.96" y="0.5" width="43.47" height="20.59"/>
  <rect class="cls-1" x="452.35" y="0.5" width="43.47" height="20.59"/>
  <rect class="cls-1" x="495.75" y="0.5" width="43.47" height="20.59"/>
  <rect class="cls-1" x="539.14" y="0.5" width="43.47" height="20.59"/>
  <rect class="cls-1" x="582.54" y="0.5" width="43.47" height="20.59"/>
  <rect class="cls-1" x="625.93" y="0.5" width="43.47" height="20.59"/>
  <rect class="cls-1" x="669.33" y="0.5" width="43.47" height="20.59"/>
  <rect class="cls-1" x="712.72" y="0.5" width="43.47" height="20.59"/>
  <rect class="cls-1" x="756.12" y="0.5" width="43.47" height="20.59"/>
  <rect class="cls-1" x="799.51" y="0.5" width="43.47" height="20.59"/>
  <rect class="cls-1" x="842.91" y="0.5" width="43.47" height="20.59"/>
  <rect class="cls-1" x="886.3" y="0.5" width="43.47" height="20.59"/>
  <rect class="cls-1" x="929.7" y="0.5" width="43.47" height="20.59"/>
  <rect class="cls-1" x="973.09" y="0.5" width="43.47" height="20.59"/>
  <rect class="cls-1" x="1016.49" y="0.5" width="43.47" height="20.59"/>
  <rect class="cls-1" x="1059.88" y="0.5" width="43.47" height="20.59"/>
  <rect class="cls-1" x="1103.28" y="0.5" width="43.47" height="20.59"/>
  <rect class="cls-1" x="1146.67" y="0.5" width="43.47" height="20.59"/>
  <rect class="cls-1" x="1190.07" y="0.5" width="43.47" height="20.59"/>
  <rect class="cls-1" x="1233.46" y="0.5" width="43.47" height="20.59"/>
  <rect class="cls-1" x="1276.86" y="0.5" width="43.47" height="20.59"/>
  <rect class="cls-1" x="1320.25" y="0.5" width="43.47" height="20.59"/>
  <rect class="cls-1" x="1363.65" y="0.5" width="43.47" height="20.59"/>
  <rect class="cls-1" x="1407.04" y="0.5" width="43.47" height="20.59"/>
  <rect class="cls-1" x="1450.44" y="0.5" width="43.47" height="20.59"/>
  <rect class="cls-1" x="1493.83" y="0.5" width="43.47" height="20.59"/>
  <rect class="cls-1" x="1537.23" y="0.5" width="43.47" height="20.59"/>
  <rect class="cls-1" x="1580.62" y="0.5" width="43.47" height="20.59"/>
  <rect class="cls-1" x="1624.02" y="0.5" width="43.47" height="20.59"/>
  <rect class="cls-1" x="1667.41" y="0.5" width="43.47" height="20.59"/>
  <rect class="cls-1" x="1710.81" y="0.5" width="43.47" height="20.59"/>
  <rect class="cls-1" x="1754.2" y="0.5" width="43.47" height="20.59"/>
  <rect class="cls-1" x="1797.6" y="0.5" width="43.47" height="20.59"/>
  <rect class="cls-1" x="1840.99" y="0.5" width="43.47" height="20.59"/>
  <rect class="cls-1" x="1884.39" y="0.5" width="43.47" height="20.59"/>
  <rect class="cls-1" x="1927.78" y="0.5" width="43.47" height="20.59"/>
  <rect class="cls-1" x="1971.18" y="0.5" width="43.47" height="20.59"/>
  <rect class="cls-1" x="2014.57" y="0.5" width="43.47" height="20.59"/>
  <rect class="cls-1" x="2057.97" y="0.5" width="43.47" height="20.59"/>
  <rect class="cls-1" x="2101.36" y="0.5" width="43.47" height="20.59"/>
  <rect class="cls-1" x="2144.76" y="0.5" width="43.47" height="20.59"/>
  <rect class="cls-1" x="2188.15" y="0.5" width="43.47" height="20.59"/>
  <rect class="cls-1" x="2231.55" y="0.5" width="43.47" height="20.59"/>
  <rect class="cls-1" x="2274.94" y="0.5" width="43.47" height="20.59"/>
  <rect class="cls-1" x="2318.34" y="0.5" width="43.47" height="20.59"/>
  <rect class="cls-1" x="2361.73" y="0.5" width="43.47" height="20.59"/>
  <rect class="cls-1" x="2405.13" y="0.5" width="43.47" height="20.59"/>
  <rect class="cls-1" x="2448.52" y="0.5" width="43.47" height="20.59"/>
  <rect class="cls-1" x="2491.92" y="0.5" width="43.47" height="20.59"/>
  <rect class="cls-1" x="2535.31" y="0.5" width="21.64" height="20.59"/>
  <rect class="cls-1" x="0.53" y="41.78" width="17.94" height="20.59"/>
  <rect class="cls-1" x="18.4" y="41.78" width="43.47" height="20.59"/>
  <rect class="cls-1" x="61.8" y="41.78" width="43.47" height="20.59"/>
  <rect class="cls-1" x="105.19" y="41.78" width="43.47" height="20.59"/>
  <rect class="cls-1" x="148.59" y="41.78" width="43.47" height="20.59"/>
  <rect class="cls-1" x="191.98" y="41.78" width="43.47" height="20.59"/>
  <rect class="cls-1" x="235.38" y="41.78" width="43.47" height="20.59"/>
  <rect class="cls-1" x="278.77" y="41.78" width="43.47" height="20.59"/>
  <rect class="cls-1" x="322.17" y="41.78" width="43.47" height="20.59"/>
  <rect class="cls-1" x="365.56" y="41.78" width="43.47" height="20.59"/>
  <rect class="cls-1" x="408.96" y="41.78" width="43.47" height="20.59"/>
  <rect class="cls-1" x="452.35" y="41.78" width="43.47" height="20.59"/>
  <rect class="cls-1" x="495.75" y="41.78" width="43.47" height="20.59"/>
  <rect class="cls-1" x="539.14" y="41.78" width="43.47" height="20.59"/>
  <rect class="cls-1" x="582.54" y="41.78" width="43.47" height="20.59"/>
  <rect class="cls-1" x="625.93" y="41.78" width="43.47" height="20.59"/>
  <rect class="cls-1" x="669.33" y="41.78" width="43.47" height="20.59"/>
  <rect class="cls-1" x="712.72" y="41.78" width="43.47" height="20.59"/>
  <rect class="cls-1" x="756.12" y="41.78" width="43.47" height="20.59"/>
  <rect class="cls-1" x="799.51" y="41.78" width="43.47" height="20.59"/>
  <rect class="cls-1" x="842.91" y="41.78" width="43.47" height="20.59"/>
  <rect class="cls-1" x="886.3" y="41.78" width="43.47" height="20.59"/>
  <rect class="cls-1" x="929.7" y="41.78" width="43.47" height="20.59"/>
  <rect class="cls-1" x="973.09" y="41.78" width="43.47" height="20.59"/>
  <rect class="cls-1" x="1016.49" y="41.78" width="43.47" height="20.59"/>
  <rect class="cls-1" x="1059.88" y="41.78" width="43.47" height="20.59"/>
  <rect class="cls-1" x="1103.28" y="41.78" width="43.47" height="20.59"/>
  <rect class="cls-1" x="1146.67" y="41.78" width="43.47" height="20.59"/>
  <rect class="cls-1" x="1190.07" y="41.78" width="43.47" height="20.59"/>
  <rect class="cls-1" x="1233.46" y="41.78" width="43.47" height="20.59"/>
  <rect class="cls-1" x="1276.86" y="41.78" width="43.47" height="20.59"/>
  <rect class="cls-1" x="1320.25" y="41.78" width="43.47" height="20.59"/>
  <rect class="cls-1" x="1363.65" y="41.78" width="43.47" height="20.59"/>
  <rect class="cls-1" x="1407.04" y="41.78" width="43.47" height="20.59"/>
  <rect class="cls-1" x="1450.44" y="41.78" width="43.47" height="20.59"/>
  <rect class="cls-1" x="1493.83" y="41.78" width="43.47" height="20.59"/>
  <rect class="cls-1" x="1537.23" y="41.78" width="43.47" height="20.59"/>
  <rect class="cls-1" x="1580.62" y="41.78" width="43.47" height="20.59"/>
  <rect class="cls-1" x="1624.02" y="41.78" width="43.47" height="20.59"/>
  <rect class="cls-1" x="1667.41" y="41.78" width="43.47" height="20.59"/>
  <rect class="cls-1" x="1710.81" y="41.78" width="43.47" height="20.59"/>
  <rect class="cls-1" x="1754.2" y="41.78" width="43.47" height="20.59"/>
  <rect class="cls-1" x="1797.6" y="41.78" width="43.47" height="20.59"/>
  <rect class="cls-1" x="1840.99" y="41.78" width="43.47" height="20.59"/>
  <rect class="cls-1" x="1884.39" y="41.78" width="43.47" height="20.59"/>
  <rect class="cls-1" x="1927.78" y="41.78" width="43.47" height="20.59"/>
  <rect class="cls-1" x="1971.18" y="41.78" width="43.47" height="20.59"/>
  <rect class="cls-1" x="2014.57" y="41.78" width="43.47" height="20.59"/>
  <rect class="cls-1" x="2057.97" y="41.78" width="43.47" height="20.59"/>
  <rect class="cls-1" x="2101.36" y="41.78" width="43.47" height="20.59"/>
  <rect class="cls-1" x="2144.76" y="41.78" width="43.47" height="20.59"/>
  <rect class="cls-1" x="2188.15" y="41.78" width="43.47" height="20.59"/>
  <rect class="cls-1" x="2231.55" y="41.78" width="43.47" height="20.59"/>
  <rect class="cls-1" x="2274.94" y="41.78" width="43.47" height="20.59"/>
  <rect class="cls-1" x="2318.34" y="41.78" width="43.47" height="20.59"/>
  <rect class="cls-1" x="2361.73" y="41.78" width="43.47" height="20.59"/>
  <rect class="cls-1" x="2405.13" y="41.78" width="43.47" height="20.59"/>
  <rect class="cls-1" x="2448.52" y="41.78" width="43.47" height="20.59"/>
  <rect class="cls-1" x="2491.92" y="41.78" width="43.47" height="20.59"/>
  <rect class="cls-1" x="2535.31" y="41.78" width="21.64" height="20.59"/>
</svg>
