<svg id="Layer_8" data-name="Layer 8" xmlns="http://www.w3.org/2000/svg" viewBox="0 0 1629 42.74">
  <defs>
    <style>
      .cls-1 {
        fill: gray;
        stroke: #4d4d4d;
        stroke-miterlimit: 10;
        stroke-width: 0.5px;
      }
    </style>
  </defs>
  <rect class="cls-1" x="0.4" y="0.61" width="44.08" height="20.88"/>
  <rect class="cls-1" x="44.41" y="0.61" width="44.08" height="20.88"/>
  <rect class="cls-1" x="88.41" y="0.61" width="44.08" height="20.88"/>
  <rect class="cls-1" x="132.42" y="0.61" width="44.08" height="20.88"/>
  <rect class="cls-1" x="176.43" y="0.61" width="44.08" height="20.88"/>
  <rect class="cls-1" x="220.43" y="0.61" width="44.08" height="20.88"/>
  <rect class="cls-1" x="264.44" y="0.61" width="44.08" height="20.88"/>
  <rect class="cls-1" x="308.44" y="0.61" width="44.08" height="20.88"/>
  <rect class="cls-1" x="352.45" y="0.61" width="44.08" height="20.88"/>
  <rect class="cls-1" x="396.46" y="0.61" width="44.08" height="20.88"/>
  <rect class="cls-1" x="440.46" y="0.61" width="44.08" height="20.88"/>
  <rect class="cls-1" x="484.47" y="0.61" width="44.08" height="20.88"/>
  <rect class="cls-1" x="528.48" y="0.61" width="44.08" height="20.88"/>
  <rect class="cls-1" x="572.48" y="0.61" width="44.08" height="20.88"/>
  <rect class="cls-1" x="616.49" y="0.61" width="44.08" height="20.88"/>
  <rect class="cls-1" x="660.5" y="0.61" width="44.08" height="20.88"/>
  <rect class="cls-1" x="704.5" y="0.61" width="44.08" height="20.88"/>
  <rect class="cls-1" x="748.51" y="0.61" width="44.08" height="20.88"/>
  <rect class="cls-1" x="792.51" y="0.61" width="44.08" height="20.88"/>
  <rect class="cls-1" x="836.52" y="0.61" width="44.08" height="20.88"/>
  <rect class="cls-1" x="22.4" y="21.46" width="44.08" height="20.88"/>
  <rect class="cls-1" x="66.41" y="21.46" width="44.08" height="20.88"/>
  <rect class="cls-1" x="110.42" y="21.46" width="44.08" height="20.88"/>
  <rect class="cls-1" x="154.42" y="21.46" width="44.08" height="20.88"/>
  <rect class="cls-1" x="198.43" y="21.46" width="44.08" height="20.88"/>
  <rect class="cls-1" x="242.44" y="21.46" width="44.08" height="20.88"/>
  <rect class="cls-1" x="286.44" y="21.46" width="44.08" height="20.88"/>
  <rect class="cls-1" x="330.45" y="21.46" width="44.08" height="20.88"/>
  <rect class="cls-1" x="374.45" y="21.46" width="44.08" height="20.88"/>
  <rect class="cls-1" x="418.46" y="21.46" width="44.08" height="20.88"/>
  <rect class="cls-1" x="462.47" y="21.46" width="44.08" height="20.88"/>
  <rect class="cls-1" x="506.47" y="21.46" width="44.08" height="20.88"/>
  <rect class="cls-1" x="550.48" y="21.46" width="44.08" height="20.88"/>
  <rect class="cls-1" x="594.49" y="21.46" width="44.08" height="20.88"/>
  <rect class="cls-1" x="638.49" y="21.46" width="44.08" height="20.88"/>
  <rect class="cls-1" x="682.5" y="21.46" width="44.08" height="20.88"/>
  <rect class="cls-1" x="726.51" y="21.46" width="44.08" height="20.88"/>
  <rect class="cls-1" x="770.51" y="21.46" width="44.08" height="20.88"/>
  <rect class="cls-1" x="814.52" y="21.46" width="44.08" height="20.88"/>
  <rect class="cls-1" x="880.13" y="0.61" width="44.08" height="20.88"/>
  <rect class="cls-1" x="924.14" y="0.61" width="44.08" height="20.88"/>
  <rect class="cls-1" x="968.14" y="0.61" width="44.08" height="20.88"/>
  <rect class="cls-1" x="1012.15" y="0.61" width="44.08" height="20.88"/>
  <rect class="cls-1" x="1056.16" y="0.61" width="44.08" height="20.88"/>
  <rect class="cls-1" x="1100.16" y="0.61" width="44.08" height="20.88"/>
  <rect class="cls-1" x="858.13" y="21.46" width="44.08" height="20.88"/>
  <rect class="cls-1" x="902.13" y="21.46" width="44.08" height="20.88"/>
  <rect class="cls-1" x="946.14" y="21.46" width="44.08" height="20.88"/>
  <rect class="cls-1" x="990.15" y="21.46" width="44.08" height="20.88"/>
  <rect class="cls-1" x="1034.15" y="21.46" width="44.08" height="20.88"/>
  <rect class="cls-1" x="1078.16" y="21.46" width="44.08" height="20.88"/>
  <rect class="cls-1" x="1122.45" y="21.31" width="44.08" height="20.88"/>
  <rect class="cls-1" x="1166.46" y="21.31" width="44.08" height="20.88"/>
  <rect class="cls-1" x="1210.47" y="21.31" width="44.08" height="20.88"/>
  <rect class="cls-1" x="1254.47" y="21.31" width="44.08" height="20.88"/>
  <rect class="cls-1" x="1298.48" y="21.31" width="44.08" height="20.88"/>
  <rect class="cls-1" x="1342.48" y="21.31" width="44.08" height="20.88"/>
  <rect class="cls-1" x="1386.49" y="21.31" width="44.08" height="20.88"/>
  <rect class="cls-1" x="1430.5" y="21.31" width="44.08" height="20.88"/>
  <rect class="cls-1" x="1474.5" y="21.31" width="44.08" height="20.88"/>
  <rect class="cls-1" x="1518.51" y="21.31" width="44.08" height="20.88"/>
  <rect class="cls-1" x="1562.52" y="21.31" width="44.08" height="20.88"/>
  <rect class="cls-1" x="1144.46" y="0.4" width="44.08" height="20.88"/>
  <rect class="cls-1" x="1188.46" y="0.4" width="44.08" height="20.88"/>
  <rect class="cls-1" x="1232.47" y="0.4" width="44.08" height="20.88"/>
  <rect class="cls-1" x="1276.48" y="0.4" width="44.08" height="20.88"/>
  <rect class="cls-1" x="1320.48" y="0.4" width="44.08" height="20.88"/>
  <rect class="cls-1" x="1364.49" y="0.4" width="44.08" height="20.88"/>
  <rect class="cls-1" x="1408.49" y="0.4" width="44.08" height="20.88"/>
  <rect class="cls-1" x="1452.5" y="0.4" width="44.08" height="20.88"/>
  <rect class="cls-1" x="1496.51" y="0.4" width="44.08" height="20.88"/>
  <rect class="cls-1" x="1540.51" y="0.4" width="44.08" height="20.88"/>
  <rect class="cls-1" x="1584.52" y="0.4" width="44.08" height="20.88"/>
</svg>
