<svg id="arch_copy" data-name="arch copy" xmlns="http://www.w3.org/2000/svg" viewBox="0 0 2563.67 280.33">
  <defs>
    <style>
      .cls-1 {
        fill: gray;
        stroke: #4d4d4d;
      }

      .cls-1, .cls-2 {
        stroke-miterlimit: 10;
      }

      .cls-2 {
        fill: #b3b3b3;
        stroke: #666;
      }

      .cls-3 {
        opacity: 0.7;
      }

      .cls-4 {
        fill: #333;
      }

      .cls-4, .cls-5, .cls-6 {
        stroke: #999;
        stroke-linecap: round;
        stroke-linejoin: round;
      }

      .cls-5 {
        fill: #e6e6e6;
      }

      .cls-6 {
        fill: #ccc;
      }
    </style>
  </defs>
  <g>
    <rect class="cls-1" x="1.83" y="217.81" width="43.47" height="20.59"/>
    <rect class="cls-1" x="45.22" y="217.81" width="43.47" height="20.59"/>
    <rect class="cls-1" x="88.62" y="217.81" width="43.47" height="20.59"/>
    <rect class="cls-1" x="132.01" y="217.81" width="43.47" height="20.59"/>
    <rect class="cls-1" x="175.41" y="217.81" width="43.47" height="20.59"/>
    <rect class="cls-1" x="218.8" y="217.81" width="43.47" height="20.59"/>
    <rect class="cls-1" x="262.2" y="217.81" width="43.47" height="20.59"/>
    <rect class="cls-1" x="305.59" y="217.81" width="43.47" height="20.59"/>
    <rect class="cls-1" x="348.99" y="217.81" width="43.47" height="20.59"/>
    <rect class="cls-1" x="392.38" y="217.81" width="43.47" height="20.59"/>
    <rect class="cls-1" x="435.78" y="217.81" width="43.47" height="20.59"/>
    <rect class="cls-1" x="479.17" y="217.81" width="43.47" height="20.59"/>
    <rect class="cls-1" x="522.57" y="217.81" width="43.47" height="20.59"/>
    <rect class="cls-1" x="565.96" y="217.81" width="43.47" height="20.59"/>
    <rect class="cls-1" x="609.36" y="217.81" width="43.47" height="20.59"/>
    <rect class="cls-1" x="652.75" y="217.81" width="43.47" height="20.59"/>
    <rect class="cls-1" x="696.15" y="217.81" width="43.47" height="20.59"/>
    <rect class="cls-1" x="739.54" y="217.81" width="43.47" height="20.59"/>
    <rect class="cls-1" x="782.94" y="217.81" width="43.47" height="20.59"/>
    <rect class="cls-1" x="826.33" y="217.81" width="43.47" height="20.59"/>
    <rect class="cls-1" x="869.73" y="217.81" width="43.47" height="20.59"/>
    <rect class="cls-1" x="913.12" y="217.81" width="43.47" height="20.59"/>
    <rect class="cls-1" x="956.52" y="217.81" width="43.47" height="20.59"/>
    <rect class="cls-1" x="999.91" y="217.81" width="43.47" height="20.59"/>
    <rect class="cls-1" x="1043.31" y="217.81" width="43.47" height="20.59"/>
    <rect class="cls-1" x="1086.7" y="217.81" width="43.47" height="20.59"/>
    <rect class="cls-1" x="1130.1" y="217.81" width="43.47" height="20.59"/>
    <rect class="cls-1" x="1173.49" y="217.81" width="43.47" height="20.59"/>
    <rect class="cls-1" x="1216.89" y="217.81" width="43.47" height="20.59"/>
    <rect class="cls-1" x="1260.28" y="217.81" width="43.47" height="20.59"/>
    <rect class="cls-1" x="1303.68" y="217.81" width="43.47" height="20.59"/>
    <rect class="cls-1" x="1347.07" y="217.81" width="43.47" height="20.59"/>
    <rect class="cls-1" x="1390.46" y="217.81" width="43.47" height="20.59"/>
    <rect class="cls-1" x="1433.86" y="217.81" width="43.47" height="20.59"/>
    <rect class="cls-1" x="1477.25" y="217.81" width="43.47" height="20.59"/>
    <rect class="cls-1" x="1520.65" y="217.81" width="43.47" height="20.59"/>
    <rect class="cls-1" x="1564.04" y="217.81" width="43.47" height="20.59"/>
    <rect class="cls-1" x="1607.44" y="217.81" width="43.47" height="20.59"/>
    <rect class="cls-1" x="1650.83" y="217.81" width="43.47" height="20.59"/>
    <rect class="cls-1" x="1694.23" y="217.81" width="43.47" height="20.59"/>
    <rect class="cls-1" x="1737.62" y="217.81" width="43.47" height="20.59"/>
    <rect class="cls-1" x="1781.02" y="217.81" width="43.47" height="20.59"/>
    <rect class="cls-1" x="1824.41" y="217.81" width="43.47" height="20.59"/>
    <rect class="cls-1" x="1867.81" y="217.81" width="43.47" height="20.59"/>
    <rect class="cls-1" x="1911.2" y="217.81" width="43.47" height="20.59"/>
    <rect class="cls-1" x="1954.6" y="217.81" width="43.47" height="20.59"/>
    <rect class="cls-1" x="1997.99" y="217.81" width="43.47" height="20.59"/>
    <rect class="cls-1" x="2041.39" y="217.81" width="43.47" height="20.59"/>
    <rect class="cls-1" x="2084.78" y="217.81" width="43.47" height="20.59"/>
    <rect class="cls-1" x="2128.18" y="217.81" width="43.47" height="20.59"/>
    <rect class="cls-1" x="2171.57" y="217.81" width="43.47" height="20.59"/>
    <rect class="cls-1" x="2214.97" y="217.81" width="43.47" height="20.59"/>
    <rect class="cls-1" x="2258.36" y="217.81" width="43.47" height="20.59"/>
    <rect class="cls-1" x="2301.76" y="217.81" width="43.47" height="20.59"/>
    <rect class="cls-1" x="2345.15" y="217.81" width="43.47" height="20.59"/>
    <rect class="cls-1" x="2388.55" y="217.81" width="43.47" height="20.59"/>
    <rect class="cls-1" x="2431.94" y="217.81" width="43.47" height="20.59"/>
    <rect class="cls-1" x="2475.34" y="217.81" width="43.47" height="20.59"/>
    <rect class="cls-1" x="2518.73" y="217.81" width="43.47" height="20.59"/>
    <rect class="cls-1" x="1.73" y="197.19" width="21.87" height="20.59"/>
    <rect class="cls-1" x="23.53" y="197.19" width="43.47" height="20.59"/>
    <rect class="cls-1" x="66.92" y="197.19" width="43.47" height="20.59"/>
    <rect class="cls-1" x="110.31" y="197.19" width="43.47" height="20.59"/>
    <rect class="cls-1" x="153.71" y="197.19" width="43.47" height="20.59"/>
    <rect class="cls-1" x="197.1" y="197.19" width="43.47" height="20.59"/>
    <rect class="cls-1" x="240.5" y="197.19" width="43.47" height="20.59"/>
    <rect class="cls-1" x="283.89" y="197.19" width="43.47" height="20.59"/>
    <rect class="cls-1" x="327.29" y="197.19" width="43.47" height="20.59"/>
    <rect class="cls-1" x="370.68" y="197.19" width="43.47" height="20.59"/>
    <rect class="cls-1" x="414.08" y="197.19" width="43.47" height="20.59"/>
    <rect class="cls-1" x="457.47" y="197.19" width="43.47" height="20.59"/>
    <rect class="cls-1" x="500.87" y="197.19" width="43.47" height="20.59"/>
    <rect class="cls-1" x="544.26" y="197.19" width="43.47" height="20.59"/>
    <rect class="cls-1" x="587.66" y="197.19" width="43.47" height="20.59"/>
    <rect class="cls-1" x="631.05" y="197.19" width="43.47" height="20.59"/>
    <rect class="cls-1" x="674.45" y="197.19" width="43.47" height="20.59"/>
    <rect class="cls-1" x="717.84" y="197.19" width="43.47" height="20.59"/>
    <rect class="cls-1" x="761.24" y="197.19" width="43.47" height="20.59"/>
    <rect class="cls-1" x="804.63" y="197.19" width="43.47" height="20.59"/>
    <rect class="cls-1" x="848.03" y="197.19" width="43.47" height="20.59"/>
    <rect class="cls-1" x="891.42" y="197.19" width="43.47" height="20.59"/>
    <rect class="cls-1" x="934.82" y="197.19" width="43.47" height="20.59"/>
    <rect class="cls-1" x="978.21" y="197.19" width="43.47" height="20.59"/>
    <rect class="cls-1" x="1021.61" y="197.19" width="43.47" height="20.59"/>
    <rect class="cls-1" x="1065" y="197.19" width="43.47" height="20.59"/>
    <rect class="cls-1" x="1108.4" y="197.19" width="43.47" height="20.59"/>
    <rect class="cls-1" x="1151.79" y="197.19" width="43.47" height="20.59"/>
    <rect class="cls-1" x="1195.19" y="197.19" width="43.47" height="20.59"/>
    <rect class="cls-1" x="1238.58" y="197.19" width="43.47" height="20.59"/>
    <rect class="cls-1" x="1281.98" y="197.19" width="43.47" height="20.59"/>
    <rect class="cls-1" x="1325.37" y="197.19" width="43.47" height="20.59"/>
    <rect class="cls-1" x="1368.77" y="197.19" width="43.47" height="20.59"/>
    <rect class="cls-1" x="1412.16" y="197.19" width="43.47" height="20.59"/>
    <rect class="cls-1" x="1455.56" y="197.19" width="43.47" height="20.59"/>
    <rect class="cls-1" x="1498.95" y="197.19" width="43.47" height="20.59"/>
    <rect class="cls-1" x="1542.35" y="197.19" width="43.47" height="20.59"/>
    <rect class="cls-1" x="1585.74" y="197.19" width="43.47" height="20.59"/>
    <rect class="cls-1" x="1629.14" y="197.19" width="43.47" height="20.59"/>
    <rect class="cls-1" x="1672.53" y="197.19" width="43.47" height="20.59"/>
    <rect class="cls-1" x="1715.93" y="197.19" width="43.47" height="20.59"/>
    <rect class="cls-1" x="1759.32" y="197.19" width="43.47" height="20.59"/>
    <rect class="cls-1" x="1802.72" y="197.19" width="43.47" height="20.59"/>
    <rect class="cls-1" x="1846.11" y="197.19" width="43.47" height="20.59"/>
    <rect class="cls-1" x="1889.51" y="197.19" width="43.47" height="20.59"/>
    <rect class="cls-1" x="1932.9" y="197.19" width="43.47" height="20.59"/>
    <rect class="cls-1" x="1976.3" y="197.19" width="43.47" height="20.59"/>
    <rect class="cls-1" x="2019.69" y="197.19" width="43.47" height="20.59"/>
    <rect class="cls-1" x="2063.09" y="197.19" width="43.47" height="20.59"/>
    <rect class="cls-1" x="2106.48" y="197.19" width="43.47" height="20.59"/>
    <rect class="cls-1" x="2149.88" y="197.19" width="43.47" height="20.59"/>
    <rect class="cls-1" x="2193.27" y="197.19" width="43.47" height="20.59"/>
    <rect class="cls-1" x="2236.67" y="197.19" width="43.47" height="20.59"/>
    <rect class="cls-1" x="2280.06" y="197.19" width="43.47" height="20.59"/>
    <rect class="cls-1" x="2323.46" y="197.19" width="43.47" height="20.59"/>
    <rect class="cls-1" x="2366.85" y="197.19" width="43.47" height="20.59"/>
    <rect class="cls-1" x="2410.25" y="197.19" width="43.47" height="20.59"/>
    <rect class="cls-1" x="2453.64" y="197.19" width="43.47" height="20.59"/>
    <rect class="cls-1" x="2497.04" y="197.19" width="43.47" height="20.59"/>
    <rect class="cls-1" x="2540.43" y="197.19" width="21.66" height="20.59"/>
    <rect class="cls-1" x="0.72" y="259.25" width="44.47" height="20.59"/>
    <rect class="cls-1" x="45.22" y="259.25" width="43.47" height="20.59"/>
    <rect class="cls-1" x="88.62" y="259.25" width="43.47" height="20.59"/>
    <rect class="cls-1" x="132.01" y="259.25" width="43.47" height="20.59"/>
    <rect class="cls-1" x="175.41" y="259.25" width="43.47" height="20.59"/>
    <rect class="cls-1" x="218.8" y="259.25" width="43.47" height="20.59"/>
    <rect class="cls-1" x="262.2" y="259.25" width="43.47" height="20.59"/>
    <rect class="cls-1" x="305.59" y="259.25" width="43.47" height="20.59"/>
    <rect class="cls-1" x="348.99" y="259.25" width="43.47" height="20.59"/>
    <rect class="cls-1" x="392.38" y="259.25" width="43.47" height="20.59"/>
    <rect class="cls-1" x="435.78" y="259.25" width="43.47" height="20.59"/>
    <rect class="cls-1" x="479.17" y="259.25" width="43.47" height="20.59"/>
    <rect class="cls-1" x="522.57" y="259.25" width="43.47" height="20.59"/>
    <rect class="cls-1" x="565.96" y="259.25" width="43.47" height="20.59"/>
    <rect class="cls-1" x="609.36" y="259.25" width="43.47" height="20.59"/>
    <rect class="cls-1" x="652.75" y="259.25" width="43.47" height="20.59"/>
    <rect class="cls-1" x="696.15" y="259.25" width="43.47" height="20.59"/>
    <rect class="cls-1" x="739.54" y="259.25" width="43.47" height="20.59"/>
    <rect class="cls-1" x="782.94" y="259.25" width="43.47" height="20.59"/>
    <rect class="cls-1" x="826.33" y="259.25" width="43.47" height="20.59"/>
    <rect class="cls-1" x="869.73" y="259.25" width="43.47" height="20.59"/>
    <rect class="cls-1" x="913.12" y="259.25" width="43.47" height="20.59"/>
    <rect class="cls-1" x="956.52" y="259.25" width="43.47" height="20.59"/>
    <rect class="cls-1" x="999.91" y="259.25" width="43.47" height="20.59"/>
    <rect class="cls-1" x="1043.31" y="259.25" width="43.47" height="20.59"/>
    <rect class="cls-1" x="1086.7" y="259.25" width="43.47" height="20.59"/>
    <rect class="cls-1" x="1130.1" y="259.25" width="43.47" height="20.59"/>
    <rect class="cls-1" x="1173.49" y="259.25" width="43.47" height="20.59"/>
    <rect class="cls-1" x="1216.89" y="259.25" width="43.47" height="20.59"/>
    <rect class="cls-1" x="1260.28" y="259.25" width="43.47" height="20.59"/>
    <rect class="cls-1" x="1303.68" y="259.25" width="43.47" height="20.59"/>
    <rect class="cls-1" x="1347.07" y="259.25" width="43.47" height="20.59"/>
    <rect class="cls-1" x="1390.46" y="259.25" width="43.47" height="20.59"/>
    <rect class="cls-1" x="1433.86" y="259.25" width="43.47" height="20.59"/>
    <rect class="cls-1" x="1477.25" y="259.25" width="43.47" height="20.59"/>
    <rect class="cls-1" x="1520.65" y="259.25" width="43.47" height="20.59"/>
    <rect class="cls-1" x="1564.04" y="259.25" width="43.47" height="20.59"/>
    <rect class="cls-1" x="1607.44" y="259.25" width="43.47" height="20.59"/>
    <rect class="cls-1" x="1650.83" y="259.25" width="43.47" height="20.59"/>
    <rect class="cls-1" x="1694.23" y="259.25" width="43.47" height="20.59"/>
    <rect class="cls-1" x="1737.62" y="259.25" width="43.47" height="20.59"/>
    <rect class="cls-1" x="1781.02" y="259.25" width="43.47" height="20.59"/>
    <rect class="cls-1" x="1824.41" y="259.25" width="43.47" height="20.59"/>
    <rect class="cls-1" x="1867.81" y="259.25" width="43.47" height="20.59"/>
    <rect class="cls-1" x="1911.2" y="259.25" width="43.47" height="20.59"/>
    <rect class="cls-1" x="1954.6" y="259.25" width="43.47" height="20.59"/>
    <rect class="cls-1" x="1997.99" y="259.25" width="43.47" height="20.59"/>
    <rect class="cls-1" x="2041.39" y="259.25" width="43.47" height="20.59"/>
    <rect class="cls-1" x="2084.78" y="259.25" width="43.47" height="20.59"/>
    <rect class="cls-1" x="2128.18" y="259.25" width="43.47" height="20.59"/>
    <rect class="cls-1" x="2171.57" y="259.25" width="43.47" height="20.59"/>
    <rect class="cls-1" x="2214.97" y="259.25" width="43.47" height="20.59"/>
    <rect class="cls-1" x="2258.36" y="259.25" width="43.47" height="20.59"/>
    <rect class="cls-1" x="2301.76" y="259.25" width="43.47" height="20.59"/>
    <rect class="cls-1" x="2345.15" y="259.25" width="43.47" height="20.59"/>
    <rect class="cls-1" x="2388.55" y="259.25" width="43.47" height="20.59"/>
    <rect class="cls-1" x="2431.94" y="259.25" width="43.47" height="20.59"/>
    <rect class="cls-1" x="2475.34" y="259.25" width="43.47" height="20.59"/>
    <rect class="cls-1" x="2518.73" y="259.25" width="43.47" height="20.59"/>
    <rect class="cls-1" x="1.68" y="238.63" width="21.91" height="20.59"/>
    <rect class="cls-1" x="23.53" y="238.63" width="43.47" height="20.59"/>
    <rect class="cls-1" x="66.92" y="238.63" width="43.47" height="20.59"/>
    <rect class="cls-1" x="110.31" y="238.63" width="43.47" height="20.59"/>
    <rect class="cls-1" x="153.71" y="238.63" width="43.47" height="20.59"/>
    <rect class="cls-1" x="197.1" y="238.63" width="43.47" height="20.59"/>
    <rect class="cls-1" x="240.5" y="238.63" width="43.47" height="20.59"/>
    <rect class="cls-1" x="283.89" y="238.63" width="43.47" height="20.59"/>
    <rect class="cls-1" x="327.29" y="238.63" width="43.47" height="20.59"/>
    <rect class="cls-1" x="370.68" y="238.63" width="43.47" height="20.59"/>
    <rect class="cls-1" x="414.08" y="238.63" width="43.47" height="20.59"/>
    <rect class="cls-1" x="457.47" y="238.63" width="43.47" height="20.59"/>
    <rect class="cls-1" x="500.87" y="238.63" width="43.47" height="20.59"/>
    <rect class="cls-1" x="544.26" y="238.63" width="43.47" height="20.59"/>
    <rect class="cls-1" x="587.66" y="238.63" width="43.47" height="20.59"/>
    <rect class="cls-1" x="631.05" y="238.63" width="43.47" height="20.59"/>
    <rect class="cls-1" x="674.45" y="238.63" width="43.47" height="20.59"/>
    <rect class="cls-1" x="717.84" y="238.63" width="43.47" height="20.59"/>
    <rect class="cls-1" x="761.24" y="238.63" width="43.47" height="20.59"/>
    <rect class="cls-1" x="804.63" y="238.63" width="43.47" height="20.59"/>
    <rect class="cls-1" x="848.03" y="238.63" width="43.47" height="20.59"/>
    <rect class="cls-1" x="891.42" y="238.63" width="43.47" height="20.59"/>
    <rect class="cls-1" x="934.82" y="238.63" width="43.47" height="20.59"/>
    <rect class="cls-1" x="978.21" y="238.63" width="43.47" height="20.59"/>
    <rect class="cls-1" x="1021.61" y="238.63" width="43.47" height="20.59"/>
    <rect class="cls-1" x="1065" y="238.63" width="43.47" height="20.59"/>
    <rect class="cls-1" x="1108.4" y="238.63" width="43.47" height="20.59"/>
    <rect class="cls-1" x="1151.79" y="238.63" width="43.47" height="20.59"/>
    <rect class="cls-1" x="1195.19" y="238.63" width="43.47" height="20.59"/>
    <rect class="cls-1" x="1238.58" y="238.63" width="43.47" height="20.59"/>
    <rect class="cls-1" x="1281.98" y="238.63" width="43.47" height="20.59"/>
    <rect class="cls-1" x="1325.37" y="238.63" width="43.47" height="20.59"/>
    <rect class="cls-1" x="1368.77" y="238.63" width="43.47" height="20.59"/>
    <rect class="cls-1" x="1412.16" y="238.63" width="43.47" height="20.59"/>
    <rect class="cls-1" x="1455.56" y="238.63" width="43.47" height="20.59"/>
    <rect class="cls-1" x="1498.95" y="238.63" width="43.47" height="20.59"/>
    <rect class="cls-1" x="1542.35" y="238.63" width="43.47" height="20.59"/>
    <rect class="cls-1" x="1585.74" y="238.63" width="43.47" height="20.59"/>
    <rect class="cls-1" x="1629.14" y="238.63" width="43.47" height="20.59"/>
    <rect class="cls-1" x="1672.53" y="238.63" width="43.47" height="20.59"/>
    <rect class="cls-1" x="1715.93" y="238.63" width="43.47" height="20.59"/>
    <rect class="cls-1" x="1759.32" y="238.63" width="43.47" height="20.59"/>
    <rect class="cls-1" x="1802.72" y="238.63" width="43.47" height="20.59"/>
    <rect class="cls-1" x="1846.11" y="238.63" width="43.47" height="20.59"/>
    <rect class="cls-1" x="1889.51" y="238.63" width="43.47" height="20.59"/>
    <rect class="cls-1" x="1932.9" y="238.63" width="43.47" height="20.59"/>
    <rect class="cls-1" x="1976.3" y="238.63" width="43.47" height="20.59"/>
    <rect class="cls-1" x="2019.69" y="238.63" width="43.47" height="20.59"/>
    <rect class="cls-1" x="2063.09" y="238.63" width="43.47" height="20.59"/>
    <rect class="cls-1" x="2106.48" y="238.63" width="43.47" height="20.59"/>
    <rect class="cls-1" x="2149.88" y="238.63" width="43.47" height="20.59"/>
    <rect class="cls-1" x="2193.27" y="238.63" width="43.47" height="20.59"/>
    <rect class="cls-1" x="2236.67" y="238.63" width="43.47" height="20.59"/>
    <rect class="cls-1" x="2280.06" y="238.63" width="43.47" height="20.59"/>
    <rect class="cls-1" x="2323.46" y="238.63" width="43.47" height="20.59"/>
    <rect class="cls-1" x="2366.85" y="238.63" width="43.47" height="20.59"/>
    <rect class="cls-1" x="2410.25" y="238.63" width="43.47" height="20.59"/>
    <rect class="cls-1" x="2453.64" y="238.63" width="43.47" height="20.59"/>
    <rect class="cls-1" x="2497.04" y="238.63" width="43.47" height="20.59"/>
    <rect class="cls-1" x="2540.43" y="238.63" width="21.64" height="20.59"/>
    <rect class="cls-1" x="1.83" y="176.57" width="43.47" height="20.59"/>
    <rect class="cls-1" x="45.22" y="176.57" width="43.47" height="20.59"/>
    <rect class="cls-1" x="88.62" y="176.57" width="43.47" height="20.59"/>
    <rect class="cls-1" x="132.01" y="176.57" width="43.47" height="20.59"/>
    <rect class="cls-1" x="175.41" y="176.57" width="43.47" height="20.59"/>
    <rect class="cls-1" x="218.8" y="176.57" width="43.47" height="20.59"/>
    <rect class="cls-1" x="262.2" y="176.57" width="43.47" height="20.59"/>
    <rect class="cls-1" x="305.59" y="176.57" width="43.47" height="20.59"/>
    <rect class="cls-1" x="348.99" y="176.57" width="43.47" height="20.59"/>
    <rect class="cls-1" x="392.38" y="176.57" width="43.47" height="20.59"/>
    <rect class="cls-1" x="435.78" y="176.57" width="43.47" height="20.59"/>
    <rect class="cls-1" x="479.17" y="176.57" width="43.47" height="20.59"/>
    <rect class="cls-1" x="522.57" y="176.57" width="43.47" height="20.59"/>
    <rect class="cls-1" x="565.96" y="176.57" width="43.47" height="20.59"/>
    <rect class="cls-1" x="609.36" y="176.57" width="43.47" height="20.59"/>
    <rect class="cls-1" x="652.75" y="176.57" width="43.47" height="20.59"/>
    <rect class="cls-1" x="696.15" y="176.57" width="43.47" height="20.59"/>
    <rect class="cls-1" x="739.54" y="176.57" width="43.47" height="20.59"/>
    <rect class="cls-1" x="782.94" y="176.57" width="43.47" height="20.59"/>
    <rect class="cls-1" x="826.33" y="176.57" width="43.47" height="20.59"/>
    <rect class="cls-1" x="869.73" y="176.57" width="43.47" height="20.59"/>
    <rect class="cls-1" x="913.12" y="176.57" width="43.47" height="20.59"/>
    <rect class="cls-1" x="956.52" y="176.57" width="43.47" height="20.59"/>
    <rect class="cls-1" x="999.91" y="176.57" width="43.47" height="20.59"/>
    <rect class="cls-1" x="1043.31" y="176.57" width="43.47" height="20.59"/>
    <rect class="cls-1" x="1086.7" y="176.57" width="43.47" height="20.59"/>
    <rect class="cls-1" x="1130.1" y="176.57" width="43.47" height="20.59"/>
    <rect class="cls-1" x="1173.49" y="176.57" width="43.47" height="20.59"/>
    <rect class="cls-1" x="1216.89" y="176.57" width="43.47" height="20.59"/>
    <rect class="cls-1" x="1260.28" y="176.57" width="43.47" height="20.59"/>
    <rect class="cls-1" x="1303.68" y="176.57" width="43.47" height="20.59"/>
    <rect class="cls-1" x="1347.07" y="176.57" width="43.47" height="20.59"/>
    <rect class="cls-1" x="1390.46" y="176.57" width="43.47" height="20.59"/>
    <rect class="cls-1" x="1433.86" y="176.57" width="43.47" height="20.59"/>
    <rect class="cls-1" x="1477.25" y="176.57" width="43.47" height="20.59"/>
    <rect class="cls-1" x="1520.65" y="176.57" width="43.47" height="20.59"/>
    <rect class="cls-1" x="1564.04" y="176.57" width="43.47" height="20.59"/>
    <rect class="cls-1" x="1607.44" y="176.57" width="43.47" height="20.59"/>
    <rect class="cls-1" x="1650.83" y="176.57" width="43.47" height="20.59"/>
    <rect class="cls-1" x="1694.23" y="176.57" width="43.47" height="20.59"/>
    <rect class="cls-1" x="1737.62" y="176.57" width="43.47" height="20.59"/>
    <rect class="cls-1" x="1781.02" y="176.57" width="43.47" height="20.59"/>
    <rect class="cls-1" x="1824.41" y="176.57" width="43.47" height="20.59"/>
    <rect class="cls-1" x="1867.81" y="176.57" width="43.47" height="20.59"/>
    <rect class="cls-1" x="1911.2" y="176.57" width="43.47" height="20.59"/>
    <rect class="cls-1" x="1954.6" y="176.57" width="43.47" height="20.59"/>
    <rect class="cls-1" x="1997.99" y="176.57" width="43.47" height="20.59"/>
    <rect class="cls-1" x="2041.39" y="176.57" width="43.47" height="20.59"/>
    <rect class="cls-1" x="2084.78" y="176.57" width="43.47" height="20.59"/>
    <rect class="cls-1" x="2128.18" y="176.57" width="43.47" height="20.59"/>
    <rect class="cls-1" x="2171.57" y="176.57" width="43.47" height="20.59"/>
    <rect class="cls-1" x="2214.97" y="176.57" width="43.47" height="20.59"/>
    <rect class="cls-1" x="2258.36" y="176.57" width="43.47" height="20.59"/>
    <rect class="cls-1" x="2301.76" y="176.57" width="43.47" height="20.59"/>
    <rect class="cls-1" x="2345.15" y="176.57" width="43.47" height="20.59"/>
    <rect class="cls-1" x="2388.55" y="176.57" width="43.47" height="20.59"/>
    <rect class="cls-1" x="2431.94" y="176.57" width="43.47" height="20.59"/>
    <rect class="cls-1" x="2475.34" y="176.57" width="43.47" height="20.59"/>
    <rect class="cls-1" x="1.83" y="94.46" width="43.47" height="20.59"/>
    <rect class="cls-1" x="45.22" y="94.46" width="43.47" height="20.59"/>
    <rect class="cls-1" x="88.62" y="94.46" width="43.47" height="20.59"/>
    <rect class="cls-1" x="132.01" y="94.46" width="43.47" height="20.59"/>
    <rect class="cls-1" x="175.41" y="94.46" width="43.47" height="20.59"/>
    <rect class="cls-1" x="218.8" y="94.46" width="43.47" height="20.59"/>
    <rect class="cls-1" x="262.2" y="94.46" width="43.47" height="20.59"/>
    <rect class="cls-1" x="305.59" y="94.46" width="43.47" height="20.59"/>
    <rect class="cls-1" x="348.99" y="94.46" width="43.47" height="20.59"/>
    <rect class="cls-1" x="392.38" y="94.46" width="43.47" height="20.59"/>
    <rect class="cls-1" x="435.78" y="94.46" width="43.47" height="20.59"/>
    <rect class="cls-1" x="479.17" y="94.46" width="43.47" height="20.59"/>
    <rect class="cls-1" x="522.57" y="94.46" width="43.47" height="20.59"/>
    <rect class="cls-1" x="565.96" y="94.46" width="43.47" height="20.59"/>
    <rect class="cls-1" x="609.36" y="94.46" width="43.47" height="20.59"/>
    <rect class="cls-1" x="652.75" y="94.46" width="43.47" height="20.59"/>
    <rect class="cls-1" x="696.15" y="94.46" width="43.47" height="20.59"/>
    <rect class="cls-1" x="739.54" y="94.46" width="43.47" height="20.59"/>
    <rect class="cls-1" x="782.94" y="94.46" width="43.47" height="20.59"/>
    <rect class="cls-1" x="826.33" y="94.46" width="43.47" height="20.59"/>
    <rect class="cls-1" x="869.73" y="94.46" width="43.47" height="20.59"/>
    <rect class="cls-1" x="913.12" y="94.46" width="43.47" height="20.59"/>
    <rect class="cls-1" x="956.52" y="94.46" width="43.47" height="20.59"/>
    <rect class="cls-1" x="999.91" y="94.46" width="43.47" height="20.59"/>
    <rect class="cls-1" x="1043.31" y="94.46" width="43.47" height="20.59"/>
    <rect class="cls-1" x="1086.7" y="94.46" width="43.47" height="20.59"/>
    <rect class="cls-1" x="1130.1" y="94.46" width="43.47" height="20.59"/>
    <rect class="cls-1" x="1173.49" y="94.46" width="43.47" height="20.59"/>
    <rect class="cls-1" x="1216.89" y="94.46" width="43.47" height="20.59"/>
    <rect class="cls-1" x="1260.28" y="94.46" width="43.47" height="20.59"/>
    <rect class="cls-1" x="1303.68" y="94.46" width="43.47" height="20.59"/>
    <rect class="cls-1" x="1347.07" y="94.46" width="43.47" height="20.59"/>
    <rect class="cls-1" x="1390.46" y="94.46" width="43.47" height="20.59"/>
    <rect class="cls-1" x="1433.86" y="94.46" width="43.47" height="20.59"/>
    <rect class="cls-1" x="1477.25" y="94.46" width="43.47" height="20.59"/>
    <rect class="cls-1" x="1520.65" y="94.46" width="43.47" height="20.59"/>
    <rect class="cls-1" x="1564.04" y="94.46" width="43.47" height="20.59"/>
    <rect class="cls-1" x="1607.44" y="94.46" width="43.47" height="20.59"/>
    <rect class="cls-1" x="1650.83" y="94.46" width="43.47" height="20.59"/>
    <rect class="cls-1" x="1694.23" y="94.46" width="43.47" height="20.59"/>
    <rect class="cls-1" x="1737.62" y="94.46" width="43.47" height="20.59"/>
    <rect class="cls-1" x="1781.02" y="94.46" width="43.47" height="20.59"/>
    <rect class="cls-1" x="1824.41" y="94.46" width="43.47" height="20.59"/>
    <rect class="cls-1" x="1867.81" y="94.46" width="43.47" height="20.59"/>
    <rect class="cls-1" x="1911.2" y="94.46" width="43.47" height="20.59"/>
    <rect class="cls-1" x="1954.6" y="94.46" width="43.47" height="20.59"/>
    <rect class="cls-1" x="1997.99" y="94.46" width="43.47" height="20.59"/>
    <rect class="cls-1" x="2041.39" y="94.46" width="43.47" height="20.59"/>
    <rect class="cls-1" x="2084.78" y="94.46" width="43.47" height="20.59"/>
    <rect class="cls-1" x="2128.18" y="94.46" width="43.47" height="20.59"/>
    <rect class="cls-1" x="2171.57" y="94.46" width="43.47" height="20.59"/>
    <rect class="cls-1" x="2214.97" y="94.46" width="43.47" height="20.59"/>
    <rect class="cls-1" x="2258.36" y="94.46" width="43.47" height="20.59"/>
    <rect class="cls-1" x="2301.76" y="94.46" width="43.47" height="20.59"/>
    <rect class="cls-1" x="2345.15" y="94.46" width="43.47" height="20.59"/>
    <rect class="cls-1" x="2388.55" y="94.46" width="43.47" height="20.59"/>
    <rect class="cls-1" x="2431.94" y="94.46" width="43.47" height="20.59"/>
    <rect class="cls-1" x="2475.34" y="94.46" width="43.47" height="20.59"/>
    <rect class="cls-1" x="1.58" y="73.84" width="22.02" height="20.59"/>
    <rect class="cls-1" x="23.53" y="73.84" width="43.47" height="20.59"/>
    <rect class="cls-1" x="66.92" y="73.84" width="43.47" height="20.59"/>
    <rect class="cls-1" x="110.31" y="73.84" width="43.47" height="20.59"/>
    <rect class="cls-1" x="153.71" y="73.84" width="43.47" height="20.59"/>
    <rect class="cls-1" x="197.1" y="73.84" width="43.47" height="20.59"/>
    <rect class="cls-1" x="240.5" y="73.84" width="43.47" height="20.59"/>
    <rect class="cls-1" x="283.89" y="73.84" width="43.47" height="20.59"/>
    <rect class="cls-1" x="327.29" y="73.84" width="43.47" height="20.59"/>
    <rect class="cls-1" x="370.68" y="73.84" width="43.47" height="20.59"/>
    <rect class="cls-1" x="414.08" y="73.84" width="43.47" height="20.59"/>
    <rect class="cls-1" x="457.47" y="73.84" width="43.47" height="20.59"/>
    <rect class="cls-1" x="500.87" y="73.84" width="43.47" height="20.59"/>
    <rect class="cls-1" x="544.26" y="73.84" width="43.47" height="20.59"/>
    <rect class="cls-1" x="587.66" y="73.84" width="43.47" height="20.59"/>
    <rect class="cls-1" x="631.05" y="73.84" width="43.47" height="20.59"/>
    <rect class="cls-1" x="674.45" y="73.84" width="43.47" height="20.59"/>
    <rect class="cls-1" x="717.84" y="73.84" width="43.47" height="20.59"/>
    <rect class="cls-1" x="761.24" y="73.84" width="43.47" height="20.59"/>
    <rect class="cls-1" x="804.63" y="73.84" width="43.47" height="20.59"/>
    <rect class="cls-1" x="848.03" y="73.84" width="43.47" height="20.59"/>
    <rect class="cls-1" x="891.42" y="73.84" width="43.47" height="20.59"/>
    <rect class="cls-1" x="934.82" y="73.84" width="43.47" height="20.59"/>
    <rect class="cls-1" x="978.21" y="73.84" width="43.47" height="20.59"/>
    <rect class="cls-1" x="1021.61" y="73.84" width="43.47" height="20.59"/>
    <rect class="cls-1" x="1065" y="73.84" width="43.47" height="20.59"/>
    <rect class="cls-1" x="1108.4" y="73.84" width="43.47" height="20.59"/>
    <rect class="cls-1" x="1151.79" y="73.84" width="43.47" height="20.59"/>
    <rect class="cls-1" x="1195.19" y="73.84" width="43.47" height="20.59"/>
    <rect class="cls-1" x="1238.58" y="73.84" width="43.47" height="20.59"/>
    <rect class="cls-1" x="1281.98" y="73.84" width="43.47" height="20.59"/>
    <rect class="cls-1" x="1325.37" y="73.84" width="43.47" height="20.59"/>
    <rect class="cls-1" x="1368.77" y="73.84" width="43.47" height="20.59"/>
    <rect class="cls-1" x="1412.16" y="73.84" width="43.47" height="20.59"/>
    <rect class="cls-1" x="1455.56" y="73.84" width="43.47" height="20.59"/>
    <rect class="cls-1" x="1498.95" y="73.84" width="43.47" height="20.59"/>
    <rect class="cls-1" x="1542.35" y="73.84" width="43.47" height="20.59"/>
    <rect class="cls-1" x="1585.74" y="73.84" width="43.47" height="20.59"/>
    <rect class="cls-1" x="1629.14" y="73.84" width="43.47" height="20.59"/>
    <rect class="cls-1" x="1672.53" y="73.84" width="43.47" height="20.59"/>
    <rect class="cls-1" x="1715.93" y="73.84" width="43.47" height="20.59"/>
    <rect class="cls-1" x="1759.32" y="73.84" width="43.47" height="20.59"/>
    <rect class="cls-1" x="1802.72" y="73.84" width="43.47" height="20.59"/>
    <rect class="cls-1" x="1846.11" y="73.84" width="43.47" height="20.59"/>
    <rect class="cls-1" x="1889.51" y="73.84" width="43.47" height="20.59"/>
    <rect class="cls-1" x="1932.9" y="73.84" width="43.47" height="20.59"/>
    <rect class="cls-1" x="1976.3" y="73.84" width="43.47" height="20.59"/>
    <rect class="cls-1" x="2019.69" y="73.84" width="43.47" height="20.59"/>
    <rect class="cls-1" x="2063.09" y="73.84" width="43.47" height="20.59"/>
    <rect class="cls-1" x="2106.48" y="73.84" width="43.47" height="20.59"/>
    <rect class="cls-1" x="2149.88" y="73.84" width="43.47" height="20.59"/>
    <rect class="cls-1" x="2193.27" y="73.84" width="43.47" height="20.59"/>
    <rect class="cls-1" x="2236.67" y="73.84" width="43.47" height="20.59"/>
    <rect class="cls-1" x="2280.06" y="73.84" width="43.47" height="20.59"/>
    <rect class="cls-1" x="2323.46" y="73.84" width="43.47" height="20.59"/>
    <rect class="cls-1" x="2366.85" y="73.84" width="43.47" height="20.59"/>
    <rect class="cls-1" x="2410.25" y="73.84" width="43.47" height="20.59"/>
    <rect class="cls-1" x="2453.64" y="73.84" width="43.47" height="20.59"/>
    <rect class="cls-1" x="1.83" y="135.89" width="43.47" height="20.59"/>
    <rect class="cls-1" x="45.22" y="135.89" width="43.47" height="20.59"/>
    <rect class="cls-1" x="88.62" y="135.89" width="43.47" height="20.59"/>
    <rect class="cls-1" x="132.01" y="135.89" width="43.47" height="20.59"/>
    <rect class="cls-1" x="175.41" y="135.89" width="43.47" height="20.59"/>
    <rect class="cls-1" x="218.8" y="135.89" width="43.47" height="20.59"/>
    <rect class="cls-1" x="262.2" y="135.89" width="43.47" height="20.59"/>
    <rect class="cls-1" x="305.59" y="135.89" width="43.47" height="20.59"/>
    <rect class="cls-1" x="348.99" y="135.89" width="43.47" height="20.59"/>
    <rect class="cls-1" x="392.38" y="135.89" width="43.47" height="20.59"/>
    <rect class="cls-1" x="435.78" y="135.89" width="43.47" height="20.59"/>
    <rect class="cls-1" x="479.17" y="135.89" width="43.47" height="20.59"/>
    <rect class="cls-1" x="522.57" y="135.89" width="43.47" height="20.59"/>
    <rect class="cls-1" x="565.96" y="135.89" width="43.47" height="20.59"/>
    <rect class="cls-1" x="609.36" y="135.89" width="43.47" height="20.59"/>
    <rect class="cls-1" x="652.75" y="135.89" width="43.47" height="20.59"/>
    <rect class="cls-1" x="696.15" y="135.89" width="43.47" height="20.59"/>
    <rect class="cls-1" x="739.54" y="135.89" width="43.47" height="20.59"/>
    <rect class="cls-1" x="782.94" y="135.89" width="43.47" height="20.59"/>
    <rect class="cls-1" x="826.33" y="135.89" width="43.47" height="20.59"/>
    <rect class="cls-1" x="869.73" y="135.89" width="43.47" height="20.59"/>
    <rect class="cls-1" x="913.12" y="135.89" width="43.47" height="20.59"/>
    <rect class="cls-1" x="956.52" y="135.89" width="43.47" height="20.59"/>
    <rect class="cls-1" x="999.91" y="135.89" width="43.47" height="20.59"/>
    <rect class="cls-1" x="1043.31" y="135.89" width="43.47" height="20.59"/>
    <rect class="cls-1" x="1086.7" y="135.89" width="43.47" height="20.59"/>
    <rect class="cls-1" x="1130.1" y="135.89" width="43.47" height="20.59"/>
    <rect class="cls-1" x="1173.49" y="135.89" width="43.47" height="20.59"/>
    <rect class="cls-1" x="1216.89" y="135.89" width="43.47" height="20.59"/>
    <rect class="cls-1" x="1260.28" y="135.89" width="43.47" height="20.59"/>
    <rect class="cls-1" x="1303.68" y="135.89" width="43.47" height="20.59"/>
    <rect class="cls-1" x="1347.07" y="135.89" width="43.47" height="20.59"/>
    <rect class="cls-1" x="1390.46" y="135.89" width="43.47" height="20.59"/>
    <rect class="cls-1" x="1433.86" y="135.89" width="43.47" height="20.59"/>
    <rect class="cls-1" x="1477.25" y="135.89" width="43.47" height="20.59"/>
    <rect class="cls-1" x="1520.65" y="135.89" width="43.47" height="20.59"/>
    <rect class="cls-1" x="1564.04" y="135.89" width="43.47" height="20.59"/>
    <rect class="cls-1" x="1607.44" y="135.89" width="43.47" height="20.59"/>
    <rect class="cls-1" x="1650.83" y="135.89" width="43.47" height="20.59"/>
    <rect class="cls-1" x="1694.23" y="135.89" width="43.47" height="20.59"/>
    <rect class="cls-1" x="1737.62" y="135.89" width="43.47" height="20.59"/>
    <rect class="cls-1" x="1781.02" y="135.89" width="43.47" height="20.59"/>
    <rect class="cls-1" x="1824.41" y="135.89" width="43.47" height="20.59"/>
    <rect class="cls-1" x="1867.81" y="135.89" width="43.47" height="20.59"/>
    <rect class="cls-1" x="1911.2" y="135.89" width="43.47" height="20.59"/>
    <rect class="cls-1" x="1954.6" y="135.89" width="43.47" height="20.59"/>
    <rect class="cls-1" x="1997.99" y="135.89" width="43.47" height="20.59"/>
    <rect class="cls-1" x="2041.39" y="135.89" width="43.47" height="20.59"/>
    <rect class="cls-1" x="2084.78" y="135.89" width="43.47" height="20.59"/>
    <rect class="cls-1" x="2128.18" y="135.89" width="43.47" height="20.59"/>
    <rect class="cls-1" x="2171.57" y="135.89" width="43.47" height="20.59"/>
    <rect class="cls-1" x="2214.97" y="135.89" width="43.47" height="20.59"/>
    <rect class="cls-1" x="2258.36" y="135.89" width="43.47" height="20.59"/>
    <rect class="cls-1" x="2301.76" y="135.89" width="43.47" height="20.59"/>
    <rect class="cls-1" x="2345.15" y="135.89" width="43.47" height="20.59"/>
    <rect class="cls-1" x="2388.55" y="135.89" width="43.47" height="20.59"/>
    <rect class="cls-1" x="2431.94" y="135.89" width="43.47" height="20.59"/>
    <rect class="cls-1" x="2475.34" y="135.89" width="43.47" height="20.59"/>
    <rect class="cls-1" x="2.02" y="115.27" width="21.58" height="20.59"/>
    <rect class="cls-1" x="23.53" y="115.27" width="43.47" height="20.59"/>
    <rect class="cls-1" x="66.92" y="115.27" width="43.47" height="20.59"/>
    <rect class="cls-1" x="110.31" y="115.27" width="43.47" height="20.59"/>
    <rect class="cls-1" x="153.71" y="115.27" width="43.47" height="20.59"/>
    <rect class="cls-1" x="197.1" y="115.27" width="43.47" height="20.59"/>
    <rect class="cls-1" x="240.5" y="115.27" width="43.47" height="20.59"/>
    <rect class="cls-1" x="283.89" y="115.27" width="43.47" height="20.59"/>
    <rect class="cls-1" x="327.29" y="115.27" width="43.47" height="20.59"/>
    <rect class="cls-1" x="370.68" y="115.27" width="43.47" height="20.59"/>
    <rect class="cls-1" x="414.08" y="115.27" width="43.47" height="20.59"/>
    <rect class="cls-1" x="457.47" y="115.27" width="43.47" height="20.59"/>
    <rect class="cls-1" x="500.87" y="115.27" width="43.47" height="20.59"/>
    <rect class="cls-1" x="544.26" y="115.27" width="43.47" height="20.59"/>
    <rect class="cls-1" x="587.66" y="115.27" width="43.47" height="20.59"/>
    <rect class="cls-1" x="631.05" y="115.27" width="43.47" height="20.59"/>
    <rect class="cls-1" x="674.45" y="115.27" width="43.47" height="20.59"/>
    <rect class="cls-1" x="717.84" y="115.27" width="43.47" height="20.59"/>
    <rect class="cls-1" x="761.24" y="115.27" width="43.47" height="20.59"/>
    <rect class="cls-1" x="804.63" y="115.27" width="43.47" height="20.59"/>
    <rect class="cls-1" x="848.03" y="115.27" width="43.47" height="20.59"/>
    <rect class="cls-1" x="891.42" y="115.27" width="43.47" height="20.59"/>
    <rect class="cls-1" x="934.82" y="115.27" width="43.47" height="20.59"/>
    <rect class="cls-1" x="978.21" y="115.27" width="43.47" height="20.59"/>
    <rect class="cls-1" x="1021.61" y="115.27" width="43.47" height="20.59"/>
    <rect class="cls-1" x="1065" y="115.27" width="43.47" height="20.59"/>
    <rect class="cls-1" x="1108.4" y="115.27" width="43.47" height="20.59"/>
    <rect class="cls-1" x="1151.79" y="115.27" width="43.47" height="20.59"/>
    <rect class="cls-1" x="1195.19" y="115.27" width="43.47" height="20.59"/>
    <rect class="cls-1" x="1238.58" y="115.27" width="43.47" height="20.59"/>
    <rect class="cls-1" x="1281.98" y="115.27" width="43.47" height="20.59"/>
    <rect class="cls-1" x="1325.37" y="115.27" width="43.47" height="20.59"/>
    <rect class="cls-1" x="1368.77" y="115.27" width="43.47" height="20.59"/>
    <rect class="cls-1" x="1412.16" y="115.27" width="43.47" height="20.59"/>
    <rect class="cls-1" x="1455.56" y="115.27" width="43.47" height="20.59"/>
    <rect class="cls-1" x="1498.95" y="115.27" width="43.47" height="20.59"/>
    <rect class="cls-1" x="1542.35" y="115.27" width="43.47" height="20.59"/>
    <rect class="cls-1" x="1585.74" y="115.27" width="43.47" height="20.59"/>
    <rect class="cls-1" x="1629.14" y="115.27" width="43.47" height="20.59"/>
    <rect class="cls-1" x="1672.53" y="115.27" width="43.47" height="20.59"/>
    <rect class="cls-1" x="1715.93" y="115.27" width="43.47" height="20.59"/>
    <rect class="cls-1" x="1759.32" y="115.27" width="43.47" height="20.59"/>
    <rect class="cls-1" x="1802.72" y="115.27" width="43.47" height="20.59"/>
    <rect class="cls-1" x="1846.11" y="115.27" width="43.47" height="20.59"/>
    <rect class="cls-1" x="1889.51" y="115.27" width="43.47" height="20.59"/>
    <rect class="cls-1" x="1932.9" y="115.27" width="43.47" height="20.59"/>
    <rect class="cls-1" x="1976.3" y="115.27" width="43.47" height="20.59"/>
    <rect class="cls-1" x="2019.69" y="115.27" width="43.47" height="20.59"/>
    <rect class="cls-1" x="2063.09" y="115.27" width="43.47" height="20.59"/>
    <rect class="cls-1" x="2106.48" y="115.27" width="43.47" height="20.59"/>
    <rect class="cls-1" x="2149.88" y="115.27" width="43.47" height="20.59"/>
    <rect class="cls-1" x="2193.27" y="115.27" width="43.47" height="20.59"/>
    <rect class="cls-1" x="2236.67" y="115.27" width="43.47" height="20.59"/>
    <rect class="cls-1" x="2280.06" y="115.27" width="43.47" height="20.59"/>
    <rect class="cls-1" x="2323.46" y="115.27" width="43.47" height="20.59"/>
    <rect class="cls-1" x="2366.85" y="115.27" width="43.47" height="20.59"/>
    <rect class="cls-1" x="2410.25" y="115.27" width="43.47" height="20.59"/>
    <rect class="cls-1" x="2453.64" y="115.27" width="43.47" height="20.59"/>
    <rect class="cls-1" x="2497.04" y="115.27" width="43.47" height="20.59"/>
    <rect class="cls-1" x="1.88" y="156.45" width="21.72" height="20.59"/>
    <rect class="cls-1" x="23.53" y="156.45" width="43.47" height="20.59"/>
    <rect class="cls-1" x="66.92" y="156.45" width="43.47" height="20.59"/>
    <rect class="cls-1" x="110.31" y="156.45" width="43.47" height="20.59"/>
    <rect class="cls-1" x="153.71" y="156.45" width="43.47" height="20.59"/>
    <rect class="cls-1" x="197.1" y="156.45" width="43.47" height="20.59"/>
    <rect class="cls-1" x="240.5" y="156.45" width="43.47" height="20.59"/>
    <rect class="cls-1" x="283.89" y="156.45" width="43.47" height="20.59"/>
    <rect class="cls-1" x="327.29" y="156.45" width="43.47" height="20.59"/>
    <rect class="cls-1" x="370.68" y="156.45" width="43.47" height="20.59"/>
    <rect class="cls-1" x="414.08" y="156.45" width="43.47" height="20.59"/>
    <rect class="cls-1" x="457.47" y="156.45" width="43.47" height="20.59"/>
    <rect class="cls-1" x="500.87" y="156.45" width="43.47" height="20.59"/>
    <rect class="cls-1" x="544.26" y="156.45" width="43.47" height="20.59"/>
    <rect class="cls-1" x="587.66" y="156.45" width="43.47" height="20.59"/>
    <rect class="cls-1" x="631.05" y="156.45" width="43.47" height="20.59"/>
    <rect class="cls-1" x="674.45" y="156.45" width="43.47" height="20.59"/>
    <rect class="cls-1" x="717.84" y="156.45" width="43.47" height="20.59"/>
    <rect class="cls-1" x="761.24" y="156.45" width="43.47" height="20.59"/>
    <rect class="cls-1" x="804.63" y="156.45" width="43.47" height="20.59"/>
    <rect class="cls-1" x="848.03" y="156.45" width="43.47" height="20.59"/>
    <rect class="cls-1" x="891.42" y="156.45" width="43.47" height="20.59"/>
    <rect class="cls-1" x="934.82" y="156.45" width="43.47" height="20.59"/>
    <rect class="cls-1" x="978.21" y="156.45" width="43.47" height="20.59"/>
    <rect class="cls-1" x="1021.61" y="156.45" width="43.47" height="20.59"/>
    <rect class="cls-1" x="1065" y="156.45" width="43.47" height="20.59"/>
    <rect class="cls-1" x="1108.4" y="156.45" width="43.47" height="20.59"/>
    <rect class="cls-1" x="1151.79" y="156.45" width="43.47" height="20.59"/>
    <rect class="cls-1" x="1195.19" y="156.45" width="43.47" height="20.59"/>
    <rect class="cls-1" x="1238.58" y="156.45" width="43.47" height="20.59"/>
    <rect class="cls-1" x="1281.98" y="156.45" width="43.47" height="20.59"/>
    <rect class="cls-1" x="1325.37" y="156.45" width="43.47" height="20.59"/>
    <rect class="cls-1" x="1368.77" y="156.45" width="43.47" height="20.59"/>
    <rect class="cls-1" x="1412.16" y="156.45" width="43.47" height="20.59"/>
    <rect class="cls-1" x="1455.56" y="156.45" width="43.47" height="20.59"/>
    <rect class="cls-1" x="1498.95" y="156.45" width="43.47" height="20.59"/>
    <rect class="cls-1" x="1542.35" y="156.45" width="43.47" height="20.59"/>
    <rect class="cls-1" x="1585.74" y="156.45" width="43.47" height="20.59"/>
    <rect class="cls-1" x="1629.14" y="156.45" width="43.47" height="20.59"/>
    <rect class="cls-1" x="1672.53" y="156.45" width="43.47" height="20.59"/>
    <rect class="cls-1" x="1715.93" y="156.45" width="43.47" height="20.59"/>
    <rect class="cls-1" x="1759.32" y="156.45" width="43.47" height="20.59"/>
    <rect class="cls-1" x="1802.72" y="156.45" width="43.47" height="20.59"/>
    <rect class="cls-1" x="1846.11" y="156.45" width="43.47" height="20.59"/>
    <rect class="cls-1" x="1889.51" y="156.45" width="43.47" height="20.59"/>
    <rect class="cls-1" x="1932.9" y="156.45" width="43.47" height="20.59"/>
    <rect class="cls-1" x="1976.3" y="156.45" width="43.47" height="20.59"/>
    <rect class="cls-1" x="2019.69" y="156.45" width="43.47" height="20.59"/>
    <rect class="cls-1" x="2063.09" y="156.45" width="43.47" height="20.59"/>
    <rect class="cls-1" x="2106.48" y="156.45" width="43.47" height="20.59"/>
    <rect class="cls-1" x="2149.88" y="156.45" width="43.47" height="20.59"/>
    <rect class="cls-1" x="2193.27" y="156.45" width="43.47" height="20.59"/>
    <rect class="cls-1" x="2236.67" y="156.45" width="43.47" height="20.59"/>
    <rect class="cls-1" x="2280.06" y="156.45" width="43.47" height="20.59"/>
    <rect class="cls-1" x="2323.46" y="156.45" width="43.47" height="20.59"/>
    <rect class="cls-1" x="2366.85" y="156.45" width="43.47" height="20.59"/>
    <rect class="cls-1" x="2410.25" y="156.45" width="43.47" height="20.59"/>
    <rect class="cls-1" x="2453.64" y="156.45" width="43.47" height="20.59"/>
    <rect class="cls-1" x="2497.04" y="156.45" width="43.47" height="20.59"/>
  </g>
  <g>
    <rect class="cls-2" x="0.54" y="0.5" width="29.74" height="23.22"/>
    <rect class="cls-2" x="30.52" y="0.5" width="49.03" height="23.22"/>
    <rect class="cls-2" x="79.49" y="0.5" width="49.03" height="23.22"/>
    <rect class="cls-2" x="128.52" y="0.5" width="49.03" height="23.22"/>
    <rect class="cls-2" x="177.83" y="0.5" width="49.03" height="23.22"/>
    <rect class="cls-2" x="226.99" y="0.5" width="49.03" height="23.22"/>
    <rect class="cls-2" x="276.16" y="0.5" width="49.03" height="23.22"/>
    <rect class="cls-2" x="325.33" y="0.5" width="49.03" height="23.22"/>
    <rect class="cls-2" x="374.5" y="0.5" width="49.03" height="23.22"/>
    <rect class="cls-2" x="423.67" y="0.5" width="49.03" height="23.22"/>
    <rect class="cls-2" x="472.84" y="0.5" width="49.03" height="23.22"/>
    <rect class="cls-2" x="522" y="0.5" width="49.03" height="23.22"/>
    <rect class="cls-2" x="571.17" y="0.5" width="49.03" height="23.22"/>
    <rect class="cls-2" x="620.34" y="0.5" width="49.03" height="23.22"/>
    <rect class="cls-2" x="669.51" y="0.5" width="49.03" height="23.22"/>
    <rect class="cls-2" x="718.68" y="0.5" width="49.03" height="23.22"/>
    <rect class="cls-2" x="767.85" y="0.5" width="49.03" height="23.22"/>
    <rect class="cls-2" x="817.01" y="0.5" width="49.03" height="23.22"/>
    <rect class="cls-2" x="866.18" y="0.5" width="49.03" height="23.22"/>
    <rect class="cls-2" x="915.35" y="0.5" width="49.03" height="23.22"/>
    <rect class="cls-2" x="964.39" y="0.5" width="49.03" height="23.22"/>
    <rect class="cls-2" x="1013.69" y="0.5" width="49.03" height="23.22"/>
    <rect class="cls-2" x="1062.86" y="0.5" width="49.03" height="23.22"/>
    <rect class="cls-2" x="1112.03" y="0.5" width="49.03" height="23.22"/>
    <rect class="cls-2" x="1161.19" y="0.5" width="49.03" height="23.22"/>
    <rect class="cls-2" x="1210.36" y="0.5" width="49.03" height="23.22"/>
    <rect class="cls-2" x="1259.53" y="0.5" width="49.03" height="23.22"/>
    <rect class="cls-2" x="1308.7" y="0.5" width="49.03" height="23.22"/>
    <rect class="cls-2" x="1357.87" y="0.5" width="49.03" height="23.22"/>
    <rect class="cls-2" x="1406.9" y="0.5" width="49.03" height="23.22"/>
    <rect class="cls-2" x="1456.2" y="0.5" width="49.03" height="23.22"/>
    <rect class="cls-2" x="1505.37" y="0.5" width="49.03" height="23.22"/>
    <rect class="cls-2" x="1554.54" y="0.5" width="49.03" height="23.22"/>
    <rect class="cls-2" x="1603.71" y="0.5" width="49.03" height="23.22"/>
    <rect class="cls-2" x="1652.88" y="0.5" width="49.03" height="23.22"/>
    <rect class="cls-2" x="1702.05" y="0.5" width="49.03" height="23.22"/>
    <rect class="cls-2" x="1751.21" y="0.5" width="49.03" height="23.22"/>
    <rect class="cls-2" x="1800.38" y="0.5" width="49.03" height="23.22"/>
    <rect class="cls-2" x="1849.42" y="0.5" width="49.03" height="23.22"/>
    <rect class="cls-2" x="1898.72" y="0.5" width="49.03" height="23.22"/>
    <rect class="cls-2" x="1947.89" y="0.5" width="49.03" height="23.22"/>
    <rect class="cls-2" x="1997.06" y="0.5" width="49.03" height="23.22"/>
    <rect class="cls-2" x="2046.23" y="0.5" width="49.03" height="23.22"/>
    <rect class="cls-2" x="2095.39" y="0.5" width="49.03" height="23.22"/>
    <rect class="cls-2" x="2144.56" y="0.5" width="49.03" height="23.22"/>
    <rect class="cls-2" x="2193.73" y="0.5" width="49.03" height="23.22"/>
    <rect class="cls-2" x="2242.9" y="0.5" width="49.03" height="23.22"/>
    <rect class="cls-2" x="2292.07" y="0.5" width="49.03" height="23.22"/>
    <rect class="cls-2" x="2341.24" y="0.5" width="49.03" height="23.22"/>
    <rect class="cls-2" x="2390.4" y="0.5" width="49.03" height="23.22"/>
    <rect class="cls-2" x="2439.57" y="0.5" width="49.03" height="23.22"/>
    <rect class="cls-2" x="2488.74" y="0.5" width="49.03" height="23.22"/>
    <rect class="cls-2" x="2537.76" y="0.5" width="24.68" height="23.22"/>
    <rect class="cls-2" x="0.56" y="23.79" width="5.32" height="23.22"/>
    <rect class="cls-2" x="5.73" y="23.79" width="49.03" height="23.22"/>
    <rect class="cls-2" x="54.9" y="23.79" width="49.03" height="23.22"/>
    <rect class="cls-2" x="103.93" y="23.79" width="49.03" height="23.22"/>
    <rect class="cls-2" x="153.23" y="23.79" width="49.03" height="23.22"/>
    <rect class="cls-2" x="202.4" y="23.79" width="49.03" height="23.22"/>
    <rect class="cls-2" x="251.57" y="23.79" width="49.03" height="23.22"/>
    <rect class="cls-2" x="300.74" y="23.79" width="49.03" height="23.22"/>
    <rect class="cls-2" x="349.91" y="23.79" width="49.03" height="23.22"/>
    <rect class="cls-2" x="399.07" y="23.79" width="49.03" height="23.22"/>
    <rect class="cls-2" x="448.24" y="23.79" width="49.03" height="23.22"/>
    <rect class="cls-2" x="497.41" y="23.79" width="49.03" height="23.22"/>
    <rect class="cls-2" x="546.45" y="23.79" width="49.03" height="23.22"/>
    <rect class="cls-2" x="595.75" y="23.79" width="49.03" height="23.22"/>
    <rect class="cls-2" x="644.92" y="23.79" width="49.03" height="23.22"/>
    <rect class="cls-2" x="694.08" y="23.79" width="49.03" height="23.22"/>
    <rect class="cls-2" x="743.25" y="23.79" width="49.03" height="23.22"/>
    <rect class="cls-2" x="792.42" y="23.79" width="49.03" height="23.22"/>
    <rect class="cls-2" x="841.59" y="23.79" width="49.03" height="23.22"/>
    <rect class="cls-2" x="890.76" y="23.79" width="49.03" height="23.22"/>
    <rect class="cls-2" x="939.93" y="23.79" width="49.03" height="23.22"/>
    <rect class="cls-2" x="988.96" y="23.79" width="49.03" height="23.22"/>
    <rect class="cls-2" x="1038.26" y="23.79" width="49.03" height="23.22"/>
    <rect class="cls-2" x="1087.43" y="23.79" width="49.03" height="23.22"/>
    <rect class="cls-2" x="1136.6" y="23.79" width="49.03" height="23.22"/>
    <rect class="cls-2" x="1185.77" y="23.79" width="49.03" height="23.22"/>
    <rect class="cls-2" x="1234.94" y="23.79" width="49.03" height="23.22"/>
    <rect class="cls-2" x="1284.11" y="23.79" width="49.03" height="23.22"/>
    <rect class="cls-2" x="1333.27" y="23.79" width="49.03" height="23.22"/>
    <rect class="cls-2" x="1382.44" y="23.79" width="49.03" height="23.22"/>
    <rect class="cls-2" x="1431.61" y="23.79" width="49.03" height="23.22"/>
    <rect class="cls-2" x="1480.78" y="23.79" width="49.03" height="23.22"/>
    <rect class="cls-2" x="1529.95" y="23.79" width="49.03" height="23.22"/>
    <rect class="cls-2" x="1579.12" y="23.79" width="49.03" height="23.22"/>
    <rect class="cls-2" x="1628.28" y="23.79" width="49.03" height="23.22"/>
    <rect class="cls-2" x="1677.45" y="23.79" width="49.03" height="23.22"/>
    <rect class="cls-2" x="1726.62" y="23.79" width="49.03" height="23.22"/>
    <rect class="cls-2" x="1775.79" y="23.79" width="49.03" height="23.22"/>
    <rect class="cls-2" x="1824.82" y="23.79" width="49.03" height="23.22"/>
    <rect class="cls-2" x="1874.13" y="23.79" width="49.03" height="23.22"/>
    <rect class="cls-2" x="1923.29" y="23.79" width="49.03" height="23.22"/>
    <rect class="cls-2" x="1972.46" y="23.79" width="49.03" height="23.22"/>
    <rect class="cls-2" x="2021.63" y="23.79" width="49.03" height="23.22"/>
    <rect class="cls-2" x="2070.8" y="23.79" width="49.03" height="23.22"/>
    <rect class="cls-2" x="2119.97" y="23.79" width="49.03" height="23.22"/>
    <rect class="cls-2" x="2169.14" y="23.79" width="49.03" height="23.22"/>
    <rect class="cls-2" x="2218.31" y="23.79" width="49.03" height="23.22"/>
    <rect class="cls-2" x="2267.34" y="23.79" width="49.03" height="23.22"/>
    <rect class="cls-2" x="2316.64" y="23.79" width="49.03" height="23.22"/>
    <rect class="cls-2" x="2365.81" y="23.79" width="49.03" height="23.22"/>
    <rect class="cls-2" x="2414.98" y="23.79" width="49.03" height="23.22"/>
    <rect class="cls-2" x="2464.15" y="23.79" width="49.03" height="23.22"/>
    <rect class="cls-2" x="2513.23" y="23.79" width="49.22" height="23.22"/>
    <rect class="cls-2" x="0.53" y="46.92" width="29.57" height="23.22"/>
    <rect class="cls-2" x="30.32" y="46.92" width="49.03" height="23.22"/>
    <rect class="cls-2" x="79.49" y="46.92" width="49.03" height="23.22"/>
    <rect class="cls-2" x="128.66" y="46.92" width="49.03" height="23.22"/>
    <rect class="cls-2" x="177.83" y="46.92" width="49.03" height="23.22"/>
    <rect class="cls-2" x="226.99" y="46.92" width="49.03" height="23.22"/>
    <rect class="cls-2" x="276.16" y="46.92" width="49.03" height="23.22"/>
    <rect class="cls-2" x="325.33" y="46.92" width="49.03" height="23.22"/>
    <rect class="cls-2" x="374.5" y="46.92" width="49.03" height="23.22"/>
    <rect class="cls-2" x="423.67" y="46.92" width="49.03" height="23.22"/>
    <rect class="cls-2" x="472.84" y="46.92" width="49.03" height="23.22"/>
    <rect class="cls-2" x="522" y="46.92" width="49.03" height="23.22"/>
    <rect class="cls-2" x="571.17" y="46.92" width="49.03" height="23.22"/>
    <rect class="cls-2" x="620.34" y="46.92" width="49.03" height="23.22"/>
    <rect class="cls-2" x="669.51" y="46.92" width="49.03" height="23.22"/>
    <rect class="cls-2" x="718.68" y="46.92" width="49.03" height="23.22"/>
    <rect class="cls-2" x="767.85" y="46.92" width="49.03" height="23.22"/>
    <rect class="cls-2" x="817.01" y="46.92" width="49.03" height="23.22"/>
    <rect class="cls-2" x="866.18" y="46.92" width="49.03" height="23.22"/>
    <rect class="cls-2" x="915.35" y="46.92" width="49.03" height="23.22"/>
    <rect class="cls-2" x="964.39" y="46.92" width="49.03" height="23.22"/>
    <rect class="cls-2" x="1013.69" y="46.92" width="49.03" height="23.22"/>
    <rect class="cls-2" x="1062.86" y="46.92" width="49.03" height="23.22"/>
    <rect class="cls-2" x="1112.03" y="46.92" width="49.03" height="23.22"/>
    <rect class="cls-2" x="1161.19" y="46.92" width="49.03" height="23.22"/>
    <rect class="cls-2" x="1210.36" y="46.92" width="49.03" height="23.22"/>
    <rect class="cls-2" x="1259.53" y="46.92" width="49.03" height="23.22"/>
    <rect class="cls-2" x="1308.7" y="46.92" width="49.03" height="23.22"/>
    <rect class="cls-2" x="1357.87" y="46.92" width="49.03" height="23.22"/>
    <rect class="cls-2" x="1407.04" y="46.92" width="49.03" height="23.22"/>
    <rect class="cls-2" x="1456.2" y="46.92" width="49.03" height="23.22"/>
    <rect class="cls-2" x="1505.37" y="46.92" width="49.03" height="23.22"/>
    <rect class="cls-2" x="1554.54" y="46.92" width="49.03" height="23.22"/>
    <rect class="cls-2" x="1603.71" y="46.92" width="49.03" height="23.22"/>
    <rect class="cls-2" x="1652.88" y="46.92" width="49.03" height="23.22"/>
    <rect class="cls-2" x="1702.05" y="46.92" width="49.03" height="23.22"/>
    <rect class="cls-2" x="1751.21" y="46.92" width="49.03" height="23.22"/>
    <rect class="cls-2" x="1800.38" y="46.92" width="49.03" height="23.22"/>
    <rect class="cls-2" x="1849.42" y="46.92" width="49.03" height="23.22"/>
    <rect class="cls-2" x="1898.72" y="46.92" width="49.03" height="23.22"/>
    <rect class="cls-2" x="1947.89" y="46.92" width="49.03" height="23.22"/>
    <rect class="cls-2" x="1997.06" y="46.92" width="49.03" height="23.22"/>
    <rect class="cls-2" x="2046.23" y="46.92" width="49.03" height="23.22"/>
    <rect class="cls-2" x="2095.39" y="46.92" width="49.03" height="23.22"/>
    <rect class="cls-2" x="2144.56" y="46.92" width="49.03" height="23.22"/>
    <rect class="cls-2" x="2193.73" y="46.92" width="49.03" height="23.22"/>
    <rect class="cls-2" x="2242.9" y="46.92" width="49.03" height="23.22"/>
    <rect class="cls-2" x="2292.07" y="46.92" width="49.03" height="23.22"/>
    <rect class="cls-2" x="2341.24" y="46.92" width="49.03" height="23.22"/>
    <rect class="cls-2" x="2390.4" y="46.92" width="49.03" height="23.22"/>
    <rect class="cls-2" x="2439.57" y="46.92" width="49.03" height="23.22"/>
    <rect class="cls-2" x="2488.74" y="46.92" width="49.03" height="23.22"/>
    <rect class="cls-2" x="2537.82" y="46.92" width="24.59" height="23.22"/>
    <rect class="cls-2" x="0.51" y="70.21" width="5.27" height="23.22"/>
    <rect class="cls-2" x="5.73" y="70.21" width="49.03" height="23.22"/>
    <rect class="cls-2" x="54.9" y="70.21" width="49.03" height="23.22"/>
    <rect class="cls-2" x="153.23" y="70.21" width="49.03" height="23.22"/>
    <rect class="cls-2" x="202.4" y="70.21" width="49.03" height="23.22"/>
    <rect class="cls-2" x="251.57" y="70.21" width="49.03" height="23.22"/>
    <rect class="cls-2" x="300.74" y="70.21" width="49.03" height="23.22"/>
    <rect class="cls-2" x="448.24" y="70.21" width="49.03" height="23.22"/>
    <rect class="cls-2" x="497.54" y="70.21" width="49.03" height="23.22"/>
    <rect class="cls-2" x="546.58" y="70.21" width="49.03" height="23.22"/>
    <rect class="cls-2" x="694.08" y="70.21" width="49.03" height="23.22"/>
    <rect class="cls-2" x="743.25" y="70.21" width="49.03" height="23.22"/>
    <rect class="cls-2" x="792.42" y="70.21" width="49.03" height="23.22"/>
    <rect class="cls-2" x="939.93" y="70.21" width="49.03" height="23.22"/>
    <rect class="cls-2" x="988.96" y="70.21" width="49.03" height="23.22"/>
    <rect class="cls-2" x="1038.26" y="70.21" width="49.03" height="23.22"/>
    <rect class="cls-2" x="1185.77" y="70.21" width="49.03" height="23.22"/>
    <rect class="cls-2" x="1234.94" y="70.21" width="49.03" height="23.22"/>
    <rect class="cls-2" x="1284.11" y="70.21" width="49.03" height="23.22"/>
    <rect class="cls-2" x="1333.27" y="70.21" width="49.03" height="23.22"/>
    <rect class="cls-2" x="1431.61" y="70.21" width="49.03" height="23.22"/>
    <rect class="cls-2" x="1480.78" y="70.21" width="49.03" height="23.22"/>
    <rect class="cls-2" x="1529.95" y="70.21" width="49.03" height="23.22"/>
    <rect class="cls-2" x="1579.12" y="70.21" width="49.03" height="23.22"/>
    <rect class="cls-2" x="1677.45" y="70.21" width="49.03" height="23.22"/>
    <rect class="cls-2" x="1726.62" y="70.21" width="49.03" height="23.22"/>
    <rect class="cls-2" x="1775.79" y="70.21" width="49.03" height="23.22"/>
    <rect class="cls-2" x="1824.82" y="70.21" width="49.03" height="23.22"/>
    <rect class="cls-2" x="1972.46" y="70.21" width="49.03" height="23.22"/>
    <rect class="cls-2" x="2021.63" y="70.21" width="49.03" height="23.22"/>
    <rect class="cls-2" x="2070.8" y="70.21" width="49.03" height="23.22"/>
    <rect class="cls-2" x="2119.97" y="70.21" width="49.03" height="23.22"/>
    <rect class="cls-2" x="2169.14" y="70.21" width="49.03" height="23.22"/>
    <rect class="cls-2" x="2218.31" y="70.21" width="49.03" height="23.22"/>
    <rect class="cls-2" x="2267.34" y="70.21" width="49.03" height="23.22"/>
    <rect class="cls-2" x="2316.64" y="70.21" width="49.03" height="23.22"/>
    <rect class="cls-2" x="2464.15" y="70.21" width="49.03" height="23.22"/>
    <rect class="cls-2" x="2513.19" y="70.21" width="49.2" height="23.22"/>
    <rect class="cls-2" x="0.5" y="93.34" width="29.21" height="23.22"/>
    <rect class="cls-2" x="29.82" y="93.34" width="28.28" height="23.22"/>
    <rect class="cls-2" x="200.47" y="93.34" width="26.38" height="23.22"/>
    <rect class="cls-2" x="226.99" y="93.34" width="49.03" height="23.22"/>
    <rect class="cls-2" x="276.16" y="93.34" width="40.65" height="23.22"/>
    <rect class="cls-2" x="472.84" y="93.34" width="49.03" height="23.22"/>
    <rect class="cls-2" x="522" y="93.34" width="49.03" height="23.22"/>
    <rect class="cls-2" x="718.68" y="93.34" width="49.03" height="23.22"/>
    <rect class="cls-2" x="767.85" y="93.34" width="49.03" height="23.22"/>
    <rect class="cls-2" x="964.52" y="93.34" width="49.03" height="23.22"/>
    <rect class="cls-2" x="1013.69" y="93.34" width="49.03" height="23.22"/>
    <rect class="cls-2" x="1216.93" y="93.34" width="42.46" height="23.22"/>
    <rect class="cls-2" x="1259.53" y="93.34" width="55.63" height="23.22"/>
    <rect class="cls-2" x="1505.37" y="93.34" width="49.03" height="23.22"/>
    <rect class="cls-2" x="1554.54" y="93.34" width="49.03" height="23.22"/>
    <rect class="cls-2" x="1751.21" y="93.34" width="49.03" height="23.22"/>
    <rect class="cls-2" x="1800.38" y="93.34" width="49.03" height="23.22"/>
    <rect class="cls-2" x="1997.06" y="93.34" width="49.03" height="23.22"/>
    <rect class="cls-2" x="2046.23" y="93.34" width="49.03" height="23.22"/>
    <rect class="cls-2" x="2242.9" y="93.34" width="49.03" height="23.22"/>
    <rect class="cls-2" x="2292.07" y="93.34" width="49.03" height="23.22"/>
    <rect class="cls-2" x="2495.33" y="93.34" width="42.44" height="23.22"/>
    <rect class="cls-2" x="2537.85" y="93.34" width="24.57" height="23.22"/>
    <rect class="cls-2" x="0.51" y="116.63" width="5.28" height="23.22"/>
    <rect class="cls-2" x="5.81" y="116.63" width="25.28" height="23.22"/>
    <rect class="cls-2" x="221.57" y="116.63" width="29.86" height="23.22"/>
    <rect class="cls-2" x="251.57" y="116.63" width="49.03" height="23.22"/>
    <rect class="cls-2" x="497.41" y="116.63" width="49.03" height="23.22"/>
    <rect class="cls-2" x="743.25" y="116.63" width="49.03" height="23.22"/>
    <rect class="cls-2" x="989.09" y="116.63" width="49.03" height="23.22"/>
    <rect class="cls-2" x="1038.26" y="116.63" width="32.56" height="23.22"/>
    <rect class="cls-2" x="1234.94" y="116.63" width="49.03" height="23.22"/>
    <rect class="cls-2" x="1284.11" y="116.63" width="41.56" height="23.22"/>
    <rect class="cls-2" x="1518.69" y="116.63" width="60.29" height="23.22"/>
    <rect class="cls-2" x="1775.79" y="116.63" width="49.03" height="23.22"/>
    <rect class="cls-2" x="2021.63" y="116.63" width="49.03" height="23.22"/>
    <rect class="cls-2" x="2267.47" y="116.63" width="49.03" height="23.22"/>
    <rect class="cls-2" x="2316.64" y="116.63" width="31.97" height="23.22"/>
    <rect class="cls-2" x="2513.62" y="116.63" width="48.75" height="23.22"/>
    <rect class="cls-2" x="0.51" y="139.76" width="30.01" height="23.22"/>
    <rect class="cls-2" x="226.99" y="139.76" width="49.03" height="23.22"/>
    <rect class="cls-2" x="472.84" y="139.76" width="49.03" height="23.22"/>
    <rect class="cls-2" x="522" y="139.76" width="29.27" height="23.22"/>
    <rect class="cls-2" x="733.16" y="139.76" width="34.55" height="23.22"/>
    <rect class="cls-2" x="767.85" y="139.76" width="40.37" height="23.22"/>
    <rect class="cls-2" x="1013.69" y="139.76" width="49.03" height="23.22"/>
    <rect class="cls-2" x="1259.53" y="139.76" width="49.03" height="23.22"/>
    <rect class="cls-2" x="1505.37" y="139.76" width="49.03" height="23.22"/>
    <rect class="cls-2" x="1751.21" y="139.76" width="49.03" height="23.22"/>
    <rect class="cls-2" x="2013.92" y="139.76" width="32.17" height="23.22"/>
    <rect class="cls-2" x="2046.23" y="139.76" width="39.91" height="23.22"/>
    <rect class="cls-2" x="2292.07" y="139.76" width="49.03" height="23.22"/>
    <rect class="cls-2" x="2538.11" y="139.76" width="24.16" height="23.22"/>
    <rect class="cls-2" x="0.52" y="163.05" width="5.53" height="23.22"/>
    <rect class="cls-2" x="219.09" y="163.05" width="32.34" height="23.22"/>
    <rect class="cls-2" x="251.57" y="163.05" width="36.76" height="23.22"/>
    <rect class="cls-2" x="497.41" y="163.05" width="49.03" height="23.22"/>
    <rect class="cls-2" x="743.25" y="163.05" width="49.03" height="23.22"/>
    <rect class="cls-2" x="989.09" y="163.05" width="49.03" height="23.22"/>
    <rect class="cls-2" x="1240.74" y="163.05" width="43.22" height="23.22"/>
    <rect class="cls-2" x="1529.95" y="163.05" width="38.81" height="23.22"/>
    <rect class="cls-2" x="1775.79" y="163.05" width="49.03" height="23.22"/>
    <rect class="cls-2" x="2021.63" y="163.05" width="49.03" height="23.22"/>
    <rect class="cls-2" x="2267.47" y="163.05" width="49.03" height="23.22"/>
    <rect class="cls-2" x="2523.13" y="163.05" width="39.13" height="23.22"/>
  </g>
  <g id="Layer_5_copy" data-name="Layer 5 copy" class="cls-3">
    <g>
      <path class="cls-4" d="M750.91,121.88a128,128,0,0,0-212.82-.9A127.16,127.16,0,0,0,518.79,167c-1.16,5.74-2.47,17.63-2.47,17.63v12.26h-.05v-7h0c0-.34,0-5.23,0-5.23S515.05,173.5,514,168.1a127,127,0,0,0-18.9-46.22A128,128,0,0,0,263,167c-1.16,5.74-2.47,17.63-2.47,17.63v12.7h-.1V184.53s-1.25-11.07-2.29-16.43a127,127,0,0,0-18.9-46.22A128,128,0,0,0,7.12,167c-1.23,6.07-2.61,18.66-2.61,18.66v11.72H46.29v-8.64a87.49,87.49,0,0,1,1.61-13.45A86.3,86.3,0,0,1,116,107.77a87.37,87.37,0,0,1,33.69.14A86.34,86.34,0,0,1,217.28,176a86.69,86.69,0,0,1,1.51,13.58v7.74H219v41.93h.14l10.41,36.94h62.56l10.31-37.1h-.09V197.36h-.18v-8.13a86.24,86.24,0,0,1,69.76-81.46,87.37,87.37,0,0,1,33.69.14A86.34,86.34,0,0,1,473.16,176a86.67,86.67,0,0,1,1.48,13.09v8.23h.28v41.77h-.13l10.45,37.1H547.8l10.27-36.94h.18V196.92h-.31v-7.69a87.24,87.24,0,0,1,1.64-13.91h0a86.3,86.3,0,0,1,68.13-67.55,87.37,87.37,0,0,1,33.69.14A86.34,86.34,0,0,1,729,176l40.85-7.94A127.15,127.15,0,0,0,750.91,121.88Z" transform="translate(-2.69 0.12)"/>
      <path class="cls-4" d="M2051.06,197.36v-7.47h0c0-.34,0-5.23,0-5.23s-1.22-11.16-2.26-16.56a128,128,0,0,0-100.12-101,129.78,129.78,0,0,0-49.93-.21,127.91,127.91,0,0,0-101,100.12c-1.16,5.74-2.48,17.63-2.48,17.63v12.59h0v-7.36h0c0-.34,0-5.23,0-5.23S1794,173.5,1793,168.1a127.15,127.15,0,0,0-18.9-46.22,128.29,128.29,0,0,0-131.14-55A128,128,0,0,0,1542,167c-1.16,5.74-2.47,17.63-2.47,17.63v12.59h0v-7.36h0c0-.34,0-5.23,0-5.23s-1.21-11.16-2.26-16.56a127,127,0,0,0-18.9-46.22A128,128,0,0,0,1286.18,167c-1.16,5.74-2.47,17.63-2.47,17.63v12.59h0v-7.36h0c0-.34,0-5.23,0-5.23s-1.22-11.16-2.27-16.56a127,127,0,0,0-18.9-46.22A128,128,0,0,0,1030.39,167c-1.16,5.74-2.48,17.63-2.48,17.63v12.59h0v-7.36h0c0-.34,0-5.23,0-5.23s-1.22-11.16-2.26-16.56a128,128,0,0,0-100.12-101,129.78,129.78,0,0,0-49.93-.21A127.91,127.91,0,0,0,774.59,167c-1.16,5.74-2.48,17.63-2.48,17.63v12.59h0v-7.36h0c0-.34,0-5.23,0-5.23s-1.22-11.16-2.26-16.56L729,176a86.67,86.67,0,0,1,1.48,13.09v8.23h.26v41.93h.06l10.44,37.07h62.57l10.31-37.09H814v-42h-.29v-8a86.31,86.31,0,0,1,172.5-.1v8.23h.38v41.93h.1l10.44,37.07h62.57L1070,239.27H1070v-42h-.41v-8a87.24,87.24,0,0,1,1.63-13.91,86.3,86.3,0,0,1,68.13-67.55,87.37,87.37,0,0,1,33.69.14A86.34,86.34,0,0,1,1240.55,176a86.67,86.67,0,0,1,1.49,13.09v8.23h.46v41.93h.18l10.44,37.07h62.57L1326,239.27h-.17v-42h-.49v-8a86.1,86.1,0,0,1,1.63-13.91h0a86.3,86.3,0,0,1,68.13-67.55,87.37,87.37,0,0,1,33.69.14A86.34,86.34,0,0,1,1496.35,176a86.67,86.67,0,0,1,1.48,13.09v8.23h.31v41.93h.14l10.4,36.94h62.57l10.31-37.1h-.1V197.25h-.33v-8a87.24,87.24,0,0,1,1.64-13.91,86.3,86.3,0,0,1,68.13-67.55,87.37,87.37,0,0,1,33.69.14A86.34,86.34,0,0,1,1752.15,176a86.67,86.67,0,0,1,1.48,13.09v8.23h.6v41.93h.52L1765,275.83h62.57l10.31-37.1h-.37V197.25h-.62v-8a86.31,86.31,0,0,1,172.5-.1v8.23Z" transform="translate(-2.69 0.12)"/>
      <path class="cls-4" d="M2541.49,121.88a128,128,0,0,0-212.82-.9A127,127,0,0,0,2309.38,167h0c-1.17,5.74-2.48,17.63-2.48,17.63v12.26h0v-7h0c0-.34,0-5.23,0-5.23s-1.22-11.16-2.26-16.56a128,128,0,0,0-100.12-101,129.78,129.78,0,0,0-49.93-.21,127.1,127.1,0,0,0-46.21,18.9A127.91,127.91,0,0,0,2053.58,167c-1.16,5.74-2.48,17.63-2.48,17.63v12.7h41.63v-8.13a87.24,87.24,0,0,1,1.63-13.91h0a85.82,85.82,0,0,1,13-31.07,86.76,86.76,0,0,1,23.93-23.73,85.82,85.82,0,0,1,31.18-12.75,87.37,87.37,0,0,1,33.69.14,85.69,85.69,0,0,1,31.08,13A86.77,86.77,0,0,1,2251,144.86,85.67,85.67,0,0,1,2263.74,176a86.67,86.67,0,0,1,1.49,13.09v8.23h.71v41.77h-.09l10.45,37.1h62.56l10.27-36.94h.14V196.92h-.74v-7.69a86.1,86.1,0,0,1,1.63-13.91h0a86.3,86.3,0,0,1,68.13-67.55,87.37,87.37,0,0,1,33.69.14A86.34,86.34,0,0,1,2519.54,176l40.85-7.94A127,127,0,0,0,2541.49,121.88Z" transform="translate(-2.69 0.12)"/>
      <path class="cls-4" d="M2562.65,197.36v-7.47h0c0-.34,0-5.23,0-5.23s-1.21-11.16-2.26-16.56L2519.54,176a88,88,0,0,1,1.49,13.09v8.23Z" transform="translate(-2.69 0.12)"/>
      <polygon class="cls-4" points="1.8 239.25 1.8 239.41 1.8 276.35 33.46 276.35 43.73 239.41 43.84 239.41 43.84 197.7 1.8 197.7 1.8 239.25"/>
      <polygon class="cls-4" points="2563.03 239.23 2518.86 239.25 2529.3 276.35 2563.17 276.27 2563.03 239.23"/>
      <polygon class="cls-4" points="2007.34 239.39 2007.2 239.39 2017.65 276.48 2080.22 276.48 2090.52 239.41 2090.66 239.41 2090.66 197.54 2007.34 197.54 2007.34 239.39"/>
      <rect class="cls-4" x="2519.04" y="197.57" width="43.98" height="41.54"/>
    </g>
  </g>
  <g id="Layer_5" data-name="Layer 5">
    <g>
      <path class="cls-5" d="M59.92,129.25a85.82,85.82,0,0,0-13,31.07L6.12,152a127.14,127.14,0,0,1,19.29-46Z" transform="translate(-2.69 0.12)"/>
      <path class="cls-5" d="M83.85,105.52a86.49,86.49,0,0,0-23.93,23.73L25.41,106A128.48,128.48,0,0,1,60.87,70.81Z" transform="translate(-2.69 0.12)"/>
      <path class="cls-5" d="M115,92.77a85.82,85.82,0,0,0-31.18,12.75l-23-34.71a127.22,127.22,0,0,1,46.22-18.9Z" transform="translate(-2.69 0.12)"/>
      <path class="cls-5" d="M157,52.12l-8.3,40.79A87.37,87.37,0,0,0,115,92.77l-7.94-40.86a129.78,129.78,0,0,1,49.93.21Z" transform="translate(-2.69 0.12)"/>
      <path class="cls-5" d="M203.07,71.42,179.8,105.93a85.77,85.77,0,0,0-31.08-13L157,52.12A127.16,127.16,0,0,1,203.07,71.42Z" transform="translate(-2.69 0.12)"/>
      <path class="cls-5" d="M238.23,106.88l-34.71,23a86.59,86.59,0,0,0-23.72-23.93l23.27-34.51A128.31,128.31,0,0,1,238.23,106.88Z" transform="translate(-2.69 0.12)"/>
      <path class="cls-5" d="M257.13,153.1,216.28,161a85.69,85.69,0,0,0-12.76-31.18l34.71-23A127,127,0,0,1,257.13,153.1Z" transform="translate(-2.69 0.12)"/>
      <path class="cls-5" d="M259.42,169.53s-1.25-11.07-2.29-16.43L216.28,161a86.69,86.69,0,0,1,1.51,13.58v7.74h41.63Z" transform="translate(-2.69 0.12)"/>
      <path class="cls-5" d="M46.9,160.32,6.12,152c-1.23,6.07-2.61,18.66-2.61,18.66v11.72H45.29v-8.64A87.49,87.49,0,0,1,46.9,160.32Z" transform="translate(-2.69 0.12)"/>
    </g>
    <g>
      <path class="cls-5" d="M315.8,129.25a85.65,85.65,0,0,0-13,31.07L262,152a127.16,127.16,0,0,1,19.3-46Z" transform="translate(-2.69 0.12)"/>
      <path class="cls-5" d="M339.73,105.52a86.49,86.49,0,0,0-23.93,23.73L281.29,106a128.48,128.48,0,0,1,35.46-35.17Z" transform="translate(-2.69 0.12)"/>
      <path class="cls-5" d="M370.91,92.77a85.82,85.82,0,0,0-31.18,12.75l-23-34.71A127.22,127.22,0,0,1,363,51.91Z" transform="translate(-2.69 0.12)"/>
      <path class="cls-5" d="M412.89,52.12,404.6,92.91a87.37,87.37,0,0,0-33.69-.14L363,51.91a129.73,129.73,0,0,1,49.92.21Z" transform="translate(-2.69 0.12)"/>
      <path class="cls-5" d="M459,71.42l-23.28,34.51a85.65,85.65,0,0,0-31.07-13l8.29-40.79A127.28,127.28,0,0,1,459,71.42Z" transform="translate(-2.69 0.12)"/>
      <path class="cls-5" d="M494.11,106.88l-34.71,23a86.49,86.49,0,0,0-23.73-23.93L459,71.42A128.31,128.31,0,0,1,494.11,106.88Z" transform="translate(-2.69 0.12)"/>
      <path class="cls-5" d="M513,153.1,472.16,161a85.69,85.69,0,0,0-12.76-31.18l34.71-23A127,127,0,0,1,513,153.1Z" transform="translate(-2.69 0.12)"/>
      <path class="cls-5" d="M302.78,160.32,262,152c-1.16,5.74-2.47,17.63-2.47,17.63v12.7h41.63v-8.13A86.1,86.1,0,0,1,302.78,160.32Z" transform="translate(-2.69 0.12)"/>
      <path class="cls-5" d="M515.3,174.89c0-.34,0-5.23,0-5.23S514.05,158.5,513,153.1L472.16,161a86.67,86.67,0,0,1,1.48,13.09v8.23h41.63v-7.47Z" transform="translate(-2.69 0.12)"/>
    </g>
    <g>
      <path class="cls-5" d="M571.6,129.25a85.65,85.65,0,0,0-13,31.07L517.79,152a127.16,127.16,0,0,1,19.3-46Z" transform="translate(-2.69 0.12)"/>
      <path class="cls-5" d="M595.53,105.52a86.49,86.49,0,0,0-23.93,23.73L537.09,106a128.34,128.34,0,0,1,35.46-35.17Z" transform="translate(-2.69 0.12)"/>
      <path class="cls-5" d="M626.71,92.77a85.67,85.67,0,0,0-31.18,12.75l-23-34.71a127.17,127.17,0,0,1,46.21-18.9Z" transform="translate(-2.69 0.12)"/>
      <path class="cls-5" d="M668.69,52.12,660.4,92.91a87.37,87.37,0,0,0-33.69-.14l-8-40.86a129.78,129.78,0,0,1,49.93.21Z" transform="translate(-2.69 0.12)"/>
      <path class="cls-5" d="M714.75,71.42l-23.28,34.51a85.65,85.65,0,0,0-31.07-13l8.29-40.79A127.28,127.28,0,0,1,714.75,71.42Z" transform="translate(-2.69 0.12)"/>
      <path class="cls-5" d="M749.91,106.88l-34.71,23a86.49,86.49,0,0,0-23.73-23.93l23.28-34.51A128.44,128.44,0,0,1,749.91,106.88Z" transform="translate(-2.69 0.12)"/>
      <path class="cls-5" d="M768.81,153.1,728,161a85.87,85.87,0,0,0-12.76-31.18l34.71-23A127.15,127.15,0,0,1,768.81,153.1Z" transform="translate(-2.69 0.12)"/>
      <path class="cls-5" d="M558.58,160.32,517.79,152c-1.16,5.74-2.47,17.63-2.47,17.63v12.7h41.62v-8.13A87.24,87.24,0,0,1,558.58,160.32Z" transform="translate(-2.69 0.12)"/>
      <path class="cls-5" d="M771.1,174.89c0-.34,0-5.23,0-5.23s-1.22-11.16-2.26-16.56L728,161a86.67,86.67,0,0,1,1.48,13.09v8.23h41.63v-7.47Z" transform="translate(-2.69 0.12)"/>
    </g>
    <g>
      <path class="cls-5" d="M827.4,129.25a85.47,85.47,0,0,0-13,31.07L773.59,152a127.32,127.32,0,0,1,19.29-46Z" transform="translate(-2.69 0.12)"/>
      <path class="cls-5" d="M851.32,105.52a86.59,86.59,0,0,0-23.92,23.73L792.88,106a128.38,128.38,0,0,1,35.47-35.17Z" transform="translate(-2.69 0.12)"/>
      <path class="cls-5" d="M882.51,92.77a85.79,85.79,0,0,0-31.19,12.75l-23-34.71a127.17,127.17,0,0,1,46.21-18.9Z" transform="translate(-2.69 0.12)"/>
      <path class="cls-5" d="M924.49,52.12,916.2,92.91a87.37,87.37,0,0,0-33.69-.14l-8-40.86a129.78,129.78,0,0,1,49.93.21Z" transform="translate(-2.69 0.12)"/>
      <path class="cls-5" d="M970.54,71.42l-23.27,34.51a85.72,85.72,0,0,0-31.07-13l8.29-40.79A127.16,127.16,0,0,1,970.54,71.42Z" transform="translate(-2.69 0.12)"/>
      <path class="cls-5" d="M1005.71,106.88l-34.71,23a86.63,86.63,0,0,0-23.73-23.93l23.27-34.51A128.34,128.34,0,0,1,1005.71,106.88Z" transform="translate(-2.69 0.12)"/>
      <path class="cls-5" d="M1024.61,153.1,983.75,161A85.67,85.67,0,0,0,971,129.86l34.71-23A127.32,127.32,0,0,1,1024.61,153.1Z" transform="translate(-2.69 0.12)"/>
      <path class="cls-5" d="M814.38,160.32,773.59,152c-1.16,5.74-2.48,17.63-2.48,17.63v12.7h41.63v-8.13A86.11,86.11,0,0,1,814.38,160.32Z" transform="translate(-2.69 0.12)"/>
      <path class="cls-5" d="M1026.9,174.89c0-.34,0-5.23,0-5.23s-1.22-11.16-2.26-16.56L983.75,161a86.67,86.67,0,0,1,1.49,13.09v8.23h41.63v-7.47Z" transform="translate(-2.69 0.12)"/>
    </g>
    <g>
      <path class="cls-5" d="M1083.19,129.25a85.82,85.82,0,0,0-13,31.07L1029.39,152a127.14,127.14,0,0,1,19.29-46Z" transform="translate(-2.69 0.12)"/>
      <path class="cls-5" d="M1107.12,105.52a86.49,86.49,0,0,0-23.93,23.73L1048.68,106a128.48,128.48,0,0,1,35.46-35.17Z" transform="translate(-2.69 0.12)"/>
      <path class="cls-5" d="M1138.3,92.77a85.82,85.82,0,0,0-31.18,12.75l-23-34.71a127.22,127.22,0,0,1,46.22-18.9Z" transform="translate(-2.69 0.12)"/>
      <path class="cls-5" d="M1180.29,52.12,1172,92.91a87.37,87.37,0,0,0-33.69-.14l-7.94-40.86a129.78,129.78,0,0,1,49.93.21Z" transform="translate(-2.69 0.12)"/>
      <path class="cls-5" d="M1226.34,71.42l-23.27,34.51a85.77,85.77,0,0,0-31.08-13l8.3-40.79A127.16,127.16,0,0,1,1226.34,71.42Z" transform="translate(-2.69 0.12)"/>
      <path class="cls-5" d="M1261.5,106.88l-34.71,23a86.59,86.59,0,0,0-23.72-23.93l23.27-34.51A128.31,128.31,0,0,1,1261.5,106.88Z" transform="translate(-2.69 0.12)"/>
      <path class="cls-5" d="M1280.4,153.1,1239.55,161a85.52,85.52,0,0,0-12.76-31.18l34.71-23A127,127,0,0,1,1280.4,153.1Z" transform="translate(-2.69 0.12)"/>
      <path class="cls-5" d="M1070.17,160.32,1029.39,152c-1.16,5.74-2.48,17.63-2.48,17.63v12.7h41.63v-8.13A87.24,87.24,0,0,1,1070.17,160.32Z" transform="translate(-2.69 0.12)"/>
      <path class="cls-5" d="M1282.7,174.89c0-.34,0-5.23,0-5.23s-1.22-11.16-2.27-16.56L1239.55,161a86.67,86.67,0,0,1,1.49,13.09v8.23h41.63v-7.47Z" transform="translate(-2.69 0.12)"/>
    </g>
    <g>
      <path class="cls-5" d="M1339,129.25a85.65,85.65,0,0,0-13,31.07L1285.18,152a127.16,127.16,0,0,1,19.3-46Z" transform="translate(-2.69 0.12)"/>
      <path class="cls-5" d="M1362.92,105.52A86.49,86.49,0,0,0,1339,129.25L1304.48,106a128.48,128.48,0,0,1,35.46-35.17Z" transform="translate(-2.69 0.12)"/>
      <path class="cls-5" d="M1394.1,92.77a85.82,85.82,0,0,0-31.18,12.75l-23-34.71a127.22,127.22,0,0,1,46.22-18.9Z" transform="translate(-2.69 0.12)"/>
      <path class="cls-5" d="M1436.09,52.12l-8.3,40.79a87.37,87.37,0,0,0-33.69-.14l-7.94-40.86a129.78,129.78,0,0,1,49.93.21Z" transform="translate(-2.69 0.12)"/>
      <path class="cls-5" d="M1482.14,71.42l-23.27,34.51a85.77,85.77,0,0,0-31.08-13l8.3-40.79A127.24,127.24,0,0,1,1482.14,71.42Z" transform="translate(-2.69 0.12)"/>
      <path class="cls-5" d="M1517.3,106.88l-34.71,23a86.59,86.59,0,0,0-23.72-23.93l23.27-34.51A128.31,128.31,0,0,1,1517.3,106.88Z" transform="translate(-2.69 0.12)"/>
      <path class="cls-5" d="M1536.2,153.1,1495.35,161a85.69,85.69,0,0,0-12.76-31.18l34.71-23A127,127,0,0,1,1536.2,153.1Z" transform="translate(-2.69 0.12)"/>
      <path class="cls-5" d="M1326,160.32,1285.18,152c-1.16,5.74-2.47,17.63-2.47,17.63v12.7h41.63v-8.13A86.1,86.1,0,0,1,1326,160.32Z" transform="translate(-2.69 0.12)"/>
      <path class="cls-5" d="M1538.5,174.89c0-.34,0-5.23,0-5.23s-1.21-11.16-2.26-16.56L1495.35,161a86.67,86.67,0,0,1,1.48,13.09v8.23h41.63v-7.47Z" transform="translate(-2.69 0.12)"/>
    </g>
    <g>
      <path class="cls-5" d="M1594.79,129.25a85.65,85.65,0,0,0-13,31.07L1541,152a127.16,127.16,0,0,1,19.3-46Z" transform="translate(-2.69 0.12)"/>
      <path class="cls-5" d="M1618.72,105.52a86.49,86.49,0,0,0-23.93,23.73L1560.28,106a128.34,128.34,0,0,1,35.46-35.17Z" transform="translate(-2.69 0.12)"/>
      <path class="cls-5" d="M1649.9,92.77a85.75,85.75,0,0,0-31.18,12.75l-23-34.71A127.15,127.15,0,0,1,1642,51.91Z" transform="translate(-2.69 0.12)"/>
      <path class="cls-5" d="M1691.88,52.12l-8.29,40.79a87.37,87.37,0,0,0-33.69-.14L1642,51.91a129.73,129.73,0,0,1,49.92.21Z" transform="translate(-2.69 0.12)"/>
      <path class="cls-5" d="M1737.94,71.42l-23.28,34.51a85.65,85.65,0,0,0-31.07-13l8.29-40.79A127.28,127.28,0,0,1,1737.94,71.42Z" transform="translate(-2.69 0.12)"/>
      <path class="cls-5" d="M1773.1,106.88l-34.71,23a86.49,86.49,0,0,0-23.73-23.93l23.28-34.51A128.44,128.44,0,0,1,1773.1,106.88Z" transform="translate(-2.69 0.12)"/>
      <path class="cls-5" d="M1792,153.1,1751.15,161a85.69,85.69,0,0,0-12.76-31.18l34.71-23A127.15,127.15,0,0,1,1792,153.1Z" transform="translate(-2.69 0.12)"/>
      <path class="cls-5" d="M1581.77,160.32,1541,152c-1.16,5.74-2.47,17.63-2.47,17.63v12.7h41.62v-8.13A87.24,87.24,0,0,1,1581.77,160.32Z" transform="translate(-2.69 0.12)"/>
      <path class="cls-5" d="M1794.29,174.89c0-.34,0-5.23,0-5.23S1793,158.5,1792,153.1L1751.15,161a86.67,86.67,0,0,1,1.48,13.09v8.23h41.63v-7.47Z" transform="translate(-2.69 0.12)"/>
    </g>
    <g>
      <path class="cls-5" d="M1850.59,129.25a85.47,85.47,0,0,0-13,31.07L1796.78,152a127.32,127.32,0,0,1,19.29-46Z" transform="translate(-2.69 0.12)"/>
      <path class="cls-5" d="M1874.51,105.52a86.59,86.59,0,0,0-23.92,23.73L1816.07,106a128.38,128.38,0,0,1,35.47-35.17Z" transform="translate(-2.69 0.12)"/>
      <path class="cls-5" d="M1905.7,92.77a85.79,85.79,0,0,0-31.19,12.75l-23-34.71a127.17,127.17,0,0,1,46.21-18.9Z" transform="translate(-2.69 0.12)"/>
      <path class="cls-5" d="M1947.68,52.12l-8.29,40.79a87.37,87.37,0,0,0-33.69-.14l-8-40.86a129.78,129.78,0,0,1,49.93.21Z" transform="translate(-2.69 0.12)"/>
      <path class="cls-5" d="M1993.73,71.42l-23.27,34.51a85.65,85.65,0,0,0-31.07-13l8.29-40.79A127.16,127.16,0,0,1,1993.73,71.42Z" transform="translate(-2.69 0.12)"/>
      <path class="cls-5" d="M2028.9,106.88l-34.71,23a86.63,86.63,0,0,0-23.73-23.93l23.27-34.51A128.34,128.34,0,0,1,2028.9,106.88Z" transform="translate(-2.69 0.12)"/>
      <path class="cls-5" d="M2047.8,153.1,2006.94,161a85.67,85.67,0,0,0-12.75-31.18l34.71-23A127.32,127.32,0,0,1,2047.8,153.1Z" transform="translate(-2.69 0.12)"/>
      <path class="cls-5" d="M1837.57,160.32,1796.78,152c-1.16,5.74-2.48,17.63-2.48,17.63v12.7h41.63v-8.13A86.11,86.11,0,0,1,1837.57,160.32Z" transform="translate(-2.69 0.12)"/>
      <path class="cls-5" d="M2050.09,174.89c0-.34,0-5.23,0-5.23s-1.22-11.16-2.26-16.56L2006.94,161a86.67,86.67,0,0,1,1.49,13.09v8.23h41.63v-7.47Z" transform="translate(-2.69 0.12)"/>
    </g>
    <g>
      <path class="cls-5" d="M2106.38,129.25a85.82,85.82,0,0,0-13,31.07L2052.58,152a127.14,127.14,0,0,1,19.29-46Z" transform="translate(-2.69 0.12)"/>
      <path class="cls-5" d="M2130.31,105.52a86.76,86.76,0,0,0-23.93,23.73L2071.87,106a128.38,128.38,0,0,1,35.47-35.17Z" transform="translate(-2.69 0.12)"/>
      <path class="cls-5" d="M2161.5,92.77a85.79,85.79,0,0,0-31.19,12.75l-23-34.71a127.1,127.1,0,0,1,46.21-18.9Z" transform="translate(-2.69 0.12)"/>
      <path class="cls-5" d="M2203.48,52.12l-8.3,40.79a87.32,87.32,0,0,0-33.68-.14l-7.95-40.86a129.78,129.78,0,0,1,49.93.21Z" transform="translate(-2.69 0.12)"/>
      <path class="cls-5" d="M2249.53,71.42l-23.27,34.51a85.69,85.69,0,0,0-31.08-13l8.3-40.79A127.16,127.16,0,0,1,2249.53,71.42Z" transform="translate(-2.69 0.12)"/>
      <path class="cls-5" d="M2284.69,106.88l-34.7,23a86.77,86.77,0,0,0-23.73-23.93l23.27-34.51A128.17,128.17,0,0,1,2284.69,106.88Z" transform="translate(-2.69 0.12)"/>
      <path class="cls-5" d="M2303.6,153.1,2262.74,161A85.67,85.67,0,0,0,2250,129.86l34.7-23A127.16,127.16,0,0,1,2303.6,153.1Z" transform="translate(-2.69 0.12)"/>
      <path class="cls-5" d="M2093.36,160.32,2052.58,152c-1.16,5.74-2.48,17.63-2.48,17.63v12.7h41.63v-8.13A87.24,87.24,0,0,1,2093.36,160.32Z" transform="translate(-2.69 0.12)"/>
      <path class="cls-5" d="M2305.89,174.89c0-.34,0-5.23,0-5.23s-1.22-11.16-2.26-16.56L2262.74,161a86.67,86.67,0,0,1,1.49,13.09v8.23h41.63v-7.47Z" transform="translate(-2.69 0.12)"/>
    </g>
    <g>
      <path class="cls-5" d="M2362.18,129.25a85.65,85.65,0,0,0-13,31.07L2308.38,152a127,127,0,0,1,19.29-46Z" transform="translate(-2.69 0.12)"/>
      <path class="cls-5" d="M2386.11,105.52a86.49,86.49,0,0,0-23.93,23.73L2327.67,106a128.48,128.48,0,0,1,35.46-35.17Z" transform="translate(-2.69 0.12)"/>
      <path class="cls-5" d="M2417.29,92.77a85.82,85.82,0,0,0-31.18,12.75l-23-34.71a127.22,127.22,0,0,1,46.22-18.9Z" transform="translate(-2.69 0.12)"/>
      <path class="cls-5" d="M2459.28,52.12,2451,92.91a87.37,87.37,0,0,0-33.69-.14l-7.94-40.86a129.78,129.78,0,0,1,49.93.21Z" transform="translate(-2.69 0.12)"/>
      <path class="cls-5" d="M2505.33,71.42l-23.27,34.51a85.77,85.77,0,0,0-31.08-13l8.3-40.79A127.24,127.24,0,0,1,2505.33,71.42Z" transform="translate(-2.69 0.12)"/>
      <path class="cls-5" d="M2540.49,106.88l-34.71,23a86.59,86.59,0,0,0-23.72-23.93l23.27-34.51A128.31,128.31,0,0,1,2540.49,106.88Z" transform="translate(-2.69 0.12)"/>
      <path class="cls-5" d="M2559.39,153.1,2518.54,161a85.69,85.69,0,0,0-12.76-31.18l34.71-23A127,127,0,0,1,2559.39,153.1Z" transform="translate(-2.69 0.12)"/>
      <path class="cls-5" d="M2349.16,160.32,2308.38,152c-1.17,5.74-2.48,17.63-2.48,17.63v12.7h41.63v-8.13A86.1,86.1,0,0,1,2349.16,160.32Z" transform="translate(-2.69 0.12)"/>
      <path class="cls-5" d="M2561.69,174.89c0-.34,0-5.23,0-5.23s-1.21-11.16-2.26-16.56L2518.54,161a88,88,0,0,1,1.49,13.09v8.23h41.62v-7.47Z" transform="translate(-2.69 0.12)"/>
    </g>
    <g>
      <rect class="cls-5" x="215.31" y="182.48" width="83.33" height="41.93"/>
      <rect class="cls-5" x="0.8" y="182.7" width="42.04" height="41.71"/>
      <rect class="cls-5" x="471.23" y="182.04" width="83.33" height="42.37"/>
      <rect class="cls-5" x="727.01" y="182.37" width="83.33" height="42.04"/>
      <rect class="cls-5" x="982.93" y="182.37" width="83.33" height="42.04"/>
      <rect class="cls-5" x="1238.81" y="182.37" width="83.33" height="42.04"/>
      <polygon class="cls-6" points="288.42 261.35 225.86 261.35 215.41 224.25 298.73 224.25 288.42 261.35"/>
      <polygon class="cls-6" points="32.46 261.35 0.8 261.35 0.8 224.25 42.77 224.25 32.46 261.35"/>
      <polygon class="cls-6" points="544.12 261.35 481.55 261.35 471.1 224.25 554.43 224.25 544.12 261.35"/>
      <polygon class="cls-6" points="800.08 261.48 737.51 261.48 727.06 224.39 810.39 224.39 800.08 261.48"/>
      <polygon class="cls-6" points="1056.04 261.48 993.47 261.48 983.02 224.39 1066.35 224.39 1056.04 261.48"/>
      <polygon class="cls-6" points="1312 261.48 1249.43 261.48 1238.98 224.39 1322.31 224.39 1312 261.48"/>
      <polygon class="cls-6" points="1567.56 261.35 1504.99 261.35 1494.55 224.25 1577.87 224.25 1567.56 261.35"/>
      <polygon class="cls-6" points="1823.92 260.95 1761.36 260.95 1750.91 223.85 1834.23 223.85 1823.92 260.95"/>
      <polygon class="cls-6" points="2079.22 261.48 2016.65 261.48 2006.2 224.39 2089.53 224.39 2079.22 261.48"/>
      <polygon class="cls-6" points="2335.18 261.35 2272.61 261.35 2262.16 224.25 2345.49 224.25 2335.18 261.35"/>
      <polygon class="cls-6" points="2562.17 261.27 2528.3 261.35 2517.86 224.25 2562.03 224.23 2562.17 261.27"/>
      <rect class="cls-5" x="1494.45" y="182.37" width="83.33" height="42.04"/>
      <rect class="cls-5" x="1750.54" y="182.37" width="83.33" height="42.04"/>
      <rect class="cls-5" x="2006.34" y="182.54" width="83.33" height="41.87"/>
      <rect class="cls-5" x="2262.25" y="182.04" width="83.33" height="42.37"/>
      <rect class="cls-5" x="2518.04" y="182.57" width="43.98" height="41.54"/>
    </g>
  </g>
</svg>
