<svg id="side" xmlns="http://www.w3.org/2000/svg" viewBox="0 0 607.72 1393.58">
  <defs>
    <style>
      .cls-1 {
        fill: #b3b3b3;
        stroke: gray;
        stroke-miterlimit: 10;
        stroke-width: 1.75px;
      }
    </style>
  </defs>
  <g>
    <rect class="cls-1" x="1.48" y="192.09" width="30.85" height="27.28"/>
    <rect class="cls-1" x="31.86" y="192.09" width="57.58" height="27.28"/>
    <rect class="cls-1" x="89.35" y="192.09" width="57.58" height="27.28"/>
    <rect class="cls-1" x="146.84" y="192.09" width="57.58" height="27.28"/>
    <rect class="cls-1" x="204.33" y="192.09" width="57.58" height="27.28"/>
    <rect class="cls-1" x="261.82" y="192.09" width="57.58" height="27.28"/>
    <rect class="cls-1" x="319.31" y="192.09" width="57.58" height="27.28"/>
    <rect class="cls-1" x="376.79" y="192.09" width="57.58" height="27.28"/>
    <rect class="cls-1" x="434.28" y="192.09" width="57.58" height="27.28"/>
    <rect class="cls-1" x="491.77" y="192.09" width="57.58" height="27.28"/>
    <rect class="cls-1" x="549.26" y="192.09" width="57.38" height="27.28"/>
    <rect class="cls-1" x="1.49" y="164.77" width="2.1" height="27.28"/>
    <rect class="cls-1" x="1.41" y="164.77" width="59.29" height="27.28"/>
    <rect class="cls-1" x="60.61" y="164.77" width="57.58" height="27.28"/>
    <rect class="cls-1" x="118.1" y="164.77" width="57.58" height="27.28"/>
    <rect class="cls-1" x="175.59" y="164.77" width="57.58" height="27.28"/>
    <rect class="cls-1" x="233.07" y="164.77" width="57.58" height="27.28"/>
    <rect class="cls-1" x="290.56" y="164.77" width="57.58" height="27.28"/>
    <rect class="cls-1" x="348.05" y="164.77" width="57.58" height="27.28"/>
    <rect class="cls-1" x="405.54" y="164.77" width="57.58" height="27.28"/>
    <rect class="cls-1" x="463.03" y="164.77" width="57.58" height="27.28"/>
    <rect class="cls-1" x="520.52" y="164.77" width="57.58" height="27.28"/>
    <rect class="cls-1" x="578" y="164.77" width="28.38" height="27.28"/>
    <rect class="cls-1" x="1.39" y="137.46" width="30.93" height="27.28"/>
    <rect class="cls-1" x="31.86" y="137.46" width="57.58" height="27.28"/>
    <rect class="cls-1" x="89.35" y="137.46" width="57.58" height="27.28"/>
    <rect class="cls-1" x="146.84" y="137.46" width="57.58" height="27.28"/>
    <rect class="cls-1" x="204.33" y="137.46" width="57.58" height="27.28"/>
    <rect class="cls-1" x="261.82" y="137.46" width="57.58" height="27.28"/>
    <rect class="cls-1" x="319.31" y="137.46" width="57.58" height="27.28"/>
    <rect class="cls-1" x="376.79" y="137.46" width="57.58" height="27.28"/>
    <rect class="cls-1" x="434.28" y="137.46" width="57.58" height="27.28"/>
    <rect class="cls-1" x="491.77" y="137.46" width="57.58" height="27.28"/>
    <rect class="cls-1" x="549.26" y="137.46" width="57.58" height="27.28"/>
    <rect class="cls-1" x="1.41" y="110.14" width="2.54" height="27.28"/>
    <rect class="cls-1" x="1.33" y="110.14" width="59.37" height="27.28"/>
    <rect class="cls-1" x="60.61" y="110.14" width="57.58" height="27.28"/>
    <rect class="cls-1" x="118.1" y="110.14" width="57.58" height="27.28"/>
    <rect class="cls-1" x="175.59" y="110.14" width="57.58" height="27.28"/>
    <rect class="cls-1" x="233.07" y="110.14" width="57.58" height="27.28"/>
    <rect class="cls-1" x="290.56" y="110.14" width="57.58" height="27.28"/>
    <rect class="cls-1" x="348.05" y="110.14" width="57.58" height="27.28"/>
    <rect class="cls-1" x="405.54" y="110.14" width="57.58" height="27.28"/>
    <rect class="cls-1" x="463.03" y="110.14" width="57.58" height="27.28"/>
    <rect class="cls-1" x="520.52" y="110.14" width="57.58" height="27.28"/>
    <rect class="cls-1" x="578" y="110.14" width="28.79" height="27.28"/>
    <rect class="cls-1" x="1.42" y="82.82" width="31.28" height="27.28"/>
    <rect class="cls-1" x="31.86" y="82.82" width="57.58" height="27.28"/>
    <rect class="cls-1" x="89.35" y="82.82" width="57.58" height="27.28"/>
    <rect class="cls-1" x="146.84" y="82.82" width="57.58" height="27.28"/>
    <rect class="cls-1" x="204.33" y="82.82" width="57.58" height="27.28"/>
    <rect class="cls-1" x="261.82" y="82.82" width="57.58" height="27.28"/>
    <rect class="cls-1" x="319.31" y="82.82" width="57.58" height="27.28"/>
    <rect class="cls-1" x="376.79" y="82.82" width="57.58" height="27.28"/>
    <rect class="cls-1" x="434.28" y="82.82" width="57.58" height="27.28"/>
    <rect class="cls-1" x="491.77" y="82.82" width="57.58" height="27.28"/>
    <rect class="cls-1" x="549.12" y="82.82" width="57.58" height="27.28"/>
    <rect class="cls-1" x="0.87" y="55.51" width="59.83" height="27.28"/>
    <rect class="cls-1" x="60.61" y="55.51" width="57.58" height="27.28"/>
    <rect class="cls-1" x="118.1" y="55.51" width="57.58" height="27.28"/>
    <rect class="cls-1" x="175.59" y="55.51" width="57.58" height="27.28"/>
    <rect class="cls-1" x="233.07" y="55.51" width="57.58" height="27.28"/>
    <rect class="cls-1" x="290.56" y="55.51" width="57.58" height="27.28"/>
    <rect class="cls-1" x="348.05" y="55.51" width="57.58" height="27.28"/>
    <rect class="cls-1" x="405.54" y="55.51" width="57.58" height="27.28"/>
    <rect class="cls-1" x="463.03" y="55.51" width="57.58" height="27.28"/>
    <rect class="cls-1" x="520.52" y="55.51" width="57.58" height="27.28"/>
    <rect class="cls-1" x="578.28" y="55.51" width="28.37" height="27.28"/>
    <rect class="cls-1" x="31.86" y="28.19" width="57.58" height="27.28"/>
    <rect class="cls-1" x="1.21" y="28.19" width="30.71" height="27.28"/>
    <rect class="cls-1" x="89.35" y="28.19" width="57.58" height="27.28"/>
    <rect class="cls-1" x="146.84" y="28.19" width="57.58" height="27.28"/>
    <rect class="cls-1" x="204.33" y="28.19" width="57.58" height="27.28"/>
    <rect class="cls-1" x="261.82" y="28.19" width="57.58" height="27.28"/>
    <rect class="cls-1" x="319.31" y="28.19" width="57.58" height="27.28"/>
    <rect class="cls-1" x="376.79" y="28.19" width="57.58" height="27.28"/>
    <rect class="cls-1" x="434.28" y="28.19" width="57.58" height="27.28"/>
    <rect class="cls-1" x="491.77" y="28.19" width="57.58" height="27.28"/>
    <rect class="cls-1" x="549.12" y="28.19" width="57.52" height="27.28"/>
    <rect class="cls-1" x="1" y="0.87" width="59.7" height="27.28"/>
    <rect class="cls-1" x="60.61" y="0.87" width="57.58" height="27.28"/>
    <rect class="cls-1" x="118.1" y="0.87" width="57.58" height="27.28"/>
    <rect class="cls-1" x="175.59" y="0.87" width="57.58" height="27.28"/>
    <rect class="cls-1" x="233.07" y="0.87" width="57.58" height="27.28"/>
    <rect class="cls-1" x="290.56" y="0.87" width="57.58" height="27.28"/>
    <rect class="cls-1" x="348.05" y="0.87" width="57.58" height="27.28"/>
    <rect class="cls-1" x="405.54" y="0.87" width="57.58" height="27.28"/>
    <rect class="cls-1" x="463.03" y="0.87" width="57.58" height="27.28"/>
    <rect class="cls-1" x="520.52" y="0.87" width="57.58" height="27.28"/>
    <rect class="cls-1" x="578.42" y="0.87" width="28.35" height="27.28"/>
    <rect class="cls-1" x="1.48" y="410.41" width="30.85" height="27.28"/>
    <rect class="cls-1" x="31.86" y="410.41" width="57.58" height="27.28"/>
    <rect class="cls-1" x="89.35" y="410.41" width="57.58" height="27.28"/>
    <rect class="cls-1" x="146.84" y="410.41" width="57.58" height="27.28"/>
    <rect class="cls-1" x="204.33" y="410.41" width="57.58" height="27.28"/>
    <rect class="cls-1" x="261.82" y="410.41" width="57.58" height="27.28"/>
    <rect class="cls-1" x="319.31" y="410.41" width="57.58" height="27.28"/>
    <rect class="cls-1" x="376.79" y="410.41" width="57.58" height="27.28"/>
    <rect class="cls-1" x="434.28" y="410.41" width="57.58" height="27.28"/>
    <rect class="cls-1" x="491.77" y="410.41" width="57.58" height="27.28"/>
    <rect class="cls-1" x="549.26" y="410.41" width="57.38" height="27.28"/>
    <rect class="cls-1" x="1.49" y="383.09" width="2.1" height="27.28"/>
    <rect class="cls-1" x="1.41" y="383.09" width="59.29" height="27.28"/>
    <rect class="cls-1" x="60.61" y="383.09" width="57.58" height="27.28"/>
    <rect class="cls-1" x="118.1" y="383.09" width="57.58" height="27.28"/>
    <rect class="cls-1" x="175.59" y="383.09" width="57.58" height="27.28"/>
    <rect class="cls-1" x="233.07" y="383.09" width="57.58" height="27.28"/>
    <rect class="cls-1" x="290.56" y="383.09" width="57.58" height="27.28"/>
    <rect class="cls-1" x="348.05" y="383.09" width="57.58" height="27.28"/>
    <rect class="cls-1" x="405.54" y="383.09" width="57.58" height="27.28"/>
    <rect class="cls-1" x="463.03" y="383.09" width="57.58" height="27.28"/>
    <rect class="cls-1" x="520.52" y="383.09" width="57.58" height="27.28"/>
    <rect class="cls-1" x="578" y="383.09" width="28.38" height="27.28"/>
    <rect class="cls-1" x="1.39" y="355.78" width="30.93" height="27.28"/>
    <rect class="cls-1" x="31.86" y="355.78" width="57.58" height="27.28"/>
    <rect class="cls-1" x="89.35" y="355.78" width="57.58" height="27.28"/>
    <rect class="cls-1" x="146.84" y="355.78" width="57.58" height="27.28"/>
    <rect class="cls-1" x="204.33" y="355.78" width="57.58" height="27.28"/>
    <rect class="cls-1" x="261.82" y="355.78" width="57.58" height="27.28"/>
    <rect class="cls-1" x="319.31" y="355.78" width="57.58" height="27.28"/>
    <rect class="cls-1" x="376.79" y="355.78" width="57.58" height="27.28"/>
    <rect class="cls-1" x="434.28" y="355.78" width="57.58" height="27.28"/>
    <rect class="cls-1" x="491.77" y="355.78" width="57.58" height="27.28"/>
    <rect class="cls-1" x="549.26" y="355.78" width="57.58" height="27.28"/>
    <rect class="cls-1" x="1.41" y="328.46" width="2.54" height="27.28"/>
    <rect class="cls-1" x="1.33" y="328.46" width="59.37" height="27.28"/>
    <rect class="cls-1" x="60.61" y="328.46" width="57.58" height="27.28"/>
    <rect class="cls-1" x="118.1" y="328.46" width="57.58" height="27.28"/>
    <rect class="cls-1" x="175.59" y="328.46" width="57.58" height="27.28"/>
    <rect class="cls-1" x="233.07" y="328.46" width="57.58" height="27.28"/>
    <rect class="cls-1" x="290.56" y="328.46" width="57.58" height="27.28"/>
    <rect class="cls-1" x="348.05" y="328.46" width="57.58" height="27.28"/>
    <rect class="cls-1" x="405.54" y="328.46" width="57.58" height="27.28"/>
    <rect class="cls-1" x="463.03" y="328.46" width="57.58" height="27.28"/>
    <rect class="cls-1" x="520.52" y="328.46" width="57.58" height="27.28"/>
    <rect class="cls-1" x="578" y="328.46" width="28.79" height="27.28"/>
    <rect class="cls-1" x="1.42" y="301.14" width="31.28" height="27.28"/>
    <rect class="cls-1" x="31.86" y="301.14" width="57.58" height="27.28"/>
    <rect class="cls-1" x="89.35" y="301.14" width="57.58" height="27.28"/>
    <rect class="cls-1" x="146.84" y="301.14" width="57.58" height="27.28"/>
    <rect class="cls-1" x="204.33" y="301.14" width="57.58" height="27.28"/>
    <rect class="cls-1" x="261.82" y="301.14" width="57.58" height="27.28"/>
    <rect class="cls-1" x="319.31" y="301.14" width="57.58" height="27.28"/>
    <rect class="cls-1" x="376.79" y="301.14" width="57.58" height="27.28"/>
    <rect class="cls-1" x="434.28" y="301.14" width="57.58" height="27.28"/>
    <rect class="cls-1" x="491.77" y="301.14" width="57.58" height="27.28"/>
    <rect class="cls-1" x="549.12" y="301.14" width="57.58" height="27.28"/>
    <rect class="cls-1" x="0.87" y="273.83" width="59.83" height="27.28"/>
    <rect class="cls-1" x="60.61" y="273.83" width="57.58" height="27.28"/>
    <rect class="cls-1" x="118.1" y="273.83" width="57.58" height="27.28"/>
    <rect class="cls-1" x="175.59" y="273.83" width="57.58" height="27.28"/>
    <rect class="cls-1" x="233.07" y="273.83" width="57.58" height="27.28"/>
    <rect class="cls-1" x="290.56" y="273.83" width="57.58" height="27.28"/>
    <rect class="cls-1" x="348.05" y="273.83" width="57.58" height="27.28"/>
    <rect class="cls-1" x="405.54" y="273.83" width="57.58" height="27.28"/>
    <rect class="cls-1" x="463.03" y="273.83" width="57.58" height="27.28"/>
    <rect class="cls-1" x="520.52" y="273.83" width="57.58" height="27.28"/>
    <rect class="cls-1" x="578.28" y="273.83" width="28.37" height="27.28"/>
    <rect class="cls-1" x="31.86" y="246.51" width="57.58" height="27.28"/>
    <rect class="cls-1" x="1.21" y="246.51" width="30.71" height="27.28"/>
    <rect class="cls-1" x="89.35" y="246.51" width="57.58" height="27.28"/>
    <rect class="cls-1" x="146.84" y="246.51" width="57.58" height="27.28"/>
    <rect class="cls-1" x="204.33" y="246.51" width="57.58" height="27.28"/>
    <rect class="cls-1" x="261.82" y="246.51" width="57.58" height="27.28"/>
    <rect class="cls-1" x="319.31" y="246.51" width="57.58" height="27.28"/>
    <rect class="cls-1" x="376.79" y="246.51" width="57.58" height="27.28"/>
    <rect class="cls-1" x="434.28" y="246.51" width="57.58" height="27.28"/>
    <rect class="cls-1" x="491.77" y="246.51" width="57.58" height="27.28"/>
    <rect class="cls-1" x="549.12" y="246.51" width="57.52" height="27.28"/>
    <rect class="cls-1" x="1" y="219.19" width="59.7" height="27.28"/>
    <rect class="cls-1" x="60.61" y="219.19" width="57.58" height="27.28"/>
    <rect class="cls-1" x="118.1" y="219.19" width="57.58" height="27.28"/>
    <rect class="cls-1" x="175.59" y="219.19" width="57.58" height="27.28"/>
    <rect class="cls-1" x="233.07" y="219.19" width="57.58" height="27.28"/>
    <rect class="cls-1" x="290.56" y="219.19" width="57.58" height="27.28"/>
    <rect class="cls-1" x="348.05" y="219.19" width="57.58" height="27.28"/>
    <rect class="cls-1" x="405.54" y="219.19" width="57.58" height="27.28"/>
    <rect class="cls-1" x="463.03" y="219.19" width="57.58" height="27.28"/>
    <rect class="cls-1" x="520.52" y="219.19" width="57.58" height="27.28"/>
    <rect class="cls-1" x="578.42" y="219.19" width="28.35" height="27.28"/>
    <rect class="cls-1" x="1.48" y="628.73" width="30.85" height="27.28"/>
    <rect class="cls-1" x="31.86" y="628.73" width="57.58" height="27.28"/>
    <rect class="cls-1" x="89.35" y="628.73" width="57.58" height="27.28"/>
    <rect class="cls-1" x="146.84" y="628.73" width="57.58" height="27.28"/>
    <rect class="cls-1" x="204.33" y="628.73" width="57.58" height="27.28"/>
    <rect class="cls-1" x="261.82" y="628.73" width="57.58" height="27.28"/>
    <rect class="cls-1" x="319.31" y="628.73" width="57.58" height="27.28"/>
    <rect class="cls-1" x="376.79" y="628.73" width="57.58" height="27.28"/>
    <rect class="cls-1" x="434.28" y="628.73" width="57.58" height="27.28"/>
    <rect class="cls-1" x="491.77" y="628.73" width="57.58" height="27.28"/>
    <rect class="cls-1" x="549.26" y="628.73" width="57.38" height="27.28"/>
    <rect class="cls-1" x="1.49" y="601.41" width="2.1" height="27.28"/>
    <rect class="cls-1" x="1.41" y="601.41" width="59.29" height="27.28"/>
    <rect class="cls-1" x="60.61" y="601.41" width="57.58" height="27.28"/>
    <rect class="cls-1" x="118.1" y="601.41" width="57.58" height="27.28"/>
    <rect class="cls-1" x="175.59" y="601.41" width="57.58" height="27.28"/>
    <rect class="cls-1" x="233.07" y="601.41" width="57.58" height="27.28"/>
    <rect class="cls-1" x="290.56" y="601.41" width="57.58" height="27.28"/>
    <rect class="cls-1" x="348.05" y="601.41" width="57.58" height="27.28"/>
    <rect class="cls-1" x="405.54" y="601.41" width="57.58" height="27.28"/>
    <rect class="cls-1" x="463.03" y="601.41" width="57.58" height="27.28"/>
    <rect class="cls-1" x="520.52" y="601.41" width="57.58" height="27.28"/>
    <rect class="cls-1" x="578" y="601.41" width="28.38" height="27.28"/>
    <rect class="cls-1" x="1.39" y="574.1" width="30.93" height="27.28"/>
    <rect class="cls-1" x="31.86" y="574.1" width="57.58" height="27.28"/>
    <rect class="cls-1" x="89.35" y="574.1" width="57.58" height="27.28"/>
    <rect class="cls-1" x="146.84" y="574.1" width="57.58" height="27.28"/>
    <rect class="cls-1" x="204.33" y="574.1" width="57.58" height="27.28"/>
    <rect class="cls-1" x="261.82" y="574.1" width="57.58" height="27.28"/>
    <rect class="cls-1" x="319.31" y="574.1" width="57.58" height="27.28"/>
    <rect class="cls-1" x="376.79" y="574.1" width="57.58" height="27.28"/>
    <rect class="cls-1" x="434.28" y="574.1" width="57.58" height="27.28"/>
    <rect class="cls-1" x="491.77" y="574.1" width="57.58" height="27.28"/>
    <rect class="cls-1" x="549.26" y="574.1" width="57.58" height="27.28"/>
    <rect class="cls-1" x="1.41" y="546.78" width="2.54" height="27.28"/>
    <rect class="cls-1" x="1.33" y="546.78" width="59.37" height="27.28"/>
    <rect class="cls-1" x="60.61" y="546.78" width="57.58" height="27.28"/>
    <rect class="cls-1" x="118.1" y="546.78" width="57.58" height="27.28"/>
    <rect class="cls-1" x="175.59" y="546.78" width="57.58" height="27.28"/>
    <rect class="cls-1" x="233.07" y="546.78" width="57.58" height="27.28"/>
    <rect class="cls-1" x="290.56" y="546.78" width="57.58" height="27.28"/>
    <rect class="cls-1" x="348.05" y="546.78" width="57.58" height="27.28"/>
    <rect class="cls-1" x="405.54" y="546.78" width="57.58" height="27.28"/>
    <rect class="cls-1" x="463.03" y="546.78" width="57.58" height="27.28"/>
    <rect class="cls-1" x="520.52" y="546.78" width="57.58" height="27.28"/>
    <rect class="cls-1" x="578" y="546.78" width="28.79" height="27.28"/>
    <rect class="cls-1" x="1.42" y="519.46" width="31.28" height="27.28"/>
    <rect class="cls-1" x="31.86" y="519.46" width="57.58" height="27.28"/>
    <rect class="cls-1" x="89.35" y="519.46" width="57.58" height="27.28"/>
    <rect class="cls-1" x="146.84" y="519.46" width="57.58" height="27.28"/>
    <rect class="cls-1" x="204.33" y="519.46" width="57.58" height="27.28"/>
    <rect class="cls-1" x="261.82" y="519.46" width="57.58" height="27.28"/>
    <rect class="cls-1" x="319.31" y="519.46" width="57.58" height="27.28"/>
    <rect class="cls-1" x="376.79" y="519.46" width="57.58" height="27.28"/>
    <rect class="cls-1" x="434.28" y="519.46" width="57.58" height="27.28"/>
    <rect class="cls-1" x="491.77" y="519.46" width="57.58" height="27.28"/>
    <rect class="cls-1" x="549.12" y="519.46" width="57.58" height="27.28"/>
    <rect class="cls-1" x="0.87" y="492.15" width="59.83" height="27.28"/>
    <rect class="cls-1" x="60.61" y="492.15" width="57.58" height="27.28"/>
    <rect class="cls-1" x="118.1" y="492.15" width="57.58" height="27.28"/>
    <rect class="cls-1" x="175.59" y="492.15" width="57.58" height="27.28"/>
    <rect class="cls-1" x="233.07" y="492.15" width="57.58" height="27.28"/>
    <rect class="cls-1" x="290.56" y="492.15" width="57.58" height="27.28"/>
    <rect class="cls-1" x="348.05" y="492.15" width="57.58" height="27.28"/>
    <rect class="cls-1" x="405.54" y="492.15" width="57.58" height="27.28"/>
    <rect class="cls-1" x="463.03" y="492.15" width="57.58" height="27.28"/>
    <rect class="cls-1" x="520.52" y="492.15" width="57.58" height="27.28"/>
    <rect class="cls-1" x="578.28" y="492.15" width="28.37" height="27.28"/>
    <rect class="cls-1" x="31.86" y="464.83" width="57.58" height="27.28"/>
    <rect class="cls-1" x="1.21" y="464.83" width="30.71" height="27.28"/>
    <rect class="cls-1" x="89.35" y="464.83" width="57.58" height="27.28"/>
    <rect class="cls-1" x="146.84" y="464.83" width="57.58" height="27.28"/>
    <rect class="cls-1" x="204.33" y="464.83" width="57.58" height="27.28"/>
    <rect class="cls-1" x="261.82" y="464.83" width="57.58" height="27.28"/>
    <rect class="cls-1" x="319.31" y="464.83" width="57.58" height="27.28"/>
    <rect class="cls-1" x="376.79" y="464.83" width="57.58" height="27.28"/>
    <rect class="cls-1" x="434.28" y="464.83" width="57.58" height="27.28"/>
    <rect class="cls-1" x="491.77" y="464.83" width="57.58" height="27.28"/>
    <rect class="cls-1" x="549.12" y="464.83" width="57.52" height="27.28"/>
    <rect class="cls-1" x="1" y="437.51" width="59.7" height="27.28"/>
    <rect class="cls-1" x="60.61" y="437.51" width="57.58" height="27.28"/>
    <rect class="cls-1" x="118.1" y="437.51" width="57.58" height="27.28"/>
    <rect class="cls-1" x="175.59" y="437.51" width="57.58" height="27.28"/>
    <rect class="cls-1" x="233.07" y="437.51" width="57.58" height="27.28"/>
    <rect class="cls-1" x="290.56" y="437.51" width="57.58" height="27.28"/>
    <rect class="cls-1" x="348.05" y="437.51" width="57.58" height="27.28"/>
    <rect class="cls-1" x="405.54" y="437.51" width="57.58" height="27.28"/>
    <rect class="cls-1" x="463.03" y="437.51" width="57.58" height="27.28"/>
    <rect class="cls-1" x="520.52" y="437.51" width="57.58" height="27.28"/>
    <rect class="cls-1" x="578.42" y="437.51" width="28.35" height="27.28"/>
    <rect class="cls-1" x="1.48" y="847.05" width="30.85" height="27.28"/>
    <rect class="cls-1" x="31.86" y="847.05" width="57.58" height="27.28"/>
    <rect class="cls-1" x="89.35" y="847.05" width="57.58" height="27.28"/>
    <rect class="cls-1" x="146.84" y="847.05" width="57.58" height="27.28"/>
    <rect class="cls-1" x="204.33" y="847.05" width="57.58" height="27.28"/>
    <rect class="cls-1" x="261.82" y="847.05" width="57.58" height="27.28"/>
    <rect class="cls-1" x="319.31" y="847.05" width="57.58" height="27.28"/>
    <rect class="cls-1" x="376.79" y="847.05" width="57.58" height="27.28"/>
    <rect class="cls-1" x="434.28" y="847.05" width="57.58" height="27.28"/>
    <rect class="cls-1" x="491.77" y="847.05" width="57.58" height="27.28"/>
    <rect class="cls-1" x="549.26" y="847.05" width="57.38" height="27.28"/>
    <rect class="cls-1" x="1.49" y="819.73" width="2.1" height="27.28"/>
    <rect class="cls-1" x="1.41" y="819.73" width="59.29" height="27.28"/>
    <rect class="cls-1" x="60.61" y="819.73" width="57.58" height="27.28"/>
    <rect class="cls-1" x="118.1" y="819.73" width="57.58" height="27.28"/>
    <rect class="cls-1" x="175.59" y="819.73" width="57.58" height="27.28"/>
    <rect class="cls-1" x="233.07" y="819.73" width="57.58" height="27.28"/>
    <rect class="cls-1" x="290.56" y="819.73" width="57.58" height="27.28"/>
    <rect class="cls-1" x="348.05" y="819.73" width="57.58" height="27.28"/>
    <rect class="cls-1" x="405.54" y="819.73" width="57.58" height="27.28"/>
    <rect class="cls-1" x="463.03" y="819.73" width="57.58" height="27.28"/>
    <rect class="cls-1" x="520.52" y="819.73" width="57.58" height="27.28"/>
    <rect class="cls-1" x="578" y="819.73" width="28.38" height="27.28"/>
    <rect class="cls-1" x="1.39" y="792.42" width="30.93" height="27.28"/>
    <rect class="cls-1" x="31.86" y="792.42" width="57.58" height="27.28"/>
    <rect class="cls-1" x="89.35" y="792.42" width="57.58" height="27.28"/>
    <rect class="cls-1" x="146.84" y="792.42" width="57.58" height="27.28"/>
    <rect class="cls-1" x="204.33" y="792.42" width="57.58" height="27.28"/>
    <rect class="cls-1" x="261.82" y="792.42" width="57.58" height="27.28"/>
    <rect class="cls-1" x="319.31" y="792.42" width="57.58" height="27.28"/>
    <rect class="cls-1" x="376.79" y="792.42" width="57.58" height="27.28"/>
    <rect class="cls-1" x="434.28" y="792.42" width="57.58" height="27.28"/>
    <rect class="cls-1" x="491.77" y="792.42" width="57.58" height="27.28"/>
    <rect class="cls-1" x="549.26" y="792.42" width="57.58" height="27.28"/>
    <rect class="cls-1" x="1.41" y="765.1" width="2.54" height="27.28"/>
    <rect class="cls-1" x="1.33" y="765.1" width="59.37" height="27.28"/>
    <rect class="cls-1" x="60.61" y="765.1" width="57.58" height="27.28"/>
    <rect class="cls-1" x="118.1" y="765.1" width="57.58" height="27.28"/>
    <rect class="cls-1" x="175.59" y="765.1" width="57.58" height="27.28"/>
    <rect class="cls-1" x="233.07" y="765.1" width="57.58" height="27.28"/>
    <rect class="cls-1" x="290.56" y="765.1" width="57.58" height="27.28"/>
    <rect class="cls-1" x="348.05" y="765.1" width="57.58" height="27.28"/>
    <rect class="cls-1" x="405.54" y="765.1" width="57.58" height="27.28"/>
    <rect class="cls-1" x="463.03" y="765.1" width="57.58" height="27.28"/>
    <rect class="cls-1" x="520.52" y="765.1" width="57.58" height="27.28"/>
    <rect class="cls-1" x="578" y="765.1" width="28.79" height="27.28"/>
    <rect class="cls-1" x="1.42" y="737.78" width="31.28" height="27.28"/>
    <rect class="cls-1" x="31.86" y="737.78" width="57.58" height="27.28"/>
    <rect class="cls-1" x="89.35" y="737.78" width="57.58" height="27.28"/>
    <rect class="cls-1" x="146.84" y="737.78" width="57.58" height="27.28"/>
    <rect class="cls-1" x="204.33" y="737.78" width="57.58" height="27.28"/>
    <rect class="cls-1" x="261.82" y="737.78" width="57.58" height="27.28"/>
    <rect class="cls-1" x="319.31" y="737.78" width="57.58" height="27.28"/>
    <rect class="cls-1" x="376.79" y="737.78" width="57.58" height="27.28"/>
    <rect class="cls-1" x="434.28" y="737.78" width="57.58" height="27.28"/>
    <rect class="cls-1" x="491.77" y="737.78" width="57.58" height="27.28"/>
    <rect class="cls-1" x="549.12" y="737.78" width="57.58" height="27.28"/>
    <rect class="cls-1" x="0.87" y="710.47" width="59.83" height="27.28"/>
    <rect class="cls-1" x="60.61" y="710.47" width="57.58" height="27.28"/>
    <rect class="cls-1" x="118.1" y="710.47" width="57.58" height="27.28"/>
    <rect class="cls-1" x="175.59" y="710.47" width="57.58" height="27.28"/>
    <rect class="cls-1" x="233.07" y="710.47" width="57.58" height="27.28"/>
    <rect class="cls-1" x="290.56" y="710.47" width="57.58" height="27.28"/>
    <rect class="cls-1" x="348.05" y="710.47" width="57.58" height="27.28"/>
    <rect class="cls-1" x="405.54" y="710.47" width="57.58" height="27.28"/>
    <rect class="cls-1" x="463.03" y="710.47" width="57.58" height="27.28"/>
    <rect class="cls-1" x="520.52" y="710.47" width="57.58" height="27.28"/>
    <rect class="cls-1" x="578.28" y="710.47" width="28.37" height="27.28"/>
    <rect class="cls-1" x="31.86" y="683.15" width="57.58" height="27.28"/>
    <rect class="cls-1" x="1.21" y="683.15" width="30.71" height="27.28"/>
    <rect class="cls-1" x="89.35" y="683.15" width="57.58" height="27.28"/>
    <rect class="cls-1" x="146.84" y="683.15" width="57.58" height="27.28"/>
    <rect class="cls-1" x="204.33" y="683.15" width="57.58" height="27.28"/>
    <rect class="cls-1" x="261.82" y="683.15" width="57.58" height="27.28"/>
    <rect class="cls-1" x="319.31" y="683.15" width="57.58" height="27.28"/>
    <rect class="cls-1" x="376.79" y="683.15" width="57.58" height="27.28"/>
    <rect class="cls-1" x="434.28" y="683.15" width="57.58" height="27.28"/>
    <rect class="cls-1" x="491.77" y="683.15" width="57.58" height="27.28"/>
    <rect class="cls-1" x="549.12" y="683.15" width="57.52" height="27.28"/>
    <rect class="cls-1" x="1" y="655.83" width="59.7" height="27.28"/>
    <rect class="cls-1" x="60.61" y="655.83" width="57.58" height="27.28"/>
    <rect class="cls-1" x="118.1" y="655.83" width="57.58" height="27.28"/>
    <rect class="cls-1" x="175.59" y="655.83" width="57.58" height="27.28"/>
    <rect class="cls-1" x="233.07" y="655.83" width="57.58" height="27.28"/>
    <rect class="cls-1" x="290.56" y="655.83" width="57.58" height="27.28"/>
    <rect class="cls-1" x="348.05" y="655.83" width="57.58" height="27.28"/>
    <rect class="cls-1" x="405.54" y="655.83" width="57.58" height="27.28"/>
    <rect class="cls-1" x="463.03" y="655.83" width="57.58" height="27.28"/>
    <rect class="cls-1" x="520.52" y="655.83" width="57.58" height="27.28"/>
    <rect class="cls-1" x="578.42" y="655.83" width="28.35" height="27.28"/>
    <rect class="cls-1" x="1.48" y="1065.37" width="30.85" height="27.28"/>
    <rect class="cls-1" x="31.86" y="1065.37" width="57.58" height="27.28"/>
    <rect class="cls-1" x="89.35" y="1065.37" width="57.58" height="27.28"/>
    <rect class="cls-1" x="146.84" y="1065.37" width="57.58" height="27.28"/>
    <rect class="cls-1" x="204.33" y="1065.37" width="57.58" height="27.28"/>
    <rect class="cls-1" x="261.82" y="1065.37" width="57.58" height="27.28"/>
    <rect class="cls-1" x="319.31" y="1065.37" width="57.58" height="27.28"/>
    <rect class="cls-1" x="376.79" y="1065.37" width="57.58" height="27.28"/>
    <rect class="cls-1" x="434.28" y="1065.37" width="57.58" height="27.28"/>
    <rect class="cls-1" x="491.77" y="1065.37" width="57.58" height="27.28"/>
    <rect class="cls-1" x="549.26" y="1065.37" width="57.38" height="27.28"/>
    <rect class="cls-1" x="1.49" y="1038.05" width="2.1" height="27.28"/>
    <rect class="cls-1" x="1.41" y="1038.05" width="59.29" height="27.28"/>
    <rect class="cls-1" x="60.61" y="1038.05" width="57.58" height="27.28"/>
    <rect class="cls-1" x="118.1" y="1038.05" width="57.58" height="27.28"/>
    <rect class="cls-1" x="175.59" y="1038.05" width="57.58" height="27.28"/>
    <rect class="cls-1" x="233.07" y="1038.05" width="57.58" height="27.28"/>
    <rect class="cls-1" x="290.56" y="1038.05" width="57.58" height="27.28"/>
    <rect class="cls-1" x="348.05" y="1038.05" width="57.58" height="27.28"/>
    <rect class="cls-1" x="405.54" y="1038.05" width="57.58" height="27.28"/>
    <rect class="cls-1" x="463.03" y="1038.05" width="57.58" height="27.28"/>
    <rect class="cls-1" x="520.52" y="1038.05" width="57.58" height="27.28"/>
    <rect class="cls-1" x="578" y="1038.05" width="28.38" height="27.28"/>
    <rect class="cls-1" x="1.39" y="1010.74" width="30.93" height="27.28"/>
    <rect class="cls-1" x="31.86" y="1010.74" width="57.58" height="27.28"/>
    <rect class="cls-1" x="89.35" y="1010.74" width="57.58" height="27.28"/>
    <rect class="cls-1" x="146.84" y="1010.74" width="57.58" height="27.28"/>
    <rect class="cls-1" x="204.33" y="1010.74" width="57.58" height="27.28"/>
    <rect class="cls-1" x="261.82" y="1010.74" width="57.58" height="27.28"/>
    <rect class="cls-1" x="319.31" y="1010.74" width="57.58" height="27.28"/>
    <rect class="cls-1" x="376.79" y="1010.74" width="57.58" height="27.28"/>
    <rect class="cls-1" x="434.28" y="1010.74" width="57.58" height="27.28"/>
    <rect class="cls-1" x="491.77" y="1010.74" width="57.58" height="27.28"/>
    <rect class="cls-1" x="549.26" y="1010.74" width="57.58" height="27.28"/>
    <rect class="cls-1" x="1.41" y="983.42" width="2.54" height="27.28"/>
    <rect class="cls-1" x="1.33" y="983.42" width="59.37" height="27.28"/>
    <rect class="cls-1" x="60.61" y="983.42" width="57.58" height="27.28"/>
    <rect class="cls-1" x="118.1" y="983.42" width="57.58" height="27.28"/>
    <rect class="cls-1" x="175.59" y="983.42" width="57.58" height="27.28"/>
    <rect class="cls-1" x="233.07" y="983.42" width="57.58" height="27.28"/>
    <rect class="cls-1" x="290.56" y="983.42" width="57.58" height="27.28"/>
    <rect class="cls-1" x="348.05" y="983.42" width="57.58" height="27.28"/>
    <rect class="cls-1" x="405.54" y="983.42" width="57.58" height="27.28"/>
    <rect class="cls-1" x="463.03" y="983.42" width="57.58" height="27.28"/>
    <rect class="cls-1" x="520.52" y="983.42" width="57.58" height="27.28"/>
    <rect class="cls-1" x="578" y="983.42" width="28.79" height="27.28"/>
    <rect class="cls-1" x="1.42" y="956.1" width="31.28" height="27.28"/>
    <rect class="cls-1" x="31.86" y="956.1" width="57.58" height="27.28"/>
    <rect class="cls-1" x="89.35" y="956.1" width="57.58" height="27.28"/>
    <rect class="cls-1" x="146.84" y="956.1" width="57.58" height="27.28"/>
    <rect class="cls-1" x="204.33" y="956.1" width="57.58" height="27.28"/>
    <rect class="cls-1" x="261.82" y="956.1" width="57.58" height="27.28"/>
    <rect class="cls-1" x="319.31" y="956.1" width="57.58" height="27.28"/>
    <rect class="cls-1" x="376.79" y="956.1" width="57.58" height="27.28"/>
    <rect class="cls-1" x="434.28" y="956.1" width="57.58" height="27.28"/>
    <rect class="cls-1" x="491.77" y="956.1" width="57.58" height="27.28"/>
    <rect class="cls-1" x="549.12" y="956.1" width="57.58" height="27.28"/>
    <rect class="cls-1" x="0.87" y="928.79" width="59.83" height="27.28"/>
    <rect class="cls-1" x="60.61" y="928.79" width="57.58" height="27.28"/>
    <rect class="cls-1" x="118.1" y="928.79" width="57.58" height="27.28"/>
    <rect class="cls-1" x="175.59" y="928.79" width="57.58" height="27.28"/>
    <rect class="cls-1" x="233.07" y="928.79" width="57.58" height="27.28"/>
    <rect class="cls-1" x="290.56" y="928.79" width="57.58" height="27.28"/>
    <rect class="cls-1" x="348.05" y="928.79" width="57.58" height="27.28"/>
    <rect class="cls-1" x="405.54" y="928.79" width="57.58" height="27.28"/>
    <rect class="cls-1" x="463.03" y="928.79" width="57.58" height="27.28"/>
    <rect class="cls-1" x="520.52" y="928.79" width="57.58" height="27.28"/>
    <rect class="cls-1" x="578.28" y="928.79" width="28.37" height="27.28"/>
    <rect class="cls-1" x="31.86" y="901.47" width="57.58" height="27.28"/>
    <rect class="cls-1" x="1.21" y="901.47" width="30.71" height="27.28"/>
    <rect class="cls-1" x="89.35" y="901.47" width="57.58" height="27.28"/>
    <rect class="cls-1" x="146.84" y="901.47" width="57.58" height="27.28"/>
    <rect class="cls-1" x="204.33" y="901.47" width="57.58" height="27.28"/>
    <rect class="cls-1" x="261.82" y="901.47" width="57.58" height="27.28"/>
    <rect class="cls-1" x="319.31" y="901.47" width="57.58" height="27.28"/>
    <rect class="cls-1" x="376.79" y="901.47" width="57.58" height="27.28"/>
    <rect class="cls-1" x="434.28" y="901.47" width="57.58" height="27.28"/>
    <rect class="cls-1" x="491.77" y="901.47" width="57.58" height="27.28"/>
    <rect class="cls-1" x="549.12" y="901.47" width="57.52" height="27.28"/>
    <rect class="cls-1" x="1" y="874.15" width="59.7" height="27.28"/>
    <rect class="cls-1" x="60.61" y="874.15" width="57.58" height="27.28"/>
    <rect class="cls-1" x="118.1" y="874.15" width="57.58" height="27.28"/>
    <rect class="cls-1" x="175.59" y="874.15" width="57.58" height="27.28"/>
    <rect class="cls-1" x="233.07" y="874.15" width="57.58" height="27.28"/>
    <rect class="cls-1" x="290.56" y="874.15" width="57.58" height="27.28"/>
    <rect class="cls-1" x="348.05" y="874.15" width="57.58" height="27.28"/>
    <rect class="cls-1" x="405.54" y="874.15" width="57.58" height="27.28"/>
    <rect class="cls-1" x="463.03" y="874.15" width="57.58" height="27.28"/>
    <rect class="cls-1" x="520.52" y="874.15" width="57.58" height="27.28"/>
    <rect class="cls-1" x="578.42" y="874.15" width="28.35" height="27.28"/>
    <rect class="cls-1" x="1.48" y="1283.69" width="30.85" height="27.28"/>
    <rect class="cls-1" x="31.86" y="1283.69" width="57.58" height="27.28"/>
    <rect class="cls-1" x="89.35" y="1283.69" width="57.58" height="27.28"/>
    <rect class="cls-1" x="146.84" y="1283.69" width="57.58" height="27.28"/>
    <rect class="cls-1" x="204.33" y="1283.69" width="57.58" height="27.28"/>
    <rect class="cls-1" x="261.82" y="1283.69" width="57.58" height="27.28"/>
    <rect class="cls-1" x="319.31" y="1283.69" width="57.58" height="27.28"/>
    <rect class="cls-1" x="376.79" y="1283.69" width="57.58" height="27.28"/>
    <rect class="cls-1" x="434.28" y="1283.69" width="57.58" height="27.28"/>
    <rect class="cls-1" x="491.77" y="1283.69" width="57.58" height="27.28"/>
    <rect class="cls-1" x="549.26" y="1283.69" width="57.38" height="27.28"/>
    <rect class="cls-1" x="1.49" y="1256.37" width="2.1" height="27.28"/>
    <rect class="cls-1" x="1.41" y="1256.37" width="59.29" height="27.28"/>
    <rect class="cls-1" x="60.61" y="1256.37" width="57.58" height="27.28"/>
    <rect class="cls-1" x="118.1" y="1256.37" width="57.58" height="27.28"/>
    <rect class="cls-1" x="175.59" y="1256.37" width="57.58" height="27.28"/>
    <rect class="cls-1" x="233.07" y="1256.37" width="57.58" height="27.28"/>
    <rect class="cls-1" x="290.56" y="1256.37" width="57.58" height="27.28"/>
    <rect class="cls-1" x="348.05" y="1256.37" width="57.58" height="27.28"/>
    <rect class="cls-1" x="405.54" y="1256.37" width="57.58" height="27.28"/>
    <rect class="cls-1" x="463.03" y="1256.37" width="57.58" height="27.28"/>
    <rect class="cls-1" x="520.52" y="1256.37" width="57.58" height="27.28"/>
    <rect class="cls-1" x="578" y="1256.37" width="28.38" height="27.28"/>
    <rect class="cls-1" x="1.39" y="1229.06" width="30.93" height="27.28"/>
    <rect class="cls-1" x="31.86" y="1229.06" width="57.58" height="27.28"/>
    <rect class="cls-1" x="89.35" y="1229.06" width="57.58" height="27.28"/>
    <rect class="cls-1" x="146.84" y="1229.06" width="57.58" height="27.28"/>
    <rect class="cls-1" x="204.33" y="1229.06" width="57.58" height="27.28"/>
    <rect class="cls-1" x="261.82" y="1229.06" width="57.58" height="27.28"/>
    <rect class="cls-1" x="319.31" y="1229.06" width="57.58" height="27.28"/>
    <rect class="cls-1" x="376.79" y="1229.06" width="57.58" height="27.28"/>
    <rect class="cls-1" x="434.28" y="1229.06" width="57.58" height="27.28"/>
    <rect class="cls-1" x="491.77" y="1229.06" width="57.58" height="27.28"/>
    <rect class="cls-1" x="549.26" y="1229.06" width="57.58" height="27.28"/>
    <rect class="cls-1" x="1.41" y="1201.74" width="2.54" height="27.28"/>
    <rect class="cls-1" x="1.33" y="1201.74" width="59.37" height="27.28"/>
    <rect class="cls-1" x="60.61" y="1201.74" width="57.58" height="27.28"/>
    <rect class="cls-1" x="118.1" y="1201.74" width="57.58" height="27.28"/>
    <rect class="cls-1" x="175.59" y="1201.74" width="57.58" height="27.28"/>
    <rect class="cls-1" x="233.07" y="1201.74" width="57.58" height="27.28"/>
    <rect class="cls-1" x="290.56" y="1201.74" width="57.58" height="27.28"/>
    <rect class="cls-1" x="348.05" y="1201.74" width="57.58" height="27.28"/>
    <rect class="cls-1" x="405.54" y="1201.74" width="57.58" height="27.28"/>
    <rect class="cls-1" x="463.03" y="1201.74" width="57.58" height="27.28"/>
    <rect class="cls-1" x="520.52" y="1201.74" width="57.58" height="27.28"/>
    <rect class="cls-1" x="578" y="1201.74" width="28.79" height="27.28"/>
    <rect class="cls-1" x="1.42" y="1174.42" width="31.28" height="27.28"/>
    <rect class="cls-1" x="31.86" y="1174.42" width="57.58" height="27.28"/>
    <rect class="cls-1" x="89.35" y="1174.42" width="57.58" height="27.28"/>
    <rect class="cls-1" x="146.84" y="1174.42" width="57.58" height="27.28"/>
    <rect class="cls-1" x="204.33" y="1174.42" width="57.58" height="27.28"/>
    <rect class="cls-1" x="261.82" y="1174.42" width="57.58" height="27.28"/>
    <rect class="cls-1" x="319.31" y="1174.42" width="57.58" height="27.28"/>
    <rect class="cls-1" x="376.79" y="1174.42" width="57.58" height="27.28"/>
    <rect class="cls-1" x="434.28" y="1174.42" width="57.58" height="27.28"/>
    <rect class="cls-1" x="491.77" y="1174.42" width="57.58" height="27.28"/>
    <rect class="cls-1" x="549.12" y="1174.42" width="57.58" height="27.28"/>
    <rect class="cls-1" x="0.87" y="1147.11" width="59.83" height="27.28"/>
    <rect class="cls-1" x="60.61" y="1147.11" width="57.58" height="27.28"/>
    <rect class="cls-1" x="118.1" y="1147.11" width="57.58" height="27.28"/>
    <rect class="cls-1" x="175.59" y="1147.11" width="57.58" height="27.28"/>
    <rect class="cls-1" x="233.07" y="1147.11" width="57.58" height="27.28"/>
    <rect class="cls-1" x="290.56" y="1147.11" width="57.58" height="27.28"/>
    <rect class="cls-1" x="348.05" y="1147.11" width="57.58" height="27.28"/>
    <rect class="cls-1" x="405.54" y="1147.11" width="57.58" height="27.28"/>
    <rect class="cls-1" x="463.03" y="1147.11" width="57.58" height="27.28"/>
    <rect class="cls-1" x="520.52" y="1147.11" width="57.58" height="27.28"/>
    <rect class="cls-1" x="578.28" y="1147.11" width="28.37" height="27.28"/>
    <rect class="cls-1" x="31.86" y="1119.79" width="57.58" height="27.28"/>
    <rect class="cls-1" x="1.21" y="1119.79" width="30.71" height="27.28"/>
    <rect class="cls-1" x="89.35" y="1119.79" width="57.58" height="27.28"/>
    <rect class="cls-1" x="146.84" y="1119.79" width="57.58" height="27.28"/>
    <rect class="cls-1" x="204.33" y="1119.79" width="57.58" height="27.28"/>
    <rect class="cls-1" x="261.82" y="1119.79" width="57.58" height="27.28"/>
    <rect class="cls-1" x="319.31" y="1119.79" width="57.58" height="27.28"/>
    <rect class="cls-1" x="376.79" y="1119.79" width="57.58" height="27.28"/>
    <rect class="cls-1" x="434.28" y="1119.79" width="57.58" height="27.28"/>
    <rect class="cls-1" x="491.77" y="1119.79" width="57.58" height="27.28"/>
    <rect class="cls-1" x="549.12" y="1119.79" width="57.52" height="27.28"/>
    <rect class="cls-1" x="1" y="1092.47" width="59.7" height="27.28"/>
    <rect class="cls-1" x="60.61" y="1092.47" width="57.58" height="27.28"/>
    <rect class="cls-1" x="118.1" y="1092.47" width="57.58" height="27.28"/>
    <rect class="cls-1" x="175.59" y="1092.47" width="57.58" height="27.28"/>
    <rect class="cls-1" x="233.07" y="1092.47" width="57.58" height="27.28"/>
    <rect class="cls-1" x="290.56" y="1092.47" width="57.58" height="27.28"/>
    <rect class="cls-1" x="348.05" y="1092.47" width="57.58" height="27.28"/>
    <rect class="cls-1" x="405.54" y="1092.47" width="57.58" height="27.28"/>
    <rect class="cls-1" x="463.03" y="1092.47" width="57.58" height="27.28"/>
    <rect class="cls-1" x="520.52" y="1092.47" width="57.58" height="27.28"/>
    <rect class="cls-1" x="578.42" y="1092.47" width="28.35" height="27.28"/>
    <rect class="cls-1" x="0.87" y="1365.43" width="59.83" height="27.28"/>
    <rect class="cls-1" x="60.61" y="1365.43" width="57.58" height="27.28"/>
    <rect class="cls-1" x="118.1" y="1365.43" width="57.58" height="27.28"/>
    <rect class="cls-1" x="175.59" y="1365.43" width="57.58" height="27.28"/>
    <rect class="cls-1" x="233.07" y="1365.43" width="57.58" height="27.28"/>
    <rect class="cls-1" x="290.56" y="1365.43" width="57.58" height="27.28"/>
    <rect class="cls-1" x="348.05" y="1365.43" width="57.58" height="27.28"/>
    <rect class="cls-1" x="405.54" y="1365.43" width="57.58" height="27.28"/>
    <rect class="cls-1" x="463.03" y="1365.43" width="57.58" height="27.28"/>
    <rect class="cls-1" x="520.52" y="1365.43" width="57.58" height="27.28"/>
    <rect class="cls-1" x="578.28" y="1365.43" width="28.37" height="27.28"/>
    <rect class="cls-1" x="31.86" y="1338.11" width="57.58" height="27.28"/>
    <rect class="cls-1" x="1.21" y="1338.11" width="30.71" height="27.28"/>
    <rect class="cls-1" x="89.35" y="1338.11" width="57.58" height="27.28"/>
    <rect class="cls-1" x="146.84" y="1338.11" width="57.58" height="27.28"/>
    <rect class="cls-1" x="204.33" y="1338.11" width="57.58" height="27.28"/>
    <rect class="cls-1" x="261.82" y="1338.11" width="57.58" height="27.28"/>
    <rect class="cls-1" x="319.31" y="1338.11" width="57.58" height="27.28"/>
    <rect class="cls-1" x="376.79" y="1338.11" width="57.58" height="27.28"/>
    <rect class="cls-1" x="434.28" y="1338.11" width="57.58" height="27.28"/>
    <rect class="cls-1" x="491.77" y="1338.11" width="57.58" height="27.28"/>
    <rect class="cls-1" x="549.12" y="1338.11" width="57.52" height="27.28"/>
    <rect class="cls-1" x="1" y="1310.79" width="59.7" height="27.28"/>
    <rect class="cls-1" x="60.61" y="1310.79" width="57.58" height="27.28"/>
    <rect class="cls-1" x="118.1" y="1310.79" width="57.58" height="27.28"/>
    <rect class="cls-1" x="175.59" y="1310.79" width="57.58" height="27.28"/>
    <rect class="cls-1" x="233.07" y="1310.79" width="57.58" height="27.28"/>
    <rect class="cls-1" x="290.56" y="1310.79" width="57.58" height="27.28"/>
    <rect class="cls-1" x="348.05" y="1310.79" width="57.58" height="27.28"/>
    <rect class="cls-1" x="405.54" y="1310.79" width="57.58" height="27.28"/>
    <rect class="cls-1" x="463.03" y="1310.79" width="57.58" height="27.28"/>
    <rect class="cls-1" x="520.52" y="1310.79" width="57.58" height="27.28"/>
    <rect class="cls-1" x="578.42" y="1310.79" width="28.35" height="27.28"/>
  </g>
</svg>
