<svg id="arch" xmlns="http://www.w3.org/2000/svg" viewBox="0 0 2557.55 186.98">
  <defs>
    <style>
      .cls-1, .cls-2, .cls-3, .cls-4, .cls-5, .cls-6 {
        fill: gray;
        stroke: #4d4d4d;
        stroke-miterlimit: 10;
      }

      .cls-1 {
        stroke-width: 0.95px;
      }

      .cls-3 {
        stroke-width: 0.94px;
      }

      .cls-4 {
        stroke-width: 0.91px;
      }

      .cls-5 {
        stroke-width: 0.94px;
      }

      .cls-6 {
        stroke-width: 0.9px;
      }
    </style>
  </defs>
  <rect class="cls-1" x="0.52" y="83.18" width="39.63" height="20.59"/>
  <rect class="cls-2" x="40.07" y="83.18" width="43.47" height="20.59"/>
  <rect class="cls-2" x="83.47" y="83.18" width="43.47" height="20.59"/>
  <rect class="cls-2" x="126.86" y="83.18" width="43.47" height="20.59"/>
  <rect class="cls-2" x="170.26" y="83.18" width="43.47" height="20.59"/>
  <rect class="cls-2" x="213.65" y="83.18" width="43.47" height="20.59"/>
  <rect class="cls-2" x="257.05" y="83.18" width="43.47" height="20.59"/>
  <rect class="cls-2" x="300.44" y="83.18" width="43.47" height="20.59"/>
  <rect class="cls-2" x="343.84" y="83.18" width="43.47" height="20.59"/>
  <rect class="cls-2" x="387.23" y="83.18" width="43.47" height="20.59"/>
  <rect class="cls-2" x="430.63" y="83.18" width="43.47" height="20.59"/>
  <rect class="cls-2" x="474.02" y="83.18" width="43.47" height="20.59"/>
  <rect class="cls-2" x="517.42" y="83.18" width="43.47" height="20.59"/>
  <rect class="cls-2" x="560.81" y="83.18" width="43.47" height="20.59"/>
  <rect class="cls-2" x="604.21" y="83.18" width="43.47" height="20.59"/>
  <rect class="cls-2" x="647.6" y="83.18" width="43.47" height="20.59"/>
  <rect class="cls-2" x="691" y="83.18" width="43.47" height="20.59"/>
  <rect class="cls-2" x="734.39" y="83.18" width="43.47" height="20.59"/>
  <rect class="cls-2" x="777.79" y="83.18" width="43.47" height="20.59"/>
  <rect class="cls-2" x="821.18" y="83.18" width="43.47" height="20.59"/>
  <rect class="cls-2" x="864.58" y="83.18" width="43.47" height="20.59"/>
  <rect class="cls-2" x="907.97" y="83.18" width="43.47" height="20.59"/>
  <rect class="cls-2" x="951.37" y="83.18" width="43.47" height="20.59"/>
  <rect class="cls-2" x="994.76" y="83.18" width="43.47" height="20.59"/>
  <rect class="cls-2" x="1038.16" y="83.18" width="43.47" height="20.59"/>
  <rect class="cls-2" x="1081.55" y="83.18" width="43.47" height="20.59"/>
  <rect class="cls-2" x="1124.95" y="83.18" width="43.47" height="20.59"/>
  <rect class="cls-2" x="1168.34" y="83.18" width="43.47" height="20.59"/>
  <rect class="cls-2" x="1211.74" y="83.18" width="43.47" height="20.59"/>
  <rect class="cls-2" x="1255.13" y="83.18" width="43.47" height="20.59"/>
  <rect class="cls-2" x="1298.53" y="83.18" width="43.47" height="20.59"/>
  <rect class="cls-2" x="1341.92" y="83.18" width="43.47" height="20.59"/>
  <rect class="cls-2" x="1385.32" y="83.18" width="43.47" height="20.59"/>
  <rect class="cls-2" x="1428.71" y="83.18" width="43.47" height="20.59"/>
  <rect class="cls-2" x="1472.11" y="83.18" width="43.47" height="20.59"/>
  <rect class="cls-2" x="1515.5" y="83.18" width="43.47" height="20.59"/>
  <rect class="cls-2" x="1558.9" y="83.18" width="43.47" height="20.59"/>
  <rect class="cls-2" x="1602.29" y="83.18" width="43.47" height="20.59"/>
  <rect class="cls-2" x="1645.69" y="83.18" width="43.47" height="20.59"/>
  <rect class="cls-2" x="1689.08" y="83.18" width="43.47" height="20.59"/>
  <rect class="cls-2" x="1732.48" y="83.18" width="43.47" height="20.59"/>
  <rect class="cls-2" x="1775.87" y="83.18" width="43.47" height="20.59"/>
  <rect class="cls-2" x="1819.27" y="83.18" width="43.47" height="20.59"/>
  <rect class="cls-2" x="1862.66" y="83.18" width="43.47" height="20.59"/>
  <rect class="cls-2" x="1906.06" y="83.18" width="43.47" height="20.59"/>
  <rect class="cls-2" x="1949.45" y="83.18" width="43.47" height="20.59"/>
  <rect class="cls-2" x="1992.85" y="83.18" width="43.47" height="20.59"/>
  <rect class="cls-2" x="2036.24" y="83.18" width="43.47" height="20.59"/>
  <rect class="cls-2" x="2079.64" y="83.18" width="43.47" height="20.59"/>
  <rect class="cls-2" x="2123.03" y="83.18" width="43.47" height="20.59"/>
  <rect class="cls-2" x="2166.42" y="83.18" width="43.47" height="20.59"/>
  <rect class="cls-2" x="2209.82" y="83.18" width="43.47" height="20.59"/>
  <rect class="cls-2" x="2253.21" y="83.18" width="43.47" height="20.59"/>
  <rect class="cls-2" x="2296.61" y="83.18" width="43.47" height="20.59"/>
  <rect class="cls-2" x="2340" y="83.18" width="43.47" height="20.59"/>
  <rect class="cls-2" x="2383.4" y="83.18" width="43.47" height="20.59"/>
  <rect class="cls-2" x="2426.79" y="83.18" width="43.47" height="20.59"/>
  <rect class="cls-2" x="2470.19" y="83.18" width="43.47" height="20.59"/>
  <rect class="cls-2" x="2513.58" y="83.18" width="43.47" height="20.59"/>
  <rect class="cls-3" x="0.47" y="124.61" width="39.57" height="20.59"/>
  <rect class="cls-2" x="40.07" y="124.61" width="43.47" height="20.59"/>
  <rect class="cls-2" x="83.47" y="124.61" width="43.47" height="20.59"/>
  <rect class="cls-2" x="126.86" y="124.61" width="43.47" height="20.59"/>
  <rect class="cls-2" x="170.26" y="124.61" width="43.47" height="20.59"/>
  <rect class="cls-2" x="213.65" y="124.61" width="43.47" height="20.59"/>
  <rect class="cls-2" x="257.05" y="124.61" width="43.47" height="20.59"/>
  <rect class="cls-2" x="300.44" y="124.61" width="43.47" height="20.59"/>
  <rect class="cls-2" x="343.84" y="124.61" width="43.47" height="20.59"/>
  <rect class="cls-2" x="387.23" y="124.61" width="43.47" height="20.59"/>
  <rect class="cls-2" x="430.63" y="124.61" width="43.47" height="20.59"/>
  <rect class="cls-2" x="474.02" y="124.61" width="43.47" height="20.59"/>
  <rect class="cls-2" x="517.42" y="124.61" width="43.47" height="20.59"/>
  <rect class="cls-2" x="560.81" y="124.61" width="43.47" height="20.59"/>
  <rect class="cls-2" x="604.21" y="124.61" width="43.47" height="20.59"/>
  <rect class="cls-2" x="647.6" y="124.61" width="43.47" height="20.59"/>
  <rect class="cls-2" x="691" y="124.61" width="43.47" height="20.59"/>
  <rect class="cls-2" x="734.39" y="124.61" width="43.47" height="20.59"/>
  <rect class="cls-2" x="777.79" y="124.61" width="43.47" height="20.59"/>
  <rect class="cls-2" x="821.18" y="124.61" width="43.47" height="20.59"/>
  <rect class="cls-2" x="864.58" y="124.61" width="43.47" height="20.59"/>
  <rect class="cls-2" x="907.97" y="124.61" width="43.47" height="20.59"/>
  <rect class="cls-2" x="951.37" y="124.61" width="43.47" height="20.59"/>
  <rect class="cls-2" x="994.76" y="124.61" width="43.47" height="20.59"/>
  <rect class="cls-2" x="1038.16" y="124.61" width="43.47" height="20.59"/>
  <rect class="cls-2" x="1081.55" y="124.61" width="43.47" height="20.59"/>
  <rect class="cls-2" x="1124.95" y="124.61" width="43.47" height="20.59"/>
  <rect class="cls-2" x="1168.34" y="124.61" width="43.47" height="20.59"/>
  <rect class="cls-2" x="1211.74" y="124.61" width="43.47" height="20.59"/>
  <rect class="cls-2" x="1255.13" y="124.61" width="43.47" height="20.59"/>
  <rect class="cls-2" x="1298.53" y="124.61" width="43.47" height="20.59"/>
  <rect class="cls-2" x="1341.92" y="124.61" width="43.47" height="20.59"/>
  <rect class="cls-2" x="1385.32" y="124.61" width="43.47" height="20.59"/>
  <rect class="cls-2" x="1428.71" y="124.61" width="43.47" height="20.59"/>
  <rect class="cls-2" x="1472.11" y="124.61" width="43.47" height="20.59"/>
  <rect class="cls-2" x="1515.5" y="124.61" width="43.47" height="20.59"/>
  <rect class="cls-2" x="1558.9" y="124.61" width="43.47" height="20.59"/>
  <rect class="cls-2" x="1602.29" y="124.61" width="43.47" height="20.59"/>
  <rect class="cls-2" x="1645.69" y="124.61" width="43.47" height="20.59"/>
  <rect class="cls-2" x="1689.08" y="124.61" width="43.47" height="20.59"/>
  <rect class="cls-2" x="1732.48" y="124.61" width="43.47" height="20.59"/>
  <rect class="cls-2" x="1775.87" y="124.61" width="43.47" height="20.59"/>
  <rect class="cls-2" x="1819.27" y="124.61" width="43.47" height="20.59"/>
  <rect class="cls-2" x="1862.66" y="124.61" width="43.47" height="20.59"/>
  <rect class="cls-2" x="1906.06" y="124.61" width="43.47" height="20.59"/>
  <rect class="cls-2" x="1949.45" y="124.61" width="43.47" height="20.59"/>
  <rect class="cls-2" x="1992.85" y="124.61" width="43.47" height="20.59"/>
  <rect class="cls-2" x="2036.24" y="124.61" width="43.47" height="20.59"/>
  <rect class="cls-2" x="2079.64" y="124.61" width="43.47" height="20.59"/>
  <rect class="cls-2" x="2123.03" y="124.61" width="43.47" height="20.59"/>
  <rect class="cls-2" x="2166.42" y="124.61" width="43.47" height="20.59"/>
  <rect class="cls-2" x="2209.82" y="124.61" width="43.47" height="20.59"/>
  <rect class="cls-2" x="2253.21" y="124.61" width="43.47" height="20.59"/>
  <rect class="cls-2" x="2296.61" y="124.61" width="43.47" height="20.59"/>
  <rect class="cls-2" x="2340" y="124.61" width="43.47" height="20.59"/>
  <rect class="cls-2" x="2383.4" y="124.61" width="43.47" height="20.59"/>
  <rect class="cls-2" x="2426.79" y="124.61" width="43.47" height="20.59"/>
  <rect class="cls-2" x="2470.19" y="124.61" width="43.47" height="20.59"/>
  <rect class="cls-2" x="2513.58" y="124.61" width="43.47" height="20.59"/>
  <rect class="cls-4" x="0.48" y="103.99" width="17.97" height="20.59"/>
  <rect class="cls-2" x="18.38" y="103.99" width="43.47" height="20.59"/>
  <rect class="cls-2" x="61.77" y="103.99" width="43.47" height="20.59"/>
  <rect class="cls-2" x="105.17" y="103.99" width="43.47" height="20.59"/>
  <rect class="cls-2" x="148.56" y="103.99" width="43.47" height="20.59"/>
  <rect class="cls-2" x="191.96" y="103.99" width="43.47" height="20.59"/>
  <rect class="cls-2" x="235.35" y="103.99" width="43.47" height="20.59"/>
  <rect class="cls-2" x="278.75" y="103.99" width="43.47" height="20.59"/>
  <rect class="cls-2" x="322.14" y="103.99" width="43.47" height="20.59"/>
  <rect class="cls-2" x="365.54" y="103.99" width="43.47" height="20.59"/>
  <rect class="cls-2" x="408.93" y="103.99" width="43.47" height="20.59"/>
  <rect class="cls-2" x="452.33" y="103.99" width="43.47" height="20.59"/>
  <rect class="cls-2" x="495.72" y="103.99" width="43.47" height="20.59"/>
  <rect class="cls-2" x="539.12" y="103.99" width="43.47" height="20.59"/>
  <rect class="cls-2" x="582.51" y="103.99" width="43.47" height="20.59"/>
  <rect class="cls-2" x="625.91" y="103.99" width="43.47" height="20.59"/>
  <rect class="cls-2" x="669.3" y="103.99" width="43.47" height="20.59"/>
  <rect class="cls-2" x="712.7" y="103.99" width="43.47" height="20.59"/>
  <rect class="cls-2" x="756.09" y="103.99" width="43.47" height="20.59"/>
  <rect class="cls-2" x="799.49" y="103.99" width="43.47" height="20.59"/>
  <rect class="cls-2" x="842.88" y="103.99" width="43.47" height="20.59"/>
  <rect class="cls-2" x="886.27" y="103.99" width="43.47" height="20.59"/>
  <rect class="cls-2" x="929.67" y="103.99" width="43.47" height="20.59"/>
  <rect class="cls-2" x="973.06" y="103.99" width="43.47" height="20.59"/>
  <rect class="cls-2" x="1016.46" y="103.99" width="43.47" height="20.59"/>
  <rect class="cls-2" x="1059.85" y="103.99" width="43.47" height="20.59"/>
  <rect class="cls-2" x="1103.25" y="103.99" width="43.47" height="20.59"/>
  <rect class="cls-2" x="1146.64" y="103.99" width="43.47" height="20.59"/>
  <rect class="cls-2" x="1190.04" y="103.99" width="43.47" height="20.59"/>
  <rect class="cls-2" x="1233.43" y="103.99" width="43.47" height="20.59"/>
  <rect class="cls-2" x="1276.83" y="103.99" width="43.47" height="20.59"/>
  <rect class="cls-2" x="1320.22" y="103.99" width="43.47" height="20.59"/>
  <rect class="cls-2" x="1363.62" y="103.99" width="43.47" height="20.59"/>
  <rect class="cls-2" x="1407.01" y="103.99" width="43.47" height="20.59"/>
  <rect class="cls-2" x="1450.41" y="103.99" width="43.47" height="20.59"/>
  <rect class="cls-2" x="1493.8" y="103.99" width="43.47" height="20.59"/>
  <rect class="cls-2" x="1537.2" y="103.99" width="43.47" height="20.59"/>
  <rect class="cls-2" x="1580.59" y="103.99" width="43.47" height="20.59"/>
  <rect class="cls-2" x="1623.99" y="103.99" width="43.47" height="20.59"/>
  <rect class="cls-2" x="1667.38" y="103.99" width="43.47" height="20.59"/>
  <rect class="cls-2" x="1710.78" y="103.99" width="43.47" height="20.59"/>
  <rect class="cls-2" x="1754.17" y="103.99" width="43.47" height="20.59"/>
  <rect class="cls-2" x="1797.57" y="103.99" width="43.47" height="20.59"/>
  <rect class="cls-2" x="1840.96" y="103.99" width="43.47" height="20.59"/>
  <rect class="cls-2" x="1884.36" y="103.99" width="43.47" height="20.59"/>
  <rect class="cls-2" x="1927.75" y="103.99" width="43.47" height="20.59"/>
  <rect class="cls-2" x="1971.15" y="103.99" width="43.47" height="20.59"/>
  <rect class="cls-2" x="2014.54" y="103.99" width="43.47" height="20.59"/>
  <rect class="cls-2" x="2057.94" y="103.99" width="43.47" height="20.59"/>
  <rect class="cls-2" x="2101.33" y="103.99" width="43.47" height="20.59"/>
  <rect class="cls-2" x="2144.73" y="103.99" width="43.47" height="20.59"/>
  <rect class="cls-2" x="2188.12" y="103.99" width="43.47" height="20.59"/>
  <rect class="cls-2" x="2231.52" y="103.99" width="43.47" height="20.59"/>
  <rect class="cls-2" x="2274.91" y="103.99" width="43.47" height="20.59"/>
  <rect class="cls-2" x="2318.31" y="103.99" width="43.47" height="20.59"/>
  <rect class="cls-2" x="2361.7" y="103.99" width="43.47" height="20.59"/>
  <rect class="cls-2" x="2405.1" y="103.99" width="43.47" height="20.59"/>
  <rect class="cls-2" x="2448.49" y="103.99" width="43.47" height="20.59"/>
  <rect class="cls-2" x="2491.89" y="103.99" width="43.47" height="20.59"/>
  <rect class="cls-2" x="2535.28" y="103.99" width="21.64" height="20.59"/>
  <rect class="cls-5" x="0.49" y="165.9" width="39.55" height="20.59"/>
  <rect class="cls-2" x="40.07" y="165.9" width="43.47" height="20.59"/>
  <rect class="cls-2" x="83.47" y="165.9" width="43.47" height="20.59"/>
  <rect class="cls-2" x="126.86" y="165.9" width="43.47" height="20.59"/>
  <rect class="cls-2" x="170.26" y="165.9" width="43.47" height="20.59"/>
  <rect class="cls-2" x="213.65" y="165.9" width="43.47" height="20.59"/>
  <rect class="cls-2" x="257.05" y="165.9" width="43.47" height="20.59"/>
  <rect class="cls-2" x="300.44" y="165.9" width="43.47" height="20.59"/>
  <rect class="cls-2" x="343.84" y="165.9" width="43.47" height="20.59"/>
  <rect class="cls-2" x="387.23" y="165.9" width="43.47" height="20.59"/>
  <rect class="cls-2" x="430.63" y="165.9" width="43.47" height="20.59"/>
  <rect class="cls-2" x="474.02" y="165.9" width="43.47" height="20.59"/>
  <rect class="cls-2" x="517.42" y="165.9" width="43.47" height="20.59"/>
  <rect class="cls-2" x="560.81" y="165.9" width="43.47" height="20.59"/>
  <rect class="cls-2" x="604.21" y="165.9" width="43.47" height="20.59"/>
  <rect class="cls-2" x="647.6" y="165.9" width="43.47" height="20.59"/>
  <rect class="cls-2" x="691" y="165.9" width="43.47" height="20.59"/>
  <rect class="cls-2" x="734.39" y="165.9" width="43.47" height="20.59"/>
  <rect class="cls-2" x="777.79" y="165.9" width="43.47" height="20.59"/>
  <rect class="cls-2" x="821.18" y="165.9" width="43.47" height="20.59"/>
  <rect class="cls-2" x="864.58" y="165.9" width="43.47" height="20.59"/>
  <rect class="cls-2" x="907.97" y="165.9" width="43.47" height="20.59"/>
  <rect class="cls-2" x="951.37" y="165.9" width="43.47" height="20.59"/>
  <rect class="cls-2" x="994.76" y="165.9" width="43.47" height="20.59"/>
  <rect class="cls-2" x="1038.16" y="165.9" width="43.47" height="20.59"/>
  <rect class="cls-2" x="1081.55" y="165.9" width="43.47" height="20.59"/>
  <rect class="cls-2" x="1124.95" y="165.9" width="43.47" height="20.59"/>
  <rect class="cls-2" x="1168.34" y="165.9" width="43.47" height="20.59"/>
  <rect class="cls-2" x="1211.74" y="165.9" width="43.47" height="20.59"/>
  <rect class="cls-2" x="1255.13" y="165.9" width="43.47" height="20.59"/>
  <rect class="cls-2" x="1298.53" y="165.9" width="43.47" height="20.59"/>
  <rect class="cls-2" x="1341.92" y="165.9" width="43.47" height="20.59"/>
  <rect class="cls-2" x="1385.32" y="165.9" width="43.47" height="20.59"/>
  <rect class="cls-2" x="1428.71" y="165.9" width="43.47" height="20.59"/>
  <rect class="cls-2" x="1472.11" y="165.9" width="43.47" height="20.59"/>
  <rect class="cls-2" x="1515.5" y="165.9" width="43.47" height="20.59"/>
  <rect class="cls-2" x="1558.9" y="165.9" width="43.47" height="20.59"/>
  <rect class="cls-2" x="1602.29" y="165.9" width="43.47" height="20.59"/>
  <rect class="cls-2" x="1645.69" y="165.9" width="43.47" height="20.59"/>
  <rect class="cls-2" x="1689.08" y="165.9" width="43.47" height="20.59"/>
  <rect class="cls-2" x="1732.48" y="165.9" width="43.47" height="20.59"/>
  <rect class="cls-2" x="1775.87" y="165.9" width="43.47" height="20.59"/>
  <rect class="cls-2" x="1819.27" y="165.9" width="43.47" height="20.59"/>
  <rect class="cls-2" x="1862.66" y="165.9" width="43.47" height="20.59"/>
  <rect class="cls-2" x="1906.06" y="165.9" width="43.47" height="20.59"/>
  <rect class="cls-2" x="1949.45" y="165.9" width="43.47" height="20.59"/>
  <rect class="cls-2" x="1992.85" y="165.9" width="43.47" height="20.59"/>
  <rect class="cls-2" x="2036.24" y="165.9" width="43.47" height="20.59"/>
  <rect class="cls-2" x="2079.64" y="165.9" width="43.47" height="20.59"/>
  <rect class="cls-2" x="2123.03" y="165.9" width="43.47" height="20.59"/>
  <rect class="cls-2" x="2166.42" y="165.9" width="43.47" height="20.59"/>
  <rect class="cls-2" x="2209.82" y="165.9" width="43.47" height="20.59"/>
  <rect class="cls-2" x="2253.21" y="165.9" width="43.47" height="20.59"/>
  <rect class="cls-2" x="2296.61" y="165.9" width="43.47" height="20.59"/>
  <rect class="cls-2" x="2340" y="165.9" width="43.47" height="20.59"/>
  <rect class="cls-2" x="2383.4" y="165.9" width="43.47" height="20.59"/>
  <rect class="cls-2" x="2426.79" y="165.9" width="43.47" height="20.59"/>
  <rect class="cls-2" x="2470.19" y="165.9" width="43.47" height="20.59"/>
  <rect class="cls-2" x="2513.58" y="165.9" width="43.47" height="20.59"/>
  <rect class="cls-6" x="0.5" y="145.28" width="17.94" height="20.59"/>
  <rect class="cls-2" x="18.38" y="145.28" width="43.47" height="20.59"/>
  <rect class="cls-2" x="61.77" y="145.28" width="43.47" height="20.59"/>
  <rect class="cls-2" x="105.17" y="145.28" width="43.47" height="20.59"/>
  <rect class="cls-2" x="148.56" y="145.28" width="43.47" height="20.59"/>
  <rect class="cls-2" x="191.96" y="145.28" width="43.47" height="20.59"/>
  <rect class="cls-2" x="235.35" y="145.28" width="43.47" height="20.59"/>
  <rect class="cls-2" x="278.75" y="145.28" width="43.47" height="20.59"/>
  <rect class="cls-2" x="322.14" y="145.28" width="43.47" height="20.59"/>
  <rect class="cls-2" x="365.54" y="145.28" width="43.47" height="20.59"/>
  <rect class="cls-2" x="408.93" y="145.28" width="43.47" height="20.59"/>
  <rect class="cls-2" x="452.33" y="145.28" width="43.47" height="20.59"/>
  <rect class="cls-2" x="495.72" y="145.28" width="43.47" height="20.59"/>
  <rect class="cls-2" x="539.12" y="145.28" width="43.47" height="20.59"/>
  <rect class="cls-2" x="582.51" y="145.28" width="43.47" height="20.59"/>
  <rect class="cls-2" x="625.91" y="145.28" width="43.47" height="20.59"/>
  <rect class="cls-2" x="669.3" y="145.28" width="43.47" height="20.59"/>
  <rect class="cls-2" x="712.7" y="145.28" width="43.47" height="20.59"/>
  <rect class="cls-2" x="756.09" y="145.28" width="43.47" height="20.59"/>
  <rect class="cls-2" x="799.49" y="145.28" width="43.47" height="20.59"/>
  <rect class="cls-2" x="842.88" y="145.28" width="43.47" height="20.59"/>
  <rect class="cls-2" x="886.27" y="145.28" width="43.47" height="20.59"/>
  <rect class="cls-2" x="929.67" y="145.28" width="43.47" height="20.59"/>
  <rect class="cls-2" x="973.06" y="145.28" width="43.47" height="20.59"/>
  <rect class="cls-2" x="1016.46" y="145.28" width="43.47" height="20.59"/>
  <rect class="cls-2" x="1059.85" y="145.28" width="43.47" height="20.59"/>
  <rect class="cls-2" x="1103.25" y="145.28" width="43.47" height="20.59"/>
  <rect class="cls-2" x="1146.64" y="145.28" width="43.47" height="20.59"/>
  <rect class="cls-2" x="1190.04" y="145.28" width="43.47" height="20.59"/>
  <rect class="cls-2" x="1233.43" y="145.28" width="43.47" height="20.59"/>
  <rect class="cls-2" x="1276.83" y="145.28" width="43.47" height="20.59"/>
  <rect class="cls-2" x="1320.22" y="145.28" width="43.47" height="20.59"/>
  <rect class="cls-2" x="1363.62" y="145.28" width="43.47" height="20.59"/>
  <rect class="cls-2" x="1407.01" y="145.28" width="43.47" height="20.59"/>
  <rect class="cls-2" x="1450.41" y="145.28" width="43.47" height="20.59"/>
  <rect class="cls-2" x="1493.8" y="145.28" width="43.47" height="20.59"/>
  <rect class="cls-2" x="1537.2" y="145.28" width="43.47" height="20.59"/>
  <rect class="cls-2" x="1580.59" y="145.28" width="43.47" height="20.59"/>
  <rect class="cls-2" x="1623.99" y="145.28" width="43.47" height="20.59"/>
  <rect class="cls-2" x="1667.38" y="145.28" width="43.47" height="20.59"/>
  <rect class="cls-2" x="1710.78" y="145.28" width="43.47" height="20.59"/>
  <rect class="cls-2" x="1754.17" y="145.28" width="43.47" height="20.59"/>
  <rect class="cls-2" x="1797.57" y="145.28" width="43.47" height="20.59"/>
  <rect class="cls-2" x="1840.96" y="145.28" width="43.47" height="20.59"/>
  <rect class="cls-2" x="1884.36" y="145.28" width="43.47" height="20.59"/>
  <rect class="cls-2" x="1927.75" y="145.28" width="43.47" height="20.59"/>
  <rect class="cls-2" x="1971.15" y="145.28" width="43.47" height="20.59"/>
  <rect class="cls-2" x="2014.54" y="145.28" width="43.47" height="20.59"/>
  <rect class="cls-2" x="2057.94" y="145.28" width="43.47" height="20.59"/>
  <rect class="cls-2" x="2101.33" y="145.28" width="43.47" height="20.59"/>
  <rect class="cls-2" x="2144.73" y="145.28" width="43.47" height="20.59"/>
  <rect class="cls-2" x="2188.12" y="145.28" width="43.47" height="20.59"/>
  <rect class="cls-2" x="2231.52" y="145.28" width="43.47" height="20.59"/>
  <rect class="cls-2" x="2274.91" y="145.28" width="43.47" height="20.59"/>
  <rect class="cls-2" x="2318.31" y="145.28" width="43.47" height="20.59"/>
  <rect class="cls-2" x="2361.7" y="145.28" width="43.47" height="20.59"/>
  <rect class="cls-2" x="2405.1" y="145.28" width="43.47" height="20.59"/>
  <rect class="cls-2" x="2448.49" y="145.28" width="43.47" height="20.59"/>
  <rect class="cls-2" x="2491.89" y="145.28" width="43.47" height="20.59"/>
  <rect class="cls-2" x="2535.28" y="145.28" width="21.64" height="20.59"/>
  <rect class="cls-1" x="0.52" y="0.5" width="39.63" height="20.59"/>
  <rect class="cls-2" x="40.07" y="0.5" width="43.47" height="20.59"/>
  <rect class="cls-2" x="83.47" y="0.5" width="43.47" height="20.59"/>
  <rect class="cls-2" x="126.86" y="0.5" width="43.47" height="20.59"/>
  <rect class="cls-2" x="170.26" y="0.5" width="43.47" height="20.59"/>
  <rect class="cls-2" x="213.65" y="0.5" width="43.47" height="20.59"/>
  <rect class="cls-2" x="257.05" y="0.5" width="43.47" height="20.59"/>
  <rect class="cls-2" x="300.44" y="0.5" width="43.47" height="20.59"/>
  <rect class="cls-2" x="343.84" y="0.5" width="43.47" height="20.59"/>
  <rect class="cls-2" x="387.23" y="0.5" width="43.47" height="20.59"/>
  <rect class="cls-2" x="430.63" y="0.5" width="43.47" height="20.59"/>
  <rect class="cls-2" x="474.02" y="0.5" width="43.47" height="20.59"/>
  <rect class="cls-2" x="517.42" y="0.5" width="43.47" height="20.59"/>
  <rect class="cls-2" x="560.81" y="0.5" width="43.47" height="20.59"/>
  <rect class="cls-2" x="604.21" y="0.5" width="43.47" height="20.59"/>
  <rect class="cls-2" x="647.6" y="0.5" width="43.47" height="20.59"/>
  <rect class="cls-2" x="691" y="0.5" width="43.47" height="20.59"/>
  <rect class="cls-2" x="734.39" y="0.5" width="43.47" height="20.59"/>
  <rect class="cls-2" x="777.79" y="0.5" width="43.47" height="20.59"/>
  <rect class="cls-2" x="821.18" y="0.5" width="43.47" height="20.59"/>
  <rect class="cls-2" x="864.58" y="0.5" width="43.47" height="20.59"/>
  <rect class="cls-2" x="907.97" y="0.5" width="43.47" height="20.59"/>
  <rect class="cls-2" x="951.37" y="0.5" width="43.47" height="20.59"/>
  <rect class="cls-2" x="994.76" y="0.5" width="43.47" height="20.59"/>
  <rect class="cls-2" x="1038.16" y="0.5" width="43.47" height="20.59"/>
  <rect class="cls-2" x="1081.55" y="0.5" width="43.47" height="20.59"/>
  <rect class="cls-2" x="1124.95" y="0.5" width="43.47" height="20.59"/>
  <rect class="cls-2" x="1168.34" y="0.5" width="43.47" height="20.59"/>
  <rect class="cls-2" x="1211.74" y="0.5" width="43.47" height="20.59"/>
  <rect class="cls-2" x="1255.13" y="0.5" width="43.47" height="20.59"/>
  <rect class="cls-2" x="1298.53" y="0.5" width="43.47" height="20.59"/>
  <rect class="cls-2" x="1341.92" y="0.5" width="43.47" height="20.59"/>
  <rect class="cls-2" x="1385.32" y="0.5" width="43.47" height="20.59"/>
  <rect class="cls-2" x="1428.71" y="0.5" width="43.47" height="20.59"/>
  <rect class="cls-2" x="1472.11" y="0.5" width="43.47" height="20.59"/>
  <rect class="cls-2" x="1515.5" y="0.5" width="43.47" height="20.59"/>
  <rect class="cls-2" x="1558.9" y="0.5" width="43.47" height="20.59"/>
  <rect class="cls-2" x="1602.29" y="0.5" width="43.47" height="20.59"/>
  <rect class="cls-2" x="1645.69" y="0.5" width="43.47" height="20.59"/>
  <rect class="cls-2" x="1689.08" y="0.5" width="43.47" height="20.59"/>
  <rect class="cls-2" x="1732.48" y="0.5" width="43.47" height="20.59"/>
  <rect class="cls-2" x="1775.87" y="0.5" width="43.47" height="20.59"/>
  <rect class="cls-2" x="1819.27" y="0.5" width="43.47" height="20.59"/>
  <rect class="cls-2" x="1862.66" y="0.5" width="43.47" height="20.59"/>
  <rect class="cls-2" x="1906.06" y="0.5" width="43.47" height="20.59"/>
  <rect class="cls-2" x="1949.45" y="0.5" width="43.47" height="20.59"/>
  <rect class="cls-2" x="1992.85" y="0.5" width="43.47" height="20.59"/>
  <rect class="cls-2" x="2036.24" y="0.5" width="43.47" height="20.59"/>
  <rect class="cls-2" x="2079.64" y="0.5" width="43.47" height="20.59"/>
  <rect class="cls-2" x="2123.03" y="0.5" width="43.47" height="20.59"/>
  <rect class="cls-2" x="2166.42" y="0.5" width="43.47" height="20.59"/>
  <rect class="cls-2" x="2209.82" y="0.5" width="43.47" height="20.59"/>
  <rect class="cls-2" x="2253.21" y="0.5" width="43.47" height="20.59"/>
  <rect class="cls-2" x="2296.61" y="0.5" width="43.47" height="20.59"/>
  <rect class="cls-2" x="2340" y="0.5" width="43.47" height="20.59"/>
  <rect class="cls-2" x="2383.4" y="0.5" width="43.47" height="20.59"/>
  <rect class="cls-2" x="2426.79" y="0.5" width="43.47" height="20.59"/>
  <rect class="cls-2" x="2470.19" y="0.5" width="43.47" height="20.59"/>
  <rect class="cls-2" x="2513.58" y="0.5" width="43.47" height="20.59"/>
  <rect class="cls-3" x="0.47" y="41.93" width="39.57" height="20.59"/>
  <rect class="cls-2" x="40.07" y="41.93" width="43.47" height="20.59"/>
  <rect class="cls-2" x="83.47" y="41.93" width="43.47" height="20.59"/>
  <rect class="cls-2" x="126.86" y="41.93" width="43.47" height="20.59"/>
  <rect class="cls-2" x="170.26" y="41.93" width="43.47" height="20.59"/>
  <rect class="cls-2" x="213.65" y="41.93" width="43.47" height="20.59"/>
  <rect class="cls-2" x="257.05" y="41.93" width="43.47" height="20.59"/>
  <rect class="cls-2" x="300.44" y="41.93" width="43.47" height="20.59"/>
  <rect class="cls-2" x="343.84" y="41.93" width="43.47" height="20.59"/>
  <rect class="cls-2" x="387.23" y="41.93" width="43.47" height="20.59"/>
  <rect class="cls-2" x="430.63" y="41.93" width="43.47" height="20.59"/>
  <rect class="cls-2" x="474.02" y="41.93" width="43.47" height="20.59"/>
  <rect class="cls-2" x="517.42" y="41.93" width="43.47" height="20.59"/>
  <rect class="cls-2" x="560.81" y="41.93" width="43.47" height="20.59"/>
  <rect class="cls-2" x="604.21" y="41.93" width="43.47" height="20.59"/>
  <rect class="cls-2" x="647.6" y="41.93" width="43.47" height="20.59"/>
  <rect class="cls-2" x="691" y="41.93" width="43.47" height="20.59"/>
  <rect class="cls-2" x="734.39" y="41.93" width="43.47" height="20.59"/>
  <rect class="cls-2" x="777.79" y="41.93" width="43.47" height="20.59"/>
  <rect class="cls-2" x="821.18" y="41.93" width="43.47" height="20.59"/>
  <rect class="cls-2" x="864.58" y="41.93" width="43.47" height="20.59"/>
  <rect class="cls-2" x="907.97" y="41.93" width="43.47" height="20.59"/>
  <rect class="cls-2" x="951.37" y="41.93" width="43.47" height="20.59"/>
  <rect class="cls-2" x="994.76" y="41.93" width="43.47" height="20.59"/>
  <rect class="cls-2" x="1038.16" y="41.93" width="43.47" height="20.59"/>
  <rect class="cls-2" x="1081.55" y="41.93" width="43.47" height="20.59"/>
  <rect class="cls-2" x="1124.95" y="41.93" width="43.47" height="20.59"/>
  <rect class="cls-2" x="1168.34" y="41.93" width="43.47" height="20.59"/>
  <rect class="cls-2" x="1211.74" y="41.93" width="43.47" height="20.59"/>
  <rect class="cls-2" x="1255.13" y="41.93" width="43.47" height="20.59"/>
  <rect class="cls-2" x="1298.53" y="41.93" width="43.47" height="20.59"/>
  <rect class="cls-2" x="1341.92" y="41.93" width="43.47" height="20.59"/>
  <rect class="cls-2" x="1385.32" y="41.93" width="43.47" height="20.59"/>
  <rect class="cls-2" x="1428.71" y="41.93" width="43.47" height="20.59"/>
  <rect class="cls-2" x="1472.11" y="41.93" width="43.47" height="20.59"/>
  <rect class="cls-2" x="1515.5" y="41.93" width="43.47" height="20.59"/>
  <rect class="cls-2" x="1558.9" y="41.93" width="43.47" height="20.59"/>
  <rect class="cls-2" x="1602.29" y="41.93" width="43.47" height="20.59"/>
  <rect class="cls-2" x="1645.69" y="41.93" width="43.47" height="20.59"/>
  <rect class="cls-2" x="1689.08" y="41.93" width="43.47" height="20.59"/>
  <rect class="cls-2" x="1732.48" y="41.93" width="43.47" height="20.59"/>
  <rect class="cls-2" x="1775.87" y="41.93" width="43.47" height="20.59"/>
  <rect class="cls-2" x="1819.27" y="41.93" width="43.47" height="20.59"/>
  <rect class="cls-2" x="1862.66" y="41.93" width="43.47" height="20.59"/>
  <rect class="cls-2" x="1906.06" y="41.93" width="43.47" height="20.59"/>
  <rect class="cls-2" x="1949.45" y="41.93" width="43.47" height="20.59"/>
  <rect class="cls-2" x="1992.85" y="41.93" width="43.47" height="20.59"/>
  <rect class="cls-2" x="2036.24" y="41.93" width="43.47" height="20.59"/>
  <rect class="cls-2" x="2079.64" y="41.93" width="43.47" height="20.59"/>
  <rect class="cls-2" x="2123.03" y="41.93" width="43.47" height="20.59"/>
  <rect class="cls-2" x="2166.42" y="41.93" width="43.47" height="20.59"/>
  <rect class="cls-2" x="2209.82" y="41.93" width="43.47" height="20.59"/>
  <rect class="cls-2" x="2253.21" y="41.93" width="43.47" height="20.59"/>
  <rect class="cls-2" x="2296.61" y="41.93" width="43.47" height="20.59"/>
  <rect class="cls-2" x="2340" y="41.93" width="43.47" height="20.59"/>
  <rect class="cls-2" x="2383.4" y="41.93" width="43.47" height="20.59"/>
  <rect class="cls-2" x="2426.79" y="41.93" width="43.47" height="20.59"/>
  <rect class="cls-2" x="2470.19" y="41.93" width="43.47" height="20.59"/>
  <rect class="cls-2" x="2513.58" y="41.93" width="43.47" height="20.59"/>
  <rect class="cls-4" x="0.48" y="21.31" width="17.97" height="20.59"/>
  <rect class="cls-2" x="18.38" y="21.31" width="43.47" height="20.59"/>
  <rect class="cls-2" x="61.77" y="21.31" width="43.47" height="20.59"/>
  <rect class="cls-2" x="105.17" y="21.31" width="43.47" height="20.59"/>
  <rect class="cls-2" x="148.56" y="21.31" width="43.47" height="20.59"/>
  <rect class="cls-2" x="191.96" y="21.31" width="43.47" height="20.59"/>
  <rect class="cls-2" x="235.35" y="21.31" width="43.47" height="20.59"/>
  <rect class="cls-2" x="278.75" y="21.31" width="43.47" height="20.59"/>
  <rect class="cls-2" x="322.14" y="21.31" width="43.47" height="20.59"/>
  <rect class="cls-2" x="365.54" y="21.31" width="43.47" height="20.59"/>
  <rect class="cls-2" x="408.93" y="21.31" width="43.47" height="20.59"/>
  <rect class="cls-2" x="452.33" y="21.31" width="43.47" height="20.59"/>
  <rect class="cls-2" x="495.72" y="21.31" width="43.47" height="20.59"/>
  <rect class="cls-2" x="539.12" y="21.31" width="43.47" height="20.59"/>
  <rect class="cls-2" x="582.51" y="21.31" width="43.47" height="20.59"/>
  <rect class="cls-2" x="625.91" y="21.31" width="43.47" height="20.59"/>
  <rect class="cls-2" x="669.3" y="21.31" width="43.47" height="20.59"/>
  <rect class="cls-2" x="712.7" y="21.31" width="43.47" height="20.59"/>
  <rect class="cls-2" x="756.09" y="21.31" width="43.47" height="20.59"/>
  <rect class="cls-2" x="799.49" y="21.31" width="43.47" height="20.59"/>
  <rect class="cls-2" x="842.88" y="21.31" width="43.47" height="20.59"/>
  <rect class="cls-2" x="886.27" y="21.31" width="43.47" height="20.59"/>
  <rect class="cls-2" x="929.67" y="21.31" width="43.47" height="20.59"/>
  <rect class="cls-2" x="973.06" y="21.31" width="43.47" height="20.59"/>
  <rect class="cls-2" x="1016.46" y="21.31" width="43.47" height="20.59"/>
  <rect class="cls-2" x="1059.85" y="21.31" width="43.47" height="20.59"/>
  <rect class="cls-2" x="1103.25" y="21.31" width="43.47" height="20.59"/>
  <rect class="cls-2" x="1146.64" y="21.31" width="43.47" height="20.59"/>
  <rect class="cls-2" x="1190.04" y="21.31" width="43.47" height="20.59"/>
  <rect class="cls-2" x="1233.43" y="21.31" width="43.47" height="20.59"/>
  <rect class="cls-2" x="1276.83" y="21.31" width="43.47" height="20.59"/>
  <rect class="cls-2" x="1320.22" y="21.31" width="43.47" height="20.59"/>
  <rect class="cls-2" x="1363.62" y="21.31" width="43.47" height="20.59"/>
  <rect class="cls-2" x="1407.01" y="21.31" width="43.47" height="20.59"/>
  <rect class="cls-2" x="1450.41" y="21.31" width="43.47" height="20.59"/>
  <rect class="cls-2" x="1493.8" y="21.31" width="43.47" height="20.59"/>
  <rect class="cls-2" x="1537.2" y="21.31" width="43.47" height="20.59"/>
  <rect class="cls-2" x="1580.59" y="21.31" width="43.47" height="20.59"/>
  <rect class="cls-2" x="1623.99" y="21.31" width="43.47" height="20.59"/>
  <rect class="cls-2" x="1667.38" y="21.31" width="43.47" height="20.59"/>
  <rect class="cls-2" x="1710.78" y="21.31" width="43.47" height="20.59"/>
  <rect class="cls-2" x="1754.17" y="21.31" width="43.47" height="20.59"/>
  <rect class="cls-2" x="1797.57" y="21.31" width="43.47" height="20.59"/>
  <rect class="cls-2" x="1840.96" y="21.31" width="43.47" height="20.59"/>
  <rect class="cls-2" x="1884.36" y="21.31" width="43.47" height="20.59"/>
  <rect class="cls-2" x="1927.75" y="21.31" width="43.47" height="20.59"/>
  <rect class="cls-2" x="1971.15" y="21.31" width="43.47" height="20.59"/>
  <rect class="cls-2" x="2014.54" y="21.31" width="43.47" height="20.59"/>
  <rect class="cls-2" x="2057.94" y="21.31" width="43.47" height="20.59"/>
  <rect class="cls-2" x="2101.33" y="21.31" width="43.47" height="20.59"/>
  <rect class="cls-2" x="2144.73" y="21.31" width="43.47" height="20.59"/>
  <rect class="cls-2" x="2188.12" y="21.31" width="43.47" height="20.59"/>
  <rect class="cls-2" x="2231.52" y="21.31" width="43.47" height="20.59"/>
  <rect class="cls-2" x="2274.91" y="21.31" width="43.47" height="20.59"/>
  <rect class="cls-2" x="2318.31" y="21.31" width="43.47" height="20.59"/>
  <rect class="cls-2" x="2361.7" y="21.31" width="43.47" height="20.59"/>
  <rect class="cls-2" x="2405.1" y="21.31" width="43.47" height="20.59"/>
  <rect class="cls-2" x="2448.49" y="21.31" width="43.47" height="20.59"/>
  <rect class="cls-2" x="2491.89" y="21.31" width="43.47" height="20.59"/>
  <rect class="cls-2" x="2535.28" y="21.31" width="21.64" height="20.59"/>
  <rect class="cls-6" x="0.5" y="62.6" width="17.94" height="20.59"/>
  <rect class="cls-2" x="18.38" y="62.6" width="43.47" height="20.59"/>
  <rect class="cls-2" x="61.77" y="62.6" width="43.47" height="20.59"/>
  <rect class="cls-2" x="105.17" y="62.6" width="43.47" height="20.59"/>
  <rect class="cls-2" x="148.56" y="62.6" width="43.47" height="20.59"/>
  <rect class="cls-2" x="191.96" y="62.6" width="43.47" height="20.59"/>
  <rect class="cls-2" x="235.35" y="62.6" width="43.47" height="20.59"/>
  <rect class="cls-2" x="278.75" y="62.6" width="43.47" height="20.59"/>
  <rect class="cls-2" x="322.14" y="62.6" width="43.47" height="20.59"/>
  <rect class="cls-2" x="365.54" y="62.6" width="43.47" height="20.59"/>
  <rect class="cls-2" x="408.93" y="62.6" width="43.47" height="20.59"/>
  <rect class="cls-2" x="452.33" y="62.6" width="43.47" height="20.59"/>
  <rect class="cls-2" x="495.72" y="62.6" width="43.47" height="20.59"/>
  <rect class="cls-2" x="539.12" y="62.6" width="43.47" height="20.59"/>
  <rect class="cls-2" x="582.51" y="62.6" width="43.47" height="20.59"/>
  <rect class="cls-2" x="625.91" y="62.6" width="43.47" height="20.59"/>
  <rect class="cls-2" x="669.3" y="62.6" width="43.47" height="20.59"/>
  <rect class="cls-2" x="712.7" y="62.6" width="43.47" height="20.59"/>
  <rect class="cls-2" x="756.09" y="62.6" width="43.47" height="20.59"/>
  <rect class="cls-2" x="799.49" y="62.6" width="43.47" height="20.59"/>
  <rect class="cls-2" x="842.88" y="62.6" width="43.47" height="20.59"/>
  <rect class="cls-2" x="886.27" y="62.6" width="43.47" height="20.59"/>
  <rect class="cls-2" x="929.67" y="62.6" width="43.47" height="20.59"/>
  <rect class="cls-2" x="973.06" y="62.6" width="43.47" height="20.59"/>
  <rect class="cls-2" x="1016.46" y="62.6" width="43.47" height="20.59"/>
  <rect class="cls-2" x="1059.85" y="62.6" width="43.47" height="20.59"/>
  <rect class="cls-2" x="1103.25" y="62.6" width="43.47" height="20.59"/>
  <rect class="cls-2" x="1146.64" y="62.6" width="43.47" height="20.59"/>
  <rect class="cls-2" x="1190.04" y="62.6" width="43.47" height="20.59"/>
  <rect class="cls-2" x="1233.43" y="62.6" width="43.47" height="20.59"/>
  <rect class="cls-2" x="1276.83" y="62.6" width="43.47" height="20.59"/>
  <rect class="cls-2" x="1320.22" y="62.6" width="43.47" height="20.59"/>
  <rect class="cls-2" x="1363.62" y="62.6" width="43.47" height="20.59"/>
  <rect class="cls-2" x="1407.01" y="62.6" width="43.47" height="20.59"/>
  <rect class="cls-2" x="1450.41" y="62.6" width="43.47" height="20.59"/>
  <rect class="cls-2" x="1493.8" y="62.6" width="43.47" height="20.59"/>
  <rect class="cls-2" x="1537.2" y="62.6" width="43.47" height="20.59"/>
  <rect class="cls-2" x="1580.59" y="62.6" width="43.47" height="20.59"/>
  <rect class="cls-2" x="1623.99" y="62.6" width="43.47" height="20.59"/>
  <rect class="cls-2" x="1667.38" y="62.6" width="43.47" height="20.59"/>
  <rect class="cls-2" x="1710.78" y="62.6" width="43.47" height="20.59"/>
  <rect class="cls-2" x="1754.17" y="62.6" width="43.47" height="20.59"/>
  <rect class="cls-2" x="1797.57" y="62.6" width="43.47" height="20.59"/>
  <rect class="cls-2" x="1840.96" y="62.6" width="43.47" height="20.59"/>
  <rect class="cls-2" x="1884.36" y="62.6" width="43.47" height="20.59"/>
  <rect class="cls-2" x="1927.75" y="62.6" width="43.47" height="20.59"/>
  <rect class="cls-2" x="1971.15" y="62.6" width="43.47" height="20.59"/>
  <rect class="cls-2" x="2014.54" y="62.6" width="43.47" height="20.59"/>
  <rect class="cls-2" x="2057.94" y="62.6" width="43.47" height="20.59"/>
  <rect class="cls-2" x="2101.33" y="62.6" width="43.47" height="20.59"/>
  <rect class="cls-2" x="2144.73" y="62.6" width="43.47" height="20.59"/>
  <rect class="cls-2" x="2188.12" y="62.6" width="43.47" height="20.59"/>
  <rect class="cls-2" x="2231.52" y="62.6" width="43.47" height="20.59"/>
  <rect class="cls-2" x="2274.91" y="62.6" width="43.47" height="20.59"/>
  <rect class="cls-2" x="2318.31" y="62.6" width="43.47" height="20.59"/>
  <rect class="cls-2" x="2361.7" y="62.6" width="43.47" height="20.59"/>
  <rect class="cls-2" x="2405.1" y="62.6" width="43.47" height="20.59"/>
  <rect class="cls-2" x="2448.49" y="62.6" width="43.47" height="20.59"/>
  <rect class="cls-2" x="2491.89" y="62.6" width="43.47" height="20.59"/>
  <rect class="cls-2" x="2535.28" y="62.6" width="21.64" height="20.59"/>
</svg>
