<svg id="side" xmlns="http://www.w3.org/2000/svg" viewBox="0 0 608.46 1395.29">
  <defs>
    <style>
      .cls-1 {
        fill: #b3b3b3;
        stroke: gray;
        stroke-miterlimit: 10;
        stroke-width: 1.75px;
      }
    </style>
  </defs>
  <g>
    <rect class="cls-1" x="1.48" y="192.33" width="30.89" height="27.31"/>
    <rect class="cls-1" x="31.9" y="192.33" width="57.65" height="27.31"/>
    <rect class="cls-1" x="89.46" y="192.33" width="57.65" height="27.31"/>
    <rect class="cls-1" x="147.02" y="192.33" width="57.65" height="27.31"/>
    <rect class="cls-1" x="204.58" y="192.33" width="57.65" height="27.31"/>
    <rect class="cls-1" x="262.14" y="192.33" width="57.65" height="27.31"/>
    <rect class="cls-1" x="319.7" y="192.33" width="57.65" height="27.31"/>
    <rect class="cls-1" x="377.26" y="192.33" width="57.65" height="27.31"/>
    <rect class="cls-1" x="434.81" y="192.33" width="57.65" height="27.31"/>
    <rect class="cls-1" x="492.37" y="192.33" width="57.65" height="27.31"/>
    <rect class="cls-1" x="549.93" y="192.33" width="57.45" height="27.31"/>
    <rect class="cls-1" x="1.49" y="164.98" width="2.1" height="27.31"/>
    <rect class="cls-1" x="1.41" y="164.98" width="59.36" height="27.31"/>
    <rect class="cls-1" x="60.68" y="164.98" width="57.65" height="27.31"/>
    <rect class="cls-1" x="118.24" y="164.98" width="57.65" height="27.31"/>
    <rect class="cls-1" x="175.8" y="164.98" width="57.65" height="27.31"/>
    <rect class="cls-1" x="233.36" y="164.98" width="57.65" height="27.31"/>
    <rect class="cls-1" x="290.92" y="164.98" width="57.65" height="27.31"/>
    <rect class="cls-1" x="348.48" y="164.98" width="57.65" height="27.31"/>
    <rect class="cls-1" x="406.04" y="164.98" width="57.65" height="27.31"/>
    <rect class="cls-1" x="463.59" y="164.98" width="57.65" height="27.31"/>
    <rect class="cls-1" x="521.15" y="164.98" width="57.65" height="27.31"/>
    <rect class="cls-1" x="578.71" y="164.98" width="28.41" height="27.31"/>
    <rect class="cls-1" x="1.39" y="137.63" width="30.97" height="27.31"/>
    <rect class="cls-1" x="31.9" y="137.63" width="57.65" height="27.31"/>
    <rect class="cls-1" x="89.46" y="137.63" width="57.65" height="27.31"/>
    <rect class="cls-1" x="147.02" y="137.63" width="57.65" height="27.31"/>
    <rect class="cls-1" x="204.58" y="137.63" width="57.65" height="27.31"/>
    <rect class="cls-1" x="262.14" y="137.63" width="57.65" height="27.31"/>
    <rect class="cls-1" x="319.7" y="137.63" width="57.65" height="27.31"/>
    <rect class="cls-1" x="377.26" y="137.63" width="57.65" height="27.31"/>
    <rect class="cls-1" x="434.81" y="137.63" width="57.65" height="27.31"/>
    <rect class="cls-1" x="492.37" y="137.63" width="57.65" height="27.31"/>
    <rect class="cls-1" x="549.93" y="137.63" width="57.65" height="27.31"/>
    <rect class="cls-1" x="1.41" y="110.28" width="2.55" height="27.31"/>
    <rect class="cls-1" x="1.33" y="110.28" width="59.45" height="27.31"/>
    <rect class="cls-1" x="60.68" y="110.28" width="57.65" height="27.31"/>
    <rect class="cls-1" x="118.24" y="110.28" width="57.65" height="27.31"/>
    <rect class="cls-1" x="175.8" y="110.28" width="57.65" height="27.31"/>
    <rect class="cls-1" x="233.36" y="110.28" width="57.65" height="27.31"/>
    <rect class="cls-1" x="290.92" y="110.28" width="57.65" height="27.31"/>
    <rect class="cls-1" x="348.48" y="110.28" width="57.65" height="27.31"/>
    <rect class="cls-1" x="406.04" y="110.28" width="57.65" height="27.31"/>
    <rect class="cls-1" x="463.59" y="110.28" width="57.65" height="27.31"/>
    <rect class="cls-1" x="521.15" y="110.28" width="57.65" height="27.31"/>
    <rect class="cls-1" x="578.71" y="110.28" width="28.82" height="27.31"/>
    <rect class="cls-1" x="1.42" y="82.93" width="31.32" height="27.31"/>
    <rect class="cls-1" x="31.9" y="82.93" width="57.65" height="27.31"/>
    <rect class="cls-1" x="89.46" y="82.93" width="57.65" height="27.31"/>
    <rect class="cls-1" x="147.02" y="82.93" width="57.65" height="27.31"/>
    <rect class="cls-1" x="204.58" y="82.93" width="57.65" height="27.31"/>
    <rect class="cls-1" x="262.14" y="82.93" width="57.65" height="27.31"/>
    <rect class="cls-1" x="319.7" y="82.93" width="57.65" height="27.31"/>
    <rect class="cls-1" x="377.26" y="82.93" width="57.65" height="27.31"/>
    <rect class="cls-1" x="434.81" y="82.93" width="57.65" height="27.31"/>
    <rect class="cls-1" x="492.37" y="82.93" width="57.65" height="27.31"/>
    <rect class="cls-1" x="549.79" y="82.93" width="57.65" height="27.31"/>
    <rect class="cls-1" x="0.87" y="55.58" width="59.9" height="27.31"/>
    <rect class="cls-1" x="60.68" y="55.58" width="57.65" height="27.31"/>
    <rect class="cls-1" x="118.24" y="55.58" width="57.65" height="27.31"/>
    <rect class="cls-1" x="175.8" y="55.58" width="57.65" height="27.31"/>
    <rect class="cls-1" x="233.36" y="55.58" width="57.65" height="27.31"/>
    <rect class="cls-1" x="290.92" y="55.58" width="57.65" height="27.31"/>
    <rect class="cls-1" x="348.48" y="55.58" width="57.65" height="27.31"/>
    <rect class="cls-1" x="406.04" y="55.58" width="57.65" height="27.31"/>
    <rect class="cls-1" x="463.59" y="55.58" width="57.65" height="27.31"/>
    <rect class="cls-1" x="521.15" y="55.58" width="57.65" height="27.31"/>
    <rect class="cls-1" x="578.99" y="55.58" width="28.41" height="27.31"/>
    <rect class="cls-1" x="31.9" y="28.22" width="57.65" height="27.31"/>
    <rect class="cls-1" x="1.21" y="28.22" width="30.75" height="27.31"/>
    <rect class="cls-1" x="89.46" y="28.22" width="57.65" height="27.31"/>
    <rect class="cls-1" x="147.02" y="28.22" width="57.65" height="27.31"/>
    <rect class="cls-1" x="204.58" y="28.22" width="57.65" height="27.31"/>
    <rect class="cls-1" x="262.14" y="28.22" width="57.65" height="27.31"/>
    <rect class="cls-1" x="319.7" y="28.22" width="57.65" height="27.31"/>
    <rect class="cls-1" x="377.26" y="28.22" width="57.65" height="27.31"/>
    <rect class="cls-1" x="434.81" y="28.22" width="57.65" height="27.31"/>
    <rect class="cls-1" x="492.37" y="28.22" width="57.65" height="27.31"/>
    <rect class="cls-1" x="549.79" y="28.22" width="57.59" height="27.31"/>
    <rect class="cls-1" x="1" y="0.87" width="59.77" height="27.31"/>
    <rect class="cls-1" x="60.68" y="0.87" width="57.65" height="27.31"/>
    <rect class="cls-1" x="118.24" y="0.87" width="57.65" height="27.31"/>
    <rect class="cls-1" x="175.8" y="0.87" width="57.65" height="27.31"/>
    <rect class="cls-1" x="233.36" y="0.87" width="57.65" height="27.31"/>
    <rect class="cls-1" x="290.92" y="0.87" width="57.65" height="27.31"/>
    <rect class="cls-1" x="348.48" y="0.87" width="57.65" height="27.31"/>
    <rect class="cls-1" x="406.04" y="0.87" width="57.65" height="27.31"/>
    <rect class="cls-1" x="463.59" y="0.87" width="57.65" height="27.31"/>
    <rect class="cls-1" x="521.15" y="0.87" width="57.65" height="27.31"/>
    <rect class="cls-1" x="579.13" y="0.87" width="28.38" height="27.31"/>
    <rect class="cls-1" x="1.48" y="410.91" width="30.89" height="27.31"/>
    <rect class="cls-1" x="31.9" y="410.91" width="57.65" height="27.31"/>
    <rect class="cls-1" x="89.46" y="410.91" width="57.65" height="27.31"/>
    <rect class="cls-1" x="147.02" y="410.91" width="57.65" height="27.31"/>
    <rect class="cls-1" x="204.58" y="410.91" width="57.65" height="27.31"/>
    <rect class="cls-1" x="262.14" y="410.91" width="57.65" height="27.31"/>
    <rect class="cls-1" x="319.7" y="410.91" width="57.65" height="27.31"/>
    <rect class="cls-1" x="377.26" y="410.91" width="57.65" height="27.31"/>
    <rect class="cls-1" x="434.81" y="410.91" width="57.65" height="27.31"/>
    <rect class="cls-1" x="492.37" y="410.91" width="57.65" height="27.31"/>
    <rect class="cls-1" x="549.93" y="410.91" width="57.45" height="27.31"/>
    <rect class="cls-1" x="1.49" y="383.56" width="2.1" height="27.31"/>
    <rect class="cls-1" x="1.41" y="383.56" width="59.36" height="27.31"/>
    <rect class="cls-1" x="60.68" y="383.56" width="57.65" height="27.31"/>
    <rect class="cls-1" x="118.24" y="383.56" width="57.65" height="27.31"/>
    <rect class="cls-1" x="175.8" y="383.56" width="57.65" height="27.31"/>
    <rect class="cls-1" x="233.36" y="383.56" width="57.65" height="27.31"/>
    <rect class="cls-1" x="290.92" y="383.56" width="57.65" height="27.31"/>
    <rect class="cls-1" x="348.48" y="383.56" width="57.65" height="27.31"/>
    <rect class="cls-1" x="406.04" y="383.56" width="57.65" height="27.31"/>
    <rect class="cls-1" x="463.59" y="383.56" width="57.65" height="27.31"/>
    <rect class="cls-1" x="521.15" y="383.56" width="57.65" height="27.31"/>
    <rect class="cls-1" x="578.71" y="383.56" width="28.41" height="27.31"/>
    <rect class="cls-1" x="1.39" y="356.21" width="30.97" height="27.31"/>
    <rect class="cls-1" x="31.9" y="356.21" width="57.65" height="27.31"/>
    <rect class="cls-1" x="89.46" y="356.21" width="57.65" height="27.31"/>
    <rect class="cls-1" x="147.02" y="356.21" width="57.65" height="27.31"/>
    <rect class="cls-1" x="204.58" y="356.21" width="57.65" height="27.31"/>
    <rect class="cls-1" x="262.14" y="356.21" width="57.65" height="27.31"/>
    <rect class="cls-1" x="319.7" y="356.21" width="57.65" height="27.31"/>
    <rect class="cls-1" x="377.26" y="356.21" width="57.65" height="27.31"/>
    <rect class="cls-1" x="434.81" y="356.21" width="57.65" height="27.31"/>
    <rect class="cls-1" x="492.37" y="356.21" width="57.65" height="27.31"/>
    <rect class="cls-1" x="549.93" y="356.21" width="57.65" height="27.31"/>
    <rect class="cls-1" x="1.41" y="328.86" width="2.55" height="27.31"/>
    <rect class="cls-1" x="1.33" y="328.86" width="59.45" height="27.31"/>
    <rect class="cls-1" x="60.68" y="328.86" width="57.65" height="27.31"/>
    <rect class="cls-1" x="118.24" y="328.86" width="57.65" height="27.31"/>
    <rect class="cls-1" x="175.8" y="328.86" width="57.65" height="27.31"/>
    <rect class="cls-1" x="233.36" y="328.86" width="57.65" height="27.31"/>
    <rect class="cls-1" x="290.92" y="328.86" width="57.65" height="27.31"/>
    <rect class="cls-1" x="348.48" y="328.86" width="57.65" height="27.31"/>
    <rect class="cls-1" x="406.04" y="328.86" width="57.65" height="27.31"/>
    <rect class="cls-1" x="463.59" y="328.86" width="57.65" height="27.31"/>
    <rect class="cls-1" x="521.15" y="328.86" width="57.65" height="27.31"/>
    <rect class="cls-1" x="578.71" y="328.86" width="28.82" height="27.31"/>
    <rect class="cls-1" x="1.42" y="301.51" width="31.32" height="27.31"/>
    <rect class="cls-1" x="31.9" y="301.51" width="57.65" height="27.31"/>
    <rect class="cls-1" x="89.46" y="301.51" width="57.65" height="27.31"/>
    <rect class="cls-1" x="147.02" y="301.51" width="57.65" height="27.31"/>
    <rect class="cls-1" x="204.58" y="301.51" width="57.65" height="27.31"/>
    <rect class="cls-1" x="262.14" y="301.51" width="57.65" height="27.31"/>
    <rect class="cls-1" x="319.7" y="301.51" width="57.65" height="27.31"/>
    <rect class="cls-1" x="377.26" y="301.51" width="57.65" height="27.31"/>
    <rect class="cls-1" x="434.81" y="301.51" width="57.65" height="27.31"/>
    <rect class="cls-1" x="492.37" y="301.51" width="57.65" height="27.31"/>
    <rect class="cls-1" x="549.79" y="301.51" width="57.65" height="27.31"/>
    <rect class="cls-1" x="0.87" y="274.16" width="59.9" height="27.31"/>
    <rect class="cls-1" x="60.68" y="274.16" width="57.65" height="27.31"/>
    <rect class="cls-1" x="118.24" y="274.16" width="57.65" height="27.31"/>
    <rect class="cls-1" x="175.8" y="274.16" width="57.65" height="27.31"/>
    <rect class="cls-1" x="233.36" y="274.16" width="57.65" height="27.31"/>
    <rect class="cls-1" x="290.92" y="274.16" width="57.65" height="27.31"/>
    <rect class="cls-1" x="348.48" y="274.16" width="57.65" height="27.31"/>
    <rect class="cls-1" x="406.04" y="274.16" width="57.65" height="27.31"/>
    <rect class="cls-1" x="463.59" y="274.16" width="57.65" height="27.31"/>
    <rect class="cls-1" x="521.15" y="274.16" width="57.65" height="27.31"/>
    <rect class="cls-1" x="578.99" y="274.16" width="28.41" height="27.31"/>
    <rect class="cls-1" x="31.9" y="246.81" width="57.65" height="27.31"/>
    <rect class="cls-1" x="1.21" y="246.81" width="30.75" height="27.31"/>
    <rect class="cls-1" x="89.46" y="246.81" width="57.65" height="27.31"/>
    <rect class="cls-1" x="147.02" y="246.81" width="57.65" height="27.31"/>
    <rect class="cls-1" x="204.58" y="246.81" width="57.65" height="27.31"/>
    <rect class="cls-1" x="262.14" y="246.81" width="57.65" height="27.31"/>
    <rect class="cls-1" x="319.7" y="246.81" width="57.65" height="27.31"/>
    <rect class="cls-1" x="377.26" y="246.81" width="57.65" height="27.31"/>
    <rect class="cls-1" x="434.81" y="246.81" width="57.65" height="27.31"/>
    <rect class="cls-1" x="492.37" y="246.81" width="57.65" height="27.31"/>
    <rect class="cls-1" x="549.79" y="246.81" width="57.59" height="27.31"/>
    <rect class="cls-1" x="1" y="219.46" width="59.77" height="27.31"/>
    <rect class="cls-1" x="60.68" y="219.46" width="57.65" height="27.31"/>
    <rect class="cls-1" x="118.24" y="219.46" width="57.65" height="27.31"/>
    <rect class="cls-1" x="175.8" y="219.46" width="57.65" height="27.31"/>
    <rect class="cls-1" x="233.36" y="219.46" width="57.65" height="27.31"/>
    <rect class="cls-1" x="290.92" y="219.46" width="57.65" height="27.31"/>
    <rect class="cls-1" x="348.48" y="219.46" width="57.65" height="27.31"/>
    <rect class="cls-1" x="406.04" y="219.46" width="57.65" height="27.31"/>
    <rect class="cls-1" x="463.59" y="219.46" width="57.65" height="27.31"/>
    <rect class="cls-1" x="521.15" y="219.46" width="57.65" height="27.31"/>
    <rect class="cls-1" x="579.13" y="219.46" width="28.38" height="27.31"/>
    <rect class="cls-1" x="1.48" y="629.5" width="30.89" height="27.31"/>
    <rect class="cls-1" x="31.9" y="629.5" width="57.65" height="27.31"/>
    <rect class="cls-1" x="89.46" y="629.5" width="57.65" height="27.31"/>
    <rect class="cls-1" x="147.02" y="629.5" width="57.65" height="27.31"/>
    <rect class="cls-1" x="204.58" y="629.5" width="57.65" height="27.31"/>
    <rect class="cls-1" x="262.14" y="629.5" width="57.65" height="27.31"/>
    <rect class="cls-1" x="319.7" y="629.5" width="57.65" height="27.31"/>
    <rect class="cls-1" x="377.26" y="629.5" width="57.65" height="27.31"/>
    <rect class="cls-1" x="434.81" y="629.5" width="57.65" height="27.31"/>
    <rect class="cls-1" x="492.37" y="629.5" width="57.65" height="27.31"/>
    <rect class="cls-1" x="549.93" y="629.5" width="57.45" height="27.31"/>
    <rect class="cls-1" x="1.49" y="602.15" width="2.1" height="27.31"/>
    <rect class="cls-1" x="1.41" y="602.15" width="59.36" height="27.31"/>
    <rect class="cls-1" x="60.68" y="602.15" width="57.65" height="27.31"/>
    <rect class="cls-1" x="118.24" y="602.15" width="57.65" height="27.31"/>
    <rect class="cls-1" x="175.8" y="602.15" width="57.65" height="27.31"/>
    <rect class="cls-1" x="233.36" y="602.15" width="57.65" height="27.31"/>
    <rect class="cls-1" x="290.92" y="602.15" width="57.65" height="27.31"/>
    <rect class="cls-1" x="348.48" y="602.15" width="57.65" height="27.31"/>
    <rect class="cls-1" x="406.04" y="602.15" width="57.65" height="27.31"/>
    <rect class="cls-1" x="463.59" y="602.15" width="57.65" height="27.31"/>
    <rect class="cls-1" x="521.15" y="602.15" width="57.65" height="27.31"/>
    <rect class="cls-1" x="578.71" y="602.15" width="28.41" height="27.31"/>
    <rect class="cls-1" x="1.39" y="574.8" width="30.97" height="27.31"/>
    <rect class="cls-1" x="31.9" y="574.8" width="57.65" height="27.31"/>
    <rect class="cls-1" x="89.46" y="574.8" width="57.65" height="27.31"/>
    <rect class="cls-1" x="147.02" y="574.8" width="57.65" height="27.31"/>
    <rect class="cls-1" x="204.58" y="574.8" width="57.65" height="27.31"/>
    <rect class="cls-1" x="262.14" y="574.8" width="57.65" height="27.31"/>
    <rect class="cls-1" x="319.7" y="574.8" width="57.65" height="27.31"/>
    <rect class="cls-1" x="377.26" y="574.8" width="57.65" height="27.31"/>
    <rect class="cls-1" x="434.81" y="574.8" width="57.65" height="27.31"/>
    <rect class="cls-1" x="492.37" y="574.8" width="57.65" height="27.31"/>
    <rect class="cls-1" x="549.93" y="574.8" width="57.65" height="27.31"/>
    <rect class="cls-1" x="1.41" y="547.45" width="2.55" height="27.31"/>
    <rect class="cls-1" x="1.33" y="547.45" width="59.45" height="27.31"/>
    <rect class="cls-1" x="60.68" y="547.45" width="57.65" height="27.31"/>
    <rect class="cls-1" x="118.24" y="547.45" width="57.65" height="27.31"/>
    <rect class="cls-1" x="175.8" y="547.45" width="57.65" height="27.31"/>
    <rect class="cls-1" x="233.36" y="547.45" width="57.65" height="27.31"/>
    <rect class="cls-1" x="290.92" y="547.45" width="57.65" height="27.31"/>
    <rect class="cls-1" x="348.48" y="547.45" width="57.65" height="27.31"/>
    <rect class="cls-1" x="406.04" y="547.45" width="57.65" height="27.31"/>
    <rect class="cls-1" x="463.59" y="547.45" width="57.65" height="27.31"/>
    <rect class="cls-1" x="521.15" y="547.45" width="57.65" height="27.31"/>
    <rect class="cls-1" x="578.71" y="547.45" width="28.82" height="27.31"/>
    <rect class="cls-1" x="1.42" y="520.1" width="31.32" height="27.31"/>
    <rect class="cls-1" x="31.9" y="520.1" width="57.65" height="27.31"/>
    <rect class="cls-1" x="89.46" y="520.1" width="57.65" height="27.31"/>
    <rect class="cls-1" x="147.02" y="520.1" width="57.65" height="27.31"/>
    <rect class="cls-1" x="204.58" y="520.1" width="57.65" height="27.31"/>
    <rect class="cls-1" x="262.14" y="520.1" width="57.65" height="27.31"/>
    <rect class="cls-1" x="319.7" y="520.1" width="57.65" height="27.31"/>
    <rect class="cls-1" x="377.26" y="520.1" width="57.65" height="27.31"/>
    <rect class="cls-1" x="434.81" y="520.1" width="57.65" height="27.31"/>
    <rect class="cls-1" x="492.37" y="520.1" width="57.65" height="27.31"/>
    <rect class="cls-1" x="549.79" y="520.1" width="57.65" height="27.31"/>
    <rect class="cls-1" x="0.87" y="492.75" width="59.9" height="27.31"/>
    <rect class="cls-1" x="60.68" y="492.75" width="57.65" height="27.31"/>
    <rect class="cls-1" x="118.24" y="492.75" width="57.65" height="27.31"/>
    <rect class="cls-1" x="175.8" y="492.75" width="57.65" height="27.31"/>
    <rect class="cls-1" x="233.36" y="492.75" width="57.65" height="27.31"/>
    <rect class="cls-1" x="290.92" y="492.75" width="57.65" height="27.31"/>
    <rect class="cls-1" x="348.48" y="492.75" width="57.65" height="27.31"/>
    <rect class="cls-1" x="406.04" y="492.75" width="57.65" height="27.31"/>
    <rect class="cls-1" x="463.59" y="492.75" width="57.65" height="27.31"/>
    <rect class="cls-1" x="521.15" y="492.75" width="57.65" height="27.31"/>
    <rect class="cls-1" x="578.99" y="492.75" width="28.41" height="27.31"/>
    <rect class="cls-1" x="31.9" y="465.4" width="57.65" height="27.31"/>
    <rect class="cls-1" x="1.21" y="465.4" width="30.75" height="27.31"/>
    <rect class="cls-1" x="89.46" y="465.4" width="57.65" height="27.31"/>
    <rect class="cls-1" x="147.02" y="465.4" width="57.65" height="27.31"/>
    <rect class="cls-1" x="204.58" y="465.4" width="57.65" height="27.31"/>
    <rect class="cls-1" x="262.14" y="465.4" width="57.65" height="27.31"/>
    <rect class="cls-1" x="319.7" y="465.4" width="57.65" height="27.31"/>
    <rect class="cls-1" x="377.26" y="465.4" width="57.65" height="27.31"/>
    <rect class="cls-1" x="434.81" y="465.4" width="57.65" height="27.31"/>
    <rect class="cls-1" x="492.37" y="465.4" width="57.65" height="27.31"/>
    <rect class="cls-1" x="549.79" y="465.4" width="57.59" height="27.31"/>
    <rect class="cls-1" x="1" y="438.05" width="59.77" height="27.31"/>
    <rect class="cls-1" x="60.68" y="438.05" width="57.65" height="27.31"/>
    <rect class="cls-1" x="118.24" y="438.05" width="57.65" height="27.31"/>
    <rect class="cls-1" x="175.8" y="438.05" width="57.65" height="27.31"/>
    <rect class="cls-1" x="233.36" y="438.05" width="57.65" height="27.31"/>
    <rect class="cls-1" x="290.92" y="438.05" width="57.65" height="27.31"/>
    <rect class="cls-1" x="348.48" y="438.05" width="57.65" height="27.31"/>
    <rect class="cls-1" x="406.04" y="438.05" width="57.65" height="27.31"/>
    <rect class="cls-1" x="463.59" y="438.05" width="57.65" height="27.31"/>
    <rect class="cls-1" x="521.15" y="438.05" width="57.65" height="27.31"/>
    <rect class="cls-1" x="579.13" y="438.05" width="28.38" height="27.31"/>
    <rect class="cls-1" x="1.48" y="848.09" width="30.89" height="27.31"/>
    <rect class="cls-1" x="31.9" y="848.09" width="57.65" height="27.31"/>
    <rect class="cls-1" x="89.46" y="848.09" width="57.65" height="27.31"/>
    <rect class="cls-1" x="147.02" y="848.09" width="57.65" height="27.31"/>
    <rect class="cls-1" x="204.58" y="848.09" width="57.65" height="27.31"/>
    <rect class="cls-1" x="262.14" y="848.09" width="57.65" height="27.31"/>
    <rect class="cls-1" x="319.7" y="848.09" width="57.65" height="27.31"/>
    <rect class="cls-1" x="377.26" y="848.09" width="57.65" height="27.31"/>
    <rect class="cls-1" x="434.81" y="848.09" width="57.65" height="27.31"/>
    <rect class="cls-1" x="492.37" y="848.09" width="57.65" height="27.31"/>
    <rect class="cls-1" x="549.93" y="848.09" width="57.45" height="27.31"/>
    <rect class="cls-1" x="1.49" y="820.74" width="2.1" height="27.31"/>
    <rect class="cls-1" x="1.41" y="820.74" width="59.36" height="27.31"/>
    <rect class="cls-1" x="60.68" y="820.74" width="57.65" height="27.31"/>
    <rect class="cls-1" x="118.24" y="820.74" width="57.65" height="27.31"/>
    <rect class="cls-1" x="175.8" y="820.74" width="57.65" height="27.31"/>
    <rect class="cls-1" x="233.36" y="820.74" width="57.65" height="27.31"/>
    <rect class="cls-1" x="290.92" y="820.74" width="57.65" height="27.31"/>
    <rect class="cls-1" x="348.48" y="820.74" width="57.65" height="27.31"/>
    <rect class="cls-1" x="406.04" y="820.74" width="57.65" height="27.31"/>
    <rect class="cls-1" x="463.59" y="820.74" width="57.65" height="27.31"/>
    <rect class="cls-1" x="521.15" y="820.74" width="57.65" height="27.31"/>
    <rect class="cls-1" x="578.71" y="820.74" width="28.41" height="27.31"/>
    <rect class="cls-1" x="1.39" y="793.39" width="30.97" height="27.31"/>
    <rect class="cls-1" x="31.9" y="793.39" width="57.65" height="27.31"/>
    <rect class="cls-1" x="89.46" y="793.39" width="57.65" height="27.31"/>
    <rect class="cls-1" x="147.02" y="793.39" width="57.65" height="27.31"/>
    <rect class="cls-1" x="204.58" y="793.39" width="57.65" height="27.31"/>
    <rect class="cls-1" x="262.14" y="793.39" width="57.65" height="27.31"/>
    <rect class="cls-1" x="319.7" y="793.39" width="57.65" height="27.31"/>
    <rect class="cls-1" x="377.26" y="793.39" width="57.65" height="27.31"/>
    <rect class="cls-1" x="434.81" y="793.39" width="57.65" height="27.31"/>
    <rect class="cls-1" x="492.37" y="793.39" width="57.65" height="27.31"/>
    <rect class="cls-1" x="549.93" y="793.39" width="57.65" height="27.31"/>
    <rect class="cls-1" x="1.41" y="766.04" width="2.55" height="27.31"/>
    <rect class="cls-1" x="1.33" y="766.04" width="59.45" height="27.31"/>
    <rect class="cls-1" x="60.68" y="766.04" width="57.65" height="27.31"/>
    <rect class="cls-1" x="118.24" y="766.04" width="57.65" height="27.31"/>
    <rect class="cls-1" x="175.8" y="766.04" width="57.65" height="27.31"/>
    <rect class="cls-1" x="233.36" y="766.04" width="57.65" height="27.31"/>
    <rect class="cls-1" x="290.92" y="766.04" width="57.65" height="27.31"/>
    <rect class="cls-1" x="348.48" y="766.04" width="57.65" height="27.31"/>
    <rect class="cls-1" x="406.04" y="766.04" width="57.65" height="27.31"/>
    <rect class="cls-1" x="463.59" y="766.04" width="57.65" height="27.31"/>
    <rect class="cls-1" x="521.15" y="766.04" width="57.65" height="27.31"/>
    <rect class="cls-1" x="578.71" y="766.04" width="28.82" height="27.31"/>
    <rect class="cls-1" x="1.42" y="738.69" width="31.32" height="27.31"/>
    <rect class="cls-1" x="31.9" y="738.69" width="57.65" height="27.31"/>
    <rect class="cls-1" x="89.46" y="738.69" width="57.65" height="27.31"/>
    <rect class="cls-1" x="147.02" y="738.69" width="57.65" height="27.31"/>
    <rect class="cls-1" x="204.58" y="738.69" width="57.65" height="27.31"/>
    <rect class="cls-1" x="262.14" y="738.69" width="57.65" height="27.31"/>
    <rect class="cls-1" x="319.7" y="738.69" width="57.65" height="27.31"/>
    <rect class="cls-1" x="377.26" y="738.69" width="57.65" height="27.31"/>
    <rect class="cls-1" x="434.81" y="738.69" width="57.65" height="27.31"/>
    <rect class="cls-1" x="492.37" y="738.69" width="57.65" height="27.31"/>
    <rect class="cls-1" x="549.79" y="738.69" width="57.65" height="27.31"/>
    <rect class="cls-1" x="0.87" y="711.34" width="59.9" height="27.31"/>
    <rect class="cls-1" x="60.68" y="711.34" width="57.65" height="27.31"/>
    <rect class="cls-1" x="118.24" y="711.34" width="57.65" height="27.31"/>
    <rect class="cls-1" x="175.8" y="711.34" width="57.65" height="27.31"/>
    <rect class="cls-1" x="233.36" y="711.34" width="57.65" height="27.31"/>
    <rect class="cls-1" x="290.92" y="711.34" width="57.65" height="27.31"/>
    <rect class="cls-1" x="348.48" y="711.34" width="57.65" height="27.31"/>
    <rect class="cls-1" x="406.04" y="711.34" width="57.65" height="27.31"/>
    <rect class="cls-1" x="463.59" y="711.34" width="57.65" height="27.31"/>
    <rect class="cls-1" x="521.15" y="711.34" width="57.65" height="27.31"/>
    <rect class="cls-1" x="578.99" y="711.34" width="28.41" height="27.31"/>
    <rect class="cls-1" x="31.9" y="683.99" width="57.65" height="27.31"/>
    <rect class="cls-1" x="1.21" y="683.99" width="30.75" height="27.31"/>
    <rect class="cls-1" x="89.46" y="683.99" width="57.65" height="27.31"/>
    <rect class="cls-1" x="147.02" y="683.99" width="57.65" height="27.31"/>
    <rect class="cls-1" x="204.58" y="683.99" width="57.65" height="27.31"/>
    <rect class="cls-1" x="262.14" y="683.99" width="57.65" height="27.31"/>
    <rect class="cls-1" x="319.7" y="683.99" width="57.65" height="27.31"/>
    <rect class="cls-1" x="377.26" y="683.99" width="57.65" height="27.31"/>
    <rect class="cls-1" x="434.81" y="683.99" width="57.65" height="27.31"/>
    <rect class="cls-1" x="492.37" y="683.99" width="57.65" height="27.31"/>
    <rect class="cls-1" x="549.79" y="683.99" width="57.59" height="27.31"/>
    <rect class="cls-1" x="1" y="656.64" width="59.77" height="27.31"/>
    <rect class="cls-1" x="60.68" y="656.64" width="57.65" height="27.31"/>
    <rect class="cls-1" x="118.24" y="656.64" width="57.65" height="27.31"/>
    <rect class="cls-1" x="175.8" y="656.64" width="57.65" height="27.31"/>
    <rect class="cls-1" x="233.36" y="656.64" width="57.65" height="27.31"/>
    <rect class="cls-1" x="290.92" y="656.64" width="57.65" height="27.31"/>
    <rect class="cls-1" x="348.48" y="656.64" width="57.65" height="27.31"/>
    <rect class="cls-1" x="406.04" y="656.64" width="57.65" height="27.31"/>
    <rect class="cls-1" x="463.59" y="656.64" width="57.65" height="27.31"/>
    <rect class="cls-1" x="521.15" y="656.64" width="57.65" height="27.31"/>
    <rect class="cls-1" x="579.13" y="656.64" width="28.38" height="27.31"/>
    <rect class="cls-1" x="1.48" y="1066.68" width="30.89" height="27.31"/>
    <rect class="cls-1" x="31.9" y="1066.68" width="57.65" height="27.31"/>
    <rect class="cls-1" x="89.46" y="1066.68" width="57.65" height="27.31"/>
    <rect class="cls-1" x="147.02" y="1066.68" width="57.65" height="27.31"/>
    <rect class="cls-1" x="204.58" y="1066.68" width="57.65" height="27.31"/>
    <rect class="cls-1" x="262.14" y="1066.68" width="57.65" height="27.31"/>
    <rect class="cls-1" x="319.7" y="1066.68" width="57.65" height="27.31"/>
    <rect class="cls-1" x="377.26" y="1066.68" width="57.65" height="27.31"/>
    <rect class="cls-1" x="434.81" y="1066.68" width="57.65" height="27.31"/>
    <rect class="cls-1" x="492.37" y="1066.68" width="57.65" height="27.31"/>
    <rect class="cls-1" x="549.93" y="1066.68" width="57.45" height="27.31"/>
    <rect class="cls-1" x="1.49" y="1039.33" width="2.1" height="27.31"/>
    <rect class="cls-1" x="1.41" y="1039.33" width="59.36" height="27.31"/>
    <rect class="cls-1" x="60.68" y="1039.33" width="57.65" height="27.31"/>
    <rect class="cls-1" x="118.24" y="1039.33" width="57.65" height="27.31"/>
    <rect class="cls-1" x="175.8" y="1039.33" width="57.65" height="27.31"/>
    <rect class="cls-1" x="233.36" y="1039.33" width="57.65" height="27.31"/>
    <rect class="cls-1" x="290.92" y="1039.33" width="57.65" height="27.31"/>
    <rect class="cls-1" x="348.48" y="1039.33" width="57.65" height="27.31"/>
    <rect class="cls-1" x="406.04" y="1039.33" width="57.65" height="27.31"/>
    <rect class="cls-1" x="463.59" y="1039.33" width="57.65" height="27.31"/>
    <rect class="cls-1" x="521.15" y="1039.33" width="57.65" height="27.31"/>
    <rect class="cls-1" x="578.71" y="1039.33" width="28.41" height="27.31"/>
    <rect class="cls-1" x="1.39" y="1011.98" width="30.97" height="27.31"/>
    <rect class="cls-1" x="31.9" y="1011.98" width="57.65" height="27.31"/>
    <rect class="cls-1" x="89.46" y="1011.98" width="57.65" height="27.31"/>
    <rect class="cls-1" x="147.02" y="1011.98" width="57.65" height="27.31"/>
    <rect class="cls-1" x="204.58" y="1011.98" width="57.65" height="27.31"/>
    <rect class="cls-1" x="262.14" y="1011.98" width="57.65" height="27.31"/>
    <rect class="cls-1" x="319.7" y="1011.98" width="57.65" height="27.31"/>
    <rect class="cls-1" x="377.26" y="1011.98" width="57.65" height="27.31"/>
    <rect class="cls-1" x="434.81" y="1011.98" width="57.65" height="27.31"/>
    <rect class="cls-1" x="492.37" y="1011.98" width="57.65" height="27.31"/>
    <rect class="cls-1" x="549.93" y="1011.98" width="57.65" height="27.31"/>
    <rect class="cls-1" x="1.41" y="984.63" width="2.55" height="27.31"/>
    <rect class="cls-1" x="1.33" y="984.63" width="59.45" height="27.31"/>
    <rect class="cls-1" x="60.68" y="984.63" width="57.65" height="27.31"/>
    <rect class="cls-1" x="118.24" y="984.63" width="57.65" height="27.31"/>
    <rect class="cls-1" x="175.8" y="984.63" width="57.65" height="27.31"/>
    <rect class="cls-1" x="233.36" y="984.63" width="57.65" height="27.31"/>
    <rect class="cls-1" x="290.92" y="984.63" width="57.65" height="27.31"/>
    <rect class="cls-1" x="348.48" y="984.63" width="57.65" height="27.31"/>
    <rect class="cls-1" x="406.04" y="984.63" width="57.65" height="27.31"/>
    <rect class="cls-1" x="463.59" y="984.63" width="57.65" height="27.31"/>
    <rect class="cls-1" x="521.15" y="984.63" width="57.65" height="27.31"/>
    <rect class="cls-1" x="578.71" y="984.63" width="28.82" height="27.31"/>
    <rect class="cls-1" x="1.42" y="957.28" width="31.32" height="27.31"/>
    <rect class="cls-1" x="31.9" y="957.28" width="57.65" height="27.31"/>
    <rect class="cls-1" x="89.46" y="957.28" width="57.65" height="27.31"/>
    <rect class="cls-1" x="147.02" y="957.28" width="57.65" height="27.31"/>
    <rect class="cls-1" x="204.58" y="957.28" width="57.65" height="27.31"/>
    <rect class="cls-1" x="262.14" y="957.28" width="57.65" height="27.31"/>
    <rect class="cls-1" x="319.7" y="957.28" width="57.65" height="27.31"/>
    <rect class="cls-1" x="377.26" y="957.28" width="57.65" height="27.31"/>
    <rect class="cls-1" x="434.81" y="957.28" width="57.65" height="27.31"/>
    <rect class="cls-1" x="492.37" y="957.28" width="57.65" height="27.31"/>
    <rect class="cls-1" x="549.79" y="957.28" width="57.65" height="27.31"/>
    <rect class="cls-1" x="0.87" y="929.93" width="59.9" height="27.31"/>
    <rect class="cls-1" x="60.68" y="929.93" width="57.65" height="27.31"/>
    <rect class="cls-1" x="118.24" y="929.93" width="57.65" height="27.31"/>
    <rect class="cls-1" x="175.8" y="929.93" width="57.65" height="27.31"/>
    <rect class="cls-1" x="233.36" y="929.93" width="57.65" height="27.31"/>
    <rect class="cls-1" x="290.92" y="929.93" width="57.65" height="27.31"/>
    <rect class="cls-1" x="348.48" y="929.93" width="57.65" height="27.31"/>
    <rect class="cls-1" x="406.04" y="929.93" width="57.65" height="27.31"/>
    <rect class="cls-1" x="463.59" y="929.93" width="57.65" height="27.31"/>
    <rect class="cls-1" x="521.15" y="929.93" width="57.65" height="27.31"/>
    <rect class="cls-1" x="578.99" y="929.93" width="28.41" height="27.31"/>
    <rect class="cls-1" x="31.9" y="902.58" width="57.65" height="27.31"/>
    <rect class="cls-1" x="1.21" y="902.58" width="30.75" height="27.31"/>
    <rect class="cls-1" x="89.46" y="902.58" width="57.65" height="27.31"/>
    <rect class="cls-1" x="147.02" y="902.58" width="57.65" height="27.31"/>
    <rect class="cls-1" x="204.58" y="902.58" width="57.65" height="27.31"/>
    <rect class="cls-1" x="262.14" y="902.58" width="57.65" height="27.31"/>
    <rect class="cls-1" x="319.7" y="902.58" width="57.65" height="27.31"/>
    <rect class="cls-1" x="377.26" y="902.58" width="57.65" height="27.31"/>
    <rect class="cls-1" x="434.81" y="902.58" width="57.65" height="27.31"/>
    <rect class="cls-1" x="492.37" y="902.58" width="57.65" height="27.31"/>
    <rect class="cls-1" x="549.79" y="902.58" width="57.59" height="27.31"/>
    <rect class="cls-1" x="1" y="875.23" width="59.77" height="27.31"/>
    <rect class="cls-1" x="60.68" y="875.23" width="57.65" height="27.31"/>
    <rect class="cls-1" x="118.24" y="875.23" width="57.65" height="27.31"/>
    <rect class="cls-1" x="175.8" y="875.23" width="57.65" height="27.31"/>
    <rect class="cls-1" x="233.36" y="875.23" width="57.65" height="27.31"/>
    <rect class="cls-1" x="290.92" y="875.23" width="57.65" height="27.31"/>
    <rect class="cls-1" x="348.48" y="875.23" width="57.65" height="27.31"/>
    <rect class="cls-1" x="406.04" y="875.23" width="57.65" height="27.31"/>
    <rect class="cls-1" x="463.59" y="875.23" width="57.65" height="27.31"/>
    <rect class="cls-1" x="521.15" y="875.23" width="57.65" height="27.31"/>
    <rect class="cls-1" x="579.13" y="875.23" width="28.38" height="27.31"/>
    <rect class="cls-1" x="1.48" y="1285.26" width="30.89" height="27.31"/>
    <rect class="cls-1" x="31.9" y="1285.26" width="57.65" height="27.31"/>
    <rect class="cls-1" x="89.46" y="1285.26" width="57.65" height="27.31"/>
    <rect class="cls-1" x="147.02" y="1285.26" width="57.65" height="27.31"/>
    <rect class="cls-1" x="204.58" y="1285.26" width="57.65" height="27.31"/>
    <rect class="cls-1" x="262.14" y="1285.26" width="57.65" height="27.31"/>
    <rect class="cls-1" x="319.7" y="1285.26" width="57.65" height="27.31"/>
    <rect class="cls-1" x="377.26" y="1285.26" width="57.65" height="27.31"/>
    <rect class="cls-1" x="434.81" y="1285.26" width="57.65" height="27.31"/>
    <rect class="cls-1" x="492.37" y="1285.26" width="57.65" height="27.31"/>
    <rect class="cls-1" x="549.93" y="1285.26" width="57.45" height="27.31"/>
    <rect class="cls-1" x="1.49" y="1257.91" width="2.1" height="27.31"/>
    <rect class="cls-1" x="1.41" y="1257.91" width="59.36" height="27.31"/>
    <rect class="cls-1" x="60.68" y="1257.91" width="57.65" height="27.31"/>
    <rect class="cls-1" x="118.24" y="1257.91" width="57.65" height="27.31"/>
    <rect class="cls-1" x="175.8" y="1257.91" width="57.65" height="27.31"/>
    <rect class="cls-1" x="233.36" y="1257.91" width="57.65" height="27.31"/>
    <rect class="cls-1" x="290.92" y="1257.91" width="57.65" height="27.31"/>
    <rect class="cls-1" x="348.48" y="1257.91" width="57.65" height="27.31"/>
    <rect class="cls-1" x="406.04" y="1257.91" width="57.65" height="27.31"/>
    <rect class="cls-1" x="463.59" y="1257.91" width="57.65" height="27.31"/>
    <rect class="cls-1" x="521.15" y="1257.91" width="57.65" height="27.31"/>
    <rect class="cls-1" x="578.71" y="1257.91" width="28.41" height="27.31"/>
    <rect class="cls-1" x="1.39" y="1230.56" width="30.97" height="27.31"/>
    <rect class="cls-1" x="31.9" y="1230.56" width="57.65" height="27.31"/>
    <rect class="cls-1" x="89.46" y="1230.56" width="57.65" height="27.31"/>
    <rect class="cls-1" x="147.02" y="1230.56" width="57.65" height="27.31"/>
    <rect class="cls-1" x="204.58" y="1230.56" width="57.65" height="27.31"/>
    <rect class="cls-1" x="262.14" y="1230.56" width="57.65" height="27.31"/>
    <rect class="cls-1" x="319.7" y="1230.56" width="57.65" height="27.31"/>
    <rect class="cls-1" x="377.26" y="1230.56" width="57.65" height="27.31"/>
    <rect class="cls-1" x="434.81" y="1230.56" width="57.65" height="27.31"/>
    <rect class="cls-1" x="492.37" y="1230.56" width="57.65" height="27.31"/>
    <rect class="cls-1" x="549.93" y="1230.56" width="57.65" height="27.31"/>
    <rect class="cls-1" x="1.41" y="1203.21" width="2.55" height="27.31"/>
    <rect class="cls-1" x="1.33" y="1203.21" width="59.45" height="27.31"/>
    <rect class="cls-1" x="60.68" y="1203.21" width="57.65" height="27.31"/>
    <rect class="cls-1" x="118.24" y="1203.21" width="57.65" height="27.31"/>
    <rect class="cls-1" x="175.8" y="1203.21" width="57.65" height="27.31"/>
    <rect class="cls-1" x="233.36" y="1203.21" width="57.65" height="27.31"/>
    <rect class="cls-1" x="290.92" y="1203.21" width="57.65" height="27.31"/>
    <rect class="cls-1" x="348.48" y="1203.21" width="57.65" height="27.31"/>
    <rect class="cls-1" x="406.04" y="1203.21" width="57.65" height="27.31"/>
    <rect class="cls-1" x="463.59" y="1203.21" width="57.65" height="27.31"/>
    <rect class="cls-1" x="521.15" y="1203.21" width="57.65" height="27.31"/>
    <rect class="cls-1" x="578.71" y="1203.21" width="28.82" height="27.31"/>
    <rect class="cls-1" x="1.42" y="1175.86" width="31.32" height="27.31"/>
    <rect class="cls-1" x="31.9" y="1175.86" width="57.65" height="27.31"/>
    <rect class="cls-1" x="89.46" y="1175.86" width="57.65" height="27.31"/>
    <rect class="cls-1" x="147.02" y="1175.86" width="57.65" height="27.31"/>
    <rect class="cls-1" x="204.58" y="1175.86" width="57.65" height="27.31"/>
    <rect class="cls-1" x="262.14" y="1175.86" width="57.65" height="27.31"/>
    <rect class="cls-1" x="319.7" y="1175.86" width="57.65" height="27.31"/>
    <rect class="cls-1" x="377.26" y="1175.86" width="57.65" height="27.31"/>
    <rect class="cls-1" x="434.81" y="1175.86" width="57.65" height="27.31"/>
    <rect class="cls-1" x="492.37" y="1175.86" width="57.65" height="27.31"/>
    <rect class="cls-1" x="549.79" y="1175.86" width="57.65" height="27.31"/>
    <rect class="cls-1" x="0.87" y="1148.51" width="59.9" height="27.31"/>
    <rect class="cls-1" x="60.68" y="1148.51" width="57.65" height="27.31"/>
    <rect class="cls-1" x="118.24" y="1148.51" width="57.65" height="27.31"/>
    <rect class="cls-1" x="175.8" y="1148.51" width="57.65" height="27.31"/>
    <rect class="cls-1" x="233.36" y="1148.51" width="57.65" height="27.31"/>
    <rect class="cls-1" x="290.92" y="1148.51" width="57.65" height="27.31"/>
    <rect class="cls-1" x="348.48" y="1148.51" width="57.65" height="27.31"/>
    <rect class="cls-1" x="406.04" y="1148.51" width="57.65" height="27.31"/>
    <rect class="cls-1" x="463.59" y="1148.51" width="57.65" height="27.31"/>
    <rect class="cls-1" x="521.15" y="1148.51" width="57.65" height="27.31"/>
    <rect class="cls-1" x="578.99" y="1148.51" width="28.41" height="27.31"/>
    <rect class="cls-1" x="31.9" y="1121.16" width="57.65" height="27.31"/>
    <rect class="cls-1" x="1.21" y="1121.16" width="30.75" height="27.31"/>
    <rect class="cls-1" x="89.46" y="1121.16" width="57.65" height="27.31"/>
    <rect class="cls-1" x="147.02" y="1121.16" width="57.65" height="27.31"/>
    <rect class="cls-1" x="204.58" y="1121.16" width="57.65" height="27.31"/>
    <rect class="cls-1" x="262.14" y="1121.16" width="57.65" height="27.31"/>
    <rect class="cls-1" x="319.7" y="1121.16" width="57.65" height="27.31"/>
    <rect class="cls-1" x="377.26" y="1121.16" width="57.65" height="27.31"/>
    <rect class="cls-1" x="434.81" y="1121.16" width="57.65" height="27.31"/>
    <rect class="cls-1" x="492.37" y="1121.16" width="57.65" height="27.31"/>
    <rect class="cls-1" x="549.79" y="1121.16" width="57.59" height="27.31"/>
    <rect class="cls-1" x="1" y="1093.81" width="59.77" height="27.31"/>
    <rect class="cls-1" x="60.68" y="1093.81" width="57.65" height="27.31"/>
    <rect class="cls-1" x="118.24" y="1093.81" width="57.65" height="27.31"/>
    <rect class="cls-1" x="175.8" y="1093.81" width="57.65" height="27.31"/>
    <rect class="cls-1" x="233.36" y="1093.81" width="57.65" height="27.31"/>
    <rect class="cls-1" x="290.92" y="1093.81" width="57.65" height="27.31"/>
    <rect class="cls-1" x="348.48" y="1093.81" width="57.65" height="27.31"/>
    <rect class="cls-1" x="406.04" y="1093.81" width="57.65" height="27.31"/>
    <rect class="cls-1" x="463.59" y="1093.81" width="57.65" height="27.31"/>
    <rect class="cls-1" x="521.15" y="1093.81" width="57.65" height="27.31"/>
    <rect class="cls-1" x="579.13" y="1093.81" width="28.38" height="27.31"/>
    <rect class="cls-1" x="0.87" y="1367.1" width="59.9" height="27.31"/>
    <rect class="cls-1" x="60.68" y="1367.1" width="57.65" height="27.31"/>
    <rect class="cls-1" x="118.24" y="1367.1" width="57.65" height="27.31"/>
    <rect class="cls-1" x="175.8" y="1367.1" width="57.65" height="27.31"/>
    <rect class="cls-1" x="233.36" y="1367.1" width="57.65" height="27.31"/>
    <rect class="cls-1" x="290.92" y="1367.1" width="57.65" height="27.31"/>
    <rect class="cls-1" x="348.48" y="1367.1" width="57.65" height="27.31"/>
    <rect class="cls-1" x="406.04" y="1367.1" width="57.65" height="27.31"/>
    <rect class="cls-1" x="463.59" y="1367.1" width="57.65" height="27.31"/>
    <rect class="cls-1" x="521.15" y="1367.1" width="57.65" height="27.31"/>
    <rect class="cls-1" x="578.99" y="1367.1" width="28.41" height="27.31"/>
    <rect class="cls-1" x="31.9" y="1339.75" width="57.65" height="27.31"/>
    <rect class="cls-1" x="1.21" y="1339.75" width="30.75" height="27.31"/>
    <rect class="cls-1" x="89.46" y="1339.75" width="57.65" height="27.31"/>
    <rect class="cls-1" x="147.02" y="1339.75" width="57.65" height="27.31"/>
    <rect class="cls-1" x="204.58" y="1339.75" width="57.65" height="27.31"/>
    <rect class="cls-1" x="262.14" y="1339.75" width="57.65" height="27.31"/>
    <rect class="cls-1" x="319.7" y="1339.75" width="57.65" height="27.31"/>
    <rect class="cls-1" x="377.26" y="1339.75" width="57.65" height="27.31"/>
    <rect class="cls-1" x="434.81" y="1339.75" width="57.65" height="27.31"/>
    <rect class="cls-1" x="492.37" y="1339.75" width="57.65" height="27.31"/>
    <rect class="cls-1" x="549.79" y="1339.75" width="57.59" height="27.31"/>
    <rect class="cls-1" x="1" y="1312.4" width="59.77" height="27.31"/>
    <rect class="cls-1" x="60.68" y="1312.4" width="57.65" height="27.31"/>
    <rect class="cls-1" x="118.24" y="1312.4" width="57.65" height="27.31"/>
    <rect class="cls-1" x="175.8" y="1312.4" width="57.65" height="27.31"/>
    <rect class="cls-1" x="233.36" y="1312.4" width="57.65" height="27.31"/>
    <rect class="cls-1" x="290.92" y="1312.4" width="57.65" height="27.31"/>
    <rect class="cls-1" x="348.48" y="1312.4" width="57.65" height="27.31"/>
    <rect class="cls-1" x="406.04" y="1312.4" width="57.65" height="27.31"/>
    <rect class="cls-1" x="463.59" y="1312.4" width="57.65" height="27.31"/>
    <rect class="cls-1" x="521.15" y="1312.4" width="57.65" height="27.31"/>
    <rect class="cls-1" x="579.13" y="1312.4" width="28.38" height="27.31"/>
  </g>
</svg>
