<svg id="Layer_4" data-name="Layer 4" xmlns="http://www.w3.org/2000/svg" viewBox="0 0 301.19 318.95">
  <defs>
    <style>
      .cls-1 {
        fill: #4d4d4d;
      }

      .cls-2 {
        fill: #b3b3b3;
      }

      .cls-3 {
        fill: #1a1a1a;
        stroke: #666;
        stroke-miterlimit: 10;
        stroke-width: 5.31px;
      }

      .cls-4 {
        fill: #333;
      }

      .cls-5 {
        font-size: 44.16px;
        fill: #fe0;
        font-family: ReggaeOne-Regular, Reggae One;
      }
    </style>
  </defs>
  <g>
    <circle class="cls-1" cx="133.95" cy="152.05" r="123.8"/>
    <ellipse class="cls-2" cx="133.95" cy="132.31" rx="81.61" ry="58.2"/>
    <path id="_1" class="cls-3" d="M424.48,361.35c-22.86,1.61-59.83,46.43-82.06,40.88-16.61-4.15-13.56-40.69,9.52-39.12,23.35,1.58,64.12,46.87,85.65,37.71C457,392.58,443.35,360,424.48,361.35Z" transform="translate(-254.79 -241.03)"/>
    <path class="cls-4" d="M389.29,263.26A130.11,130.11,0,1,0,519.4,393.37,130.11,130.11,0,0,0,389.29,263.26Zm0,198.83A68.73,68.73,0,1,1,458,393.37,68.73,68.73,0,0,1,389.29,462.09Z" transform="translate(-254.79 -241.03)"/>
    <g id="christian_freeman" data-name="christian freeman">
      <text class="cls-5" transform="translate(53.72 132.87) rotate(-65.17)">C</text>
      <text class="cls-5" transform="matrix(0.77, -0.64, 0.64, 0.77, 68.81, 100.86)">H</text>
      <text class="cls-5" transform="translate(99.16 77.2) rotate(-13.78)">R</text>
      <text class="cls-5" transform="translate(134.24 70.57) rotate(5.82)">I</text>
      <text class="cls-5" transform="translate(154.19 71.93) rotate(24.98)">S</text>
      <text class="cls-5" transform="matrix(0.72, 0.69, -0.69, 0.72, 184.9, 88.3)"> </text>
      <text class="cls-5" transform="matrix(0.58, 0.81, -0.81, 0.58, 28.27, 210.42)">F</text>
      <text class="cls-5" transform="translate(57.53 245.98) rotate(31.52)">R</text>
      <text class="cls-5" transform="translate(102.26 268.9) rotate(8.13)">E</text>
      <text class="cls-5" transform="translate(150.11 272.19) rotate(-14.88)">E</text>
      <text class="cls-5" transform="matrix(0.75, -0.66, 0.66, 0.75, 197.44, 256.41)">M</text>
      <text class="cls-5" transform="translate(239.77 211.74) rotate(-68.43)">A</text>
      <text class="cls-5" transform="translate(255.21 162.06) rotate(-93.79)">N</text>
    </g>
  </g>
</svg>
