<svg id="bricks-doors" xmlns="http://www.w3.org/2000/svg" viewBox="0 0 1280.9 41.04">
  <defs>
    <style>
      .cls-1, .cls-2, .cls-3 {
        fill: #999;
      }

      .cls-2 {
        stroke: #4d4d4d;
      }

      .cls-2, .cls-3 {
        stroke-miterlimit: 10;
      }

      .cls-3 {
        stroke: #666;
      }
    </style>
  </defs>
  <g>
    <g id="left">
      <rect class="cls-1" x="0.19" y="20.56" width="20.48" height="20.47"/>
      <line class="cls-2" y1="40.5" x2="21" y2="40.5"/>
      <line class="cls-2" y1="20.5" x2="21" y2="20.5"/>
    </g>
    <g>
      <rect class="cls-3" x="0.5" y="0.5" width="40" height="20"/>
      <rect class="cls-3" x="40.5" y="0.5" width="40" height="20"/>
      <rect class="cls-3" x="80.5" y="0.5" width="40" height="20"/>
      <rect class="cls-3" x="120.5" y="0.5" width="40" height="20"/>
      <rect class="cls-3" x="160.5" y="0.5" width="40" height="20"/>
      <rect class="cls-3" x="200.5" y="0.5" width="40" height="20"/>
      <rect class="cls-3" x="240.5" y="0.5" width="40" height="20"/>
      <rect class="cls-3" x="280.5" y="0.5" width="40" height="20"/>
      <rect class="cls-3" x="320.5" y="0.5" width="40" height="20"/>
      <rect class="cls-3" x="360.5" y="0.5" width="40" height="20"/>
      <rect class="cls-3" x="400.5" y="0.5" width="40" height="20"/>
      <rect class="cls-3" x="440.5" y="0.5" width="40" height="20"/>
      <rect class="cls-3" x="480.5" y="0.5" width="40" height="20"/>
      <rect class="cls-3" x="520.5" y="0.5" width="40" height="20"/>
      <rect class="cls-3" x="560.5" y="0.5" width="40" height="20"/>
      <rect class="cls-3" x="600.5" y="0.5" width="40" height="20"/>
      <rect class="cls-3" x="640.5" y="0.5" width="40" height="20"/>
      <rect class="cls-3" x="680.5" y="0.5" width="40" height="20"/>
      <rect class="cls-3" x="720.5" y="0.5" width="40" height="20"/>
      <rect class="cls-3" x="760.4" y="0.5" width="40" height="20"/>
      <rect class="cls-3" x="800.4" y="0.5" width="40" height="20"/>
      <rect class="cls-3" x="840.4" y="0.5" width="40" height="20"/>
      <rect class="cls-3" x="880.4" y="0.5" width="40" height="20"/>
      <rect class="cls-3" x="920.4" y="0.5" width="40" height="20"/>
      <rect class="cls-3" x="960.4" y="0.5" width="40" height="20"/>
      <rect class="cls-3" x="1000.4" y="0.5" width="40" height="20"/>
      <rect class="cls-3" x="1040.4" y="0.5" width="40" height="20"/>
      <rect class="cls-3" x="1080.4" y="0.5" width="40" height="20"/>
      <rect class="cls-3" x="1120.4" y="0.5" width="40" height="20"/>
      <rect class="cls-3" x="1160.4" y="0.5" width="40" height="20"/>
      <rect class="cls-3" x="1200.4" y="0.5" width="40" height="20"/>
      <rect class="cls-3" x="1240.4" y="0.5" width="40" height="20"/>
      <rect class="cls-3" x="20.5" y="20.5" width="40" height="20"/>
      <rect class="cls-3" x="60.5" y="20.5" width="40" height="20"/>
      <rect class="cls-3" x="100.5" y="20.5" width="40" height="20"/>
      <rect class="cls-3" x="140.5" y="20.5" width="40" height="20"/>
      <rect class="cls-3" x="180.5" y="20.5" width="40" height="20"/>
      <rect class="cls-3" x="220.5" y="20.5" width="40" height="20"/>
      <rect class="cls-3" x="260.5" y="20.5" width="40" height="20"/>
      <rect class="cls-3" x="300.5" y="20.5" width="40" height="20"/>
      <rect class="cls-3" x="340.5" y="20.5" width="40" height="20"/>
      <rect class="cls-3" x="380.5" y="20.5" width="40" height="20"/>
      <rect class="cls-3" x="420.5" y="20.5" width="40" height="20"/>
      <rect class="cls-3" x="460.5" y="20.5" width="40" height="20"/>
      <rect class="cls-3" x="500.5" y="20.5" width="40" height="20"/>
      <rect class="cls-3" x="540.5" y="20.5" width="40" height="20"/>
      <rect class="cls-3" x="580.5" y="20.5" width="40" height="20"/>
      <rect class="cls-3" x="620.5" y="20.5" width="40" height="20"/>
      <rect class="cls-3" x="660.5" y="20.5" width="40" height="20"/>
      <rect class="cls-3" x="700.4" y="20.5" width="40" height="20"/>
      <rect class="cls-3" x="740.3" y="20.5" width="40" height="20"/>
      <rect class="cls-3" x="780.4" y="20.5" width="40" height="20"/>
      <rect class="cls-3" x="820.4" y="20.5" width="40" height="20"/>
      <rect class="cls-3" x="860.4" y="20.5" width="40" height="20"/>
      <rect class="cls-3" x="900.4" y="20.5" width="40" height="20"/>
      <rect class="cls-3" x="940.4" y="20.5" width="40" height="20"/>
      <rect class="cls-3" x="980.4" y="20.5" width="40" height="20"/>
      <rect class="cls-3" x="1020.4" y="20.5" width="40" height="20"/>
      <rect class="cls-3" x="1060.4" y="20.5" width="40" height="20"/>
      <rect class="cls-3" x="1100.4" y="20.5" width="40" height="20"/>
      <rect class="cls-3" x="1140.4" y="20.5" width="40" height="20"/>
      <rect class="cls-3" x="1180.4" y="20.5" width="40" height="20"/>
      <rect class="cls-3" x="1220.4" y="20.5" width="40" height="20"/>
    </g>
  </g>
</svg>
