<svg id="torchElement" xmlns="http://www.w3.org/2000/svg" viewBox="0 0 400 1000">
  <defs>
    <style>
      .torch {
        fill: #1a1a1a;
      }

      .cls-2 {
        fill: #ff0;
      }

      .cls-3 {
        fill: #ed1c24;
        opacity: 0.71;
      }

      .cls-4 {
        fill: red;
      }
    </style>
  </defs>
  <g id="torch">
    <rect class="torch" x="110.33" y="697.39" width="127.31" height="143.66" rx="20.57"/>
    <path class="cls-1" d="M319.9,431.32a18.88,18.88,0,0,1-4,11.89,13.29,13.29,0,0,1-6.46,4.46L292.76,609.13c0,19.83-9.54,36.91-23.27,44.66a21.61,21.61,0,0,1,1.08,6.82v4.92c0,9.93-6.53,18-14.59,18h-6.56L220,878.68c6.54.72,11.22,7.5,11.66,15.74.55,10.22-9.29,15.8-12.83,15.8,0,0,8.89,2.86,9.63,14.2.61,9.35-8.35,14.2-11.53,14.2,0,0,8.39,3.35,8.89,12.76.4,7.61-7.57,13.11-10.46,13.11l-11.84,23.36c-.72,4.76-6.25,4.76-7,0l-11.6-23.36c-5.76,0-10.85-6.45-10.51-13.54.41-8.31,9-12.33,9-12.33-6.34,0-11.86-6.16-11.79-14,.11-11.84,9.88-14.43,9.88-14.43-7,0-13.32-6.82-13.08-15.46C168.69,883.25,177,879,180,878.68L150.58,683.5H144c-8.06,0-14.59-8-14.59-18v-4.92a21.67,21.67,0,0,1,1-6.42c-13.85-7.46-23.54-24.5-23.54-44.33L90.51,447.65c-6-1.78-10.41-8.42-10.41-16.33a18.87,18.87,0,0,1,4-11.88c2.47-3,69,13,113.71,13.3a319.21,319.21,0,0,0,108.45-18.22C314.15,417.57,319.9,424.18,319.9,431.32Z" transform="translate(-26.01 -8.58)"/>
  </g>
  <g id="fireLeft">
    <path id="yellow" class="cls-2" d="M44.29,360.7c34.08,67.06,87.71,73.22,163.52,72.41,72.28-.76,143.76-19.69,160-95.77,28.2-132-201.9-123.81-95.19-328.76C81.83,52.35-17.45,239.23,44.29,360.7Z" transform="translate(-26.01 -8.58)"/>
    <path id="opacity" class="cls-3" d="M93.51,415.59c45.56,39.24,166.07,19.73,212.57,1.17,25.32-10.1,54.9-50.22,53.15-103.85-2.27-69.63-190.4-74.85-172.88-204.5C68.38,140-28.56,310.47,93.51,415.59Z" transform="translate(-26.01 -8.58)"/>
    <path id="red" class="cls-4" d="M373.91,305.42c-2.58,78.64-54,127.69-131.06,132.37-34,2.06-108.63,4.67-144.89-29.75-73.47-69.72,219.3-98.89,179.49-297C277.45,111.05,377.16,206.62,373.91,305.42Z" transform="translate(-26.01 -8.58)"/>
  </g>
  <g id="fireRight">
    <path id="yellow" class="cls-2" d="M355.71,360.7c-34.08,67.06-87.71,73.22-163.52,72.41-72.28-.76-143.76-19.69-160-95.77C4,205.35,234.08,213.53,127.37,8.58,318.17,52.35,417.45,239.23,355.71,360.7Z" transform="translate(-26.01 -8.58)"/>
    <path id="opacity" class="cls-3" d="M306.49,415.59c-45.56,39.24-166.07,19.73-212.57,1.17C68.6,406.66,39,366.54,40.77,312.91c2.27-69.63,190.4-74.85,172.88-204.5C331.62,140,428.56,310.47,306.49,415.59Z" transform="translate(-26.01 -8.58)"/>
    <path id="red" class="cls-4" d="M26.09,305.42c2.58,78.64,54,127.69,131.06,132.37,34,2.06,108.63,4.67,144.89-29.75,73.47-69.72-219.3-98.89-179.49-297C122.55,111.05,22.84,206.62,26.09,305.42Z" transform="translate(-26.01 -8.58)"/>
  </g>
</svg>
