<svg id="Layer_4" data-name="Layer 4" xmlns="http://www.w3.org/2000/svg" viewBox="0 0 300 300">
  <defs>
    <style>
      .cls-1 {
        fill: #666;
      }

      .cls-2 {
        fill: #b3b3b3;
      }

      .cls-3 {
        fill: #333;
      }

      .cls-4 {
        fill: #1a1a1a;
        stroke: gray;
        stroke-miterlimit: 10;
        stroke-width: 8.32px;
      }

      .cls-5 {
        fill: #fe0;
      }
    </style>
  </defs>
  <g>
    <circle class="cls-1" cx="149.37" cy="149.67" r="142.73"/>
    <ellipse class="cls-2" cx="153.57" cy="133.37" rx="95.26" ry="67.93"/>
    <path class="cls-3" d="M150,0A150,150,0,1,0,300,150,150,150,0,0,0,150,0Zm0,229.23A79.23,79.23,0,1,1,229.23,150,79.23,79.23,0,0,1,150,229.23Z"/>
    <path id="_20" class="cls-4" d="M218.84,157.88l-68.43,5.56a14.84,14.84,0,0,1-2.31,0L81.4,157.9a14.12,14.12,0,0,1-13-14.08v0a14.12,14.12,0,0,1,14.12-14.12H217.69a14.13,14.13,0,0,1,14.13,14.12h0A14.13,14.13,0,0,1,218.84,157.88Z"/>
    <g id="George">
      <g>
        <path class="cls-5" d="M60.13,122.51q-1.49,11.22-4.47,17.83t-7.16,9.28a13.32,13.32,0,0,1-9.18,2A33,33,0,0,1,29,148.69a23.44,23.44,0,0,1-7-5.15,17.79,17.79,0,0,1-3.85-6.4,14.85,14.85,0,0,1-.69-6.69,39.25,39.25,0,0,1,1.82-7.62,27.78,27.78,0,0,1,3.39-6.76l7.76,3.87a27.61,27.61,0,0,0-5.89,5.89,14.94,14.94,0,0,0-2.74,6.72A4.71,4.71,0,0,0,22.8,136a14,14,0,0,0,3.47,3.25,23.72,23.72,0,0,0,5,2.56,24.26,24.26,0,0,0,5.44,1.41,21.18,21.18,0,0,0,6.43-.06,12.85,12.85,0,0,0,5.44-2.41,18.24,18.24,0,0,0,4.63-5.42,47.44,47.44,0,0,0,4-9.14l-13.37-.66-3.88,10.2-.6-.08-2.06-18.95L60.33,121Z"/>
        <path class="cls-5" d="M65.32,108.69,30.71,89.07l4.88-7.75,3.18,2.12,6-17.62,6.89,4.34L40.49,84.59l10.61,7L56.42,76.2l6.77,4.26L52.77,92.75l10.1,6.72L75.22,83.83l.43.26Z"/>
        <path class="cls-5" d="M99.69,71.37a14.39,14.39,0,0,1-5.83,2,20.42,20.42,0,0,1-7.22-.32A21.64,21.64,0,0,1,70.5,57.21a21.25,21.25,0,0,1-.5-6.45,21.9,21.9,0,0,1,1.29-5.92,19.14,19.14,0,0,1,2.63-4.91,13.73,13.73,0,0,1,3.55-3.37A13.37,13.37,0,0,1,82,34.81a19.43,19.43,0,0,1,5.54-.29,22.62,22.62,0,0,1,5.9,1.34A20.39,20.39,0,0,1,99,39a22.28,22.28,0,0,1,7.83,13.38,21.49,21.49,0,0,1-.22,7.9A20,20,0,0,1,104,66.94,14.11,14.11,0,0,1,99.69,71.37Zm-.63-4.72a6.22,6.22,0,0,0,2.68-3.57,10.28,10.28,0,0,0,.06-5.19,18.94,18.94,0,0,0-2.61-6A30.71,30.71,0,0,0,93.43,45a20.7,20.7,0,0,0-5.94-3.7,14.24,14.24,0,0,0-5.36-1,7.73,7.73,0,0,0-4,1.06,6.42,6.42,0,0,0-2.7,3.54A10.35,10.35,0,0,0,75.24,50a17.19,17.19,0,0,0,2.53,6,32,32,0,0,0,6,7.16,20,20,0,0,0,6,3.7,13.63,13.63,0,0,0,5.34.92A8.31,8.31,0,0,0,99.06,66.65Z"/>
        <path class="cls-5" d="M154.33,55.31,131.55,39.44l0-.7A15.79,15.79,0,0,0,136.58,36a17.32,17.32,0,0,0,3.58-4,12.61,12.61,0,0,0,1.8-4.19,7.49,7.49,0,0,0,.16-2.5,4.22,4.22,0,0,0-1.73-3,6,6,0,0,0-4.3-.75A30.17,30.17,0,0,0,129,23.34l3.31,34-6.39.77-6.52-38.74,9.09-1.09.28,2.75a24.54,24.54,0,0,1,4.53-2.59,15.94,15.94,0,0,1,4.58-1.28,13.92,13.92,0,0,1,6.86.57,8.77,8.77,0,0,1,4,3,8.9,8.9,0,0,1,1.64,4.14,8.72,8.72,0,0,1-.11,2.85,9.88,9.88,0,0,1-2,4.16,15.77,15.77,0,0,1-3.61,3.34,20.6,20.6,0,0,1-4.16,2.23L155,55.28Z"/>
        <path class="cls-5" d="M191.66,66.32Q180.94,62.69,175,58.49t-7.71-8.83a13.31,13.31,0,0,1-.2-9.39A33,33,0,0,1,172,30.72a23.52,23.52,0,0,1,6.42-5.93,17.77,17.77,0,0,1,7-2.53,14.79,14.79,0,0,1,6.69.62,37.74,37.74,0,0,1,7.13,3.26,27.58,27.58,0,0,1,6,4.63l-5.3,6.86a27.14,27.14,0,0,0-4.65-6.91,14.68,14.68,0,0,0-6-4,4.69,4.69,0,0,0-3.58.36,13.9,13.9,0,0,0-3.86,2.78,25.23,25.23,0,0,0-5.91,9.44,21.21,21.21,0,0,0-1.18,6.32,12.73,12.73,0,0,0,1.3,5.81A18.67,18.67,0,0,0,180.44,57a47.29,47.29,0,0,0,8.2,5.67l3.23-13-9.25-5.78.19-.57,19,1.64-8.71,21.81Z"/>
        <path class="cls-5" d="M204.24,74.08l26-30.15,6.66,6.29-2.7,2.71,16.13,9.31-5.61,5.92-12-13.76-9,9,14.1,8.22-5.49,5.81-10-12.61-8.56,8.6,13,15.16-.34.37Z"/>
      </g>
      <g>
        <path class="cls-5" d="M28.74,214.65l31.63-23.29L65.44,199l-1.28.79A35.82,35.82,0,0,1,68,203.38a31.09,31.09,0,0,1,2.74,3.47,17.06,17.06,0,0,1,2.76,6.29,9.85,9.85,0,0,1-.25,5.15,6.73,6.73,0,0,1-2.63,3.45,12,12,0,0,1-4.3,1.71,12.33,12.33,0,0,1-5.65-.32,20.63,20.63,0,0,1-6.87-3.59,44.36,44.36,0,0,1-7.93-8.1L32.31,220Zm17.92-3.77a19.78,19.78,0,0,0,5.8,4.27,14.24,14.24,0,0,0,5.37,1.35,13.9,13.9,0,0,0,4.52-.56,13.11,13.11,0,0,0,3.21-1.45A4.39,4.39,0,0,0,67.47,211q.18-2.4-2.29-6.12c-.39-.59-.83-1.2-1.32-1.85a22.13,22.13,0,0,0-1.69-2Z"/>
        <path class="cls-5" d="M64.62,257.3,84.8,223l7.66,5-2.17,3.14,17.53,6.29-4.46,6.82L89.12,232.86,81.9,243.35l15.35,5.58-4.38,6.7L80.76,245l-6.88,10,15.44,12.61L89,268Z"/>
        <path class="cls-5" d="M119.23,282l5.17-33.08-10.53-.7,1.49-7.5,30,8.87-.14.69-11.5-.74-8.07,33.73Z"/>
        <path class="cls-5" d="M192.45,279.83l-24-13.92-.1-.7a15.47,15.47,0,0,0,4.82-3.17,16.94,16.94,0,0,0,3.24-4.26,12.71,12.71,0,0,0,1.45-4.33,7.73,7.73,0,0,0,0-2.51,4.21,4.21,0,0,0-2-2.88,6,6,0,0,0-4.34-.39,30.15,30.15,0,0,0-7,2.4l6.11,33.57-6.31,1.29-9.7-38.07,9-1.84.51,2.72a24.91,24.91,0,0,1,4.29-3,16.82,16.82,0,0,1,4.47-1.66,14,14,0,0,1,6.88,0,8.77,8.77,0,0,1,4.27,2.66,9,9,0,0,1,2,4,8.63,8.63,0,0,1,.12,2.85,9.74,9.74,0,0,1-1.6,4.31,15.88,15.88,0,0,1-3.32,3.63,20.36,20.36,0,0,1-4,2.56l15.89,16.62Z"/>
        <path class="cls-5" d="M239.88,252.22l-12.23-6.8L213.53,259.9l1.15,10.52-.61.44L201.93,230.6l5.74-5.63,36.64,23.24ZM210.75,236l1.84,15.87,13.86-7.1Z"/>
        <path class="cls-5" d="M276.55,202.06l-27.35,8,.65,2.81L264.47,222l-3.15,5.49-34.71-18.35,4.5-7.85L246,210.51l-9.24-20.09,6.63-6.69,3.91,17.84,29.64-.09Z"/>
        <path class="cls-5" d="M282.64,177.68l-38.79-6.09,1.8-9.29,38.26,8.86Z"/>
        <path class="cls-5" d="M272.19,116.56a10.74,10.74,0,0,1,11.3,6.23,22.53,22.53,0,0,1,2,6.66,14.16,14.16,0,0,1-.58,5.8,21.09,21.09,0,0,1-3.22,6.41,25.69,25.69,0,0,1-6.09,5.92l-.4-.3a33.51,33.51,0,0,0,2.21-4.64,37.76,37.76,0,0,0,1.49-4.81,31.57,31.57,0,0,0,.74-4.34,14.07,14.07,0,0,0,0-3.18A6.93,6.93,0,0,0,278,126.5a4.7,4.7,0,0,0-3.9-1.36l-.15,0a3.32,3.32,0,0,0-2.12,1.76,29.07,29.07,0,0,0-2.09,4.13l-2.27,5.29q-1.18,2.78-2.54,5.3a20.23,20.23,0,0,1-2.94,4.24,5.88,5.88,0,0,1-3.54,2l-.42.06a1.61,1.61,0,0,1-.38,0,12.48,12.48,0,0,1-6.2-1.86,14.82,14.82,0,0,1-4.58-4.44,14.15,14.15,0,0,1-2.23-5.87,27.18,27.18,0,0,1,0-7,45.65,45.65,0,0,1,1.73-7.89l8.51,1.67a46.07,46.07,0,0,0-4.66,7.45,10,10,0,0,0-1.06,5.53,5.9,5.9,0,0,0,1.89,3.93,6.5,6.5,0,0,0,4.63,1l.15,0A3.34,3.34,0,0,0,258,139a17.09,17.09,0,0,0,1.9-3.36c.6-1.37,1.21-2.87,1.81-4.5s1.24-3.25,1.92-4.88a37,37,0,0,1,2.21-4.55,15.27,15.27,0,0,1,2.67-3.47,6,6,0,0,1,3.3-1.62Z"/>
      </g>
    </g>
  </g>
</svg>
