<svg id="Layer_4" data-name="Layer 4" xmlns="http://www.w3.org/2000/svg" viewBox="0 0 300 300">
  <defs>
    <style>
      .cls-1 {
        fill: #666;
      }

      .cls-2 {
        fill: #b3b3b3;
      }

      .cls-3 {
        fill: gray;
      }

      .cls-4 {
        fill: #1a1a1a;
      }

      .cls-5 {
        fill: #333;
      }

      .cls-6 {
        fill: #fe0;
      }
    </style>
  </defs>
  <g>
    <circle class="cls-1" cx="149.37" cy="149.67" r="142.73"/>
    <ellipse class="cls-2" cx="153.57" cy="133.37" rx="95.26" ry="67.93"/>
    <g id="_0">
      <g>
        <circle class="cls-3" cx="119.61" cy="134.97" r="23.77"/>
        <circle class="cls-4" cx="119.79" cy="135.15" r="15.62"/>
      </g>
      <g>
        <circle class="cls-3" cx="180.65" cy="134.97" r="23.77"/>
        <circle class="cls-4" cx="180.84" cy="135.15" r="15.62"/>
      </g>
    </g>
    <path class="cls-5" d="M150,0A150,150,0,1,0,300,150,150,150,0,0,0,150,0Zm0,229.23A79.23,79.23,0,1,1,229.23,150,79.23,79.23,0,0,1,150,229.23Z"/>
    <g id="_00">
      <path class="cls-1" d="M236.83,134.72H228a79,79,0,0,1,1.05,12.76c0,1.69-.07,3.35-.18,5h8a7.51,7.51,0,0,0,7.51-7.51v-2.72A7.54,7.54,0,0,0,236.83,134.72Z"/>
      <path class="cls-1" d="M70.6,147.48a79.61,79.61,0,0,1,1-12.33H63.36a7.47,7.47,0,0,0-7.47,7.46v2.7a7.43,7.43,0,0,0,7.43,7.42h7.47C70.68,151,70.6,149.25,70.6,147.48Z"/>
    </g>
    <g id="henry_tribble" data-name="henry tribble">
      <g>
        <path class="cls-6" d="M65.7,107.47l-18.06-6.29-3.42,14.44,15.67,6.76-2.36,6L20.46,115.47l3.38-8.67L38.13,113l7.62-12.47-17.12-6,3.42-8.76L68.1,101.33Z"/>
        <path class="cls-6" d="M77.49,89.52,48.69,62.06l6.63-6.32,2.56,2.83L68,42.94l5.63,5.89L59.27,60.1l8.57,9.41,8.93-13.67,5.53,5.78L69.2,71l8.15,9,15.8-12.16.35.36Z"/>
        <path class="cls-6" d="M132.35,57.14,102.9,35.4l5.39,29.88-.77.26L91.69,28.78l7.81-2.64,23,14.22-1.79-21.92.91-.31L132.73,57Z"/>
        <path class="cls-6" d="M176.45,59.32,158.17,38.44l.14-.7a15.64,15.64,0,0,0,5.58-1.45,17.25,17.25,0,0,0,4.43-3,12.66,12.66,0,0,0,2.76-3.64,7.24,7.24,0,0,0,.75-2.39,4.14,4.14,0,0,0-1-3.36,6,6,0,0,0-4-1.77,30.28,30.28,0,0,0-7.36.05l-5,33.75-6.39-.79,3-39.17,9.08,1.13-.39,2.74a24.28,24.28,0,0,1,5-1.43,16.35,16.35,0,0,1,4.76-.14,14,14,0,0,1,6.52,2.21,8.84,8.84,0,0,1,3.19,3.89,9,9,0,0,1,.59,4.41,8.32,8.32,0,0,1-.8,2.74,9.61,9.61,0,0,1-2.9,3.57,15.83,15.83,0,0,1-4.3,2.38,21.19,21.19,0,0,1-4.58,1.15l9.72,20.83Z"/>
        <path class="cls-6" d="M193.84,67.54l5.68-12,1.17-28.27,9,2.89-4.2,22.11,24.12-9.73.68.34L207.24,60l-7.8,10.88Z"/>
      </g>
      <g>
        <path class="cls-6" d="M50.94,243.89,73.36,219l-8.43-6.35,5.35-5.46L90.54,231l-.49.51-9.22-6.91L55.62,248.46Z"/>
        <path class="cls-6" d="M113.31,282.16l-12.42-24.82.31-.64a15.49,15.49,0,0,0,5.76,0,17.46,17.46,0,0,0,5.05-1.78,12.36,12.36,0,0,0,3.58-2.83,7.36,7.36,0,0,0,1.34-2.12,4.2,4.2,0,0,0-.07-3.49,6,6,0,0,0-3.42-2.71,29.77,29.77,0,0,0-7.13-1.82L93,273.36,87,271,99.8,233.83l8.51,3.39-1.08,2.55a24.77,24.77,0,0,1,5.22-.11,16.34,16.34,0,0,1,4.64,1.06,14.09,14.09,0,0,1,5.75,3.78,8.87,8.87,0,0,1,2.11,4.58,9,9,0,0,1-.54,4.41,8.54,8.54,0,0,1-1.47,2.45,9.58,9.58,0,0,1-3.71,2.72,16,16,0,0,1-4.76,1.22,21.16,21.16,0,0,1-4.72,0l4.15,22.61Z"/>
        <path class="cls-6" d="M139.38,284.94l.41-39.26,9.45.44L146,285.25Z"/>
        <path class="cls-6" d="M163,246l8.78-2.59.71,2.57a19.1,19.1,0,0,1,3.68-3.16,15.37,15.37,0,0,1,4.1-1.91c3.64-1.08,6.51-1.16,8.61-.26a6.83,6.83,0,0,1,4.08,4.49c0,.19.1.39.14.59a5.36,5.36,0,0,1,.1.6,8.79,8.79,0,0,1-1.09,5.35,21,21,0,0,1-5.59,6.32,15.83,15.83,0,0,1,6.62-.33,11.49,11.49,0,0,1,4.7,1.92,5.86,5.86,0,0,1,2.29,3,9.33,9.33,0,0,1-1.27,7.9c-1.63,2.59-4.36,5-8.2,7.29a65.42,65.42,0,0,1-14.6,6Zm14,16.63a35.43,35.43,0,0,0,5.55-6,19.52,19.52,0,0,0,2.61-4.83,7.64,7.64,0,0,0,.55-3,1.46,1.46,0,0,0-.05-.38c0-.11-.07-.23-.11-.36a5,5,0,0,0-2-2.7,3.61,3.61,0,0,0-3.3-.53,32.78,32.78,0,0,0-3.8,1.36,22.13,22.13,0,0,0-3.48,1.89Zm4.59,17a33.6,33.6,0,0,0,6-4.11,15,15,0,0,0,3.23-3.81,8.69,8.69,0,0,0,1.16-3.46,8.31,8.31,0,0,0-.28-3.09,3,3,0,0,0-1-1.46,5.16,5.16,0,0,0-2.37-.93,15.89,15.89,0,0,0-4.28,0,44,44,0,0,0-6.64,1.41Z"/>
        <path class="cls-6" d="M201.64,231.77l7-6,1.7,2.06a19.48,19.48,0,0,1,2.07-4.39,15.63,15.63,0,0,1,3-3.42q4.32-3.69,7.75-3.75a6.81,6.81,0,0,1,5.55,2.44,5.45,5.45,0,0,1,.37.47l.34.51a8.82,8.82,0,0,1,1.19,5.34,21.16,21.16,0,0,1-2.53,8,15.72,15.72,0,0,1,5.91-3A11.37,11.37,0,0,1,239,230a5.85,5.85,0,0,1,3.29,1.76,9.33,9.33,0,0,1,2.07,7.73q-.65,4.55-4.51,10A65.35,65.35,0,0,1,229,260.89Zm19.6,9.46a35.11,35.11,0,0,0,2.62-7.74,19.62,19.62,0,0,0,.42-5.48,7.87,7.87,0,0,0-.73-3,2,2,0,0,0-.21-.32l-.25-.29a5.08,5.08,0,0,0-2.88-1.67,3.66,3.66,0,0,0-3.23.87,35.71,35.71,0,0,0-2.91,2.79,22.84,22.84,0,0,0-2.4,3.15Zm11.14,13.65a34.4,34.4,0,0,0,3.8-6.2,15.38,15.38,0,0,0,1.39-4.8,8.74,8.74,0,0,0-.36-3.63,8.22,8.22,0,0,0-1.51-2.71,3,3,0,0,0-1.52-.92,5.13,5.13,0,0,0-2.54.12,15.93,15.93,0,0,0-3.9,1.75,41.5,41.5,0,0,0-5.49,4Z"/>
        <path class="cls-6" d="M267.07,219.46l-36.24-16.73,4.2-8.31L262.81,210l10.57-14.9.56.34Z"/>
        <path class="cls-6" d="M284.86,170.94l-39.76-1.49.77-9.12,3.8.42-2.79-18.41L255,143,251.73,161l12.65,1.37L262,146.19l8,.67-3.6,15.7,12.06,1.32,3.77-19.57.5,0Z"/>
      </g>
    </g>
  </g>
</svg>
