<svg xmlns="http://www.w3.org/2000/svg" viewBox="0 0 777.81 780.22">
  <defs>
    <style>
      .cls-1, .cls-12, .cls-6 {
        fill: #ccc;
      }

      .cls-1, .cls-13, .cls-14, .cls-17, .cls-18, .cls-5 {
        stroke: #1a1a1a;
      }

      .cls-1, .cls-10, .cls-13, .cls-14, .cls-15, .cls-16, .cls-17, .cls-18, .cls-2, .cls-3, .cls-4, .cls-5 {
        stroke-miterlimit: 10;
      }

      .cls-1 {
        stroke-width: 3.01px;
      }

      .cls-2 {
        fill: none;
      }

      .cls-10, .cls-16, .cls-2, .cls-3, .cls-4, .cls-6, .cls-7, .cls-8, .cls-9 {
        stroke: #333;
      }

      .cls-13, .cls-14, .cls-3, .cls-8 {
        fill: #666;
      }

      .cls-4 {
        fill: gray;
      }

      .cls-18, .cls-5 {
        fill: #4d4d4d;
      }

      .cls-5 {
        stroke-width: 2.86px;
      }

      .cls-6, .cls-7, .cls-8, .cls-9 {
        stroke-linecap: round;
        stroke-linejoin: round;
      }

      .cls-10, .cls-15, .cls-16, .cls-7 {
        fill: #999;
      }

      .cls-9 {
        fill: #b3b3b3;
      }

      .cls-10 {
        stroke-width: 0.65px;
      }

      .cls-11, .cls-17 {
        fill: #e6e6e6;
      }

      .cls-13, .cls-15, .cls-16 {
        stroke-width: 1.07px;
      }

      .cls-14, .cls-17 {
        stroke-width: 0.76px;
      }

      .cls-15 {
        stroke: #4d4d4d;
      }

      .cls-18 {
        stroke-width: 1.45px;
      }

      .cls-19 {
        font-size: 42.93px;
        fill: #fff200;
        font-family: ReggaeOne-Regular, Reggae One;
      }
    </style>
  </defs>
  <g id="Layer_3" data-name="Layer 3">
    <circle class="cls-1" cx="388.74" cy="393.08" r="340.94"/>
    <path class="cls-2" d="M650.94,393.08v.58l-262.2-.57-.29-262.2h.29C533.55,130.89,650.94,248.28,650.94,393.08Z"/>
    <path class="cls-3" d="M650.94,393.66C650.63,538.11,533.51,655.13,389,655.28l-.28-262.19Z"/>
    <path class="cls-2" d="M389,655.28h-.28c-144.8,0-262.19-117.39-262.19-262.2v-.57l262.19.58Z"/>
    <path class="cls-4" d="M388.74,393.09l-262.19-.58c.31-144.44,117.42-261.46,261.9-261.62Z"/>
    <g>
      <path class="cls-5" d="M388.74,53C200.91,53,48.65,205.25,48.65,393.08S200.91,733.17,388.74,733.17,728.83,580.91,728.83,393.08,576.57,53,388.74,53Zm0,599.74c-143.39,0-259.64-116.25-259.64-259.64S245.35,133.44,388.74,133.44,648.38,249.68,648.38,393.08,532.14,652.72,388.74,652.72Z"/>
      <g>
        <g>
          <polygon class="cls-6" points="388.06 74.3 401.49 88.92 386.98 88.64 387.85 74.5 388.06 74.3"/>
          <polygon class="cls-7" points="401.49 88.92 401.7 89.15 386.14 103.44 386.06 103.35 386.98 88.64 401.49 88.92"/>
          <polygon class="cls-8" points="386.98 88.64 386.06 103.35 372.51 88.59 372.74 88.38 386.98 88.64"/>
          <polygon class="cls-9" points="387.85 74.5 386.98 88.64 372.74 88.38 387.85 74.5"/>
        </g>
        <g>
          <polygon class="cls-6" points="470.19 85.32 479.37 102.91 465.43 98.89 469.93 85.45 470.19 85.32"/>
          <polygon class="cls-7" points="479.37 102.91 479.52 103.19 460.79 112.97 460.73 112.86 465.43 98.89 479.37 102.91"/>
          <polygon class="cls-8" points="465.43 98.89 460.73 112.86 451.46 95.1 451.74 94.95 465.43 98.89"/>
          <polygon class="cls-9" points="469.93 85.45 465.43 98.89 451.74 94.95 469.93 85.45"/>
        </g>
        <g>
          <polygon class="cls-6" points="546.66 117.22 550.98 136.58 538.55 129.09 546.38 117.28 546.66 117.22"/>
          <polygon class="cls-7" points="550.98 136.58 551.05 136.89 530.43 141.49 530.4 141.37 538.55 129.09 550.98 136.58"/>
          <polygon class="cls-8" points="538.55 129.09 530.4 141.37 526.04 121.81 526.35 121.74 538.55 129.09"/>
          <polygon class="cls-9" points="546.38 117.28 538.55 129.09 526.35 121.74 546.38 117.28"/>
        </g>
        <g>
          <polygon class="cls-6" points="612.27 167.82 611.43 187.64 601.37 177.19 611.99 167.81 612.27 167.82"/>
          <polygon class="cls-7" points="611.43 187.64 611.42 187.96 590.31 187.06 590.32 186.94 601.37 177.19 611.43 187.64"/>
          <polygon class="cls-8" points="601.37 177.19 590.32 186.94 591.17 166.92 591.49 166.93 601.37 177.19"/>
          <polygon class="cls-9" points="611.99 167.81 601.37 177.19 591.49 166.93 611.99 167.81"/>
        </g>
        <g>
          <polygon class="cls-6" points="662.55 233.68 656.61 252.61 649.59 239.91 662.28 233.59 662.55 233.68"/>
          <polygon class="cls-7" points="656.61 252.61 656.51 252.91 636.36 246.58 636.4 246.46 649.59 239.91 656.61 252.61"/>
          <polygon class="cls-8" points="649.59 239.91 636.4 246.46 642.4 227.35 642.7 227.44 649.59 239.91"/>
          <polygon class="cls-9" points="662.28 233.59 649.59 239.91 642.7 227.44 662.28 233.59"/>
        </g>
        <g>
          <polygon class="cls-6" points="694.08 310.31 683.44 327.05 679.94 312.97 693.83 310.15 694.08 310.31"/>
          <polygon class="cls-7" points="683.44 327.05 683.26 327.32 665.43 315.99 665.5 315.89 679.94 312.97 683.44 327.05"/>
          <polygon class="cls-8" points="679.94 312.97 665.5 315.89 676.25 298.98 676.51 299.15 679.94 312.97"/>
          <polygon class="cls-9" points="693.83 310.15 679.94 312.97 676.51 299.15 693.83 310.15"/>
        </g>
        <g>
          <polygon class="cls-6" points="704.69 392.48 690.08 405.9 690.35 391.39 704.49 392.27 704.69 392.48"/>
          <polygon class="cls-7" points="690.08 405.9 689.84 406.12 675.55 390.56 675.64 390.48 690.35 391.39 690.08 405.9"/>
          <polygon class="cls-8" points="690.35 391.39 675.64 390.48 690.4 376.92 690.62 377.16 690.35 391.39"/>
          <polygon class="cls-9" points="704.49 392.27 690.35 391.39 690.62 377.16 704.49 392.27"/>
        </g>
        <g>
          <polygon class="cls-6" points="693.67 474.61 676.09 483.79 680.1 469.84 693.54 474.35 693.67 474.61"/>
          <polygon class="cls-7" points="676.09 483.79 675.8 483.94 666.03 465.21 666.14 465.15 680.1 469.84 676.09 483.79"/>
          <polygon class="cls-8" points="680.1 469.84 666.14 465.15 683.9 455.88 684.04 456.16 680.1 469.84"/>
          <polygon class="cls-9" points="693.54 474.35 680.1 469.84 684.04 456.16 693.54 474.35"/>
        </g>
        <g>
          <polygon class="cls-6" points="661.78 551.08 642.41 555.4 649.9 542.97 661.71 550.8 661.78 551.08"/>
          <polygon class="cls-7" points="642.41 555.4 642.1 555.47 637.5 534.85 637.63 534.82 649.9 542.97 642.41 555.4"/>
          <polygon class="cls-8" points="649.9 542.97 637.63 534.82 657.18 530.46 657.25 530.77 649.9 542.97"/>
          <polygon class="cls-9" points="661.71 550.8 649.9 542.97 657.25 530.77 661.71 550.8"/>
        </g>
        <g>
          <polygon class="cls-6" points="611.17 616.69 591.35 615.85 601.8 605.78 611.19 616.4 611.17 616.69"/>
          <polygon class="cls-7" points="591.35 615.85 591.03 615.84 591.93 594.73 592.05 594.74 601.8 605.78 591.35 615.85"/>
          <polygon class="cls-8" points="601.8 605.78 592.05 594.74 612.07 595.59 612.06 595.9 601.8 605.78"/>
          <polygon class="cls-9" points="611.19 616.4 601.8 605.78 612.06 595.9 611.19 616.4"/>
        </g>
        <g>
          <polygon class="cls-6" points="545.32 666.97 526.39 661.03 539.09 654.01 545.4 666.7 545.32 666.97"/>
          <polygon class="cls-7" points="526.39 661.03 526.08 660.93 532.41 640.78 532.53 640.82 539.09 654.01 526.39 661.03"/>
          <polygon class="cls-8" points="539.09 654.01 532.53 640.82 551.64 646.82 551.55 647.12 539.09 654.01"/>
          <polygon class="cls-9" points="545.4 666.7 539.09 654.01 551.55 647.12 545.4 666.7"/>
        </g>
        <g>
          <polygon class="cls-6" points="468.69 698.49 451.94 687.85 466.03 684.36 468.84 698.25 468.69 698.49"/>
          <polygon class="cls-7" points="451.94 687.85 451.67 687.68 463 669.85 463.11 669.92 466.03 684.36 451.94 687.85"/>
          <polygon class="cls-8" points="466.03 684.36 463.11 669.92 480.02 680.66 479.85 680.93 466.03 684.36"/>
          <polygon class="cls-9" points="468.84 698.25 466.03 684.36 479.85 680.93 468.84 698.25"/>
        </g>
        <g>
          <polygon class="cls-6" points="386.51 709.11 373.09 694.5 387.6 694.77 386.72 708.91 386.51 709.11"/>
          <polygon class="cls-7" points="373.09 694.5 372.87 694.26 388.43 679.97 388.52 680.06 387.6 694.77 373.09 694.5"/>
          <polygon class="cls-8" points="387.6 694.77 388.52 680.06 402.07 694.82 401.83 695.03 387.6 694.77"/>
          <polygon class="cls-9" points="386.72 708.91 387.6 694.77 401.83 695.03 386.72 708.91"/>
        </g>
        <g>
          <polygon class="cls-6" points="304.39 698.09 295.2 680.5 309.15 684.52 304.64 697.96 304.39 698.09"/>
          <polygon class="cls-7" points="295.2 680.5 295.06 680.22 313.79 670.44 313.84 670.55 309.15 684.52 295.2 680.5"/>
          <polygon class="cls-8" points="309.15 684.52 313.84 670.55 323.11 688.32 322.83 688.46 309.15 684.52"/>
          <polygon class="cls-9" points="304.64 697.96 309.15 684.52 322.83 688.46 304.64 697.96"/>
        </g>
        <g>
          <polygon class="cls-6" points="227.91 666.2 223.6 646.83 236.03 654.32 228.2 666.13 227.91 666.2"/>
          <polygon class="cls-7" points="223.6 646.83 223.53 646.52 244.15 641.92 244.17 642.04 236.03 654.32 223.6 646.83"/>
          <polygon class="cls-8" points="236.03 654.32 244.17 642.04 248.53 661.6 248.22 661.67 236.03 654.32"/>
          <polygon class="cls-9" points="228.2 666.13 236.03 654.32 248.22 661.67 228.2 666.13"/>
        </g>
        <g>
          <polygon class="cls-6" points="162.3 615.59 163.14 595.77 173.21 606.22 162.59 615.61 162.3 615.59"/>
          <polygon class="cls-7" points="163.14 595.77 163.16 595.45 184.26 596.35 184.26 596.47 173.21 606.22 163.14 595.77"/>
          <polygon class="cls-8" points="173.21 606.22 184.26 596.47 183.41 616.49 183.09 616.48 173.21 606.22"/>
          <polygon class="cls-9" points="162.59 615.61 173.21 606.22 183.09 616.48 162.59 615.61"/>
        </g>
        <g>
          <polygon class="cls-6" points="112.02 549.73 117.96 530.8 124.98 543.51 112.3 549.82 112.02 549.73"/>
          <polygon class="cls-7" points="117.96 530.8 118.06 530.5 138.22 536.83 138.18 536.95 124.98 543.51 117.96 530.8"/>
          <polygon class="cls-8" points="124.98 543.51 138.18 536.95 132.18 556.06 131.87 555.97 124.98 543.51"/>
          <polygon class="cls-9" points="112.3 549.82 124.98 543.51 131.87 555.97 112.3 549.82"/>
        </g>
        <g>
          <polygon class="cls-6" points="80.5 473.1 91.14 456.36 94.63 470.44 80.74 473.26 80.5 473.1"/>
          <polygon class="cls-7" points="91.14 456.36 91.31 456.09 109.14 467.42 109.08 467.52 94.63 470.44 91.14 456.36"/>
          <polygon class="cls-8" points="94.63 470.44 109.08 467.52 98.33 484.44 98.06 484.26 94.63 470.44"/>
          <polygon class="cls-9" points="80.74 473.26 94.63 470.44 98.06 484.26 80.74 473.26"/>
        </g>
        <g>
          <polygon class="cls-6" points="69.89 390.93 84.5 377.51 84.22 392.02 70.08 391.14 69.89 390.93"/>
          <polygon class="cls-7" points="84.5 377.51 84.73 377.29 99.02 392.85 98.93 392.93 84.22 392.02 84.5 377.51"/>
          <polygon class="cls-8" points="84.22 392.02 98.93 392.93 84.17 406.49 83.96 406.25 84.22 392.02"/>
          <polygon class="cls-9" points="70.08 391.14 84.22 392.02 83.96 406.25 70.08 391.14"/>
        </g>
        <g>
          <polygon class="cls-6" points="80.9 308.81 98.49 299.62 94.47 313.57 81.04 309.06 80.9 308.81"/>
          <polygon class="cls-7" points="98.49 299.62 98.77 299.48 108.55 318.2 108.44 318.26 94.47 313.57 98.49 299.62"/>
          <polygon class="cls-8" points="94.47 313.57 108.44 318.26 90.68 327.53 90.53 327.25 94.47 313.57"/>
          <polygon class="cls-9" points="81.04 309.06 94.47 313.57 90.53 327.25 81.04 309.06"/>
        </g>
        <g>
          <polygon class="cls-6" points="112.8 232.33 132.16 228.01 124.67 240.44 112.86 232.61 112.8 232.33"/>
          <polygon class="cls-7" points="132.16 228.01 132.47 227.94 137.07 248.56 136.95 248.59 124.67 240.44 132.16 228.01"/>
          <polygon class="cls-8" points="124.67 240.44 136.95 248.59 117.39 252.95 117.32 252.64 124.67 240.44"/>
          <polygon class="cls-9" points="112.86 232.61 124.67 240.44 117.32 252.64 112.86 232.61"/>
        </g>
        <g>
          <polygon class="cls-6" points="163.4 166.72 183.22 167.56 172.77 177.63 163.39 167.01 163.4 166.72"/>
          <polygon class="cls-7" points="183.22 167.56 183.54 167.57 182.64 188.68 182.52 188.68 172.77 177.63 183.22 167.56"/>
          <polygon class="cls-8" points="172.77 177.63 182.52 188.68 162.5 187.82 162.52 187.51 172.77 177.63"/>
          <polygon class="cls-9" points="163.39 167.01 172.77 177.63 162.52 187.51 163.39 167.01"/>
        </g>
        <g>
          <polygon class="cls-6" points="229.26 116.44 248.19 122.38 235.49 129.4 229.17 116.72 229.26 116.44"/>
          <polygon class="cls-7" points="248.19 122.38 248.49 122.48 242.16 142.63 242.05 142.6 235.49 129.4 248.19 122.38"/>
          <polygon class="cls-8" points="235.49 129.4 242.05 142.6 222.93 136.59 223.03 136.29 235.49 129.4"/>
          <polygon class="cls-9" points="229.17 116.72 235.49 129.4 223.03 136.29 229.17 116.72"/>
        </g>
        <g>
          <polygon class="cls-6" points="305.89 84.92 322.63 95.56 308.55 99.05 305.73 85.16 305.89 84.92"/>
          <polygon class="cls-7" points="322.63 95.56 322.9 95.73 311.57 113.56 311.47 113.49 308.55 99.05 322.63 95.56"/>
          <polygon class="cls-8" points="308.55 99.05 311.47 113.49 294.56 102.75 294.73 102.48 308.55 99.05"/>
          <polygon class="cls-9" points="305.73 85.16 308.55 99.05 294.73 102.48 305.73 85.16"/>
        </g>
      </g>
    </g>
    <g id="Layer_1" data-name="Layer 1">
      <g>
        <path class="cls-10" d="M699.37,767.75c-10.23-10.23-10-28-.9-44.44a70.07,70.07,0,0,1,26.46-26.65c16.56-9.31,34.52-9.63,44.84.69,13.55,13.55,8.77,40.29-10.66,59.72S712.92,781.3,699.37,767.75Z"/>
        <polygon class="cls-11" points="0 0.76 149.09 55.42 581.1 522.72 570.33 561.39 568.32 568.76 0 0.76"/>
        <polygon class="cls-12" points="55.92 148.59 0.62 0 0.72 0.04 569.05 568.03 568.97 568.32 561.32 570.4 522.03 580.6 55.92 148.59"/>
        <g>
          <path class="cls-13" d="M551.94,609.22l45-12.22,12.22-45L727.44,696.59A82.58,82.58,0,0,0,696.25,728Z"/>
          <g>
            <line class="cls-14" x1="627.6" y1="574.28" x2="573.39" y2="626.9"/>
            <line class="cls-14" x1="641.18" y1="591.65" x2="591.18" y2="641.65"/>
            <line class="cls-14" x1="657.93" y1="612.28" x2="611.88" y2="658.17"/>
            <line class="cls-14" x1="671.08" y1="628.57" x2="627.88" y2="671.77"/>
            <line class="cls-14" x1="684.91" y1="644.49" x2="644.7" y2="684.7"/>
            <line class="cls-14" x1="694.77" y1="656.9" x2="656.8" y2="694.87"/>
            <line class="cls-14" x1="704.34" y1="669.46" x2="668.54" y2="705.26"/>
            <line class="cls-14" x1="714.81" y1="681.12" x2="680.8" y2="715.12"/>
          </g>
        </g>
        <path class="cls-15" d="M435.47,623.72a33.82,33.82,0,1,1,47.83-47.83,3.79,3.79,0,0,1,.38.42,33,33,0,0,1,7.93,13.32l23-6.24L561,570.77l7.66-2.09,2.08-7.65,12.62-46.37,6.76-24.89a33.1,33.1,0,0,1-12.64-7.21c-.42-.38-.83-.76-1.23-1.16A33.82,33.82,0,1,1,624,433.57c.4.4.78.81,1.16,1.23A33.71,33.71,0,0,1,633.63,462l-2.38,8.71L621.91,505l-12.76,47-12.22,45-45,12.22-47,12.78-31.43,8.55-10.59,2.88a33.64,33.64,0,0,1-27-9.33A3.79,3.79,0,0,1,435.47,623.72Z"/>
      </g>
      <g>
        <path class="cls-16" d="M8.56,701.58c-10.23,10.23-10,28-.91,44.44a70.19,70.19,0,0,0,26.47,26.65C50.68,782,68.64,782.3,79,772c13.55-13.55,8.77-40.29-10.66-59.72S22.11,688,8.56,701.58Z"/>
        <polygon class="cls-12" points="775.87 2.29 721.21 151.38 253.91 583.39 207.87 570.61 775.87 2.29"/>
        <polygon class="cls-11" points="628.04 58.21 776.63 2.9 776.59 3.01 208.6 571.33 208.31 571.26 196.03 524.32 628.04 58.21"/>
        <g>
          <path class="cls-13" d="M167.41,554.22l12.22,45,45,12.23L80,729.73a81.19,81.19,0,0,0-13.38-17.54,80.26,80.26,0,0,0-18-13.65Z"/>
          <g>
            <line class="cls-17" x1="202.35" y1="629.89" x2="149.73" y2="575.68"/>
            <line class="cls-17" x1="184.98" y1="643.47" x2="134.98" y2="593.47"/>
            <line class="cls-17" x1="164.35" y1="660.21" x2="118.46" y2="614.17"/>
            <line class="cls-17" x1="148.06" y1="673.37" x2="104.86" y2="630.17"/>
            <line class="cls-17" x1="132.14" y1="687.19" x2="91.93" y2="646.98"/>
            <line class="cls-17" x1="119.73" y1="697.06" x2="81.76" y2="659.09"/>
            <line class="cls-17" x1="107.17" y1="706.63" x2="71.37" y2="670.83"/>
            <line class="cls-17" x1="95.51" y1="717.09" x2="61.5" y2="683.08"/>
          </g>
        </g>
        <path class="cls-15" d="M152.91,437.76a33.82,33.82,0,1,1,47.83,47.83,3.79,3.79,0,0,1-.42.38A33,33,0,0,1,187,493.9l20.94,77,78.92,21.45a32.93,32.93,0,0,1,7.21-12.63c.38-.42.76-.84,1.16-1.24a33.82,33.82,0,1,1,47.83,47.84c-.4.4-.81.78-1.23,1.16a33.68,33.68,0,0,1-27.19,8.43l-135-36.7-36.43-134a33.64,33.64,0,0,1,9.33-27A3.69,3.69,0,0,1,152.91,437.76Z"/>
      </g>
    </g>
  </g>
  <g id="Layer_4" data-name="Layer 4">
    <g>
      <path class="cls-18" d="M389.29,263.26A130.11,130.11,0,1,0,519.4,393.37,130.11,130.11,0,0,0,389.29,263.26Zm0,198.83A68.73,68.73,0,1,1,458,393.37,68.73,68.73,0,0,1,389.29,462.09Z"/>
      <g>
        <text class="cls-19" transform="matrix(0.35, -0.94, 0.94, 0.35, 309.73, 379.91)">S</text>
        <text class="cls-19" transform="matrix(0.71, -0.71, 0.71, 0.71, 321.97, 348.69)">C</text>
        <text class="cls-19" transform="matrix(0.93, -0.36, 0.36, 0.93, 346.75, 324.94)">R</text>
        <text class="cls-19" transform="translate(379.14 313.23) rotate(4.53)">A</text>
        <text class="cls-19" transform="translate(413.96 316.78) rotate(29)">P</text>
        <text class="cls-19" transform="translate(442.52 334.68) rotate(47.76)"> </text>
        <text class="cls-19" transform="translate(277.7 432.2) rotate(62.32)">D</text>
        <text class="cls-19" transform="matrix(0.79, 0.61, -0.61, 0.79, 305.73, 476.29)">E</text>
        <text class="cls-19" transform="matrix(0.96, 0.27, -0.27, 0.96, 344.1, 501.79)">F</text>
        <text class="cls-19" transform="translate(387.52 510.85) rotate(-6.51)">E</text>
        <text class="cls-19" transform="translate(434.06 502.25) rotate(-30.84)">N</text>
        <text class="cls-19" transform="matrix(0.54, -0.84, 0.84, 0.54, 477.44, 471.34)">D</text>
        <text class="cls-19" transform="translate(502.17 425.44) rotate(-81.28)">E</text>
        <text class="cls-19" transform="matrix(-0.26, -0.97, 0.97, -0.26, 505.94, 378.64)">R</text>
        <text class="cls-19" transform="matrix(-0.55, -0.83, 0.83, -0.55, 490.48, 335.03)"> </text>
      </g>
    </g>
  </g>
</svg>
