<svg id="Layer_4" data-name="Layer 4" xmlns="http://www.w3.org/2000/svg" viewBox="0 0 305.83 319.99">
  <defs>
    <style>
      .cls-1 {
        fill: #4d4d4d;
      }

      .cls-2 {
        fill: #b3b3b3;
      }

      .cls-3 {
        fill: #333;
      }

      .cls-4 {
        font-size: 44.16px;
        fill: #fe0;
        font-family: ReggaeOne-Regular, Reggae One;
      }

      .cls-5 {
        fill: #666;
      }

      .cls-6 {
        fill: gray;
      }

      .cls-7 {
        fill: #1a1a1a;
      }
    </style>
  </defs>
  <g>
    <circle class="cls-1" cx="138.58" cy="152.79" r="123.8"/>
    <ellipse class="cls-2" cx="138.58" cy="133.05" rx="81.61" ry="58.2"/>
    <path class="cls-3" d="M389.29,263.26A130.11,130.11,0,1,0,519.4,393.37,130.11,130.11,0,0,0,389.29,263.26Zm0,198.83A68.73,68.73,0,1,1,458,393.37,68.73,68.73,0,0,1,389.29,462.09Z" transform="translate(-250.17 -240.29)"/>
    <g>
      <text class="cls-4" transform="translate(57.27 139.29) rotate(-69.46)">S</text>
      <text class="cls-4" transform="translate(69.86 107.14) rotate(-45.13)">C</text>
      <text class="cls-4" transform="translate(95.35 82.71) rotate(-21.12)">R</text>
      <text class="cls-4" transform="translate(128.66 70.67) rotate(4.53)">A</text>
      <text class="cls-4" transform="translate(164.51 74.34) rotate(29.02)">P</text>
      <text class="cls-4" transform="translate(193.87 92.73) rotate(47.77)"> </text>
      <text class="cls-4" transform="translate(24.28 192.91) rotate(62.39)">D</text>
      <text class="cls-4" transform="matrix(0.79, 0.61, -0.61, 0.79, 53.09, 238.32)">E</text>
      <text class="cls-4" transform="matrix(0.96, 0.27, -0.27, 0.96, 92.59, 264.61)">F</text>
      <text class="cls-4" transform="matrix(0.99, -0.11, 0.11, 0.99, 137.25, 273.95)">E</text>
      <text class="cls-4" transform="matrix(0.86, -0.51, 0.51, 0.86, 185.2, 265.09)">N</text>
      <text class="cls-4" transform="matrix(0.54, -0.84, 0.84, 0.54, 229.81, 233.28)">D</text>
      <text class="cls-4" transform="translate(255.25 186) rotate(-81.33)">E</text>
      <text class="cls-4" transform="translate(259.08 137.8) rotate(-105.03)">R</text>
      <text class="cls-4" transform="matrix(-0.55, -0.83, 0.83, -0.55, 243.12, 92.95)"> </text>
    </g>
    <path class="cls-5" d="M464.52,382h-7.61a69.45,69.45,0,0,1,.9,11.06c0,1.46-.06,2.9-.15,4.33h6.89a6.5,6.5,0,0,0,6.5-6.5v-2.36A6.53,6.53,0,0,0,464.52,382Z" transform="translate(-250.17 -240.29)"/>
    <path class="cls-5" d="M320.57,393.08a68.54,68.54,0,0,1,.84-10.69H314.3a6.47,6.47,0,0,0-6.46,6.47v2.33a6.43,6.43,0,0,0,6.43,6.44h6.47C320.64,396.12,320.57,394.61,320.57,393.08Z" transform="translate(-250.17 -240.29)"/>
    <g>
      <circle class="cls-6" cx="112.28" cy="141.95" r="20.59"/>
      <circle class="cls-7" cx="112.44" cy="142.11" r="13.53"/>
    </g>
    <g>
      <circle class="cls-6" cx="165.15" cy="141.95" r="20.59"/>
      <circle class="cls-7" cx="165.31" cy="142.11" r="13.53"/>
    </g>
  </g>
</svg>
