<svg id="Layer_4" data-name="Layer 4" xmlns="http://www.w3.org/2000/svg" viewBox="0 0 188.47 158.46">
  <defs>
    <style>
      .cls-1 {
        fill: #333;
      }

      .cls-2 {
        fill: #999;
      }

      .cls-3 {
        fill: #fe0;
      }

      .cls-4 {
        fill: #1a1a1a;
      }

      .cls-5 {
        fill: #666;
      }
    </style>
  </defs>
  <g>
    <circle class="cls-1" cx="150" cy="150" r="79.23" transform="translate(-117.9 79.23) rotate(-45)"/>
    <circle class="cls-2" cx="150" cy="150" r="79.23" transform="translate(-117.9 79.23) rotate(-45)"/>
    <path class="cls-1" d="M150,201.3c-30.53,0-57.7-10.24-75.14-26.17a79.23,79.23,0,0,0,150.28,0C207.7,191.06,180.53,201.3,150,201.3Z" transform="translate(-55.76 -70.77)"/>
    <g id="_0">
      <g>
        <circle class="cls-3" cx="58.3" cy="64.2" r="27.99"/>
        <circle class="cls-4" cx="58.52" cy="64.41" r="18.39"/>
      </g>
      <g>
        <circle class="cls-3" cx="130.17" cy="64.2" r="27.99"/>
        <circle class="cls-4" cx="130.39" cy="64.41" r="18.39"/>
      </g>
    </g>
    <g id="_00">
      <path class="cls-5" d="M236.7,134.72h-8.8a79,79,0,0,1,1,12.76c0,1.69-.07,3.35-.18,5h8a7.51,7.51,0,0,0,7.51-7.51v-2.72A7.54,7.54,0,0,0,236.7,134.72Z" transform="translate(-55.76 -70.77)"/>
      <path class="cls-5" d="M70.67,147.48A84.22,84.22,0,0,1,72,135.15H63.23a7.47,7.47,0,0,0-7.47,7.46v2.7a7.43,7.43,0,0,0,7.43,7.42h7.47C70.55,151,70.64,149.25,70.67,147.48Z" transform="translate(-55.76 -70.77)"/>
    </g>
  </g>
</svg>
