<svg id="Layer_4" data-name="Layer 4" xmlns="http://www.w3.org/2000/svg" viewBox="0 0 305.83 319.99">
  <defs>
    <style>
      .cls-1 {
        fill: gray;
      }

      .cls-2 {
        fill: #b3b3b3;
      }

      .cls-3 {
        fill: none;
        stroke: #1a1a1a;
        stroke-linecap: round;
        stroke-width: 2px;
      }

      .cls-3, .cls-5 {
        stroke-miterlimit: 10;
      }

      .cls-4 {
        fill: #333;
      }

      .cls-5 {
        fill: #1a1a1a;
        stroke: gray;
        stroke-width: 6.64px;
      }

      .cls-6 {
        font-size: 44.16px;
        fill: #fe0;
        font-family: ReggaeOne-Regular, Reggae One;
      }
    </style>
  </defs>
  <g>
    <circle class="cls-1" cx="138.57" cy="152.79" r="123.8"/>
    <ellipse class="cls-2" cx="138.57" cy="133.05" rx="81.61" ry="58.2"/>
    <g>
      <path class="cls-1" d="M388.32,460.87c-17,0-65.06-21.76-65.06-21.76v-19.8a7.4,7.4,0,0,1,4.66-6.88c12.5-5,46.67-18,60.43-17.65,14,.37,47.77,15.31,60.47,21.13a8.47,8.47,0,0,1,4.92,7.69v14.89S405.47,460.82,388.32,460.87Z" transform="translate(-250.17 -240.29)"/>
      <g>
        <line class="cls-3" x1="138.11" y1="164.02" x2="138.11" y2="213.32"/>
        <line class="cls-3" x1="129.7" y1="166.63" x2="129.7" y2="211.06"/>
        <line class="cls-3" x1="121.29" y1="168.89" x2="121.29" y2="208.81"/>
        <line class="cls-3" x1="112.87" y1="171.14" x2="112.87" y2="206.55"/>
        <line class="cls-3" x1="104.46" y1="173.4" x2="104.46" y2="204.18"/>
        <line class="cls-3" x1="96.05" y1="175.66" x2="96.05" y2="201.8"/>
        <line class="cls-3" x1="147.77" y1="166.63" x2="147.77" y2="211.06"/>
        <line class="cls-3" x1="156.19" y1="168.89" x2="156.19" y2="208.81"/>
        <line class="cls-3" x1="164.6" y1="171.14" x2="164.6" y2="206.55"/>
        <line class="cls-3" x1="173.01" y1="173.4" x2="173.01" y2="204.18"/>
        <line class="cls-3" x1="181.43" y1="175.66" x2="181.43" y2="201.8"/>
      </g>
    </g>
    <path class="cls-4" d="M389.29,263.26A130.11,130.11,0,1,0,519.4,393.37,130.11,130.11,0,0,0,389.29,263.26Zm0,198.83A68.73,68.73,0,1,1,458,393.37,68.73,68.73,0,0,1,389.29,462.09Z" transform="translate(-250.17 -240.29)"/>
    <path class="cls-5" d="M443.38,380.59,388.79,385a11.43,11.43,0,0,1-1.85,0l-53.21-4.42a11.27,11.27,0,0,1-10.34-11.23v0a11.28,11.28,0,0,1,11.27-11.27H442.47a11.28,11.28,0,0,1,11.27,11.27h0A11.27,11.27,0,0,1,443.38,380.59Z" transform="translate(-250.17 -240.29)"/>
    <g>
      <text class="cls-6" transform="translate(57.27 139.29) rotate(-69.46)">S</text>
      <text class="cls-6" transform="matrix(0.71, -0.71, 0.71, 0.71, 69.86, 107.14)">C</text>
      <text class="cls-6" transform="translate(95.35 82.71) rotate(-21.12)">R</text>
      <text class="cls-6" transform="translate(128.66 70.67) rotate(4.53)">A</text>
      <text class="cls-6" transform="translate(164.51 74.34) rotate(29.02)">P</text>
      <text class="cls-6" transform="matrix(0.67, 0.74, -0.74, 0.67, 193.87, 92.73)"> </text>
      <text class="cls-6" transform="translate(24.28 192.92) rotate(62.39)">D</text>
      <text class="cls-6" transform="translate(53.09 238.32) rotate(37.88)">E</text>
      <text class="cls-6" transform="translate(92.59 264.61) rotate(15.77)">F</text>
      <text class="cls-6" transform="matrix(0.99, -0.11, 0.11, 0.99, 137.25, 273.95)">E</text>
      <text class="cls-6" transform="translate(185.2 265.09) rotate(-30.85)">N</text>
      <text class="cls-6" transform="matrix(0.54, -0.84, 0.84, 0.54, 229.81, 233.28)">D</text>
      <text class="cls-6" transform="translate(255.25 186) rotate(-81.33)">E</text>
      <text class="cls-6" transform="translate(259.08 137.8) rotate(-105.03)">R</text>
      <text class="cls-6" transform="matrix(-0.55, -0.83, 0.83, -0.55, 243.12, 92.95)"> </text>
    </g>
  </g>
</svg>
