<svg xmlns="http://www.w3.org/2000/svg" viewBox="0 0 740.18 741.93">
  <defs>
    <style>
      .cls-1, .cls-4 {
        fill: #4d4d4d;
      }

      .cls-1, .cls-2, .cls-3 {
        stroke: #000;
      }

      .cls-1, .cls-2, .cls-3, .cls-5, .cls-8, .cls-9 {
        stroke-miterlimit: 10;
      }

      .cls-1 {
        stroke-width: 2.08px;
      }

      .cls-2 {
        fill: #ccc;
      }

      .cls-2, .cls-3 {
        stroke-width: 1.6px;
      }

      .cls-3, .cls-6, .cls-9 {
        fill: #e6e6e6;
      }

      .cls-5 {
        fill: #999;
        stroke: #666;
      }

      .cls-5, .cls-8, .cls-9 {
        stroke-width: 0.72px;
      }

      .cls-7 {
        fill: #b3b3b3;
      }

      .cls-8 {
        fill: #333;
      }

      .cls-8, .cls-9 {
        stroke: #1a1a1a;
      }
    </style>
  </defs>
  <g id="Layer_3" data-name="Layer 3">
    <circle class="cls-1" cx="374.2" cy="368.41" r="322.4"/>
    <circle class="cls-2" cx="374.2" cy="368.41" r="248.55"/>
    <g>
      <circle class="cls-3" cx="373.73" cy="94.59" r="10.02"/>
      <circle class="cls-3" cx="469.43" cy="112.14" r="10.02"/>
      <circle class="cls-3" cx="554.92" cy="159.32" r="10.02"/>
      <circle class="cls-3" cx="615.17" cy="233.8" r="10.02"/>
      <circle class="cls-3" cx="647.98" cy="322.95" r="10.02"/>
      <circle class="cls-3" cx="647.93" cy="420.32" r="10.02"/>
      <circle class="cls-3" cx="616.6" cy="512.46" r="10.02"/>
      <circle class="cls-3" cx="555.57" cy="587.48" r="10.02"/>
      <circle class="cls-3" cx="469.02" cy="635.29" r="10.02"/>
      <circle class="cls-3" cx="373.08" cy="649.93" r="10.02"/>
      <circle class="cls-3" cx="281.41" cy="635.09" r="10.02"/>
      <circle class="cls-3" cx="196.82" cy="586.52" r="10.02"/>
      <circle class="cls-3" cx="130.89" cy="514.44" r="10.02"/>
      <circle class="cls-3" cx="99.88" cy="423.14" r="10.02"/>
      <circle class="cls-3" cx="98.23" cy="323.94" r="10.02"/>
      <circle class="cls-3" cx="133.24" cy="232.28" r="10.02"/>
      <circle class="cls-3" cx="194.81" cy="158.33" r="10.02"/>
      <circle class="cls-3" cx="278.62" cy="111.93" r="10.02"/>
    </g>
    <circle class="cls-4" cx="374.2" cy="368.41" r="108.85"/>
  </g>
  <g id="Layer_1" data-name="Layer 1">
    <g>
      <path class="cls-5" d="M653.59,731c-11.29-11.29-11.06-30.9-1-49.06a75.26,75.26,0,0,1,12.79-16.89,76,76,0,0,1,16.43-12.54c18.28-10.27,38.11-10.63,49.5.77,15,15,9.69,44.48-11.76,65.93S668.55,746,653.59,731Z"/>
      <polygon class="cls-6" points="0.4 0.71 140.06 51.91 544.73 489.64 534.64 525.86 532.76 532.77 0.4 0.71"/>
      <polygon class="cls-7" points="52.79 139.18 0.98 0 1.08 0.03 533.44 532.09 533.37 532.36 526.2 534.31 489.4 543.86 52.79 139.18"/>
      <g>
        <path class="cls-4" d="M517.41,570.67l42.14-11.45L571,517.11l110.81,135.4a76,76,0,0,0-16.43,12.54,75.26,75.26,0,0,0-12.79,16.89Z"/>
        <g>
          <line class="cls-8" x1="588.29" y1="537.94" x2="537.51" y2="587.23"/>
          <line class="cls-8" x1="601.01" y1="554.21" x2="554.17" y2="601.05"/>
          <line class="cls-8" x1="616.69" y1="573.53" x2="573.56" y2="616.52"/>
          <line class="cls-8" x1="629.01" y1="588.8" x2="588.55" y2="629.26"/>
          <line class="cls-8" x1="641.97" y1="603.71" x2="604.3" y2="641.38"/>
          <line class="cls-8" x1="651.21" y1="615.33" x2="615.64" y2="650.9"/>
          <line class="cls-8" x1="660.17" y1="627.09" x2="626.63" y2="660.63"/>
          <line class="cls-8" x1="669.97" y1="638.02" x2="638.12" y2="669.87"/>
        </g>
      </g>
      <path class="cls-5" d="M408.31,584.25a31.68,31.68,0,1,1,44.81-44.8,4.49,4.49,0,0,1,.36.39,31,31,0,0,1,7.42,12.48l21.52-5.85,43.44-11.82L533,532.7l2-7.17,11.82-43.44,6.33-23.32A30.76,30.76,0,0,1,541.29,452c-.39-.35-.78-.71-1.15-1.08a31.68,31.68,0,1,1,44.8-44.81c.37.38.73.77,1.09,1.16a31.54,31.54,0,0,1,7.9,25.47l-2.22,8.16L583,473.07l-12,44-11.45,42.11-42.14,11.45-44,12-29.45,8L434,593.34a31.5,31.5,0,0,1-25.32-8.73A4.38,4.38,0,0,1,408.31,584.25Z"/>
    </g>
    <g>
      <path class="cls-5" d="M8.87,655.33c11.29-11.29,30.9-11.05,49.06-1a77.41,77.41,0,0,1,29.42,29.22c10.28,18.29,10.64,38.11-.76,49.51-15,15-44.48,9.68-65.94-11.77S-6.09,670.29,8.87,655.33Z"/>
      <polygon class="cls-7" points="739.15 2.14 687.96 141.8 250.22 546.47 207.1 534.5 739.15 2.14"/>
      <polygon class="cls-6" points="600.68 54.53 739.87 2.72 739.83 2.82 207.78 535.18 207.51 535.11 196.01 491.14 600.68 54.53"/>
      <g>
        <path class="cls-4" d="M169.2,519.15l11.45,42.15,42.1,11.44L87.35,683.55a77.41,77.41,0,0,0-29.42-29.22Z"/>
        <g>
          <line class="cls-9" x1="201.92" y1="590.03" x2="152.64" y2="539.25"/>
          <line class="cls-9" x1="185.66" y1="602.75" x2="138.82" y2="555.91"/>
          <line class="cls-9" x1="166.33" y1="618.43" x2="123.35" y2="575.31"/>
          <line class="cls-9" x1="151.07" y1="630.76" x2="110.6" y2="590.29"/>
          <line class="cls-9" x1="136.16" y1="643.71" x2="98.49" y2="606.04"/>
          <line class="cls-9" x1="124.54" y1="652.95" x2="88.97" y2="617.38"/>
          <line class="cls-9" x1="112.77" y1="661.91" x2="79.24" y2="628.38"/>
          <line class="cls-9" x1="101.85" y1="671.72" x2="70" y2="639.86"/>
        </g>
      </g>
      <path class="cls-5" d="M155.61,410.06a31.68,31.68,0,1,1,44.81,44.8,4.38,4.38,0,0,1-.39.36,31,31,0,0,1-12.48,7.43l19.62,72.12,73.92,20.1A31,31,0,0,1,287.84,543c.36-.39.72-.78,1.09-1.15a31.68,31.68,0,1,1,44.8,44.8c-.37.38-.76.73-1.15,1.09a31.51,31.51,0,0,1-25.47,7.9L180.65,561.3,146.52,435.77a31.5,31.5,0,0,1,8.74-25.32A3.25,3.25,0,0,1,155.61,410.06Z"/>
    </g>
  </g>
</svg>
