<svg id="Layer_4" data-name="Layer 4" xmlns="http://www.w3.org/2000/svg" viewBox="0 0 305.83 319.99">
  <defs>
    <style>
      .cls-1 {
        fill: #4d4d4d;
      }

      .cls-2 {
        fill: #b3b3b3;
      }

      .cls-3 {
        fill: gray;
      }

      .cls-4 {
        fill: #1a1a1a;
      }

      .cls-5 {
        fill: #333;
      }

      .cls-6 {
        font-size: 44.16px;
        fill: #fe0;
        font-family: ReggaeOne-Regular, Reggae One;
      }
    </style>
  </defs>
  <g>
    <circle class="cls-1" cx="138.57" cy="152.79" r="123.8"/>
    <ellipse class="cls-2" cx="138.57" cy="133.05" rx="81.61" ry="58.2"/>
    <g id="_-3" data-name="-3">
      <circle class="cls-3" cx="139.02" cy="143.34" r="27.97"/>
      <circle class="cls-4" cx="139.93" cy="142.86" r="18.38"/>
    </g>
    <path class="cls-5" d="M389.29,263.26A130.11,130.11,0,1,0,519.4,393.37,130.11,130.11,0,0,0,389.29,263.26Zm0,198.83A68.73,68.73,0,1,1,458,393.37,68.73,68.73,0,0,1,389.29,462.09Z" transform="translate(-250.17 -240.29)"/>
    <g>
      <text class="cls-6" transform="translate(57.27 139.29) rotate(-69.46)">S</text>
      <text class="cls-6" transform="matrix(0.71, -0.71, 0.71, 0.71, 69.86, 107.14)">C</text>
      <text class="cls-6" transform="translate(95.35 82.71) rotate(-21.12)">R</text>
      <text class="cls-6" transform="translate(128.66 70.67) rotate(4.53)">A</text>
      <text class="cls-6" transform="translate(164.51 74.34) rotate(29.02)">P</text>
      <text class="cls-6" transform="matrix(0.67, 0.74, -0.74, 0.67, 193.87, 92.73)"> </text>
      <text class="cls-6" transform="translate(24.28 192.92) rotate(62.39)">D</text>
      <text class="cls-6" transform="translate(53.09 238.32) rotate(37.88)">E</text>
      <text class="cls-6" transform="translate(92.59 264.61) rotate(15.77)">F</text>
      <text class="cls-6" transform="matrix(0.99, -0.11, 0.11, 0.99, 137.25, 273.95)">E</text>
      <text class="cls-6" transform="translate(185.2 265.09) rotate(-30.85)">N</text>
      <text class="cls-6" transform="matrix(0.54, -0.84, 0.84, 0.54, 229.81, 233.28)">D</text>
      <text class="cls-6" transform="translate(255.25 186) rotate(-81.33)">E</text>
      <text class="cls-6" transform="translate(259.08 137.8) rotate(-105.03)">R</text>
      <text class="cls-6" transform="matrix(-0.55, -0.83, 0.83, -0.55, 243.12, 92.95)"> </text>
    </g>
  </g>
</svg>
