<svg id="Layer_4" data-name="Layer 4" xmlns="http://www.w3.org/2000/svg" viewBox="0 0 193.29 175.94">
  <defs>
    <style>
      .cls-1 {
        fill: #fe0;
      }

      .cls-2 {
        fill: #333;
      }

      .cls-3 {
        fill: #999;
      }

      .cls-4 {
        fill: #ccc;
      }

      .cls-5 {
        fill: #e6e6e6;
      }
    </style>
  </defs>
  <g>
    <rect class="cls-1" width="193.29" height="175.94" rx="9.44"/>
    <circle class="cls-2" cx="150" cy="150" r="79.23" transform="translate(-115.34 87.76) rotate(-45)"/>
    <circle class="cls-3" cx="150" cy="150" r="79.23" transform="translate(-115.34 87.76) rotate(-45)"/>
    <path class="cls-2" d="M150,201.3c-30.53,0-57.7-10.24-75.14-26.17a79.23,79.23,0,0,0,150.28,0C207.7,191.06,180.53,201.3,150,201.3Z" transform="translate(-53.21 -62.24)"/>
    <g id="_0">
      <g>
        <circle class="cls-4" cx="60.86" cy="72.73" r="27.99"/>
        <circle cx="61.07" cy="72.94" r="18.39"/>
      </g>
      <g>
        <circle class="cls-5" cx="132.72" cy="72.73" r="27.99"/>
        <circle cx="132.94" cy="72.94" r="18.39"/>
      </g>
    </g>
    <g id="_00">
      <path class="cls-2" d="M236.7,134.72h-8.8a79,79,0,0,1,1,12.76c0,1.69-.07,3.35-.18,5h8a7.51,7.51,0,0,0,7.51-7.51v-2.72A7.54,7.54,0,0,0,236.7,134.72Z" transform="translate(-53.21 -62.24)"/>
      <path class="cls-2" d="M70.67,147.48A84.22,84.22,0,0,1,72,135.15H63.23a7.47,7.47,0,0,0-7.47,7.46v2.7a7.43,7.43,0,0,0,7.43,7.42h7.47C70.55,151,70.64,149.25,70.67,147.48Z" transform="translate(-53.21 -62.24)"/>
    </g>
  </g>
</svg>
