<svg id="Layer_4" data-name="Layer 4" xmlns="http://www.w3.org/2000/svg" viewBox="0 0 305.83 319.99">
  <defs>
    <style>
      .cls-1 {
        fill: #4d4d4d;
      }

      .cls-2 {
        fill: #b3b3b3;
      }

      .cls-3 {
        fill: none;
        stroke: #333;
        stroke-linecap: round;
        stroke-width: 3px;
      }

      .cls-3, .cls-4 {
        stroke-miterlimit: 10;
      }

      .cls-4 {
        fill: #1a1a1a;
        stroke: gray;
        stroke-width: 6.39px;
      }

      .cls-5 {
        fill: #333;
      }

      .cls-6 {
        font-size: 44.16px;
        fill: #fe0;
        font-family: ReggaeOne-Regular, Reggae One;
      }
    </style>
  </defs>
  <g>
    <circle class="cls-1" cx="138.58" cy="152.79" r="123.8"/>
    <ellipse class="cls-2" cx="138.58" cy="133.05" rx="81.61" ry="58.2"/>
    <g id="_2">
      <g>
        <line class="cls-3" x1="138.66" y1="192.91" x2="138.66" y2="238.87"/>
        <line class="cls-3" x1="130.81" y1="192.64" x2="130.81" y2="234.07"/>
        <line class="cls-3" x1="122.97" y1="192" x2="122.97" y2="229.22"/>
        <line class="cls-3" x1="115.13" y1="190.47" x2="115.13" y2="223.48"/>
        <line class="cls-3" x1="107.28" y1="188.58" x2="107.28" y2="217.28"/>
        <line class="cls-3" x1="99.44" y1="186.05" x2="99.44" y2="210.43"/>
        <line class="cls-3" x1="147.66" y1="192.46" x2="147.66" y2="233.89"/>
        <line class="cls-3" x1="155.51" y1="191.79" x2="155.51" y2="229.02"/>
        <line class="cls-3" x1="163.35" y1="190.37" x2="163.35" y2="223.38"/>
        <line class="cls-3" x1="171.2" y1="188.04" x2="171.2" y2="216.75"/>
        <line class="cls-3" x1="179.04" y1="185.68" x2="179.04" y2="210.06"/>
      </g>
      <path class="cls-4" d="M442.9,390.26l-52.57,4.28a11.62,11.62,0,0,1-1.77,0l-51.24-4.25a10.85,10.85,0,0,1-9.95-10.82h0a10.84,10.84,0,0,1,10.85-10.85H442a10.85,10.85,0,0,1,10.85,10.85h0A10.85,10.85,0,0,1,442.9,390.26Z" transform="translate(-250.17 -240.29)"/>
    </g>
    <path class="cls-5" d="M389.29,263.26A130.11,130.11,0,1,0,519.4,393.37,130.11,130.11,0,0,0,389.29,263.26Zm0,198.83A68.73,68.73,0,1,1,458,393.37,68.73,68.73,0,0,1,389.29,462.09Z" transform="translate(-250.17 -240.29)"/>
    <g>
      <text class="cls-6" transform="translate(57.27 139.29) rotate(-69.46)">S</text>
      <text class="cls-6" transform="translate(69.86 107.14) rotate(-45.13)">C</text>
      <text class="cls-6" transform="translate(95.35 82.71) rotate(-21.12)">R</text>
      <text class="cls-6" transform="translate(128.66 70.67) rotate(4.53)">A</text>
      <text class="cls-6" transform="translate(164.51 74.34) rotate(29.02)">P</text>
      <text class="cls-6" transform="translate(193.87 92.73) rotate(47.77)"> </text>
      <text class="cls-6" transform="translate(24.28 192.91) rotate(62.39)">D</text>
      <text class="cls-6" transform="matrix(0.79, 0.61, -0.61, 0.79, 53.09, 238.32)">E</text>
      <text class="cls-6" transform="matrix(0.96, 0.27, -0.27, 0.96, 92.59, 264.61)">F</text>
      <text class="cls-6" transform="matrix(0.99, -0.11, 0.11, 0.99, 137.25, 273.95)">E</text>
      <text class="cls-6" transform="matrix(0.86, -0.51, 0.51, 0.86, 185.2, 265.09)">N</text>
      <text class="cls-6" transform="matrix(0.54, -0.84, 0.84, 0.54, 229.81, 233.28)">D</text>
      <text class="cls-6" transform="translate(255.25 186) rotate(-81.33)">E</text>
      <text class="cls-6" transform="translate(259.08 137.8) rotate(-105.03)">R</text>
      <text class="cls-6" transform="matrix(-0.55, -0.83, 0.83, -0.55, 243.12, 92.95)"> </text>
    </g>
  </g>
</svg>
