<svg id="Layer_4" data-name="Layer 4" xmlns="http://www.w3.org/2000/svg" viewBox="0 0 302.94 305.83">
  <defs>
    <style>
      .cls-1 {
        fill: #999;
      }

      .cls-2 {
        fill: #333;
      }

      .cls-3 {
        font-size: 50.91px;
        fill: #fe0;
        font-family: ReggaeOne-Regular, Reggae One;
      }

      .cls-4 {
        fill: #4d4d4d;
      }
    </style>
  </defs>
  <g>
    <circle class="cls-1" cx="152.12" cy="152.22" r="142.73"/>
    <path class="cls-2" d="M152.75,2.56a150,150,0,1,0,150,150A150,150,0,0,0,152.75,2.56Zm0,229.23A79.24,79.24,0,1,1,232,152.56,79.23,79.23,0,0,1,152.75,231.79Z"/>
    <g id="Marco">
      <text class="cls-3" transform="translate(56.06 144.69) rotate(-70.91)">M</text>
      <text class="cls-3" transform="matrix(0.73, -0.68, 0.68, 0.73, 74.58, 97)">A</text>
      <text class="cls-3" transform="matrix(0.95, -0.31, 0.31, 0.95, 105.49, 69.28)">R</text>
      <text class="cls-3" transform="matrix(0.99, 0.12, -0.12, 0.99, 144.53, 57.23)">C</text>
      <text class="cls-3" transform="matrix(0.84, 0.53, -0.53, 0.84, 185.02, 62.25)">O</text>
      <text class="cls-3" transform="translate(22.26 203.64) rotate(60.14)">D</text>
      <text class="cls-3" transform="matrix(0.77, 0.64, -0.64, 0.77, 56.14, 252.27)">I</text>
      <text class="cls-3" transform="translate(82.99 272.42) rotate(26.41)"> </text>
      <text class="cls-3" transform="matrix(0.99, 0.14, -0.14, 0.99, 115.06, 286.89)">S</text>
      <text class="cls-3" transform="translate(172.89 290.82) rotate(-16.91)">U</text>
      <text class="cls-3" transform="matrix(0.71, -0.71, 0.71, 0.71, 233.2, 267.38)">M</text>
      <text class="cls-3" transform="translate(279.91 211.43) rotate(-75.02)">M</text>
      <text class="cls-3" transform="matrix(-0.22, -0.98, 0.98, -0.22, 291.73, 141.33)">A</text>
      <text class="cls-3" transform="translate(275.25 87.99) rotate(-121.26)"> </text>
    </g>
    <path class="cls-4" d="M194.08,179.71H158.35a2.88,2.88,0,0,1-2.88-2.88V143.49c0-10-6.34-18.21-14.13-18.21s-14.13,8.17-14.13,18.21v33.34a2.88,2.88,0,0,1-5.76,0v-34.7c0-9.29-6.34-16.85-14.13-16.85s-14.13,7.56-14.13,16.85v34.7a2.88,2.88,0,0,1-5.76,0v-34.7c0-12.47,8.92-22.61,19.89-22.61,7.32,0,13.73,4.51,17.18,11.22,3.53-6.74,9.76-11.22,16.84-11.22,10.42,0,19,9.69,19.83,22a3.18,3.18,0,0,1,.06.62V174h32.85c9.29,0,16.85-6.34,16.85-14.13s-7.56-14.13-16.85-14.13H178.22c-8.12,0-14.72-5.87-14.72-13.09s6.6-13.08,14.72-13.08h15.86a2.88,2.88,0,0,1,0,5.76H178.22c-4.94,0-9,3.29-9,7.32s4,7.33,9,7.33h15.86c12.47,0,22.61,8.92,22.61,19.89S206.55,179.71,194.08,179.71Z"/>
  </g>
</svg>
