<svg id="Layer_4" data-name="Layer 4" xmlns="http://www.w3.org/2000/svg" viewBox="0 0 300 300">
  <defs>
    <style>
      .cls-1 {
        fill: #999;
      }

      .cls-2 {
        fill: #333;
      }

      .cls-3 {
        fill: #fe0;
      }

      .cls-4 {
        fill: #4d4d4d;
      }
    </style>
  </defs>
  <g>
    <circle class="cls-1" cx="149.37" cy="149.67" r="142.73"/>
    <path class="cls-2" d="M132.77-16.47a150,150,0,1,0,150,150A150,150,0,0,0,132.77-16.47Zm0,229.23A79.23,79.23,0,1,1,212,133.53,79.23,79.23,0,0,1,132.77,212.76Z" transform="translate(17.23 16.47)"/>
    <g id="Marco">
      <g>
        <path class="cls-3" d="M48.25,90.49,19.62,82.15l20.78,19.2-.12.34L12.06,104l27.31,14.35-.25.72L0,108.49l3.06-8.85,23.49-5L10.21,79l2.71-7.85L50.2,84.86Z" transform="translate(17.23 16.47)"/>
        <path class="cls-3" d="M78.5,56.43,65.35,51.15,53,67.48,55.5,77.9l-.55.52L37.66,39.54l5-6.39L82.44,51.84ZM47.2,43.86l3.85,15.7,13-8.89Z" transform="translate(17.23 16.47)"/>
        <path class="cls-3" d="M119.24,39.9,93.49,28.68l-.17-.7a15.56,15.56,0,0,0,4.47-3.74,17.81,17.81,0,0,0,2.77-4.65,12.77,12.77,0,0,0,1-4.52,7.61,7.61,0,0,0-.34-2.52,4.2,4.2,0,0,0-2.32-2.66,6,6,0,0,0-4.41.1,30.25,30.25,0,0,0-6.72,3.22l10,33-6.19,2L77.4,11.13l8.8-2.89L87,10.92a23.92,23.92,0,0,1,4-3.47A16.76,16.76,0,0,1,95.3,5.26a14.12,14.12,0,0,1,6.92-.79,8.78,8.78,0,0,1,7,6,8.71,8.71,0,0,1,.46,2.85,9.9,9.9,0,0,1-1.12,4.52,16.28,16.28,0,0,1-2.91,4,21.22,21.22,0,0,1-3.7,3l17.9,14.87Z" transform="translate(17.23 16.47)"/>
        <path class="cls-3" d="M158.62,43.19A77.73,77.73,0,0,1,144,40.27a31.73,31.73,0,0,1-9.41-4.58,14.79,14.79,0,0,1-4.86-6,13.9,13.9,0,0,1-1-7.1,33.35,33.35,0,0,1,2.81-10.49,23.56,23.56,0,0,1,5.1-7.22,17.88,17.88,0,0,1,6.4-4,15.1,15.1,0,0,1,6.76-.8,38.75,38.75,0,0,1,7.75,1.72,27.65,27.65,0,0,1,6.89,3.31L160.74,13q-5.67-7.26-13-8.11a4.71,4.71,0,0,0-3.4,1,12.55,12.55,0,0,0-3.07,3.47,25.14,25.14,0,0,0-2.34,5,25.8,25.8,0,0,0-1.28,5.47,20.89,20.89,0,0,0,.29,7,13.9,13.9,0,0,0,3.07,6A23.31,23.31,0,0,0,147.74,38a63.8,63.8,0,0,0,11.06,4.54Z" transform="translate(17.23 16.47)"/>
        <path class="cls-3" d="M182.05,55.19a14.75,14.75,0,0,1-4.37-4.48,20.89,20.89,0,0,1-2.8-6.75,21,21,0,0,1,2.9-16.29,20.91,20.91,0,0,1,10.41-8.54,22.35,22.35,0,0,1,6-1.36,19.19,19.19,0,0,1,5.62.3,13.82,13.82,0,0,1,4.62,1.81A13.12,13.12,0,0,1,208,23.27a19.37,19.37,0,0,1,2.65,5,23,23,0,0,1,1.31,6,20.8,20.8,0,0,1-3.28,13,21.13,21.13,0,0,1-6.12,6.43,22,22,0,0,1-7.33,3.2,20.37,20.37,0,0,1-7.24.39A14.43,14.43,0,0,1,182.05,55.19Zm4.06-2.61a6.29,6.29,0,0,0,4.42.93,10.45,10.45,0,0,0,4.78-2.18,18.72,18.72,0,0,0,4.38-5,30.82,30.82,0,0,0,3.82-8.22,21,21,0,0,0,.84-7A14.3,14.3,0,0,0,203,25.74a7.73,7.73,0,0,0-2.69-3.21,6.47,6.47,0,0,0-4.4-1,10.49,10.49,0,0,0-4.82,2,17.38,17.38,0,0,0-4.38,4.88,31.93,31.93,0,0,0-4,8.56,19.92,19.92,0,0,0-.81,7.08,13.62,13.62,0,0,0,1.44,5.28A8.27,8.27,0,0,0,186.11,52.58Z" transform="translate(17.23 16.47)"/>
      </g>
      <g>
        <path class="cls-3" d="M38.94,168.72l4.62,8L39.45,179a15.37,15.37,0,0,1,5.45,2.5,13.67,13.67,0,0,1,3.81,4.22,11.6,11.6,0,0,1,1.58,5.58,14.09,14.09,0,0,1-1.13,5.79,18.86,18.86,0,0,1-3.48,5.34,22.57,22.57,0,0,1-5.41,4.28,24.12,24.12,0,0,1-6.87,2.65,19,19,0,0,1-14.79-2.84Q11.49,202,4.87,190.46Zm-28.33,26q5.82,5.24,10.57,6.85c3.16,1.08,5.8,1.37,7.9.87a21.93,21.93,0,0,0,5.66-2.31,24.2,24.2,0,0,0,5.22-4,15.31,15.31,0,0,0,3.25-4.66,5.35,5.35,0,0,0,.23-4.21,15,15,0,0,0-.91-1.89,14.79,14.79,0,0,0-5.14-5.27Z" transform="translate(17.23 16.47)"/>
        <path class="cls-3" d="M40.84,237.17l24.44-31.33L72.61,212,46,241.49Z" transform="translate(17.23 16.47)"/>
        <path class="cls-3" d="M129.42,262.13a10.88,10.88,0,0,1-9.21,9.27,22.94,22.94,0,0,1-7,.06,14.11,14.11,0,0,1-5.47-2.17,21.29,21.29,0,0,1-5.35-4.92,25.94,25.94,0,0,1-4.07-7.57l.4-.3a33,33,0,0,0,3.91,3.43,37.87,37.87,0,0,0,4.26,2.79,31.44,31.44,0,0,0,4,1.93,14.11,14.11,0,0,0,3.09.9,7,7,0,0,0,4.16-.54,4.73,4.73,0,0,0,2.41-3.41l0-.15a3.38,3.38,0,0,0-1.14-2.55,28.41,28.41,0,0,0-3.43-3.19c-1.43-1.16-2.93-2.39-4.52-3.67s-3.06-2.6-4.45-3.95a20.36,20.36,0,0,1-3.31-4,5.93,5.93,0,0,1-1-4c0-.17,0-.31.06-.43a1.36,1.36,0,0,1,.1-.37,12.67,12.67,0,0,1,3.53-5.52,15,15,0,0,1,5.6-3.22,14.19,14.19,0,0,1,6.32-.54,27.36,27.36,0,0,1,6.8,2,47.4,47.4,0,0,1,7.19,3.87l-4,7.82a46.77,46.77,0,0,0-5.95-6.6,10.1,10.1,0,0,0-5.09-2.57,5.92,5.92,0,0,0-4.35.75q-1.62,1.13-2.27,4.23l0,.15a3.38,3.38,0,0,0,.83,2.48,17.39,17.39,0,0,0,2.75,2.78q1.74,1.46,3.86,3c1.41,1,2.82,2.12,4.23,3.22a40,40,0,0,1,3.81,3.42,15.3,15.3,0,0,1,2.63,3.56,6,6,0,0,1,.66,3.67Z" transform="translate(17.23 16.47)"/>
        <path class="cls-3" d="M173.94,223.36l.64-.19L183.93,248a3.39,3.39,0,0,0,.15.41,4.05,4.05,0,0,1,.17.46,12.34,12.34,0,0,1,0,7.46,14.52,14.52,0,0,1-4.1,6.38,18.09,18.09,0,0,1-7.25,4.07,15.3,15.3,0,0,1-8.36.42,13.74,13.74,0,0,1-6.44-3.69,17,17,0,0,1-4-6.46l-8.52-24.54,9-2.74,6,24.89a4.71,4.71,0,0,1,.14.57c0,.19.09.36.14.52a11.41,11.41,0,0,0,4.37,6.52,7.45,7.45,0,0,0,6.56.91,5.57,5.57,0,0,0,3.14-2.53,12.54,12.54,0,0,0,1.61-4.85,25.93,25.93,0,0,0,0-6.43Z" transform="translate(17.23 16.47)"/>
        <path class="cls-3" d="M239.53,222l-22.11-20,10.3,26.35-.25.25-26.39-10.25,18.3,24.83-.54.54-30.58-26.59,6.63-6.63,23.29,5.79-7.85-21.23,5.86-5.87,27.55,28.61Z" transform="translate(17.23 16.47)"/>
        <path class="cls-3" d="M269.54,156.46l-29.15-6.27,22.1,17.66-.09.34-28,4.33,28.26,12.35-.2.74-39.77-7.74,2.42-9.05,23.07-6.64-17.43-14.46,2.15-8,38.16,11Z" transform="translate(17.23 16.47)"/>
        <path class="cls-3" d="M265.36,90.76l-11.24,8.63,7.78,18.93,10.24,3.16.17.75L230,117.33l-2.93-7.59L263.41,85Zm-26.75,20.56L254.08,116l-1-15.73Z" transform="translate(17.23 16.47)"/>
      </g>
    </g>
    <path class="cls-4" d="M174.09,160.69H138.37a2.88,2.88,0,0,1-2.88-2.88V124.47c0-10-6.34-18.22-14.13-18.22s-14.13,8.17-14.13,18.22v33.34a2.88,2.88,0,1,1-5.76,0V123.1c0-9.29-6.34-16.85-14.13-16.85s-14.13,7.56-14.13,16.85v34.71a2.88,2.88,0,0,1-5.76,0V123.1c0-12.47,8.92-22.61,19.89-22.61,7.32,0,13.73,4.52,17.18,11.22,3.52-6.73,9.76-11.22,16.84-11.22,10.42,0,19,9.7,19.83,22a3.18,3.18,0,0,1,.06.62v31.82h32.84c9.3,0,16.86-6.33,16.86-14.12s-7.56-14.13-16.86-14.13H158.24c-8.12,0-14.72-5.87-14.72-13.09s6.6-13.09,14.72-13.09h15.85a2.88,2.88,0,1,1,0,5.76H158.24c-4.94,0-9,3.29-9,7.33s4,7.32,9,7.32h15.85c12.47,0,22.62,8.93,22.62,19.9S186.56,160.69,174.09,160.69Z" transform="translate(17.23 16.47)"/>
  </g>
</svg>
