<svg xmlns="http://www.w3.org/2000/svg" viewBox="0 0 357.29 366.7">
  <defs>
    <style>
      .cls-1, .cls-13 {
        fill: #b3b3b3;
      }

      .cls-2 {
        fill: #333;
      }

      .cls-3 {
        font-size: 50.91px;
        fill: #fe0;
        font-family: ReggaeOne-Regular, Reggae One;
      }

      .cls-18, .cls-4 {
        stroke: #4d4d4d;
      }

      .cls-14, .cls-16, .cls-17, .cls-18, .cls-19, .cls-20, .cls-4, .cls-7, .cls-8, .cls-9 {
        stroke-miterlimit: 10;
      }

      .cls-16, .cls-18, .cls-19, .cls-4 {
        stroke-width: 0.18px;
      }

      .cls-4 {
        opacity: 0.6;
      }

      .cls-5 {
        fill: #4d4d4d;
      }

      .cls-10, .cls-6 {
        fill: #ccc;
      }

      .cls-7 {
        fill: none;
      }

      .cls-10, .cls-11, .cls-12, .cls-13, .cls-14, .cls-19, .cls-7, .cls-8, .cls-9 {
        stroke: #333;
      }

      .cls-7, .cls-8, .cls-9 {
        stroke-width: 0.17px;
      }

      .cls-12, .cls-16, .cls-17, .cls-8 {
        fill: #666;
      }

      .cls-9 {
        fill: gray;
      }

      .cls-10, .cls-11, .cls-12, .cls-13 {
        stroke-linecap: round;
        stroke-linejoin: round;
        stroke-width: 0.17px;
      }

      .cls-11, .cls-14, .cls-18, .cls-19 {
        fill: #999;
      }

      .cls-14 {
        stroke-width: 0.11px;
      }

      .cls-15, .cls-20 {
        fill: #e6e6e6;
      }

      .cls-16, .cls-17, .cls-20 {
        stroke: #1a1a1a;
      }

      .cls-17, .cls-20 {
        stroke-width: 0.13px;
      }
    </style>
  </defs>
  <g id="Layer_4" data-name="Layer 4">
    <g>
      <circle class="cls-1" cx="164.75" cy="173.96" r="142.73"/>
      <ellipse class="cls-1" cx="164.75" cy="157.67" rx="95.26" ry="67.93"/>
      <path class="cls-2" d="M150,0A150,150,0,1,0,300,150,150,150,0,0,0,150,0Zm0,229.23A79.23,79.23,0,1,1,229.23,150,79.23,79.23,0,0,1,150,229.23Z" transform="translate(14.75 24.29)"/>
      <g id="Marco">
        <text class="cls-3" transform="translate(68.38 166.43) rotate(-70.91)">M</text>
        <text class="cls-3" transform="matrix(0.73, -0.68, 0.68, 0.73, 86.9, 118.74)">A</text>
        <text class="cls-3" transform="matrix(0.95, -0.31, 0.31, 0.95, 117.81, 91.02)">R</text>
        <text class="cls-3" transform="matrix(0.99, 0.12, -0.12, 0.99, 156.85, 78.97)">C</text>
        <text class="cls-3" transform="matrix(0.84, 0.53, -0.53, 0.84, 197.34, 83.99)">O</text>
        <text class="cls-3" transform="translate(34.58 225.38) rotate(60.14)">D</text>
        <text class="cls-3" transform="matrix(0.77, 0.64, -0.64, 0.77, 68.46, 274.01)">I</text>
        <text class="cls-3" transform="translate(95.31 294.16) rotate(26.41)"> </text>
        <text class="cls-3" transform="matrix(0.99, 0.14, -0.14, 0.99, 127.38, 308.63)">S</text>
        <text class="cls-3" transform="translate(185.21 312.56) rotate(-16.91)">U</text>
        <text class="cls-3" transform="matrix(0.71, -0.71, 0.71, 0.71, 245.52, 289.12)">M</text>
        <text class="cls-3" transform="translate(292.23 233.17) rotate(-75.02)">M</text>
        <text class="cls-3" transform="matrix(-0.22, -0.98, 0.98, -0.22, 304.05, 163.06)">A</text>
        <text class="cls-3" transform="translate(287.57 109.73) rotate(-121.26)"> </text>
      </g>
    </g>
  </g>
  <g id="shied">
    <g>
      <path class="cls-4" d="M213.09,200.92c-1.64-1.65-4.47-1.66-7.13-.27L194,186.06a56.31,56.31,0,0,0,2.53-67.69l8.49-7.86L214,86.2l.26-.25v0L214,86l.06-.17-.23.23-24.24,9-8,8.62a56.36,56.36,0,0,0-62.79.13l-8.52-9.22L86,85.71l-.26-.26h0l.07.19-.17-.07.24.24,9,24.24L104,118.5a56.33,56.33,0,0,0,2.35,67.21l-12.67,15.4c-2.51-1.14-5.1-1-6.64.51-1.7,1.69-1.66,4.63-.15,7.36a11.45,11.45,0,0,0,1.91,2.53,11.31,11.31,0,0,0,2.47,1.88c2.74,1.54,5.71,1.6,7.42-.11s1.66-4.45.3-7.09l15.21-12.45a56.32,56.32,0,0,0,72,.18L200.9,206c-1.11,2.5-1,5.06.54,6.6,2.24,2.24,6.67,1.45,9.89-1.77S215.34,203.16,213.09,200.92Z" transform="translate(14.75 24.29)"/>
      <circle class="cls-5" cx="163.42" cy="173.17" r="56.32"/>
      <circle class="cls-6" cx="163.46" cy="173.14" r="43.45"/>
    </g>
    <g>
      <path class="cls-7" d="M193.42,149.2v.1l-44.22-.1,0-44.21h0A44.21,44.21,0,0,1,193.42,149.2Z" transform="translate(14.75 24.29)"/>
      <path class="cls-8" d="M193.42,149.3a44.23,44.23,0,0,1-44.17,44.12l-.05-44.22Z" transform="translate(14.75 24.29)"/>
      <path class="cls-7" d="M149.25,193.42h-.05A44.21,44.21,0,0,1,105,149.2v-.09l44.21.09Z" transform="translate(14.75 24.29)"/>
      <path class="cls-9" d="M149.2,149.2,105,149.11A44.21,44.21,0,0,1,149.15,105Z" transform="translate(14.75 24.29)"/>
    </g>
    <g>
      <g>
        <polygon class="cls-10" points="164.88 121.74 167.1 124.16 164.7 124.11 164.84 121.77 164.88 121.74"/>
        <polygon class="cls-11" points="167.1 124.16 167.14 124.19 164.56 126.56 164.54 126.55 164.7 124.11 167.1 124.16"/>
        <polygon class="cls-12" points="164.7 124.11 164.54 126.55 162.3 124.1 162.34 124.07 164.7 124.11"/>
        <polygon class="cls-13" points="164.84 121.77 164.7 124.11 162.34 124.07 164.84 121.77"/>
      </g>
      <g>
        <polygon class="cls-10" points="178.48 123.56 180 126.47 177.69 125.81 178.43 123.58 178.48 123.56"/>
        <polygon class="cls-11" points="180 126.47 180.02 126.52 176.92 128.14 176.91 128.12 177.69 125.81 180 126.47"/>
        <polygon class="cls-12" points="177.69 125.81 176.91 128.12 175.38 125.18 175.42 125.16 177.69 125.81"/>
        <polygon class="cls-13" points="178.43 123.58 177.69 125.81 175.42 125.16 178.43 123.58"/>
      </g>
      <g>
        <polygon class="cls-10" points="191.14 128.84 191.85 132.05 189.8 130.81 191.09 128.85 191.14 128.84"/>
        <polygon class="cls-11" points="191.85 132.05 191.87 132.1 188.45 132.86 188.45 132.84 189.8 130.81 191.85 132.05"/>
        <polygon class="cls-12" points="189.8 130.81 188.45 132.84 187.72 129.6 187.78 129.59 189.8 130.81"/>
        <polygon class="cls-13" points="191.09 128.85 189.8 130.81 187.78 129.59 191.09 128.85"/>
      </g>
      <g>
        <polygon class="cls-10" points="202 137.22 201.87 140.5 200.2 138.77 201.96 137.22 202 137.22"/>
        <polygon class="cls-11" points="201.87 140.5 201.86 140.56 198.37 140.41 198.37 140.39 200.2 138.77 201.87 140.5"/>
        <polygon class="cls-12" points="200.2 138.77 198.37 140.39 198.51 137.07 198.56 137.07 200.2 138.77"/>
        <polygon class="cls-13" points="201.96 137.22 200.2 138.77 198.56 137.07 201.96 137.22"/>
      </g>
      <g>
        <polygon class="cls-10" points="210.33 148.13 209.35 151.26 208.18 149.16 210.28 148.11 210.33 148.13"/>
        <polygon class="cls-11" points="209.35 151.26 209.33 151.31 205.99 150.26 206 150.24 208.18 149.16 209.35 151.26"/>
        <polygon class="cls-12" points="208.18 149.16 206 150.24 206.99 147.08 207.04 147.09 208.18 149.16"/>
        <polygon class="cls-13" points="210.28 148.11 208.18 149.16 207.04 147.09 210.28 148.11"/>
      </g>
      <g>
        <polygon class="cls-10" points="215.55 160.82 213.79 163.59 213.21 161.26 215.51 160.79 215.55 160.82"/>
        <polygon class="cls-11" points="213.79 163.59 213.76 163.63 210.81 161.76 210.82 161.74 213.21 161.26 213.79 163.59"/>
        <polygon class="cls-12" points="213.21 161.26 210.82 161.74 212.6 158.94 212.64 158.97 213.21 161.26"/>
        <polygon class="cls-13" points="215.51 160.79 213.21 161.26 212.64 158.97 215.51 160.79"/>
      </g>
      <g>
        <polygon class="cls-10" points="217.31 174.42 214.89 176.65 214.93 174.24 217.27 174.39 217.31 174.42"/>
        <polygon class="cls-11" points="214.89 176.65 214.85 176.68 212.48 174.1 212.5 174.09 214.93 174.24 214.89 176.65"/>
        <polygon class="cls-12" points="214.93 174.24 212.5 174.09 214.94 171.85 214.98 171.89 214.93 174.24"/>
        <polygon class="cls-13" points="217.27 174.39 214.93 174.24 214.98 171.89 217.27 174.39"/>
      </g>
      <g>
        <polygon class="cls-10" points="215.48 188.02 212.57 189.54 213.24 187.23 215.46 187.98 215.48 188.02"/>
        <polygon class="cls-11" points="212.57 189.54 212.52 189.57 210.91 186.47 210.92 186.46 213.24 187.23 212.57 189.54"/>
        <polygon class="cls-12" points="213.24 187.23 210.92 186.46 213.86 184.92 213.89 184.97 213.24 187.23"/>
        <polygon class="cls-13" points="215.46 187.98 213.24 187.23 213.89 184.97 215.46 187.98"/>
      </g>
      <g>
        <polygon class="cls-10" points="210.2 200.69 207 201.4 208.24 199.34 210.19 200.64 210.2 200.69"/>
        <polygon class="cls-11" points="207 201.4 206.94 201.41 206.18 198 206.2 197.99 208.24 199.34 207 201.4"/>
        <polygon class="cls-12" points="208.24 199.34 206.2 197.99 209.44 197.27 209.45 197.32 208.24 199.34"/>
        <polygon class="cls-13" points="210.19 200.64 208.24 199.34 209.45 197.32 210.19 200.64"/>
      </g>
      <g>
        <polygon class="cls-10" points="201.82 211.55 198.54 211.41 200.27 209.74 201.82 211.5 201.82 211.55"/>
        <polygon class="cls-11" points="198.54 211.41 198.49 211.41 198.63 207.91 198.66 207.91 200.27 209.74 198.54 211.41"/>
        <polygon class="cls-12" points="200.27 209.74 198.66 207.91 201.97 208.05 201.97 208.11 200.27 209.74"/>
        <polygon class="cls-13" points="201.82 211.5 200.27 209.74 201.97 208.11 201.82 211.5"/>
      </g>
      <g>
        <polygon class="cls-10" points="190.92 219.88 187.78 218.89 189.88 217.73 190.93 219.83 190.92 219.88"/>
        <polygon class="cls-11" points="187.78 218.89 187.73 218.88 188.78 215.54 188.8 215.54 189.88 217.73 187.78 218.89"/>
        <polygon class="cls-12" points="189.88 217.73 188.8 215.54 191.97 216.54 191.95 216.59 189.88 217.73"/>
        <polygon class="cls-13" points="190.93 219.83 189.88 217.73 191.95 216.59 190.93 219.83"/>
      </g>
      <g>
        <polygon class="cls-10" points="178.23 225.09 175.46 223.33 177.79 222.75 178.25 225.05 178.23 225.09"/>
        <polygon class="cls-11" points="175.46 223.33 175.41 223.3 177.29 220.35 177.3 220.36 177.79 222.75 175.46 223.33"/>
        <polygon class="cls-12" points="177.79 222.75 177.3 220.36 180.1 222.14 180.07 222.19 177.79 222.75"/>
        <polygon class="cls-13" points="178.25 225.05 177.79 222.75 180.07 222.19 178.25 225.05"/>
      </g>
      <g>
        <polygon class="cls-10" points="164.62 226.85 162.4 224.43 164.8 224.48 164.66 226.82 164.62 226.85"/>
        <polygon class="cls-11" points="162.4 224.43 162.36 224.39 164.94 222.03 164.95 222.04 164.8 224.48 162.4 224.43"/>
        <polygon class="cls-12" points="164.8 224.48 164.95 222.04 167.2 224.49 167.16 224.52 164.8 224.48"/>
        <polygon class="cls-13" points="164.66 226.82 164.8 224.48 167.16 224.52 164.66 226.82"/>
      </g>
      <g>
        <polygon class="cls-10" points="151.02 225.03 149.5 222.12 151.81 222.78 151.06 225.01 151.02 225.03"/>
        <polygon class="cls-11" points="149.5 222.12 149.48 222.07 152.58 220.45 152.59 220.47 151.81 222.78 149.5 222.12"/>
        <polygon class="cls-12" points="151.81 222.78 152.59 220.47 154.12 223.41 154.08 223.43 151.81 222.78"/>
        <polygon class="cls-13" points="151.06 225.01 151.81 222.78 154.08 223.43 151.06 225.01"/>
      </g>
      <g>
        <polygon class="cls-10" points="138.36 219.75 137.64 216.54 139.7 217.78 138.41 219.74 138.36 219.75"/>
        <polygon class="cls-11" points="137.64 216.54 137.63 216.49 141.05 215.73 141.05 215.75 139.7 217.78 137.64 216.54"/>
        <polygon class="cls-12" points="139.7 217.78 141.05 215.75 141.77 218.99 141.72 219 139.7 217.78"/>
        <polygon class="cls-13" points="138.41 219.74 139.7 217.78 141.72 219 138.41 219.74"/>
      </g>
      <g>
        <polygon class="cls-10" points="127.49 211.37 127.63 208.09 129.3 209.82 127.54 211.37 127.49 211.37"/>
        <polygon class="cls-11" points="127.63 208.09 127.64 208.03 131.13 208.18 131.13 208.2 129.3 209.82 127.63 208.09"/>
        <polygon class="cls-12" points="129.3 209.82 131.13 208.2 130.99 211.52 130.94 211.51 129.3 209.82"/>
        <polygon class="cls-13" points="127.54 211.37 129.3 209.82 130.94 211.51 127.54 211.37"/>
      </g>
      <g>
        <polygon class="cls-10" points="119.17 200.46 120.15 197.33 121.31 199.43 119.21 200.48 119.17 200.46"/>
        <polygon class="cls-11" points="120.15 197.33 120.17 197.28 123.51 198.32 123.5 198.34 121.31 199.43 120.15 197.33"/>
        <polygon class="cls-12" points="121.31 199.43 123.5 198.34 122.5 201.51 122.45 201.49 121.31 199.43"/>
        <polygon class="cls-13" points="119.21 200.48 121.31 199.43 122.45 201.49 119.21 200.48"/>
      </g>
      <g>
        <polygon class="cls-10" points="113.95 187.77 115.71 185 116.29 187.33 113.99 187.8 113.95 187.77"/>
        <polygon class="cls-11" points="115.71 185 115.74 184.96 118.69 186.83 118.68 186.85 116.29 187.33 115.71 185"/>
        <polygon class="cls-12" points="116.29 187.33 118.68 186.85 116.9 189.65 116.86 189.62 116.29 187.33"/>
        <polygon class="cls-13" points="113.99 187.8 116.29 187.33 116.86 189.62 113.99 187.8"/>
      </g>
      <g>
        <polygon class="cls-10" points="112.19 174.17 114.61 171.94 114.56 174.35 112.22 174.2 112.19 174.17"/>
        <polygon class="cls-11" points="114.61 171.94 114.65 171.91 117.02 174.48 117 174.5 114.56 174.35 114.61 171.94"/>
        <polygon class="cls-12" points="114.56 174.35 117 174.5 114.56 176.74 114.52 176.7 114.56 174.35"/>
        <polygon class="cls-13" points="112.22 174.2 114.56 174.35 114.52 176.7 112.22 174.2"/>
      </g>
      <g>
        <polygon class="cls-10" points="114.02 160.57 116.93 159.05 116.26 161.36 114.04 160.61 114.02 160.57"/>
        <polygon class="cls-11" points="116.93 159.05 116.97 159.02 118.59 162.12 118.58 162.13 116.26 161.36 116.93 159.05"/>
        <polygon class="cls-12" points="116.26 161.36 118.58 162.13 115.63 163.67 115.61 163.62 116.26 161.36"/>
        <polygon class="cls-13" points="114.04 160.61 116.26 161.36 115.61 163.62 114.04 160.61"/>
      </g>
      <g>
        <polygon class="cls-10" points="119.3 147.9 122.5 147.19 121.26 149.25 119.31 147.95 119.3 147.9"/>
        <polygon class="cls-11" points="122.5 147.19 122.56 147.18 123.32 150.59 123.3 150.6 121.26 149.25 122.5 147.19"/>
        <polygon class="cls-12" points="121.26 149.25 123.3 150.6 120.06 151.32 120.05 151.27 121.26 149.25"/>
        <polygon class="cls-13" points="119.31 147.95 121.26 149.25 120.05 151.27 119.31 147.95"/>
      </g>
      <g>
        <polygon class="cls-10" points="127.68 137.04 130.96 137.18 129.23 138.85 127.67 137.09 127.68 137.04"/>
        <polygon class="cls-11" points="130.96 137.18 131.01 137.18 130.86 140.68 130.84 140.68 129.23 138.85 130.96 137.18"/>
        <polygon class="cls-12" points="129.23 138.85 130.84 140.68 127.53 140.53 127.53 140.48 129.23 138.85"/>
        <polygon class="cls-13" points="127.67 137.09 129.23 138.85 127.53 140.48 127.67 137.09"/>
      </g>
      <g>
        <polygon class="cls-10" points="138.58 128.71 141.72 129.7 139.61 130.86 138.57 128.76 138.58 128.71"/>
        <polygon class="cls-11" points="141.72 129.7 141.77 129.71 140.72 133.05 140.7 133.04 139.61 130.86 141.72 129.7"/>
        <polygon class="cls-12" points="139.61 130.86 140.7 133.04 137.53 132.05 137.55 132 139.61 130.86"/>
        <polygon class="cls-13" points="138.57 128.76 139.61 130.86 137.55 132 138.57 128.76"/>
      </g>
      <g>
        <polygon class="cls-10" points="151.27 123.49 154.04 125.26 151.71 125.83 151.24 123.53 151.27 123.49"/>
        <polygon class="cls-11" points="154.04 125.26 154.09 125.28 152.21 128.24 152.19 128.23 151.71 125.83 154.04 125.26"/>
        <polygon class="cls-12" points="151.71 125.83 152.19 128.23 149.39 126.45 149.42 126.4 151.71 125.83"/>
        <polygon class="cls-13" points="151.24 123.53 151.71 125.83 149.42 126.4 151.24 123.53"/>
      </g>
    </g>
    <g id="Layer_1" data-name="Layer 1">
      <g>
        <path class="cls-14" d="M201.44,212.93c-1.7-1.7-1.66-4.64-.15-7.36a11.32,11.32,0,0,1,4.38-4.41c2.74-1.55,5.71-1.6,7.42.11,2.25,2.24,1.46,6.67-1.76,9.89S203.68,215.17,201.44,212.93Z" transform="translate(14.75 24.29)"/>
        <polygon class="cls-15" points="100.38 110.22 125.07 119.27 196.6 196.65 194.82 203.05 194.49 204.27 100.38 110.22"/>
        <polygon class="cls-6" points="109.64 134.69 100.48 110.09 100.5 110.1 194.6 204.15 194.59 204.2 193.32 204.54 186.82 206.23 109.64 134.69"/>
        <g>
          <path class="cls-16" d="M177,186.68l7.45-2,2-7.44,19.59,23.93a13.67,13.67,0,0,0-5.17,5.21Z" transform="translate(14.75 24.29)"/>
          <g>
            <line class="cls-17" x1="204.3" y1="205.19" x2="195.32" y2="213.9"/>
            <line class="cls-17" x1="206.55" y1="208.06" x2="198.27" y2="216.34"/>
            <line class="cls-17" x1="209.32" y1="211.48" x2="201.7" y2="219.08"/>
            <line class="cls-17" x1="211.5" y1="214.18" x2="204.35" y2="221.33"/>
            <line class="cls-17" x1="213.79" y1="216.81" x2="207.13" y2="223.47"/>
            <line class="cls-17" x1="215.42" y1="218.87" x2="209.14" y2="225.15"/>
            <line class="cls-17" x1="217.01" y1="220.95" x2="211.08" y2="226.87"/>
            <line class="cls-17" x1="218.74" y1="222.88" x2="213.11" y2="228.51"/>
          </g>
        </g>
        <path class="cls-18" d="M157.74,189.08a5.51,5.51,0,0,1-1.5-2.71,5.6,5.6,0,0,1,9.42-5.21l.06.07a5.43,5.43,0,0,1,1.31,2.2l3.81-1,7.68-2.09,1.26-.35.35-1.26,2.09-7.68,1.12-4.12a5.41,5.41,0,0,1-2.1-1.2l-.2-.19a5.6,5.6,0,0,1,5.23-9.42,5.65,5.65,0,0,1,2.69,1.5l.19.2a5.58,5.58,0,0,1,1.4,4.51l-.39,1.44-1.55,5.68-2.11,7.79-2,7.44-7.45,2-7.78,2.11-5.2,1.42-1.76.47a5.54,5.54,0,0,1-4.47-1.54Z" transform="translate(14.75 24.29)"/>
      </g>
      <g>
        <path class="cls-19" d="M87.05,201.43c-1.7,1.69-1.66,4.63-.15,7.36a11.45,11.45,0,0,0,1.91,2.53,11.31,11.31,0,0,0,2.47,1.88c2.74,1.54,5.71,1.6,7.42-.11,2.25-2.25,1.46-6.67-1.76-9.89S89.29,199.19,87.05,201.43Z" transform="translate(14.75 24.29)"/>
        <polygon class="cls-6" points="228.85 109.93 219.8 134.62 142.42 206.15 134.8 204.04 228.85 109.93"/>
        <polygon class="cls-15" points="204.38 119.19 228.98 110.03 228.97 110.05 134.92 204.16 134.87 204.15 132.84 196.37 204.38 119.19"/>
        <g>
          <path class="cls-16" d="M113.35,177l2,7.45,7.45,2L98.88,206.09a13.52,13.52,0,0,0-2.21-2.9,13.3,13.3,0,0,0-3-2.26Z" transform="translate(14.75 24.29)"/>
          <g>
            <line class="cls-20" x1="133.88" y1="213.85" x2="125.17" y2="204.88"/>
            <line class="cls-20" x1="131.01" y1="216.1" x2="122.73" y2="207.82"/>
            <line class="cls-20" x1="127.59" y1="218.87" x2="119.99" y2="211.25"/>
            <line class="cls-20" x1="124.89" y1="221.05" x2="117.74" y2="213.9"/>
            <line class="cls-20" x1="122.26" y1="223.34" x2="115.6" y2="216.68"/>
            <line class="cls-20" x1="120.2" y1="224.98" x2="113.92" y2="218.69"/>
            <line class="cls-20" x1="118.12" y1="226.56" x2="112.2" y2="220.63"/>
            <line class="cls-20" x1="116.19" y1="228.29" x2="110.56" y2="222.66"/>
          </g>
        </g>
        <path class="cls-18" d="M111,157.74a5.62,5.62,0,0,1,7.92,0,5.61,5.61,0,0,1,0,7.93l-.07.06a5.51,5.51,0,0,1-2.21,1.31l3.47,12.75,13.07,3.55a5.56,5.56,0,0,1,1.19-2.09c.07-.07.13-.14.2-.2a5.6,5.6,0,0,1,7.92,7.92l-.21.19a5.6,5.6,0,0,1-4.5,1.4l-22.36-6.08-6-22.19a5.57,5.57,0,0,1,1.55-4.48Z" transform="translate(14.75 24.29)"/>
      </g>
    </g>
  </g>
</svg>
