<svg xmlns="http://www.w3.org/2000/svg" viewBox="0 0 376 173">
  <defs>
    <style>
      .cls-1 {
        fill: none;
        stroke: #000;
        stroke-linecap: round;
        stroke-linejoin: round;
        stroke-width: 13px;
      }
    </style>
  </defs>
  <g id="Layer_2" data-name="Layer 2">
    <path class="cls-1" d="M380,207c0-32,22.39-58,50-58s50,26,50,58" transform="translate(-373.5 -142.5)"/>
    <line class="cls-1" x1="6.5" y1="64.5" x2="6.5" y2="166.5"/>
    <path class="cls-1" d="M480,211c0-34.24,22.39-62,50-62s50,27.76,50,62" transform="translate(-373.5 -142.5)"/>
    <line class="cls-1" x1="106.5" y1="64.5" x2="106.5" y2="166.5"/>
    <path class="cls-1" d="M685,209c32,0,58,22.39,58,50s-26,50-58,50" transform="translate(-373.5 -142.5)"/>
    <line class="cls-1" x1="311.5" y1="166.5" x2="209.5" y2="166.5"/>
    <path class="cls-1" d="M638.4,209c-19.22,0-34.8-13.43-34.8-30s15.58-30,34.8-30" transform="translate(-373.5 -142.5)"/>
    <line class="cls-1" x1="264.9" y1="66.5" x2="311.5" y2="66.5"/>
    <line class="cls-1" x1="264.9" y1="6.5" x2="311.5" y2="6.5"/>
    <line class="cls-1" x1="206.5" y1="64.5" x2="206.5" y2="166.5"/>
  </g>
</svg>
