<svg id="timeline-nav" xmlns="http://www.w3.org/2000/svg" viewBox="0 0 615.78 138.53">
  <defs>
    <style>
      .timeline, .week {
        fill: #fe0;
      }

      .week {
        font-size: 14px;
        font-family: ReggaeOne-Regular, Reggae One;
      }
    </style>
  </defs>
  <path id="timeline" class="timeline" d="M940.08,299a7.49,7.49,0,0,0-7.28,5.75H897.38a7.5,7.5,0,0,0-14.68,0H846.92a7.5,7.5,0,0,0-14.68,0H797.36a7.5,7.5,0,0,0-14.68,0H747a7.5,7.5,0,0,0-14.63,0h-35a7.49,7.49,0,0,0-14.62,0H647.65a7.5,7.5,0,0,0-14.67,0H597.49a7.49,7.49,0,0,0-14.62,0H547.72a7.49,7.49,0,0,0-14.57,0H497.5a7.49,7.49,0,0,0-14.58,0H447.85a7.49,7.49,0,0,0-14.58,0H397.2a7.5,7.5,0,0,0-14.59,0H347.32a7.51,7.51,0,1,0,.09,3h35.11a7.49,7.49,0,0,0,14.77,0h35.88a7.49,7.49,0,0,0,14.77,0h34.88a7.49,7.49,0,0,0,14.77,0h35.46a7.49,7.49,0,0,0,14.77,0h35a7.49,7.49,0,0,0,14.74,0H633a7.5,7.5,0,0,0,14.71,0h35a7.49,7.49,0,0,0,14.74,0h34.91a7.5,7.5,0,0,0,14.75,0h35.57a7.5,7.5,0,0,0,14.71,0h34.84a7.5,7.5,0,0,0,14.72,0h35.74a7.5,7.5,0,0,0,14.71,0H932.7a7.49,7.49,0,1,0,7.38-8.75Z" transform="translate(-331.95 -175.42)"/>
  <text id="end" class="week" transform="translate(612.57 110.53) rotate(-90)">4 August 2021</text>
  <text id="week-12" class="week" transform="translate(564.54 110.53) rotate(-90)">28 july 2021</text>
  <text id="week-11" class="week" transform="translate(514.34 110.53) rotate(-90)">21 july 2021</text>
  <text id="week-10" class="week" transform="translate(464.14 110.53) rotate(-90)">14 july 2021</text>
  <text id="week-9" class="week" transform="translate(413.93 110.53) rotate(-90)">7 july 2021</text>
  <text id="week-8" class="week" transform="translate(363.73 110.53) rotate(-90)">30 June 2021</text>
  <text id="week-7" class="week" transform="translate(313.53 110.53) rotate(-90)">23 June 2021</text>
  <text id="week-6" class="week" transform="translate(263.33 110.53) rotate(-90)">16 June 2021</text>
  <text id="week-5" class="week" transform="translate(213.13 110.53) rotate(-90)">9 June 2021</text>
  <text id="week-4" class="week" transform="translate(162.92 110.53) rotate(-90)">2 June 2021</text>
  <text id="week-3" class="week" transform="translate(112.72 110.53) rotate(-90)">26 May 2021</text>
  <text id="week-2" class="week" transform="translate(62.52 110.53) rotate(-90)">19 May 2021</text>
  <text id="week-1" class="week" transform="translate(12.32 110.53) rotate(-90)">12 May 2021</text>
</svg>
