<svg id="Layer_1" data-name="Layer 1" xmlns="http://www.w3.org/2000/svg" viewBox="0 0 499 515.2">
  <defs>
    <style>
      .cls-1 {
        stroke: #000;
        opacity: 0.6;
      }

      .cls-1, .cls-2 {
        stroke-miterlimit: 10;
        stroke-width: 3px;
      }

      .cls-2 {
        fill: #fff;
        stroke: #fe0;
      }
    </style>
  </defs>
  <rect class="cls-1" x="1.5" y="1.5" width="496" height="512.2" rx="50.74"/>
  <path class="cls-2" d="M406,345.5v79a16.89,16.89,0,0,1-16.84,16.93H310.07c-15.09,0-22.63-18.27-12-28.92L323.61,387,248,311.36l-75.64,75.69,25.56,25.46c10.64,10.65,3.1,28.92-12,28.92h-79A16.89,16.89,0,0,1,90,424.58V345.5c0-15.09,18.26-22.64,28.92-12L144.45,359l75.66-75.61-75.67-75.69-25.52,25.61C108.27,244,90,236.45,90,221.36v-79a16.89,16.89,0,0,1,16.84-16.93h79.09c15.09,0,22.63,18.27,12,28.92l-25.53,25.53L248,255.5l75.64-75.69-25.56-25.46c-10.64-10.65-3.1-28.92,12-28.92h79A16.89,16.89,0,0,1,406,142.27v79.09c0,15.09-18.26,22.64-28.92,12l-25.53-25.54-75.66,75.62,75.67,75.68,25.52-25.53C387.73,322.86,406,330.41,406,345.5Z" transform="translate(1.5 -28.96)"/>
</svg>
