<svg id="Layer_4" data-name="Layer 4" xmlns="http://www.w3.org/2000/svg" viewBox="0 0 300 300">
  <defs>
    <style>
      .cls-1 {
        fill: #666;
      }

      .cls-2 {
        fill: #b3b3b3;
      }

      .cls-3 {
        fill: #1a1a1a;
        stroke: #666;
        stroke-miterlimit: 10;
        stroke-width: 6.13px;
      }

      .cls-4 {
        fill: #333;
      }

      .cls-5 {
        fill: #fe0;
      }
    </style>
  </defs>
  <g>
    <circle class="cls-1" cx="149.37" cy="149.67" r="142.73"/>
    <ellipse class="cls-2" cx="153.57" cy="133.37" rx="95.26" ry="67.93"/>
    <path id="_1" class="cls-3" d="M190.57,110.85c-26.4,1.86-69.08,53.61-94.76,47.2-19.18-4.79-15.65-47,11-45.18,27,1.83,74,54.14,98.9,43.56C228.06,146.91,212.36,109.31,190.57,110.85Z"/>
    <path class="cls-4" d="M150,0A150,150,0,1,0,300,150,150,150,0,0,0,150,0Zm0,229.23A79.23,79.23,0,1,1,229.23,150,79.23,79.23,0,0,1,150,229.23Z"/>
    <g id="christian_freeman" data-name="christian freeman">
      <g>
        <path class="cls-5" d="M72.43,96.06a76.53,76.53,0,0,1-7.24,12.78A31.24,31.24,0,0,1,58,116.27,14.71,14.71,0,0,1,50.89,119a13.84,13.84,0,0,1-7-1.31,32.93,32.93,0,0,1-9-5.86,23.56,23.56,0,0,1-5.21-7A17.84,17.84,0,0,1,28,97.57,14.9,14.9,0,0,1,29.28,91a38.41,38.41,0,0,1,4-6.75,28,28,0,0,1,5.23-5.45l6.26,6q-8.57,3.07-11.6,9.66A4.64,4.64,0,0,0,33.09,98a12.35,12.35,0,0,0,2.31,4,25,25,0,0,0,3.93,3.72,23.83,23.83,0,0,0,4.74,2.88,20.52,20.52,0,0,0,6.69,1.9,13.72,13.72,0,0,0,6.57-1,23.32,23.32,0,0,0,6.88-4.7,63.63,63.63,0,0,0,7.67-9Z"/>
        <path class="cls-5" d="M96.33,72,83.64,57.67l-10,10.93L84,82.15l-5,4.12-26-29.4L60.13,51l9.45,12.35,12.74-7.16-12-13.57,7.26-6,23.85,31.19Z"/>
        <path class="cls-5" d="M143.06,55.35l-24.53-13-.12-.7a15.61,15.61,0,0,0,4.7-3.35,17.32,17.32,0,0,0,3.07-4.38,12.59,12.59,0,0,0,1.28-4.38,7.51,7.51,0,0,0-.15-2.5,4.22,4.22,0,0,0-2.08-2.81,6,6,0,0,0-4.36-.22A30.37,30.37,0,0,0,114,26.68L121.4,60l-6.25,1.53L104,23.85l8.89-2.18.61,2.7a24,24,0,0,1,4.18-3.12,16.41,16.41,0,0,1,4.39-1.83,14,14,0,0,1,6.88-.26,8.84,8.84,0,0,1,4.37,2.5,9,9,0,0,1,2.12,3.91,8.43,8.43,0,0,1,.23,2.84,9.67,9.67,0,0,1-1.44,4.37,15.54,15.54,0,0,1-3.17,3.76,20.87,20.87,0,0,1-3.86,2.71l16.51,16Z"/>
        <path class="cls-5" d="M155,56.09l2.59-39.18,9.41,1-5.39,38.9Z"/>
        <path class="cls-5" d="M205.87,61.5a10.74,10.74,0,0,1-11.37,6.11,22.48,22.48,0,0,1-6.66-2A14,14,0,0,1,183.29,62a21.32,21.32,0,0,1-3.64-6.2A25.83,25.83,0,0,1,178,47.5l.47-.17a33.29,33.29,0,0,0,2.71,4.37,38.94,38.94,0,0,0,3.22,3.86,30.9,30.9,0,0,0,3.25,3,14.72,14.72,0,0,0,2.65,1.73,7,7,0,0,0,4.1.69,4.71,4.71,0,0,0,3.26-2.53l.06-.14a3.32,3.32,0,0,0-.33-2.73,29.75,29.75,0,0,0-2.33-4l-3.21-4.78c-1.13-1.67-2.15-3.34-3.08-5a20.67,20.67,0,0,1-2-4.77,5.89,5.89,0,0,1,.25-4l.18-.39a1.46,1.46,0,0,1,.21-.32,12.41,12.41,0,0,1,4.92-4.2,14.9,14.9,0,0,1,6.22-1.43,14.09,14.09,0,0,1,6.14,1.31,27.48,27.48,0,0,1,5.85,3.81,46,46,0,0,1,5.68,5.73l-6,6.25a45.61,45.61,0,0,0-3.72-8,10,10,0,0,0-4.07-3.9,5.92,5.92,0,0,0-4.33-.54,6.44,6.44,0,0,0-3.36,3.34l-.06.14a3.29,3.29,0,0,0,.07,2.59,16.9,16.9,0,0,0,1.79,3.41q1.23,1.89,2.79,4T202.39,49A37.83,37.83,0,0,1,205,53.36a15.15,15.15,0,0,1,1.46,4.12,6,6,0,0,1-.43,3.66Z"/>
      </g>
      <g>
        <path class="cls-5" d="M50,215.42l-14.28,9.77L32,220,62.8,195.62l5.33,7.45L65,205.18l13.49,11.51-6.63,4.74-8.61-15.06-11.59,7.92,11.92,10.27-6.51,4.66Z"/>
        <path class="cls-5" d="M91,274.09l-8-26.58.41-.57a15.61,15.61,0,0,0,5.69,1,17.17,17.17,0,0,0,5.27-.9,12.57,12.57,0,0,0,4-2.17A7.58,7.58,0,0,0,100,243a4.17,4.17,0,0,0,.53-3.45,6,6,0,0,0-2.9-3.26,30.4,30.4,0,0,0-6.72-3L72.46,262,67,258.59,85.9,224.17,93.71,229l-1.49,2.34a24.06,24.06,0,0,1,5.16.77,16.56,16.56,0,0,1,4.39,1.84,14,14,0,0,1,5,4.7,8.85,8.85,0,0,1,1.3,4.87,9,9,0,0,1-1.29,4.26,8.32,8.32,0,0,1-1.86,2.16,9.72,9.72,0,0,1-4.11,2.05,16.11,16.11,0,0,1-4.91.39,21.24,21.24,0,0,1-4.64-.85l.24,23Z"/>
        <path class="cls-5" d="M118.77,282.82l3.77-39.61,9.06,1.29-.64,3.77,18.54-1.72-1.15,8.06-17.73-4.3-2.09,12.56,16.26-1.45-1.13,7.92-15.47-4.49-2,12,19.32,4.89-.07.5Z"/>
        <path class="cls-5" d="M173.21,284l-11.92-38,8.85-2.33.88,3.72,16.41-8.8,2.08,7.88-18,2.93,3,12.38,14.42-7.65,2,7.74-16,1.87,2.8,11.8,19.7-3,.13.48Z"/>
        <path class="cls-5" d="M248.69,243l-20.47-21.2,8.41,26.67-.27.23L211,236.82l16.38,25.7-.57.49-28.37-28.25,7-6.09L228,235.92l-6.33-21.46,6.18-5.39,25.25,30Z"/>
        <path class="cls-5" d="M281.42,187l-14,.86-4.1,19.8,6.63,8.25-.27.7L237.8,189.19l1.8-7.83,43.39-.15Zm-33.27,2,10.09,12.38,7.86-13.45Z"/>
        <path class="cls-5" d="M285.25,126l-28.6,22.85,30.27,2.5.05.8L247.37,158l-.54-8.23,19.65-18.54-21.64-3.92-.06-.95,40.44-.75Z"/>
      </g>
    </g>
  </g>
</svg>
