<svg id="Layer_4" data-name="Layer 4" xmlns="http://www.w3.org/2000/svg" viewBox="0 0 300 300">
  <defs>
    <style>
      .cls-1 {
        fill: #666;
      }

      .cls-2 {
        fill: #b3b3b3;
      }

      .cls-3 {
        fill: gray;
      }

      .cls-4 {
        fill: #1a1a1a;
      }

      .cls-5 {
        fill: #333;
      }

      .cls-6 {
        fill: #fe0;
      }
    </style>
  </defs>
  <g>
    <circle class="cls-1" cx="149.37" cy="149.67" r="142.73"/>
    <ellipse class="cls-2" cx="153.57" cy="133.37" rx="95.26" ry="67.93"/>
    <g id="_-3" data-name="-3">
      <circle class="cls-3" cx="150.13" cy="136.57" r="32.3"/>
      <circle class="cls-4" cx="151.19" cy="136.01" r="21.22"/>
    </g>
    <path class="cls-5" d="M150,0A150,150,0,1,0,300,150,150,150,0,0,0,150,0Zm0,229.23A79.23,79.23,0,1,1,229.23,150,79.23,79.23,0,0,1,150,229.23Z"/>
    <g id="Leke_Popoola" data-name="Leke Popoola">
      <g>
        <path class="cls-6" d="M67.34,105.23,33.53,84l5.22-7.71,25.57,19L76.71,81.91l.51.41Z"/>
        <path class="cls-6" d="M89.26,77.6,65.93,45.37l7.66-5,2,3.26L88.38,30.06l4.46,6.82L76.69,45.36l6.72,10.81L94.67,44.35,99.05,51,84.47,57.88l6.39,10.31L108.6,59.1l.28.42Z"/>
        <path class="cls-6" d="M150.87,54.94,127.34,38.86l-1.76,2.28,2.22,17.07-6.25,1-7.77-38.49,8.94-1.49L125,36.65l9.7-19.87,9.38.89L132.73,32l18.84,22.89Z"/>
        <path class="cls-6" d="M161.42,56.64l8.23-38.93L178.51,20l-1.06,3.67,18.61.38L194,32l-17.13-6.29-3.51,12.25,16.33.4-2,7.74-14.86-6.21-3.35,11.66,18.65,7L188,59Z"/>
      </g>
      <g>
        <path class="cls-6" d="M32.41,220.94,62.76,196l5.47,7.34-1.24.86a38,38,0,0,1,4,3.4,30,30,0,0,1,2.91,3.32A17,17,0,0,1,77,217a9.9,9.9,0,0,1,0,5.16,6.71,6.71,0,0,1-2.44,3.58,11.94,11.94,0,0,1-4.21,1.94,12.36,12.36,0,0,1-5.65,0,20.8,20.8,0,0,1-7.05-3.22,44.35,44.35,0,0,1-8.35-7.67l-13,9.28Zm17.69-4.72a20,20,0,0,0,6,3.95,14.2,14.2,0,0,0,5.44,1.06,13.61,13.61,0,0,0,4.48-.8,13.12,13.12,0,0,0,3.13-1.61,4.43,4.43,0,0,0,1.72-3.64c0-1.6-.83-3.59-2.62-6q-.63-.84-1.41-1.77a22.09,22.09,0,0,0-1.8-1.86Z"/>
        <path class="cls-6" d="M83.5,269.66a14.38,14.38,0,0,1-4.61-4.12,20.59,20.59,0,0,1-3.22-6.46,21.14,21.14,0,0,1-.84-7.88,22.21,22.21,0,0,1,6.87-13.93,21.08,21.08,0,0,1,5.39-3.58,22.23,22.23,0,0,1,5.81-1.75,19.28,19.28,0,0,1,5.56-.08,13.62,13.62,0,0,1,4.67,1.46,13.31,13.31,0,0,1,3.73,3.1,19.51,19.51,0,0,1,3,4.71,22.62,22.62,0,0,1,1.69,5.81,20.41,20.41,0,0,1,0,6.43,21.1,21.1,0,0,1-2.3,6.59,20.8,20.8,0,0,1-5.6,6.76,21.56,21.56,0,0,1-7,3.65,20.24,20.24,0,0,1-7.11.88A14.36,14.36,0,0,1,83.5,269.66Zm3.83-2.85a6.2,6.2,0,0,0,4.41.62A10.31,10.31,0,0,0,96.31,265a18.59,18.59,0,0,0,4-5.2,30.82,30.82,0,0,0,3.21-8.36,20.92,20.92,0,0,0,.34-7,14.09,14.09,0,0,0-1.68-5.2,7.74,7.74,0,0,0-2.88-3,6.35,6.35,0,0,0-4.4-.64,10.28,10.28,0,0,0-4.61,2.34,17.15,17.15,0,0,0-4,5.11,32,32,0,0,0-3.36,8.71,19.89,19.89,0,0,0-.31,7,13.33,13.33,0,0,0,1.78,5.11A8.21,8.21,0,0,0,87.33,266.81Z"/>
        <path class="cls-6" d="M128.92,284.25,129.5,245l9.14.57-.14,1.51a38.17,38.17,0,0,1,5.17-.84,31.57,31.57,0,0,1,4.41-.08,17.31,17.31,0,0,1,6.68,1.6,10,10,0,0,1,4,3.33,6.63,6.63,0,0,1,1.15,4.18,12.17,12.17,0,0,1-1.23,4.46A12.39,12.39,0,0,1,155,264a20.78,20.78,0,0,1-7,3.3,44.37,44.37,0,0,1-11.25,1.41l-1.35,15.94Zm7.83-16.54a20,20,0,0,0,6.91-2,14.26,14.26,0,0,0,4.33-3.46,13.82,13.82,0,0,0,2.28-3.94,12.88,12.88,0,0,0,.8-3.43,4.42,4.42,0,0,0-1.67-3.66q-1.78-1.59-6.25-1.88c-.71,0-1.46-.06-2.27-.06a21.62,21.62,0,0,0-2.58.16Z"/>
        <path class="cls-6" d="M199.08,276.79a14.37,14.37,0,0,1-6.12.85,20.74,20.74,0,0,1-7-1.72,21.06,21.06,0,0,1-6.54-4.47,22.12,22.12,0,0,1-6.18-14.25,20.9,20.9,0,0,1,.76-6.43,22,22,0,0,1,2.43-5.55,18.92,18.92,0,0,1,3.53-4.3,13.66,13.66,0,0,1,4.14-2.61,13.26,13.26,0,0,1,4.78-.84,19.82,19.82,0,0,1,5.49.8,22.78,22.78,0,0,1,5.53,2.47A20.57,20.57,0,0,1,208.29,251a21.09,21.09,0,0,1,1.53,8.64,21.7,21.7,0,0,1-1.75,7.7,20.17,20.17,0,0,1-3.93,6A14.23,14.23,0,0,1,199.08,276.79Zm.3-4.76a6.21,6.21,0,0,0,3.33-3,10.42,10.42,0,0,0,1.07-5.08,18.68,18.68,0,0,0-1.39-6.4,30.58,30.58,0,0,0-4.3-7.85,20.6,20.6,0,0,0-5.11-4.79,14,14,0,0,0-5-2.08,7.65,7.65,0,0,0-4.13.26,6.42,6.42,0,0,0-3.34,2.94,10.45,10.45,0,0,0-1.2,5,17.32,17.32,0,0,0,1.32,6.35,32,32,0,0,0,4.46,8.2,20,20,0,0,0,5.16,4.79,13.4,13.4,0,0,0,5.05,1.94A8.1,8.1,0,0,0,199.38,272Z"/>
        <path class="cls-6" d="M250.8,241.3a14.69,14.69,0,0,1-5.11,3.48,20.56,20.56,0,0,1-7.05,1.57,21.1,21.1,0,0,1-7.85-1.09,20.71,20.71,0,0,1-7.51-4.53,20.22,20.22,0,0,1-4.35-5.5,21,21,0,0,1-2.18-6.09,21.83,21.83,0,0,1-.29-6.06,19.2,19.2,0,0,1,1.26-5.42,13.94,13.94,0,0,1,2.54-4.18,13.58,13.58,0,0,1,3.91-2.87,19.71,19.71,0,0,1,5.28-1.72,22.46,22.46,0,0,1,6.05-.24,20.22,20.22,0,0,1,6.23,1.59,22.37,22.37,0,0,1,11.05,10.88,21.78,21.78,0,0,1,1.85,7.68,20.26,20.26,0,0,1-.86,7.11A14.48,14.48,0,0,1,250.8,241.3ZM249,236.9a6.2,6.2,0,0,0,1.66-4.14,10.28,10.28,0,0,0-1.3-5,18.59,18.59,0,0,0-4.08-5.12,30.9,30.9,0,0,0-7.35-5.12,20.46,20.46,0,0,0-6.7-2,14,14,0,0,0-5.45.38,7.71,7.71,0,0,0-3.59,2.07,6.43,6.43,0,0,0-1.67,4.12,10.24,10.24,0,0,0,1.16,5,17.19,17.19,0,0,0,4,5.1,31.88,31.88,0,0,0,7.64,5.36,19.7,19.7,0,0,0,6.75,2,13.36,13.36,0,0,0,5.39-.5A8.13,8.13,0,0,0,249,236.9Z"/>
        <path class="cls-6" d="M276,201.9l-38.25-11.41,3-8.82,29.72,11.51,8.35-16.24.6.25Z"/>
        <path class="cls-6" d="M285,125.29l-12.19,6.88,5,19.6,9.58,4.53.06.75-40.67-10.7-1.8-7.83,39-19.1Zm-29,16.38,14.49,6.72,1.19-15.53Z"/>
      </g>
    </g>
  </g>
</svg>
