<svg xmlns="http://www.w3.org/2000/svg" viewBox="0 0 300 300">
  <defs>
    <style>
      .cls-1, .cls-13 {
        fill: #b3b3b3;
      }

      .cls-2 {
        fill: #333;
      }

      .cls-3 {
        fill: #fe0;
      }

      .cls-18, .cls-4 {
        stroke: #4d4d4d;
      }

      .cls-14, .cls-16, .cls-17, .cls-18, .cls-19, .cls-20, .cls-4, .cls-7, .cls-8, .cls-9 {
        stroke-miterlimit: 10;
      }

      .cls-16, .cls-18, .cls-19, .cls-4 {
        stroke-width: 0.18px;
      }

      .cls-4 {
        opacity: 0.6;
      }

      .cls-5 {
        fill: #4d4d4d;
      }

      .cls-10, .cls-6 {
        fill: #ccc;
      }

      .cls-7 {
        fill: none;
      }

      .cls-10, .cls-11, .cls-12, .cls-13, .cls-14, .cls-19, .cls-7, .cls-8, .cls-9 {
        stroke: #333;
      }

      .cls-7, .cls-8, .cls-9 {
        stroke-width: 0.17px;
      }

      .cls-12, .cls-16, .cls-17, .cls-8 {
        fill: #666;
      }

      .cls-9 {
        fill: gray;
      }

      .cls-10, .cls-11, .cls-12, .cls-13 {
        stroke-linecap: round;
        stroke-linejoin: round;
        stroke-width: 0.17px;
      }

      .cls-11, .cls-14, .cls-18, .cls-19 {
        fill: #999;
      }

      .cls-14 {
        stroke-width: 0.11px;
      }

      .cls-15, .cls-20 {
        fill: #e6e6e6;
      }

      .cls-16, .cls-17, .cls-20 {
        stroke: #1a1a1a;
      }

      .cls-17, .cls-20 {
        stroke-width: 0.13px;
      }
    </style>
  </defs>
  <g id="Layer_4" data-name="Layer 4">
    <g>
      <circle class="cls-1" cx="150" cy="149.67" r="142.73"/>
      <ellipse class="cls-1" cx="150" cy="133.37" rx="95.26" ry="67.93"/>
      <path class="cls-2" d="M150,0A150,150,0,1,0,300,150,150,150,0,0,0,150,0Zm0,229.23A79.23,79.23,0,1,1,229.23,150,79.23,79.23,0,0,1,150,229.23Z"/>
      <g id="Marco">
        <g>
          <path class="cls-3" d="M62.1,107,33.47,98.62l20.77,19.2-.11.34-28.22,2.3,27.3,14.35-.25.72L13.85,125l3.06-8.85,23.48-5L24.05,95.47l2.72-7.85L64,101.33Z"/>
          <path class="cls-3" d="M92.35,72.9,79.2,67.62,66.86,84l2.49,10.42-.56.52L51.5,56l5-6.38L96.29,68.31ZM61,60.33,64.9,76l13-8.89Z"/>
          <path class="cls-3" d="M133.09,56.37,107.34,45.15l-.18-.7a15.61,15.61,0,0,0,4.48-3.74,17.34,17.34,0,0,0,2.76-4.65,12.8,12.8,0,0,0,1-4.52A7.65,7.65,0,0,0,115,29a4.23,4.23,0,0,0-2.32-2.66,6,6,0,0,0-4.41.1,30.25,30.25,0,0,0-6.72,3.22l10,33-6.2,2L91.25,27.6l8.8-2.89.83,2.68a24.75,24.75,0,0,1,4-3.47,16.65,16.65,0,0,1,4.3-2.19,14.12,14.12,0,0,1,6.92-.79,8.78,8.78,0,0,1,7,6,8.44,8.44,0,0,1,.45,2.85,9.89,9.89,0,0,1-1.11,4.52,16.28,16.28,0,0,1-2.91,4,21.59,21.59,0,0,1-3.7,3l17.89,14.87Z"/>
          <path class="cls-3" d="M172.47,59.66a77.56,77.56,0,0,1-14.58-2.92,31.6,31.6,0,0,1-9.41-4.58,14.91,14.91,0,0,1-4.87-6,14,14,0,0,1-.94-7.1,33.35,33.35,0,0,1,2.81-10.49,23.71,23.71,0,0,1,5.09-7.22,18.06,18.06,0,0,1,6.41-4,15.09,15.09,0,0,1,6.76-.8,38.66,38.66,0,0,1,7.74,1.72,27.56,27.56,0,0,1,6.9,3.31l-3.79,7.91q-5.67-7.26-13-8.11a4.66,4.66,0,0,0-3.4,1,12.21,12.21,0,0,0-3.07,3.46,26.25,26.25,0,0,0-3.62,10.42,20.89,20.89,0,0,0,.29,7,13.79,13.79,0,0,0,3.07,6,23.31,23.31,0,0,0,6.68,5.13,63.66,63.66,0,0,0,11,4.54Z"/>
          <path class="cls-3" d="M195.9,71.66a14.53,14.53,0,0,1-4.37-4.48,20.89,20.89,0,0,1-2.8-6.75,21,21,0,0,1,2.9-16.29,20.74,20.74,0,0,1,4.71-5.31A21.11,21.11,0,0,1,202,35.6a22.27,22.27,0,0,1,6-1.36,19.56,19.56,0,0,1,5.62.3,13.76,13.76,0,0,1,4.61,1.81,13.31,13.31,0,0,1,3.55,3.39,19.37,19.37,0,0,1,2.65,5,22.56,22.56,0,0,1,1.3,6,22,22,0,0,1-9.4,19.41,21.9,21.9,0,0,1-7.32,3.2,20.37,20.37,0,0,1-7.24.39A14.43,14.43,0,0,1,195.9,71.66ZM200,69.05a6.23,6.23,0,0,0,4.41.93,10.48,10.48,0,0,0,4.79-2.18,18.9,18.9,0,0,0,4.38-5,31.14,31.14,0,0,0,3.82-8.22,20.75,20.75,0,0,0,.83-7,14.12,14.12,0,0,0-1.33-5.37,7.75,7.75,0,0,0-2.7-3.21,6.44,6.44,0,0,0-4.4-1,10.56,10.56,0,0,0-4.81,2A17.55,17.55,0,0,0,200.56,45a32.56,32.56,0,0,0-4,8.56,20.13,20.13,0,0,0-.8,7.08,13.4,13.4,0,0,0,1.44,5.28A8.27,8.27,0,0,0,200,69.05Z"/>
        </g>
        <g>
          <path class="cls-3" d="M52.79,185.19l4.62,8-4.12,2.24A15.35,15.35,0,0,1,58.75,198a13.49,13.49,0,0,1,3.8,4.21,11.5,11.5,0,0,1,1.59,5.58A14.11,14.11,0,0,1,63,213.56a18.31,18.31,0,0,1-3.48,5.34,22.38,22.38,0,0,1-5.41,4.28,23.89,23.89,0,0,1-6.87,2.65A19,19,0,0,1,32.46,223q-7.12-4.53-13.74-16.06Zm-28.33,26q5.82,5.22,10.57,6.85t7.89.86a21.65,21.65,0,0,0,5.66-2.31,24.2,24.2,0,0,0,5.22-4A15.07,15.07,0,0,0,57.06,208a5.34,5.34,0,0,0,.22-4.21,15,15,0,0,0-.9-1.89A15.58,15.58,0,0,0,54.23,199a14.6,14.6,0,0,0-3-2.39Z"/>
          <path class="cls-3" d="M54.69,253.64l24.44-31.33,7.33,6.15L59.83,258Z"/>
          <path class="cls-3" d="M143.26,278.6a10.86,10.86,0,0,1-9.2,9.27,23,23,0,0,1-7,.06,14.15,14.15,0,0,1-5.48-2.17,21.43,21.43,0,0,1-5.34-4.92,25.94,25.94,0,0,1-4.07-7.57l.4-.3a33,33,0,0,0,3.91,3.43,37.87,37.87,0,0,0,4.26,2.79,31.44,31.44,0,0,0,4,1.93,14.11,14.11,0,0,0,3.09.9,7,7,0,0,0,4.16-.54,4.73,4.73,0,0,0,2.41-3.41l0-.15a3.32,3.32,0,0,0-1.13-2.55,29.19,29.19,0,0,0-3.43-3.19l-4.52-3.67c-1.58-1.29-3.07-2.6-4.45-3.95a20.36,20.36,0,0,1-3.31-4,6,6,0,0,1-1-4c0-.17,0-.31.06-.43a1.92,1.92,0,0,1,.11-.37,12.67,12.67,0,0,1,3.53-5.52,15,15,0,0,1,5.6-3.22,14.18,14.18,0,0,1,6.32-.54,27.29,27.29,0,0,1,6.79,2,47,47,0,0,1,7.2,3.87l-4,7.82a46.75,46.75,0,0,0-6-6.6,10,10,0,0,0-5.08-2.57,5.91,5.91,0,0,0-4.35.75c-1.09.75-1.84,2.16-2.27,4.23l0,.15a3.38,3.38,0,0,0,.83,2.48,17.28,17.28,0,0,0,2.74,2.78q1.75,1.46,3.87,3c1.41,1,2.82,2.12,4.22,3.22A37.73,37.73,0,0,1,140,271a15.28,15.28,0,0,1,2.64,3.56,6.13,6.13,0,0,1,.66,3.67Z"/>
          <path class="cls-3" d="M187.79,239.83l.63-.19,9.36,24.83a4,4,0,0,0,.15.4,4.05,4.05,0,0,1,.17.46,12.34,12.34,0,0,1,0,7.46,14.56,14.56,0,0,1-4.1,6.38,18.16,18.16,0,0,1-7.25,4.07,15.3,15.3,0,0,1-8.36.42A13.74,13.74,0,0,1,172,280a17,17,0,0,1-4-6.46L159.49,249l9-2.74,6,24.89c.06.2.1.39.14.57s.08.36.13.52a11.47,11.47,0,0,0,4.38,6.52,7.39,7.39,0,0,0,6.55.91,5.59,5.59,0,0,0,3.15-2.53,12.65,12.65,0,0,0,1.61-4.85,25.93,25.93,0,0,0,0-6.43Z"/>
          <path class="cls-3" d="M253.38,238.5l-22.11-20,10.3,26.35-.25.25-26.39-10.25,18.29,24.83-.54.55-30.57-26.6,6.62-6.62,23.3,5.78-7.86-21.23,5.87-5.87,27.55,28.61Z"/>
          <path class="cls-3" d="M283.39,172.93l-29.15-6.27,22.1,17.66-.09.35-28,4.32,28.26,12.35-.2.74-39.77-7.74,2.42-9.05L262,178.65l-17.42-14.46,2.15-8,38.16,11Z"/>
          <path class="cls-3" d="M279.2,107.23,268,115.86l7.78,18.93L286,138l.16.75-42.27-4.9L241,126.21l36.31-24.7Zm-26.74,20.56,15.47,4.66-1-15.73Z"/>
        </g>
      </g>
    </g>
  </g>
  <g id="shied">
    <g>
      <path class="cls-4" d="M213.09,200.92c-1.64-1.65-4.47-1.66-7.13-.27L194,186.06a56.31,56.31,0,0,0,2.53-67.69l8.49-7.86L214,86.2l.26-.25v0L214,86l.06-.17-.23.23-24.24,9-8,8.62a56.36,56.36,0,0,0-62.79.13l-8.52-9.22L86,85.71l-.26-.26h0l.07.19-.17-.07.24.24,9,24.24L104,118.5a56.33,56.33,0,0,0,2.35,67.21l-12.67,15.4c-2.51-1.14-5.1-1-6.64.51-1.7,1.69-1.66,4.63-.15,7.36a11.45,11.45,0,0,0,1.91,2.53,11.31,11.31,0,0,0,2.47,1.88c2.74,1.54,5.71,1.6,7.42-.11s1.66-4.45.3-7.09l15.21-12.45a56.32,56.32,0,0,0,72,.18L200.9,206c-1.11,2.5-1,5.06.54,6.6,2.24,2.24,6.67,1.45,9.89-1.77S215.34,203.16,213.09,200.92Z"/>
      <circle class="cls-5" cx="148.68" cy="148.88" r="56.32"/>
      <circle class="cls-6" cx="148.71" cy="148.84" r="43.45"/>
    </g>
    <g>
      <path class="cls-7" d="M193.42,149.2v.1l-44.22-.1,0-44.21h0A44.21,44.21,0,0,1,193.42,149.2Z"/>
      <path class="cls-8" d="M193.42,149.3a44.23,44.23,0,0,1-44.17,44.12l-.05-44.22Z"/>
      <path class="cls-7" d="M149.25,193.42h-.05A44.21,44.21,0,0,1,105,149.2v-.09l44.21.09Z"/>
      <path class="cls-9" d="M149.2,149.2,105,149.11A44.21,44.21,0,0,1,149.15,105Z"/>
    </g>
    <g>
      <g>
        <polygon class="cls-10" points="150.13 97.44 152.35 99.86 149.95 99.82 150.09 97.47 150.13 97.44"/>
        <polygon class="cls-11" points="152.35 99.86 152.39 99.9 149.81 102.27 149.8 102.25 149.95 99.82 152.35 99.86"/>
        <polygon class="cls-12" points="149.95 99.82 149.8 102.25 147.55 99.81 147.59 99.77 149.95 99.82"/>
        <polygon class="cls-13" points="150.09 97.47 149.95 99.82 147.59 99.77 150.09 97.47"/>
      </g>
      <g>
        <polygon class="cls-10" points="163.73 99.27 165.25 102.18 162.94 101.51 163.69 99.29 163.73 99.27"/>
        <polygon class="cls-11" points="165.25 102.18 165.27 102.22 162.17 103.84 162.16 103.83 162.94 101.51 165.25 102.18"/>
        <polygon class="cls-12" points="162.94 101.51 162.16 103.83 160.63 100.89 160.67 100.86 162.94 101.51"/>
        <polygon class="cls-13" points="163.69 99.29 162.94 101.51 160.67 100.86 163.69 99.29"/>
      </g>
      <g>
        <polygon class="cls-10" points="176.39 104.55 177.1 107.75 175.05 106.51 176.34 104.56 176.39 104.55"/>
        <polygon class="cls-11" points="177.1 107.75 177.12 107.81 173.7 108.57 173.7 108.55 175.05 106.51 177.1 107.75"/>
        <polygon class="cls-12" points="175.05 106.51 173.7 108.55 172.98 105.31 173.03 105.3 175.05 106.51"/>
        <polygon class="cls-13" points="176.34 104.56 175.05 106.51 173.03 105.3 176.34 104.56"/>
      </g>
      <g>
        <polygon class="cls-10" points="187.25 112.93 187.12 116.21 185.45 114.48 187.21 112.92 187.25 112.93"/>
        <polygon class="cls-11" points="187.12 116.21 187.11 116.26 183.62 116.11 183.62 116.09 185.45 114.48 187.12 116.21"/>
        <polygon class="cls-12" points="185.45 114.48 183.62 116.09 183.76 112.78 183.81 112.78 185.45 114.48"/>
        <polygon class="cls-13" points="187.21 112.92 185.45 114.48 183.81 112.78 187.21 112.92"/>
      </g>
      <g>
        <polygon class="cls-10" points="195.58 123.83 194.6 126.97 193.44 124.86 195.53 123.82 195.58 123.83"/>
        <polygon class="cls-11" points="194.6 126.97 194.58 127.02 191.24 125.97 191.25 125.95 193.44 124.86 194.6 126.97"/>
        <polygon class="cls-12" points="193.44 124.86 191.25 125.95 192.24 122.78 192.29 122.8 193.44 124.86"/>
        <polygon class="cls-13" points="195.53 123.82 193.44 124.86 192.29 122.8 195.53 123.82"/>
      </g>
      <g>
        <polygon class="cls-10" points="200.8 136.52 199.04 139.29 198.46 136.96 200.76 136.5 200.8 136.52"/>
        <polygon class="cls-11" points="199.04 139.29 199.01 139.34 196.06 137.46 196.07 137.44 198.46 136.96 199.04 139.29"/>
        <polygon class="cls-12" points="198.46 136.96 196.07 137.44 197.85 134.65 197.89 134.67 198.46 136.96"/>
        <polygon class="cls-13" points="200.76 136.5 198.46 136.96 197.89 134.67 200.76 136.5"/>
      </g>
      <g>
        <polygon class="cls-10" points="202.56 150.13 200.14 152.35 200.18 149.95 202.53 150.09 202.56 150.13"/>
        <polygon class="cls-11" points="200.14 152.35 200.1 152.39 197.73 149.81 197.75 149.8 200.18 149.95 200.14 152.35"/>
        <polygon class="cls-12" points="200.18 149.95 197.75 149.8 200.19 147.55 200.23 147.59 200.18 149.95"/>
        <polygon class="cls-13" points="202.53 150.09 200.18 149.95 200.23 147.59 202.53 150.09"/>
      </g>
      <g>
        <polygon class="cls-10" points="200.73 163.73 197.82 165.25 198.49 162.94 200.71 163.69 200.73 163.73"/>
        <polygon class="cls-11" points="197.82 165.25 197.78 165.27 196.16 162.17 196.17 162.16 198.49 162.94 197.82 165.25"/>
        <polygon class="cls-12" points="198.49 162.94 196.17 162.16 199.12 160.63 199.14 160.67 198.49 162.94"/>
        <polygon class="cls-13" points="200.71 163.69 198.49 162.94 199.14 160.67 200.71 163.69"/>
      </g>
      <g>
        <polygon class="cls-10" points="195.45 176.39 192.25 177.1 193.49 175.05 195.44 176.34 195.45 176.39"/>
        <polygon class="cls-11" points="192.25 177.1 192.19 177.12 191.43 173.7 191.45 173.7 193.49 175.05 192.25 177.1"/>
        <polygon class="cls-12" points="193.49 175.05 191.45 173.7 194.69 172.98 194.7 173.03 193.49 175.05"/>
        <polygon class="cls-13" points="195.44 176.34 193.49 175.05 194.7 173.03 195.44 176.34"/>
      </g>
      <g>
        <polygon class="cls-10" points="187.07 187.25 183.79 187.12 185.52 185.45 187.07 187.21 187.07 187.25"/>
        <polygon class="cls-11" points="183.79 187.12 183.74 187.11 183.89 183.62 183.91 183.62 185.52 185.45 183.79 187.12"/>
        <polygon class="cls-12" points="185.52 185.45 183.91 183.62 187.22 183.76 187.22 183.81 185.52 185.45"/>
        <polygon class="cls-13" points="187.07 187.21 185.52 185.45 187.22 183.81 187.07 187.21"/>
      </g>
      <g>
        <polygon class="cls-10" points="176.17 195.58 173.03 194.6 175.14 193.44 176.18 195.53 176.17 195.58"/>
        <polygon class="cls-11" points="173.03 194.6 172.98 194.58 174.03 191.24 174.05 191.25 175.14 193.44 173.03 194.6"/>
        <polygon class="cls-12" points="175.14 193.44 174.05 191.25 177.22 192.24 177.2 192.29 175.14 193.44"/>
        <polygon class="cls-13" points="176.18 195.53 175.14 193.44 177.2 192.29 176.18 195.53"/>
      </g>
      <g>
        <polygon class="cls-10" points="163.48 200.8 160.71 199.04 163.04 198.46 163.5 200.76 163.48 200.8"/>
        <polygon class="cls-11" points="160.71 199.04 160.66 199.01 162.54 196.06 162.56 196.07 163.04 198.46 160.71 199.04"/>
        <polygon class="cls-12" points="163.04 198.46 162.56 196.07 165.35 197.85 165.33 197.89 163.04 198.46"/>
        <polygon class="cls-13" points="163.5 200.76 163.04 198.46 165.33 197.89 163.5 200.76"/>
      </g>
      <g>
        <polygon class="cls-10" points="149.87 202.56 147.65 200.14 150.05 200.18 149.91 202.53 149.87 202.56"/>
        <polygon class="cls-11" points="147.65 200.14 147.61 200.1 150.19 197.73 150.2 197.75 150.05 200.18 147.65 200.14"/>
        <polygon class="cls-12" points="150.05 200.18 150.2 197.75 152.45 200.19 152.41 200.23 150.05 200.18"/>
        <polygon class="cls-13" points="149.91 202.53 150.05 200.18 152.41 200.23 149.91 202.53"/>
      </g>
      <g>
        <polygon class="cls-10" points="136.27 200.73 134.75 197.82 137.06 198.49 136.31 200.71 136.27 200.73"/>
        <polygon class="cls-11" points="134.75 197.82 134.73 197.78 137.83 196.16 137.84 196.17 137.06 198.49 134.75 197.82"/>
        <polygon class="cls-12" points="137.06 198.49 137.84 196.17 139.37 199.12 139.33 199.14 137.06 198.49"/>
        <polygon class="cls-13" points="136.31 200.71 137.06 198.49 139.33 199.14 136.31 200.71"/>
      </g>
      <g>
        <polygon class="cls-10" points="123.61 195.45 122.89 192.25 124.95 193.49 123.66 195.44 123.61 195.45"/>
        <polygon class="cls-11" points="122.89 192.25 122.88 192.19 126.3 191.43 126.3 191.45 124.95 193.49 122.89 192.25"/>
        <polygon class="cls-12" points="124.95 193.49 126.3 191.45 127.02 194.69 126.97 194.7 124.95 193.49"/>
        <polygon class="cls-13" points="123.66 195.44 124.95 193.49 126.97 194.7 123.66 195.44"/>
      </g>
      <g>
        <polygon class="cls-10" points="112.75 187.07 112.88 183.79 114.55 185.52 112.79 187.07 112.75 187.07"/>
        <polygon class="cls-11" points="112.88 183.79 112.89 183.74 116.38 183.89 116.38 183.91 114.55 185.52 112.88 183.79"/>
        <polygon class="cls-12" points="114.55 185.52 116.38 183.91 116.24 187.22 116.19 187.22 114.55 185.52"/>
        <polygon class="cls-13" points="112.79 187.07 114.55 185.52 116.19 187.22 112.79 187.07"/>
      </g>
      <g>
        <polygon class="cls-10" points="104.42 176.17 105.4 173.03 106.56 175.14 104.47 176.18 104.42 176.17"/>
        <polygon class="cls-11" points="105.4 173.03 105.42 172.98 108.76 174.03 108.75 174.05 106.56 175.14 105.4 173.03"/>
        <polygon class="cls-12" points="106.56 175.14 108.75 174.05 107.76 177.22 107.71 177.2 106.56 175.14"/>
        <polygon class="cls-13" points="104.47 176.18 106.56 175.14 107.71 177.2 104.47 176.18"/>
      </g>
      <g>
        <polygon class="cls-10" points="99.2 163.48 100.96 160.71 101.54 163.04 99.24 163.5 99.2 163.48"/>
        <polygon class="cls-11" points="100.96 160.71 100.99 160.66 103.94 162.54 103.93 162.56 101.54 163.04 100.96 160.71"/>
        <polygon class="cls-12" points="101.54 163.04 103.93 162.56 102.15 165.35 102.11 165.33 101.54 163.04"/>
        <polygon class="cls-13" points="99.24 163.5 101.54 163.04 102.11 165.33 99.24 163.5"/>
      </g>
      <g>
        <polygon class="cls-10" points="97.44 149.87 99.86 147.65 99.82 150.05 97.47 149.91 97.44 149.87"/>
        <polygon class="cls-11" points="99.86 147.65 99.9 147.61 102.27 150.19 102.25 150.2 99.82 150.05 99.86 147.65"/>
        <polygon class="cls-12" points="99.82 150.05 102.25 150.2 99.81 152.45 99.77 152.41 99.82 150.05"/>
        <polygon class="cls-13" points="97.47 149.91 99.82 150.05 99.77 152.41 97.47 149.91"/>
      </g>
      <g>
        <polygon class="cls-10" points="99.27 136.27 102.18 134.75 101.51 137.06 99.29 136.31 99.27 136.27"/>
        <polygon class="cls-11" points="102.18 134.75 102.22 134.73 103.84 137.83 103.83 137.84 101.51 137.06 102.18 134.75"/>
        <polygon class="cls-12" points="101.51 137.06 103.83 137.84 100.89 139.37 100.86 139.33 101.51 137.06"/>
        <polygon class="cls-13" points="99.29 136.31 101.51 137.06 100.86 139.33 99.29 136.31"/>
      </g>
      <g>
        <polygon class="cls-10" points="104.55 123.61 107.75 122.89 106.51 124.95 104.56 123.66 104.55 123.61"/>
        <polygon class="cls-11" points="107.75 122.89 107.81 122.88 108.57 126.3 108.55 126.3 106.51 124.95 107.75 122.89"/>
        <polygon class="cls-12" points="106.51 124.95 108.55 126.3 105.31 127.02 105.3 126.97 106.51 124.95"/>
        <polygon class="cls-13" points="104.56 123.66 106.51 124.95 105.3 126.97 104.56 123.66"/>
      </g>
      <g>
        <polygon class="cls-10" points="112.93 112.75 116.21 112.88 114.48 114.55 112.92 112.79 112.93 112.75"/>
        <polygon class="cls-11" points="116.21 112.88 116.26 112.89 116.11 116.38 116.09 116.38 114.48 114.55 116.21 112.88"/>
        <polygon class="cls-12" points="114.48 114.55 116.09 116.38 112.78 116.24 112.78 116.19 114.48 114.55"/>
        <polygon class="cls-13" points="112.92 112.79 114.48 114.55 112.78 116.19 112.92 112.79"/>
      </g>
      <g>
        <polygon class="cls-10" points="123.83 104.42 126.97 105.4 124.86 106.56 123.82 104.47 123.83 104.42"/>
        <polygon class="cls-11" points="126.97 105.4 127.02 105.42 125.97 108.76 125.95 108.75 124.86 106.56 126.97 105.4"/>
        <polygon class="cls-12" points="124.86 106.56 125.95 108.75 122.78 107.76 122.8 107.71 124.86 106.56"/>
        <polygon class="cls-13" points="123.82 104.47 124.86 106.56 122.8 107.71 123.82 104.47"/>
      </g>
      <g>
        <polygon class="cls-10" points="136.52 99.2 139.29 100.96 136.96 101.54 136.5 99.24 136.52 99.2"/>
        <polygon class="cls-11" points="139.29 100.96 139.34 100.99 137.46 103.94 137.44 103.93 136.96 101.54 139.29 100.96"/>
        <polygon class="cls-12" points="136.96 101.54 137.44 103.93 134.65 102.15 134.67 102.11 136.96 101.54"/>
        <polygon class="cls-13" points="136.5 99.24 136.96 101.54 134.67 102.11 136.5 99.24"/>
      </g>
    </g>
    <g id="Layer_1" data-name="Layer 1">
      <g>
        <path class="cls-14" d="M201.44,212.93c-1.7-1.7-1.66-4.64-.15-7.36a11.32,11.32,0,0,1,4.38-4.41c2.74-1.55,5.71-1.6,7.42.11,2.25,2.24,1.46,6.67-1.76,9.89S203.68,215.17,201.44,212.93Z"/>
        <polygon class="cls-15" points="85.63 85.92 110.32 94.97 181.85 172.35 180.07 178.76 179.74 179.98 85.63 85.92"/>
        <polygon class="cls-6" points="94.89 110.4 85.73 85.8 85.75 85.8 179.86 179.86 179.84 179.9 178.58 180.25 172.07 181.94 94.89 110.4"/>
        <g>
          <path class="cls-16" d="M177,186.68l7.45-2,2-7.44,19.59,23.93a13.67,13.67,0,0,0-5.17,5.21Z"/>
          <g>
            <line class="cls-17" x1="189.55" y1="180.89" x2="180.58" y2="189.6"/>
            <line class="cls-17" x1="191.8" y1="183.77" x2="183.52" y2="192.05"/>
            <line class="cls-17" x1="194.57" y1="187.18" x2="186.95" y2="194.78"/>
            <line class="cls-17" x1="196.75" y1="189.88" x2="189.6" y2="197.03"/>
            <line class="cls-17" x1="199.04" y1="192.52" x2="192.38" y2="199.18"/>
            <line class="cls-17" x1="200.68" y1="194.57" x2="194.39" y2="200.86"/>
            <line class="cls-17" x1="202.26" y1="196.65" x2="196.33" y2="202.58"/>
            <line class="cls-17" x1="203.99" y1="198.58" x2="198.36" y2="204.21"/>
          </g>
        </g>
        <path class="cls-18" d="M157.74,189.08a5.51,5.51,0,0,1-1.5-2.71,5.6,5.6,0,0,1,9.42-5.21l.06.07a5.43,5.43,0,0,1,1.31,2.2l3.81-1,7.68-2.09,1.26-.35.35-1.26,2.09-7.68,1.12-4.12a5.41,5.41,0,0,1-2.1-1.2l-.2-.19a5.6,5.6,0,0,1,5.23-9.42,5.65,5.65,0,0,1,2.69,1.5l.19.2a5.58,5.58,0,0,1,1.4,4.51l-.39,1.44-1.55,5.68-2.11,7.79-2,7.44-7.45,2-7.78,2.11-5.2,1.42-1.76.47a5.54,5.54,0,0,1-4.47-1.54Z"/>
      </g>
      <g>
        <path class="cls-19" d="M87.05,201.43c-1.7,1.69-1.66,4.63-.15,7.36a11.45,11.45,0,0,0,1.91,2.53,11.31,11.31,0,0,0,2.47,1.88c2.74,1.54,5.71,1.6,7.42-.11,2.25-2.25,1.46-6.67-1.76-9.89S89.29,199.19,87.05,201.43Z"/>
        <polygon class="cls-6" points="214.1 85.64 205.05 110.32 127.67 181.86 120.05 179.74 214.1 85.64"/>
        <polygon class="cls-15" points="189.63 94.9 214.23 85.74 214.22 85.76 120.17 179.86 120.12 179.85 118.09 172.08 189.63 94.9"/>
        <g>
          <path class="cls-16" d="M113.35,177l2,7.45,7.45,2L98.88,206.09a13.52,13.52,0,0,0-2.21-2.9,13.3,13.3,0,0,0-3-2.26Z"/>
          <g>
            <line class="cls-20" x1="119.14" y1="189.56" x2="110.42" y2="180.58"/>
            <line class="cls-20" x1="116.26" y1="191.81" x2="107.98" y2="183.53"/>
            <line class="cls-20" x1="112.84" y1="194.58" x2="105.24" y2="186.96"/>
            <line class="cls-20" x1="110.15" y1="196.76" x2="102.99" y2="189.61"/>
            <line class="cls-20" x1="107.51" y1="199.05" x2="100.85" y2="192.39"/>
            <line class="cls-20" x1="105.46" y1="200.68" x2="99.17" y2="194.39"/>
            <line class="cls-20" x1="103.38" y1="202.27" x2="97.45" y2="196.34"/>
            <line class="cls-20" x1="101.45" y1="204" x2="95.81" y2="198.37"/>
          </g>
        </g>
        <path class="cls-18" d="M111,157.74a5.62,5.62,0,0,1,7.92,0,5.61,5.61,0,0,1,0,7.93l-.07.06a5.51,5.51,0,0,1-2.21,1.31l3.47,12.75,13.07,3.55a5.56,5.56,0,0,1,1.19-2.09c.07-.07.13-.14.2-.2a5.6,5.6,0,0,1,7.92,7.92l-.21.19a5.6,5.6,0,0,1-4.5,1.4l-22.36-6.08-6-22.19a5.57,5.57,0,0,1,1.55-4.48Z"/>
      </g>
    </g>
  </g>
</svg>
