<svg id="Layer_8" data-name="Layer 8" xmlns="http://www.w3.org/2000/svg" viewBox="0 0 881 42.52">
  <defs>
    <style>
      .cls-1 {
        fill: gray;
        stroke: #4d4d4d;
        stroke-miterlimit: 10;
        stroke-width: 0.8px;
      }
    </style>
  </defs>
  <rect class="cls-1" x="0.4" y="0.4" width="44.08" height="20.88"/>
  <rect class="cls-1" x="44.41" y="0.4" width="44.08" height="20.88"/>
  <rect class="cls-1" x="88.41" y="0.4" width="44.08" height="20.88"/>
  <rect class="cls-1" x="132.42" y="0.4" width="44.08" height="20.88"/>
  <rect class="cls-1" x="176.43" y="0.4" width="44.08" height="20.88"/>
  <rect class="cls-1" x="220.43" y="0.4" width="44.08" height="20.88"/>
  <rect class="cls-1" x="264.44" y="0.4" width="44.08" height="20.88"/>
  <rect class="cls-1" x="308.44" y="0.4" width="44.08" height="20.88"/>
  <rect class="cls-1" x="352.45" y="0.4" width="44.08" height="20.88"/>
  <rect class="cls-1" x="396.46" y="0.4" width="44.08" height="20.88"/>
  <rect class="cls-1" x="440.46" y="0.4" width="44.08" height="20.88"/>
  <rect class="cls-1" x="484.47" y="0.4" width="44.08" height="20.88"/>
  <rect class="cls-1" x="528.48" y="0.4" width="44.08" height="20.88"/>
  <rect class="cls-1" x="572.48" y="0.4" width="44.08" height="20.88"/>
  <rect class="cls-1" x="616.49" y="0.4" width="44.08" height="20.88"/>
  <rect class="cls-1" x="660.5" y="0.4" width="44.08" height="20.88"/>
  <rect class="cls-1" x="704.5" y="0.4" width="44.08" height="20.88"/>
  <rect class="cls-1" x="748.51" y="0.4" width="44.08" height="20.88"/>
  <rect class="cls-1" x="792.51" y="0.4" width="44.08" height="20.88"/>
  <rect class="cls-1" x="836.52" y="0.4" width="44.08" height="20.88"/>
  <rect class="cls-1" x="22.4" y="21.25" width="44.08" height="20.88"/>
  <rect class="cls-1" x="66.41" y="21.25" width="44.08" height="20.88"/>
  <rect class="cls-1" x="110.42" y="21.25" width="44.08" height="20.88"/>
  <rect class="cls-1" x="154.42" y="21.25" width="44.08" height="20.88"/>
  <rect class="cls-1" x="198.43" y="21.25" width="44.08" height="20.88"/>
  <rect class="cls-1" x="242.44" y="21.25" width="44.08" height="20.88"/>
  <rect class="cls-1" x="286.44" y="21.25" width="44.08" height="20.88"/>
  <rect class="cls-1" x="330.45" y="21.25" width="44.08" height="20.88"/>
  <rect class="cls-1" x="374.45" y="21.25" width="44.08" height="20.88"/>
  <rect class="cls-1" x="418.46" y="21.25" width="44.08" height="20.88"/>
  <rect class="cls-1" x="462.47" y="21.25" width="44.08" height="20.88"/>
  <rect class="cls-1" x="506.47" y="21.25" width="44.08" height="20.88"/>
  <rect class="cls-1" x="550.48" y="21.25" width="44.08" height="20.88"/>
  <rect class="cls-1" x="594.49" y="21.25" width="44.08" height="20.88"/>
  <rect class="cls-1" x="638.49" y="21.25" width="44.08" height="20.88"/>
  <rect class="cls-1" x="682.5" y="21.25" width="44.08" height="20.88"/>
  <rect class="cls-1" x="726.51" y="21.25" width="44.08" height="20.88"/>
  <rect class="cls-1" x="770.51" y="21.25" width="44.08" height="20.88"/>
  <rect class="cls-1" x="814.52" y="21.25" width="44.08" height="20.88"/>
</svg>
